<?xml version="1.0" encoding="us-ascii" standalone="no"?><svg xmlns="http://www.w3.org/2000/svg" xmlns:xlink="http://www.w3.org/1999/xlink" contentStyleType="text/css" height="1110px" preserveAspectRatio="none" style="width:849px;height:1110px;background:#FFFFFF;" version="1.1" viewBox="0 0 849 1110" width="849px" zoomAndPan="magnify"><defs/><g><!--class ImageResource--><g id="elem_ImageResource"><rect codeLine="4" fill="#F1F1F1" height="64.2969" id="ImageResource" rx="2.5" ry="2.5" style="stroke:#181818;stroke-width:0.5;" width="141" x="286.5" y="237.5"/><ellipse cx="301.5" cy="253.5" fill="#ADD1B2" rx="11" ry="11" style="stroke:#181818;stroke-width:1.0;"/><path d="M304.4688,259.1406 Q303.8906,259.4375 303.25,259.5781 Q302.6094,259.7344 301.9063,259.7344 Q299.4063,259.7344 298.0781,258.0938 Q296.7656,256.4375 296.7656,253.3125 Q296.7656,250.1875 298.0781,248.5313 Q299.4063,246.875 301.9063,246.875 Q302.6094,246.875 303.25,247.0313 Q303.9063,247.1875 304.4688,247.4844 L304.4688,250.2031 Q303.8438,249.625 303.25,249.3594 Q302.6563,249.0781 302.0313,249.0781 Q300.6875,249.0781 300,250.1563 Q299.3125,251.2188 299.3125,253.3125 Q299.3125,255.4063 300,256.4844 Q300.6875,257.5469 302.0313,257.5469 Q302.6563,257.5469 303.25,257.2813 Q303.8438,257 304.4688,256.4219 L304.4688,259.1406 Z " fill="#000000"/><text fill="#000000" font-family="sans-serif" font-size="14" lengthAdjust="spacing" textLength="109" x="315.5" y="258.3467">ImageResource</text><line style="stroke:#181818;stroke-width:0.5;" x1="287.5" x2="426.5" y1="269.5" y2="269.5"/><rect fill="none" height="6" style="stroke:#C82930;stroke-width:1.0;" width="6" x="294.5" y="280.1484"/><text fill="#000000" font-family="sans-serif" font-size="14" lengthAdjust="spacing" textLength="66" x="306.5" y="286.4951">url: String</text><line style="stroke:#181818;stroke-width:0.5;" x1="287.5" x2="426.5" y1="293.7969" y2="293.7969"/></g><!--class User--><g id="elem_User"><rect codeLine="10" fill="#F1F1F1" height="113.1875" id="User" rx="2.5" ry="2.5" style="stroke:#181818;stroke-width:0.5;" width="241" x="560.5" y="213"/><ellipse cx="660.75" cy="229" fill="#ADD1B2" rx="11" ry="11" style="stroke:#181818;stroke-width:1.0;"/><path d="M663.7188,234.6406 Q663.1406,234.9375 662.5,235.0781 Q661.8594,235.2344 661.1563,235.2344 Q658.6563,235.2344 657.3281,233.5938 Q656.0156,231.9375 656.0156,228.8125 Q656.0156,225.6875 657.3281,224.0313 Q658.6563,222.375 661.1563,222.375 Q661.8594,222.375 662.5,222.5313 Q663.1563,222.6875 663.7188,222.9844 L663.7188,225.7031 Q663.0938,225.125 662.5,224.8594 Q661.9063,224.5781 661.2813,224.5781 Q659.9375,224.5781 659.25,225.6563 Q658.5625,226.7188 658.5625,228.8125 Q658.5625,230.9063 659.25,231.9844 Q659.9375,233.0469 661.2813,233.0469 Q661.9063,233.0469 662.5,232.7813 Q663.0938,232.5 663.7188,231.9219 L663.7188,234.6406 Z " fill="#000000"/><text fill="#000000" font-family="sans-serif" font-size="14" lengthAdjust="spacing" textLength="32" x="681.25" y="233.8467">User</text><line style="stroke:#181818;stroke-width:0.5;" x1="561.5" x2="800.5" y1="245" y2="245"/><rect fill="none" height="6" style="stroke:#C82930;stroke-width:1.0;" width="6" x="568.5" y="255.6484"/><text fill="#000000" font-family="sans-serif" font-size="14" lengthAdjust="spacing" textLength="55" x="580.5" y="261.9951">id: UUID</text><rect fill="none" height="6" style="stroke:#C82930;stroke-width:1.0;" width="6" x="568.5" y="271.9453"/><text fill="#000000" font-family="sans-serif" font-size="14" lengthAdjust="spacing" textLength="88" x="580.5" y="278.292">name: String</text><rect fill="none" height="6" style="stroke:#C82930;stroke-width:1.0;" width="6" x="568.5" y="288.2422"/><text fill="#000000" font-family="sans-serif" font-size="14" lengthAdjust="spacing" textLength="215" x="580.5" y="294.5889">profilePicture: ImageResource?</text><rect fill="none" height="6" style="stroke:#C82930;stroke-width:1.0;" width="6" x="568.5" y="304.5391"/><text fill="#000000" font-family="sans-serif" font-size="14" lengthAdjust="spacing" textLength="165" x="580.5" y="310.8857">contactInfo: ContactInfo</text><line style="stroke:#181818;stroke-width:0.5;" x1="561.5" x2="800.5" y1="318.1875" y2="318.1875"/></g><!--class ContactInfo--><g id="elem_ContactInfo"><rect codeLine="21" fill="#F1F1F1" height="129.4844" id="ContactInfo" rx="2.5" ry="2.5" style="stroke:#181818;stroke-width:0.5;" width="150" x="606" y="7"/><ellipse cx="638.55" cy="23" fill="#ADD1B2" rx="11" ry="11" style="stroke:#181818;stroke-width:1.0;"/><path d="M641.5188,28.6406 Q640.9406,28.9375 640.3,29.0781 Q639.6594,29.2344 638.9563,29.2344 Q636.4563,29.2344 635.1281,27.5938 Q633.8156,25.9375 633.8156,22.8125 Q633.8156,19.6875 635.1281,18.0313 Q636.4563,16.375 638.9563,16.375 Q639.6594,16.375 640.3,16.5313 Q640.9563,16.6875 641.5188,16.9844 L641.5188,19.7031 Q640.8938,19.125 640.3,18.8594 Q639.7063,18.5781 639.0813,18.5781 Q637.7375,18.5781 637.05,19.6563 Q636.3625,20.7188 636.3625,22.8125 Q636.3625,24.9063 637.05,25.9844 Q637.7375,27.0469 639.0813,27.0469 Q639.7063,27.0469 640.3,26.7813 Q640.8938,26.5 641.5188,25.9219 L641.5188,28.6406 Z " fill="#000000"/><text fill="#000000" font-family="sans-serif" font-size="14" lengthAdjust="spacing" textLength="79" x="656.45" y="27.8467">ContactInfo</text><line style="stroke:#181818;stroke-width:0.5;" x1="607" x2="755" y1="39" y2="39"/><rect fill="none" height="6" style="stroke:#C82930;stroke-width:1.0;" width="6" x="614" y="49.6484"/><text fill="#000000" font-family="sans-serif" font-size="14" lengthAdjust="spacing" textLength="101" x="626" y="55.9951">phone: String?</text><rect fill="none" height="6" style="stroke:#C82930;stroke-width:1.0;" width="6" x="614" y="65.9453"/><text fill="#000000" font-family="sans-serif" font-size="14" lengthAdjust="spacing" textLength="92" x="626" y="72.292">email: String?</text><rect fill="none" height="6" style="stroke:#C82930;stroke-width:1.0;" width="6" x="614" y="82.2422"/><text fill="#000000" font-family="sans-serif" font-size="14" lengthAdjust="spacing" textLength="110" x="626" y="88.5889">website: String?</text><rect fill="none" height="6" style="stroke:#C82930;stroke-width:1.0;" width="6" x="614" y="98.5391"/><text fill="#000000" font-family="sans-serif" font-size="14" lengthAdjust="spacing" textLength="120" x="626" y="104.8857">facebook: String?</text><rect fill="none" height="6" style="stroke:#C82930;stroke-width:1.0;" width="6" x="614" y="114.8359"/><text fill="#000000" font-family="sans-serif" font-size="14" lengthAdjust="spacing" textLength="124" x="626" y="121.1826">instagram: String?</text><line style="stroke:#181818;stroke-width:0.5;" x1="607" x2="755" y1="128.4844" y2="128.4844"/></g><!--class Shop--><g id="elem_Shop"><rect codeLine="33" fill="#F1F1F1" height="194.6719" id="Shop" rx="2.5" ry="2.5" style="stroke:#181818;stroke-width:0.5;" width="290" x="220" y="403"/><ellipse cx="342.75" cy="419" fill="#ADD1B2" rx="11" ry="11" style="stroke:#181818;stroke-width:1.0;"/><path d="M345.7188,424.6406 Q345.1406,424.9375 344.5,425.0781 Q343.8594,425.2344 343.1563,425.2344 Q340.6563,425.2344 339.3281,423.5938 Q338.0156,421.9375 338.0156,418.8125 Q338.0156,415.6875 339.3281,414.0313 Q340.6563,412.375 343.1563,412.375 Q343.8594,412.375 344.5,412.5313 Q345.1563,412.6875 345.7188,412.9844 L345.7188,415.7031 Q345.0938,415.125 344.5,414.8594 Q343.9063,414.5781 343.2813,414.5781 Q341.9375,414.5781 341.25,415.6563 Q340.5625,416.7188 340.5625,418.8125 Q340.5625,420.9063 341.25,421.9844 Q341.9375,423.0469 343.2813,423.0469 Q343.9063,423.0469 344.5,422.7813 Q345.0938,422.5 345.7188,421.9219 L345.7188,424.6406 Z " fill="#000000"/><text fill="#000000" font-family="sans-serif" font-size="14" lengthAdjust="spacing" textLength="36" x="363.25" y="423.8467">Shop</text><line style="stroke:#181818;stroke-width:0.5;" x1="221" x2="509" y1="435" y2="435"/><rect fill="none" height="6" style="stroke:#C82930;stroke-width:1.0;" width="6" x="228" y="445.6484"/><text fill="#000000" font-family="sans-serif" font-size="14" lengthAdjust="spacing" textLength="55" x="240" y="451.9951">id: UUID</text><rect fill="none" height="6" style="stroke:#C82930;stroke-width:1.0;" width="6" x="228" y="461.9453"/><text fill="#000000" font-family="sans-serif" font-size="14" lengthAdjust="spacing" textLength="95" x="240" y="468.292">name: String?</text><rect fill="none" height="6" style="stroke:#C82930;stroke-width:1.0;" width="6" x="228" y="478.2422"/><text fill="#000000" font-family="sans-serif" font-size="14" lengthAdjust="spacing" textLength="133" x="240" y="484.5889">description: String?</text><rect fill="none" height="6" style="stroke:#C82930;stroke-width:1.0;" width="6" x="228" y="494.5391"/><text fill="#000000" font-family="sans-serif" font-size="14" lengthAdjust="spacing" textLength="84" x="240" y="500.8857">owner: User</text><rect fill="none" height="6" style="stroke:#C82930;stroke-width:1.0;" width="6" x="228" y="510.8359"/><text fill="#000000" font-family="sans-serif" font-size="14" lengthAdjust="spacing" textLength="264" x="240" y="517.1826">shopCategories: List&lt;ShopCategory&gt;</text><rect fill="none" height="6" style="stroke:#C82930;stroke-width:1.0;" width="6" x="228" y="527.1328"/><text fill="#000000" font-family="sans-serif" font-size="14" lengthAdjust="spacing" textLength="215" x="240" y="533.4795">images: List&lt;ImageResource&gt;</text><rect fill="none" height="6" style="stroke:#C82930;stroke-width:1.0;" width="6" x="228" y="543.4297"/><text fill="#000000" font-family="sans-serif" font-size="14" lengthAdjust="spacing" textLength="88" x="240" y="549.7764">menu: Menu</text><rect fill="none" height="6" style="stroke:#C82930;stroke-width:1.0;" width="6" x="228" y="559.7266"/><text fill="#000000" font-family="sans-serif" font-size="14" lengthAdjust="spacing" textLength="121" x="240" y="566.0732">location: Location</text><rect fill="none" height="6" style="stroke:#C82930;stroke-width:1.0;" width="6" x="228" y="576.0234"/><text fill="#000000" font-family="sans-serif" font-size="14" lengthAdjust="spacing" textLength="207" x="240" y="582.3701">openingHours: OpeningHours</text><line style="stroke:#181818;stroke-width:0.5;" x1="221" x2="509" y1="589.6719" y2="589.6719"/></g><!--class ShopCategory--><g id="elem_ShopCategory"><rect codeLine="51" fill="#F1F1F1" height="80.5938" id="ShopCategory" rx="2.5" ry="2.5" style="stroke:#181818;stroke-width:0.5;" width="130" x="7" y="683"/><ellipse cx="22" cy="699" fill="#ADD1B2" rx="11" ry="11" style="stroke:#181818;stroke-width:1.0;"/><path d="M24.9688,704.6406 Q24.3906,704.9375 23.75,705.0781 Q23.1094,705.2344 22.4063,705.2344 Q19.9063,705.2344 18.5781,703.5938 Q17.2656,701.9375 17.2656,698.8125 Q17.2656,695.6875 18.5781,694.0313 Q19.9063,692.375 22.4063,692.375 Q23.1094,692.375 23.75,692.5313 Q24.4063,692.6875 24.9688,692.9844 L24.9688,695.7031 Q24.3438,695.125 23.75,694.8594 Q23.1563,694.5781 22.5313,694.5781 Q21.1875,694.5781 20.5,695.6563 Q19.8125,696.7188 19.8125,698.8125 Q19.8125,700.9063 20.5,701.9844 Q21.1875,703.0469 22.5313,703.0469 Q23.1563,703.0469 23.75,702.7813 Q24.3438,702.5 24.9688,701.9219 L24.9688,704.6406 Z " fill="#000000"/><text fill="#000000" font-family="sans-serif" font-size="14" lengthAdjust="spacing" textLength="98" x="36" y="703.8467">ShopCategory</text><line style="stroke:#181818;stroke-width:0.5;" x1="8" x2="136" y1="715" y2="715"/><rect fill="none" height="6" style="stroke:#C82930;stroke-width:1.0;" width="6" x="15" y="725.6484"/><text fill="#000000" font-family="sans-serif" font-size="14" lengthAdjust="spacing" textLength="88" x="27" y="731.9951">name: String</text><rect fill="none" height="6" style="stroke:#C82930;stroke-width:1.0;" width="6" x="15" y="741.9453"/><text fill="#000000" font-family="sans-serif" font-size="14" lengthAdjust="spacing" textLength="79" x="27" y="748.292">color: Color</text><line style="stroke:#181818;stroke-width:0.5;" x1="8" x2="136" y1="755.5938" y2="755.5938"/></g><!--class Menu--><g id="elem_Menu"><rect codeLine="60" fill="#F1F1F1" height="64.2969" id="Menu" rx="2.5" ry="2.5" style="stroke:#181818;stroke-width:0.5;" width="189" x="172.5" y="691.5"/><ellipse cx="243.25" cy="707.5" fill="#ADD1B2" rx="11" ry="11" style="stroke:#181818;stroke-width:1.0;"/><path d="M246.2188,713.1406 Q245.6406,713.4375 245,713.5781 Q244.3594,713.7344 243.6563,713.7344 Q241.1563,713.7344 239.8281,712.0938 Q238.5156,710.4375 238.5156,707.3125 Q238.5156,704.1875 239.8281,702.5313 Q241.1563,700.875 243.6563,700.875 Q244.3594,700.875 245,701.0313 Q245.6563,701.1875 246.2188,701.4844 L246.2188,704.2031 Q245.5938,703.625 245,703.3594 Q244.4063,703.0781 243.7813,703.0781 Q242.4375,703.0781 241.75,704.1563 Q241.0625,705.2188 241.0625,707.3125 Q241.0625,709.4063 241.75,710.4844 Q242.4375,711.5469 243.7813,711.5469 Q244.4063,711.5469 245,711.2813 Q245.5938,711 246.2188,710.4219 L246.2188,713.1406 Z " fill="#000000"/><text fill="#000000" font-family="sans-serif" font-size="14" lengthAdjust="spacing" textLength="39" x="263.75" y="712.3467">Menu</text><line style="stroke:#181818;stroke-width:0.5;" x1="173.5" x2="360.5" y1="723.5" y2="723.5"/><rect fill="none" height="6" style="stroke:#C82930;stroke-width:1.0;" width="6" x="180.5" y="734.1484"/><text fill="#000000" font-family="sans-serif" font-size="14" lengthAdjust="spacing" textLength="163" x="192.5" y="740.4951">items: List&lt;MenuItem&gt;</text><line style="stroke:#181818;stroke-width:0.5;" x1="173.5" x2="360.5" y1="747.7969" y2="747.7969"/></g><!--class MenuItem--><g id="elem_MenuItem"><rect codeLine="64" fill="#F1F1F1" height="113.1875" id="MenuItem" rx="2.5" ry="2.5" style="stroke:#181818;stroke-width:0.5;" width="159" x="119.5" y="849"/><ellipse cx="160.6" cy="865" fill="#ADD1B2" rx="11" ry="11" style="stroke:#181818;stroke-width:1.0;"/><path d="M163.5688,870.6406 Q162.9906,870.9375 162.35,871.0781 Q161.7094,871.2344 161.0063,871.2344 Q158.5063,871.2344 157.1781,869.5938 Q155.8656,867.9375 155.8656,864.8125 Q155.8656,861.6875 157.1781,860.0313 Q158.5063,858.375 161.0063,858.375 Q161.7094,858.375 162.35,858.5313 Q163.0063,858.6875 163.5688,858.9844 L163.5688,861.7031 Q162.9438,861.125 162.35,860.8594 Q161.7563,860.5781 161.1313,860.5781 Q159.7875,860.5781 159.1,861.6563 Q158.4125,862.7188 158.4125,864.8125 Q158.4125,866.9063 159.1,867.9844 Q159.7875,869.0469 161.1313,869.0469 Q161.7563,869.0469 162.35,868.7813 Q162.9438,868.5 163.5688,867.9219 L163.5688,870.6406 Z " fill="#000000"/><text fill="#000000" font-family="sans-serif" font-size="14" lengthAdjust="spacing" textLength="69" x="180.4" y="869.8467">MenuItem</text><line style="stroke:#181818;stroke-width:0.5;" x1="120.5" x2="277.5" y1="881" y2="881"/><rect fill="none" height="6" style="stroke:#C82930;stroke-width:1.0;" width="6" x="127.5" y="891.6484"/><text fill="#000000" font-family="sans-serif" font-size="14" lengthAdjust="spacing" textLength="88" x="139.5" y="897.9951">name: String</text><rect fill="none" height="6" style="stroke:#C82930;stroke-width:1.0;" width="6" x="127.5" y="907.9453"/><text fill="#000000" font-family="sans-serif" font-size="14" lengthAdjust="spacing" textLength="133" x="139.5" y="914.292">description: String?</text><rect fill="none" height="6" style="stroke:#C82930;stroke-width:1.0;" width="6" x="127.5" y="924.2422"/><text fill="#000000" font-family="sans-serif" font-size="14" lengthAdjust="spacing" textLength="113" x="139.5" y="930.5889">price: PriceLabel</text><rect fill="none" height="6" style="stroke:#C82930;stroke-width:1.0;" width="6" x="127.5" y="940.5391"/><text fill="#000000" font-family="sans-serif" font-size="14" lengthAdjust="spacing" textLength="117" x="139.5" y="946.8857">inStock: Boolean</text><line style="stroke:#181818;stroke-width:0.5;" x1="120.5" x2="277.5" y1="954.1875" y2="954.1875"/></g><!--class PriceLabel--><g id="elem_PriceLabel"><rect codeLine="71" fill="#F1F1F1" height="64.2969" id="PriceLabel" rx="2.5" ry="2.5" style="stroke:#181818;stroke-width:0.5;" width="109" x="144.5" y="1039"/><ellipse cx="162.65" cy="1055" fill="#ADD1B2" rx="11" ry="11" style="stroke:#181818;stroke-width:1.0;"/><path d="M165.6188,1060.6406 Q165.0406,1060.9375 164.4,1061.0781 Q163.7594,1061.2344 163.0563,1061.2344 Q160.5563,1061.2344 159.2281,1059.5938 Q157.9156,1057.9375 157.9156,1054.8125 Q157.9156,1051.6875 159.2281,1050.0313 Q160.5563,1048.375 163.0563,1048.375 Q163.7594,1048.375 164.4,1048.5313 Q165.0563,1048.6875 165.6188,1048.9844 L165.6188,1051.7031 Q164.9938,1051.125 164.4,1050.8594 Q163.8063,1050.5781 163.1813,1050.5781 Q161.8375,1050.5781 161.15,1051.6563 Q160.4625,1052.7188 160.4625,1054.8125 Q160.4625,1056.9063 161.15,1057.9844 Q161.8375,1059.0469 163.1813,1059.0469 Q163.8063,1059.0469 164.4,1058.7813 Q164.9938,1058.5 165.6188,1057.9219 L165.6188,1060.6406 Z " fill="#000000"/><text fill="#000000" font-family="sans-serif" font-size="14" lengthAdjust="spacing" textLength="70" x="177.35" y="1059.8467">PriceLabel</text><line style="stroke:#181818;stroke-width:0.5;" x1="145.5" x2="252.5" y1="1071" y2="1071"/><rect fill="none" height="6" style="stroke:#C82930;stroke-width:1.0;" width="6" x="152.5" y="1081.6484"/><text fill="#000000" font-family="sans-serif" font-size="14" lengthAdjust="spacing" textLength="83" x="164.5" y="1087.9951">price: String</text><line style="stroke:#181818;stroke-width:0.5;" x1="145.5" x2="252.5" y1="1095.2969" y2="1095.2969"/></g><!--class OpeningHours--><g id="elem_OpeningHours"><rect codeLine="81" fill="#F1F1F1" height="48" id="OpeningHours" rx="2.5" ry="2.5" style="stroke:#181818;stroke-width:0.5;" width="132" x="397" y="699.5"/><ellipse cx="412" cy="715.5" fill="#B4A7E5" rx="11" ry="11" style="stroke:#181818;stroke-width:1.0;"/><path d="M407.9219,711.2656 L407.9219,709.1094 L415.3125,709.1094 L415.3125,711.2656 L412.8438,711.2656 L412.8438,719.3438 L415.3125,719.3438 L415.3125,721.5 L407.9219,721.5 L407.9219,719.3438 L410.3906,719.3438 L410.3906,711.2656 L407.9219,711.2656 Z " fill="#000000"/><text fill="#000000" font-family="sans-serif" font-size="14" font-style="italic" lengthAdjust="spacing" textLength="100" x="426" y="720.3467">OpeningHours</text><line style="stroke:#181818;stroke-width:0.5;" x1="398" x2="528" y1="731.5" y2="731.5"/><line style="stroke:#181818;stroke-width:0.5;" x1="398" x2="528" y1="739.5" y2="739.5"/></g><!--class TimeOpeningHours--><g id="elem_TimeOpeningHours"><rect codeLine="83" fill="#F1F1F1" height="64.2969" id="TimeOpeningHours" rx="2.5" ry="2.5" style="stroke:#181818;stroke-width:0.5;" width="299" x="313.5" y="873.5"/><ellipse cx="391.75" cy="889.5" fill="#ADD1B2" rx="11" ry="11" style="stroke:#181818;stroke-width:1.0;"/><path d="M394.7188,895.1406 Q394.1406,895.4375 393.5,895.5781 Q392.8594,895.7344 392.1563,895.7344 Q389.6563,895.7344 388.3281,894.0938 Q387.0156,892.4375 387.0156,889.3125 Q387.0156,886.1875 388.3281,884.5313 Q389.6563,882.875 392.1563,882.875 Q392.8594,882.875 393.5,883.0313 Q394.1563,883.1875 394.7188,883.4844 L394.7188,886.2031 Q394.0938,885.625 393.5,885.3594 Q392.9063,885.0781 392.2813,885.0781 Q390.9375,885.0781 390.25,886.1563 Q389.5625,887.2188 389.5625,889.3125 Q389.5625,891.4063 390.25,892.4844 Q390.9375,893.5469 392.2813,893.5469 Q392.9063,893.5469 393.5,893.2813 Q394.0938,893 394.7188,892.4219 L394.7188,895.1406 Z " fill="#000000"/><text fill="#000000" font-family="sans-serif" font-size="14" lengthAdjust="spacing" textLength="134" x="412.25" y="894.3467">TimeOpeningHours</text><line style="stroke:#181818;stroke-width:0.5;" x1="314.5" x2="611.5" y1="905.5" y2="905.5"/><rect fill="none" height="6" style="stroke:#C82930;stroke-width:1.0;" width="6" x="321.5" y="916.1484"/><text fill="#000000" font-family="sans-serif" font-size="14" lengthAdjust="spacing" textLength="273" x="333.5" y="922.4951">dayToHours: Map&lt;DayOfWeek, String&gt;</text><line style="stroke:#181818;stroke-width:0.5;" x1="314.5" x2="611.5" y1="929.7969" y2="929.7969"/></g><!--class MessageOpeningHours--><g id="elem_MessageOpeningHours"><rect codeLine="87" fill="#F1F1F1" height="64.2969" id="MessageOpeningHours" rx="2.5" ry="2.5" style="stroke:#181818;stroke-width:0.5;" width="195" x="647.5" y="873.5"/><ellipse cx="662.5" cy="889.5" fill="#ADD1B2" rx="11" ry="11" style="stroke:#181818;stroke-width:1.0;"/><path d="M665.4688,895.1406 Q664.8906,895.4375 664.25,895.5781 Q663.6094,895.7344 662.9063,895.7344 Q660.4063,895.7344 659.0781,894.0938 Q657.7656,892.4375 657.7656,889.3125 Q657.7656,886.1875 659.0781,884.5313 Q660.4063,882.875 662.9063,882.875 Q663.6094,882.875 664.25,883.0313 Q664.9063,883.1875 665.4688,883.4844 L665.4688,886.2031 Q664.8438,885.625 664.25,885.3594 Q663.6563,885.0781 663.0313,885.0781 Q661.6875,885.0781 661,886.1563 Q660.3125,887.2188 660.3125,889.3125 Q660.3125,891.4063 661,892.4844 Q661.6875,893.5469 663.0313,893.5469 Q663.6563,893.5469 664.25,893.2813 Q664.8438,893 665.4688,892.4219 L665.4688,895.1406 Z " fill="#000000"/><text fill="#000000" font-family="sans-serif" font-size="14" lengthAdjust="spacing" textLength="163" x="676.5" y="894.3467">MessageOpeningHours</text><line style="stroke:#181818;stroke-width:0.5;" x1="648.5" x2="841.5" y1="905.5" y2="905.5"/><rect fill="none" height="6" style="stroke:#C82930;stroke-width:1.0;" width="6" x="655.5" y="916.1484"/><text fill="#000000" font-family="sans-serif" font-size="14" lengthAdjust="spacing" textLength="113" x="667.5" y="922.4951">message: String</text><line style="stroke:#181818;stroke-width:0.5;" x1="648.5" x2="841.5" y1="929.7969" y2="929.7969"/></g><!--class Location--><g id="elem_Location"><rect codeLine="98" fill="#F1F1F1" height="96.8906" id="Location" rx="2.5" ry="2.5" style="stroke:#181818;stroke-width:0.5;" width="184" x="564" y="675"/><ellipse cx="622.75" cy="691" fill="#ADD1B2" rx="11" ry="11" style="stroke:#181818;stroke-width:1.0;"/><path d="M625.7188,696.6406 Q625.1406,696.9375 624.5,697.0781 Q623.8594,697.2344 623.1563,697.2344 Q620.6563,697.2344 619.3281,695.5938 Q618.0156,693.9375 618.0156,690.8125 Q618.0156,687.6875 619.3281,686.0313 Q620.6563,684.375 623.1563,684.375 Q623.8594,684.375 624.5,684.5313 Q625.1563,684.6875 625.7188,684.9844 L625.7188,687.7031 Q625.0938,687.125 624.5,686.8594 Q623.9063,686.5781 623.2813,686.5781 Q621.9375,686.5781 621.25,687.6563 Q620.5625,688.7188 620.5625,690.8125 Q620.5625,692.9063 621.25,693.9844 Q621.9375,695.0469 623.2813,695.0469 Q623.9063,695.0469 624.5,694.7813 Q625.0938,694.5 625.7188,693.9219 L625.7188,696.6406 Z " fill="#000000"/><text fill="#000000" font-family="sans-serif" font-size="14" lengthAdjust="spacing" textLength="58" x="643.25" y="695.8467">Location</text><line style="stroke:#181818;stroke-width:0.5;" x1="565" x2="747" y1="707" y2="707"/><rect fill="none" height="6" style="stroke:#C82930;stroke-width:1.0;" width="6" x="572" y="717.6484"/><text fill="#000000" font-family="sans-serif" font-size="14" lengthAdjust="spacing" textLength="105" x="584" y="723.9951">address: String</text><rect fill="none" height="6" style="stroke:#C82930;stroke-width:1.0;" width="6" x="572" y="733.9453"/><text fill="#000000" font-family="sans-serif" font-size="14" lengthAdjust="spacing" textLength="144" x="584" y="740.292">latitude: BigDecimal?</text><rect fill="none" height="6" style="stroke:#C82930;stroke-width:1.0;" width="6" x="572" y="750.2422"/><text fill="#000000" font-family="sans-serif" font-size="14" lengthAdjust="spacing" textLength="158" x="584" y="756.5889">longitude: BigDecimal?</text><line style="stroke:#181818;stroke-width:0.5;" x1="565" x2="747" y1="763.8906" y2="763.8906"/></g><!--class Review--><g id="elem_Review"><rect codeLine="108" fill="#F1F1F1" height="129.4844" id="Review" rx="2.5" ry="2.5" style="stroke:#181818;stroke-width:0.5;" width="148" x="607" y="436"/><ellipse cx="652.25" cy="452" fill="#ADD1B2" rx="11" ry="11" style="stroke:#181818;stroke-width:1.0;"/><path d="M655.2188,457.6406 Q654.6406,457.9375 654,458.0781 Q653.3594,458.2344 652.6563,458.2344 Q650.1563,458.2344 648.8281,456.5938 Q647.5156,454.9375 647.5156,451.8125 Q647.5156,448.6875 648.8281,447.0313 Q650.1563,445.375 652.6563,445.375 Q653.3594,445.375 654,445.5313 Q654.6563,445.6875 655.2188,445.9844 L655.2188,448.7031 Q654.5938,448.125 654,447.8594 Q653.4063,447.5781 652.7813,447.5781 Q651.4375,447.5781 650.75,448.6563 Q650.0625,449.7188 650.0625,451.8125 Q650.0625,453.9063 650.75,454.9844 Q651.4375,456.0469 652.7813,456.0469 Q653.4063,456.0469 654,455.7813 Q654.5938,455.5 655.2188,454.9219 L655.2188,457.6406 Z " fill="#000000"/><text fill="#000000" font-family="sans-serif" font-size="14" lengthAdjust="spacing" textLength="49" x="672.75" y="456.8467">Review</text><line style="stroke:#181818;stroke-width:0.5;" x1="608" x2="754" y1="468" y2="468"/><rect fill="none" height="6" style="stroke:#C82930;stroke-width:1.0;" width="6" x="615" y="478.6484"/><text fill="#000000" font-family="sans-serif" font-size="14" lengthAdjust="spacing" textLength="55" x="627" y="484.9951">id: UUID</text><rect fill="none" height="6" style="stroke:#C82930;stroke-width:1.0;" width="6" x="615" y="494.9453"/><text fill="#000000" font-family="sans-serif" font-size="14" lengthAdjust="spacing" textLength="72" x="627" y="501.292">user: User</text><rect fill="none" height="6" style="stroke:#C82930;stroke-width:1.0;" width="6" x="615" y="511.2422"/><text fill="#000000" font-family="sans-serif" font-size="14" lengthAdjust="spacing" textLength="80" x="627" y="517.5889">shop: Shop</text><rect fill="none" height="6" style="stroke:#C82930;stroke-width:1.0;" width="6" x="615" y="527.5391"/><text fill="#000000" font-family="sans-serif" font-size="14" lengthAdjust="spacing" textLength="65" x="627" y="533.8857">rating: int</text><rect fill="none" height="6" style="stroke:#C82930;stroke-width:1.0;" width="6" x="615" y="543.8359"/><text fill="#000000" font-family="sans-serif" font-size="14" lengthAdjust="spacing" textLength="122" x="627" y="550.1826">comment: String?</text><line style="stroke:#181818;stroke-width:0.5;" x1="608" x2="754" y1="557.4844" y2="557.4844"/></g><!--link ImageResource to User--><g id="link_ImageResource_User"><path codeLine="17" d="M427.7,269.5 C466.53,269.5 503.73,269.5 548.43,269.5 " fill="none" id="ImageResource-to-User" style="stroke:#181818;stroke-width:1.0;"/><polygon fill="#181818" points="560.43,269.5,554.43,265.5,548.43,269.5,554.43,273.5,560.43,269.5" style="stroke:#181818;stroke-width:1.0;"/><polygon fill="#000000" points="445,258.0664,454.0451,261.0053,454.0451,255.1275,445,258.0664" style="stroke:#000000;stroke-width:1.0;"/><text fill="#000000" font-family="sans-serif" font-size="13" lengthAdjust="spacing" textLength="83" x="459" y="262.5669">profilePicture</text><text fill="#000000" font-family="sans-serif" font-size="13" lengthAdjust="spacing" textLength="24" x="435.5823" y="282.2739">0..1</text><text fill="#000000" font-family="sans-serif" font-size="13" lengthAdjust="spacing" textLength="8" x="544.4497" y="266.0847">1</text></g><!--link ContactInfo to User--><g id="link_ContactInfo_User"><path codeLine="29" d="M681,136.14 C681,160.84 681,176.88 681,200.77 " fill="none" id="ContactInfo-to-User" style="stroke:#181818;stroke-width:1.0;"/><polygon fill="#181818" points="681,212.77,685,206.77,681,200.77,677,206.77,681,212.77" style="stroke:#181818;stroke-width:1.0;"/><polygon fill="#000000" points="686,169.5664,683.0611,178.6115,688.9389,178.6115,686,169.5664" style="stroke:#000000;stroke-width:1.0;"/><text fill="#000000" font-family="sans-serif" font-size="13" lengthAdjust="spacing" textLength="71" x="695" y="179.0669">contactInfo</text><text fill="#000000" font-family="sans-serif" font-size="13" lengthAdjust="spacing" textLength="8" x="672.5375" y="156.5278">1</text><text fill="#000000" font-family="sans-serif" font-size="13" lengthAdjust="spacing" textLength="8" x="672.5125" y="202.0055">1</text></g><!--link User to Shop--><g id="link_User_Shop"><path codeLine="45" d="M604.1,326.23 C572.31,349.26 544.2361,369.6075 508.1861,395.7375 " fill="none" id="User-to-Shop" style="stroke:#181818;stroke-width:1.0;"/><polygon fill="none" points="498.47,402.78,505.6756,402.4975,508.1861,395.7375,500.9806,396.02,498.47,402.78" style="stroke:#181818;stroke-width:1.0;"/><polygon fill="#000000" points="570.0487,361.6324,561,364.5603,564.4491,369.3198,570.0487,361.6324" style="stroke:#000000;stroke-width:1.0;"/><text fill="#000000" font-family="sans-serif" font-size="13" lengthAdjust="spacing" textLength="57" x="575" y="369.0669">ownedBy</text><text fill="#000000" font-family="sans-serif" font-size="13" lengthAdjust="spacing" textLength="8" x="586.2403" y="346.1216">1</text><text fill="#000000" font-family="sans-serif" font-size="13" lengthAdjust="spacing" textLength="23" x="484.8083" y="391.8086">0..*</text></g><!--link ImageResource to Shop--><g id="link_ImageResource_Shop"><path codeLine="47" d="M358.1,301.86 C359.01,328.01 359.9398,354.7274 361.2098,390.9774 " fill="none" id="ImageResource-to-Shop" style="stroke:#181818;stroke-width:1.0;"/><polygon fill="#181818" points="361.63,402.97,365.4175,396.8336,361.2098,390.9774,357.4224,397.1137,361.63,402.97" style="stroke:#181818;stroke-width:1.0;"/><polygon fill="#000000" points="365.8256,359.5694,363.2039,368.7115,369.0782,368.5065,365.8256,359.5694" style="stroke:#000000;stroke-width:1.0;"/><text fill="#000000" font-family="sans-serif" font-size="13" lengthAdjust="spacing" textLength="47" x="375" y="369.0669">images</text><text fill="#000000" font-family="sans-serif" font-size="13" lengthAdjust="spacing" textLength="23" x="333.0525" y="321.7582">0..*</text><text fill="#000000" font-family="sans-serif" font-size="13" lengthAdjust="spacing" textLength="8" x="353.0657" y="392.0132">1</text></g><!--reverse link Shop to ShopCategory--><g id="link_Shop_ShopCategory"><path codeLine="56" d="M227.3301,605.3367 C187.7601,635.1867 155.94,659.19 124.52,682.88 " fill="none" id="Shop-backto-ShopCategory" style="stroke:#181818;stroke-width:1.0;"/><polygon fill="#181818" points="236.91,598.11,229.7111,598.53,227.3301,605.3367,234.5289,604.9167,236.91,598.11" style="stroke:#181818;stroke-width:1.0;"/><polygon fill="#000000" points="194.0081,639.5772,202.9992,636.477,199.4598,631.7842,194.0081,639.5772" style="stroke:#000000;stroke-width:1.0;"/><text fill="#000000" font-family="sans-serif" font-size="13" lengthAdjust="spacing" textLength="67" x="207" y="641.0669">categories</text><text fill="#000000" font-family="sans-serif" font-size="13" lengthAdjust="spacing" textLength="8" x="219.6224" y="617.5836">1</text><text fill="#000000" font-family="sans-serif" font-size="13" lengthAdjust="spacing" textLength="23" x="108.3139" y="672.0217">0..*</text></g><!--reverse link Shop to Menu--><g id="link_Shop_Menu"><path codeLine="75" d="M317.2945,609.0794 C302.4045,642.6494 291.62,666.98 280.81,691.37 " fill="none" id="Shop-backto-Menu" style="stroke:#181818;stroke-width:1.0;"/><polygon fill="#181818" points="322.16,598.11,316.0708,601.9729,317.2945,609.0794,323.3837,605.2165,322.16,598.11" style="stroke:#181818;stroke-width:1.0;"/><polygon fill="#000000" points="310.9734,641.1373,317.3262,634.0597,311.9528,631.6773,310.9734,641.1373" style="stroke:#000000;stroke-width:1.0;"/><text fill="#000000" font-family="sans-serif" font-size="13" lengthAdjust="spacing" textLength="37" x="322" y="641.0669">menu</text><text fill="#000000" font-family="sans-serif" font-size="13" lengthAdjust="spacing" textLength="8" x="310.8666" y="617.5836">1</text><text fill="#000000" font-family="sans-serif" font-size="13" lengthAdjust="spacing" textLength="8" x="274.8333" y="680.2463">1</text></g><!--reverse link Menu to MenuItem--><g id="link_Menu_MenuItem"><path codeLine="76" d="M250.9182,767.0753 C241.2482,792.6653 231.59,818.22 220.04,848.79 " fill="none" id="Menu-backto-MenuItem" style="stroke:#181818;stroke-width:1.0;"/><polygon fill="#181818" points="255.16,755.85,249.2973,760.0487,250.9182,767.0753,256.7808,762.8766,255.16,755.85" style="stroke:#181818;stroke-width:1.0;"/><polygon fill="#000000" points="241.2326,815.2436,247.1791,807.8213,241.6807,805.7436,241.2326,815.2436" style="stroke:#000000;stroke-width:1.0;"/><text fill="#000000" font-family="sans-serif" font-size="13" lengthAdjust="spacing" textLength="36" x="252" y="815.0669">items</text><text fill="#000000" font-family="sans-serif" font-size="13" lengthAdjust="spacing" textLength="8" x="244.0415" y="775.7462">1</text><text fill="#000000" font-family="sans-serif" font-size="13" lengthAdjust="spacing" textLength="23" x="198.2027" y="838.028">0..*</text></g><!--reverse link MenuItem to PriceLabel--><g id="link_MenuItem_PriceLabel"><path codeLine="77" d="M199,974.31 C199,999.84 199,1017.14 199,1038.73 " fill="none" id="MenuItem-backto-PriceLabel" style="stroke:#181818;stroke-width:1.0;"/><polygon fill="#181818" points="199,962.31,195,968.31,199,974.31,203,968.31,199,962.31" style="stroke:#181818;stroke-width:1.0;"/><polygon fill="#000000" points="204,1005.5664,206.9389,996.5213,201.0611,996.5213,204,1005.5664" style="stroke:#000000;stroke-width:1.0;"/><text fill="#000000" font-family="sans-serif" font-size="13" lengthAdjust="spacing" textLength="65" x="213" y="1005.0669">priceLabel</text><text fill="#000000" font-family="sans-serif" font-size="13" lengthAdjust="spacing" textLength="8" x="190.5125" y="982.2113">1</text><text fill="#000000" font-family="sans-serif" font-size="13" lengthAdjust="spacing" textLength="8" x="190.2125" y="1027.951">1</text></g><!--reverse link OpeningHours to TimeOpeningHours--><g id="link_OpeningHours_TimeOpeningHours"><path codeLine="91" d="M463,765.66 C463,797.66 463,837.48 463,873.27 " fill="none" id="OpeningHours-backto-TimeOpeningHours" style="stroke:#181818;stroke-width:1.0;"/><polygon fill="none" points="463,747.66,457,765.66,469,765.66,463,747.66" style="stroke:#181818;stroke-width:1.0;"/></g><!--reverse link OpeningHours to MessageOpeningHours--><g id="link_OpeningHours_MessageOpeningHours"><path codeLine="92" d="M514.4623,757.3451 C564.5923,789.3451 640.01,837.48 696.08,873.27 " fill="none" id="OpeningHours-backto-MessageOpeningHours" style="stroke:#181818;stroke-width:1.0;"/><polygon fill="none" points="499.29,747.66,511.2339,762.4025,517.6907,752.2877,499.29,747.66" style="stroke:#181818;stroke-width:1.0;"/></g><!--reverse link Shop to OpeningHours--><g id="link_Shop_OpeningHours"><path codeLine="94" d="M412.7058,609.0792 C429.2958,646.4792 441.97,675.07 452.7,699.28 " fill="none" id="Shop-backto-OpeningHours" style="stroke:#181818;stroke-width:1.0;"/><polygon fill="#181818" points="407.84,598.11,406.6165,605.2165,412.7058,609.0792,413.9293,601.9727,407.84,598.11" style="stroke:#181818;stroke-width:1.0;"/><polygon fill="#000000" points="436.0267,641.1372,435.0471,631.6773,429.6737,634.0598,436.0267,641.1372" style="stroke:#000000;stroke-width:1.0;"/><text fill="#000000" font-family="sans-serif" font-size="13" lengthAdjust="spacing" textLength="89" x="443" y="641.0669">openingHours</text><text fill="#000000" font-family="sans-serif" font-size="13" lengthAdjust="spacing" textLength="8" x="402.5709" y="617.5836">1</text><text fill="#000000" font-family="sans-serif" font-size="13" lengthAdjust="spacing" textLength="8" x="441.2144" y="688.6313">1</text></g><!--reverse link Shop to Location--><g id="link_Shop_Location"><path codeLine="104" d="M510.7844,605.1369 C524.3444,615.1469 528.17,618.14 541,628 C560.36,642.89 581.1,659.66 599.56,674.9 " fill="none" id="Shop-backto-Location" style="stroke:#181818;stroke-width:1.0;"/><polygon fill="#181818" points="501.13,598.01,503.5816,604.7916,510.7844,605.1369,508.3328,598.3553,501.13,598.01" style="stroke:#181818;stroke-width:1.0;"/><polygon fill="#000000" points="569.9314,639.6558,564.6354,631.7562,561.0036,636.3778,569.9314,639.6558" style="stroke:#000000;stroke-width:1.0;"/><text fill="#000000" font-family="sans-serif" font-size="13" lengthAdjust="spacing" textLength="50" x="575" y="641.0669">location</text><text fill="#000000" font-family="sans-serif" font-size="13" lengthAdjust="spacing" textLength="8" x="502.8333" y="617.8055">1</text><text fill="#000000" font-family="sans-serif" font-size="13" lengthAdjust="spacing" textLength="8" x="583.0606" y="664.0949">1</text></g><!--link Shop to Review--><g id="link_Shop_Review"><path codeLine="116" d="M510.05,500.5 C543.48,500.5 565.68,500.5 594.62,500.5 " fill="none" id="Shop-to-Review" style="stroke:#181818;stroke-width:1.0;"/><polygon fill="#181818" points="606.62,500.5,600.62,496.5,594.62,500.5,600.62,504.5,606.62,500.5" style="stroke:#181818;stroke-width:1.0;"/><polygon fill="#000000" points="537.5,489.0664,528.4549,486.1275,528.4549,492.0053,537.5,489.0664" style="stroke:#000000;stroke-width:1.0;"/><text fill="#000000" font-family="sans-serif" font-size="13" lengthAdjust="spacing" textLength="47" x="541.5" y="493.5669">reviews</text><text fill="#000000" font-family="sans-serif" font-size="13" lengthAdjust="spacing" textLength="8" x="518.2012" y="497.1693">1</text><text fill="#000000" font-family="sans-serif" font-size="13" lengthAdjust="spacing" textLength="23" x="575.9713" y="513.2192">0..*</text></g><!--link User to Review--><g id="link_User_Review"><path codeLine="117" d="M681,326.23 C681,359.32 681,389.41 681,423.82 " fill="none" id="User-to-Review" style="stroke:#181818;stroke-width:1.0;"/><polygon fill="#181818" points="681,435.82,685,429.82,681,423.82,677,429.82,681,435.82" style="stroke:#181818;stroke-width:1.0;"/><polygon fill="#000000" points="686,369.5664,688.9389,360.5213,683.0611,360.5213,686,369.5664" style="stroke:#000000;stroke-width:1.0;"/><text fill="#000000" font-family="sans-serif" font-size="13" lengthAdjust="spacing" textLength="47" x="695" y="369.0669">reviews</text><text fill="#000000" font-family="sans-serif" font-size="13" lengthAdjust="spacing" textLength="8" x="672.5125" y="346.1216">1</text><text fill="#000000" font-family="sans-serif" font-size="13" lengthAdjust="spacing" textLength="23" x="656.7422" y="424.973">0..*</text></g><!--SRC=[dLLHQzim47xthn3PGw7CPNiLeOKaZ0LIMfg6FIlonHMn9IF92s7RVzz9jcNByx8rVeYbq_dkkq_VNSnHo8ffLf8zuyTSgrfcIrKeJJvyyK-Iy88PGzObo-45ZAer1_8Z8VYafDO59LkhXSoJNqboGz9_F-IcYxape4CeaL6oswrNxLQo4aBenbHfTH05F0jkQus74QI7reahQHctQtbGb2pxZOFdyyq-pyXjkY6pJtTtk8phegCavFxTHGroXjggDoL3DHrIA9aeniOJx8smV_WU68UzKiUnNKXZMOxNrn_4TUvIlnY2eaEEhYXm-wQg_xcr3cC6XcjHMQ7a-4YT96ZgTT1Q30PVCWkvqW8C9HjXx7pR6y_tNM9tRvr3T8cTHmcofkGHVrj3eJXhK6pQLGUZ0ecelkBd6F5fi8lOJ5FbLNCxQpYW7d-sE9DvadXBptdZDXPN0_fApZi60lSJBS9TwphTuyjX7w1AXzX3B1H3OFiAN8xTNWiMokv6tC4Qz_SEHU_hJ9VmNz1AfGL7zsVtsh0z5A45jbPnx8o5KWKmsIViNVj6R8Bq4oic2D- -8kh5WtputOY_K0TjAcxTl6aOQP2UDecRpNjO5jA2TiqVgx8jy5MKCBI7CZDsVbMjd1zPDL-nyzFX6y3nOrjwT2t6e2eduvJDsP2mo6_-4s6EKKouJEIOe3xwZaPTUOKqknuFnR0iquXZfBW2dMoTOOqBaQ-0OuiM3s5Wo7pYS4es8HiDO-OAp2_mNS3fRyErDXF3alf-RWqQ4yiSTIbj60WbIjb6Vmy1V7hRQRfDJ8ds2yTtF_OkUVq6]--></g></svg>