<?xml version="1.0" encoding="us-ascii" standalone="no"?><svg xmlns="http://www.w3.org/2000/svg" xmlns:xlink="http://www.w3.org/1999/xlink" contentStyleType="text/css" height="1178px" preserveAspectRatio="none" style="width:1390px;height:1178px;background:#FFFFFF;" version="1.1" viewBox="0 0 1390 1178" width="1390px" zoomAndPan="magnify"><defs/><g><!--class ImageResource--><g id="elem_ImageResource"><rect codeLine="6" fill="#F1F1F1" height="70.9531" id="ImageResource" rx="2.5" ry="2.5" style="stroke:#181818;stroke-width:0.5;" width="171" x="391.5" y="49"/><ellipse cx="407.5" cy="66" fill="#ADD1B2" rx="12" ry="12" style="stroke:#181818;stroke-width:1.0;"/><path d="M410.5,72.125 Q409.8906,72.4375 409.2031,72.5938 Q408.5313,72.75 407.7813,72.75 Q405.125,72.75 403.7344,71 Q402.3438,69.25 402.3438,65.9531 Q402.3438,62.6406 403.7344,60.8906 Q405.125,59.1406 407.7813,59.1406 Q408.5313,59.1406 409.2188,59.2969 Q409.9063,59.4531 410.5,59.7656 L410.5,62.6563 Q409.8281,62.0469 409.2031,61.7656 Q408.5781,61.4688 407.9063,61.4688 Q406.4844,61.4688 405.75,62.6094 Q405.0313,63.7344 405.0313,65.9531 Q405.0313,68.1719 405.75,69.2969 Q406.4844,70.4219 407.9063,70.4219 Q408.5781,70.4219 409.2031,70.1406 Q409.8281,69.8594 410.5,69.2344 L410.5,72.125 Z " fill="#000000"/><text fill="#000000" font-family="sans-serif" font-size="18" lengthAdjust="spacing" textLength="137" x="422.5" y="72.2314">ImageResource</text><line style="stroke:#181818;stroke-width:0.5;" x1="392.5" x2="561.5" y1="83" y2="83"/><rect fill="none" height="6" style="stroke:#C82930;stroke-width:1.0;" width="6" x="399.5" y="95.9766"/><text fill="#000000" font-family="sans-serif" font-size="18" lengthAdjust="spacing" textLength="89" x="412.5" y="103.708">url: String</text><line style="stroke:#181818;stroke-width:0.5;" x1="392.5" x2="561.5" y1="111.9531" y2="111.9531"/></g><!--class User--><g id="elem_User"><rect codeLine="12" fill="#F1F1F1" height="133.8125" id="User" rx="2.5" ry="2.5" style="stroke:#181818;stroke-width:0.5;" width="305" x="736.5" y="17.5"/><ellipse cx="864" cy="34.5" fill="#ADD1B2" rx="12" ry="12" style="stroke:#181818;stroke-width:1.0;"/><path d="M867,40.625 Q866.3906,40.9375 865.7031,41.0938 Q865.0313,41.25 864.2813,41.25 Q861.625,41.25 860.2344,39.5 Q858.8438,37.75 858.8438,34.4531 Q858.8438,31.1406 860.2344,29.3906 Q861.625,27.6406 864.2813,27.6406 Q865.0313,27.6406 865.7188,27.7969 Q866.4063,27.9531 867,28.2656 L867,31.1563 Q866.3281,30.5469 865.7031,30.2656 Q865.0781,29.9688 864.4063,29.9688 Q862.9844,29.9688 862.25,31.1094 Q861.5313,32.2344 861.5313,34.4531 Q861.5313,36.6719 862.25,37.7969 Q862.9844,38.9219 864.4063,38.9219 Q865.0781,38.9219 865.7031,38.6406 Q866.3281,38.3594 867,37.7344 L867,40.625 Z " fill="#000000"/><text fill="#000000" font-family="sans-serif" font-size="18" lengthAdjust="spacing" textLength="41" x="886" y="40.7314">User</text><line style="stroke:#181818;stroke-width:0.5;" x1="737.5" x2="1040.5" y1="51.5" y2="51.5"/><rect fill="none" height="6" style="stroke:#C82930;stroke-width:1.0;" width="6" x="744.5" y="64.4766"/><text fill="#000000" font-family="sans-serif" font-size="18" lengthAdjust="spacing" textLength="81" x="757.5" y="72.208">id: String</text><rect fill="none" height="6" style="stroke:#C82930;stroke-width:1.0;" width="6" x="744.5" y="85.4297"/><text fill="#000000" font-family="sans-serif" font-size="18" lengthAdjust="spacing" textLength="114" x="757.5" y="93.1611">name: String</text><rect fill="none" height="6" style="stroke:#C82930;stroke-width:1.0;" width="6" x="744.5" y="106.3828"/><text fill="#000000" font-family="sans-serif" font-size="18" lengthAdjust="spacing" textLength="278" x="757.5" y="114.1143">profilePicture: ImageResource?</text><rect fill="none" height="6" style="stroke:#C82930;stroke-width:1.0;" width="6" x="744.5" y="127.3359"/><text fill="#000000" font-family="sans-serif" font-size="18" lengthAdjust="spacing" textLength="212" x="757.5" y="135.0674">contactInfo: ContactInfo</text><line style="stroke:#181818;stroke-width:0.5;" x1="737.5" x2="1040.5" y1="143.3125" y2="143.3125"/></g><!--class ContactInfo--><g id="elem_ContactInfo"><rect codeLine="23" fill="#F1F1F1" height="154.7656" id="ContactInfo" rx="2.5" ry="2.5" style="stroke:#181818;stroke-width:0.5;" width="189" x="1194.5" y="7"/><ellipse cx="1234.35" cy="24" fill="#ADD1B2" rx="12" ry="12" style="stroke:#181818;stroke-width:1.0;"/><path d="M1237.35,30.125 Q1236.7406,30.4375 1236.0531,30.5938 Q1235.3813,30.75 1234.6313,30.75 Q1231.975,30.75 1230.5844,29 Q1229.1938,27.25 1229.1938,23.9531 Q1229.1938,20.6406 1230.5844,18.8906 Q1231.975,17.1406 1234.6313,17.1406 Q1235.3813,17.1406 1236.0688,17.2969 Q1236.7563,17.4531 1237.35,17.7656 L1237.35,20.6563 Q1236.6781,20.0469 1236.0531,19.7656 Q1235.4281,19.4688 1234.7563,19.4688 Q1233.3344,19.4688 1232.6,20.6094 Q1231.8813,21.7344 1231.8813,23.9531 Q1231.8813,26.1719 1232.6,27.2969 Q1233.3344,28.4219 1234.7563,28.4219 Q1235.4281,28.4219 1236.0531,28.1406 Q1236.6781,27.8594 1237.35,27.2344 L1237.35,30.125 Z " fill="#000000"/><text fill="#000000" font-family="sans-serif" font-size="18" lengthAdjust="spacing" textLength="102" x="1254.65" y="30.2314">ContactInfo</text><line style="stroke:#181818;stroke-width:0.5;" x1="1195.5" x2="1382.5" y1="41" y2="41"/><rect fill="none" height="6" style="stroke:#C82930;stroke-width:1.0;" width="6" x="1202.5" y="53.9766"/><text fill="#000000" font-family="sans-serif" font-size="18" lengthAdjust="spacing" textLength="130" x="1215.5" y="61.708">phone: String?</text><rect fill="none" height="6" style="stroke:#C82930;stroke-width:1.0;" width="6" x="1202.5" y="74.9297"/><text fill="#000000" font-family="sans-serif" font-size="18" lengthAdjust="spacing" textLength="123" x="1215.5" y="82.6611">email: String?</text><rect fill="none" height="6" style="stroke:#C82930;stroke-width:1.0;" width="6" x="1202.5" y="95.8828"/><text fill="#000000" font-family="sans-serif" font-size="18" lengthAdjust="spacing" textLength="144" x="1215.5" y="103.6143">website: String?</text><rect fill="none" height="6" style="stroke:#C82930;stroke-width:1.0;" width="6" x="1202.5" y="116.8359"/><text fill="#000000" font-family="sans-serif" font-size="18" lengthAdjust="spacing" textLength="154" x="1215.5" y="124.5674">facebook: String?</text><rect fill="none" height="6" style="stroke:#C82930;stroke-width:1.0;" width="6" x="1202.5" y="137.7891"/><text fill="#000000" font-family="sans-serif" font-size="18" lengthAdjust="spacing" textLength="162" x="1215.5" y="145.5205">instagram: String?</text><line style="stroke:#181818;stroke-width:0.5;" x1="1195.5" x2="1382.5" y1="153.7656" y2="153.7656"/></g><!--class Shop--><g id="elem_Shop"><rect codeLine="35" fill="#F1F1F1" height="238.5781" id="Shop" rx="2.5" ry="2.5" style="stroke:#181818;stroke-width:0.5;" width="361" x="311.5" y="306"/><ellipse cx="465.5" cy="323" fill="#ADD1B2" rx="12" ry="12" style="stroke:#181818;stroke-width:1.0;"/><path d="M468.5,329.125 Q467.8906,329.4375 467.2031,329.5938 Q466.5313,329.75 465.7813,329.75 Q463.125,329.75 461.7344,328 Q460.3438,326.25 460.3438,322.9531 Q460.3438,319.6406 461.7344,317.8906 Q463.125,316.1406 465.7813,316.1406 Q466.5313,316.1406 467.2188,316.2969 Q467.9063,316.4531 468.5,316.7656 L468.5,319.6563 Q467.8281,319.0469 467.2031,318.7656 Q466.5781,318.4688 465.9063,318.4688 Q464.4844,318.4688 463.75,319.6094 Q463.0313,320.7344 463.0313,322.9531 Q463.0313,325.1719 463.75,326.2969 Q464.4844,327.4219 465.9063,327.4219 Q466.5781,327.4219 467.2031,327.1406 Q467.8281,326.8594 468.5,326.2344 L468.5,329.125 Z " fill="#000000"/><text fill="#000000" font-family="sans-serif" font-size="18" lengthAdjust="spacing" textLength="44" x="487.5" y="329.2314">Shop</text><line style="stroke:#181818;stroke-width:0.5;" x1="312.5" x2="671.5" y1="340" y2="340"/><rect fill="none" height="6" style="stroke:#C82930;stroke-width:1.0;" width="6" x="319.5" y="352.9766"/><text fill="#000000" font-family="sans-serif" font-size="18" lengthAdjust="spacing" textLength="76" x="332.5" y="360.708">id: UUID</text><rect fill="none" height="6" style="stroke:#C82930;stroke-width:1.0;" width="6" x="319.5" y="373.9297"/><text fill="#000000" font-family="sans-serif" font-size="18" lengthAdjust="spacing" textLength="124" x="332.5" y="381.6611">name: String?</text><rect fill="none" height="6" style="stroke:#C82930;stroke-width:1.0;" width="6" x="319.5" y="394.8828"/><text fill="#000000" font-family="sans-serif" font-size="18" lengthAdjust="spacing" textLength="172" x="332.5" y="402.6143">description: String?</text><rect fill="none" height="6" style="stroke:#C82930;stroke-width:1.0;" width="6" x="319.5" y="415.8359"/><text fill="#000000" font-family="sans-serif" font-size="18" lengthAdjust="spacing" textLength="110" x="332.5" y="423.5674">owner: User</text><rect fill="none" height="6" style="stroke:#C82930;stroke-width:1.0;" width="6" x="319.5" y="436.7891"/><text fill="#000000" font-family="sans-serif" font-size="18" lengthAdjust="spacing" textLength="334" x="332.5" y="444.5205">shopCategories: List&lt;ShopCategory&gt;</text><rect fill="none" height="6" style="stroke:#C82930;stroke-width:1.0;" width="6" x="319.5" y="457.7422"/><text fill="#000000" font-family="sans-serif" font-size="18" lengthAdjust="spacing" textLength="271" x="332.5" y="465.4736">images: List&lt;ImageResource&gt;</text><rect fill="none" height="6" style="stroke:#C82930;stroke-width:1.0;" width="6" x="319.5" y="478.6953"/><text fill="#000000" font-family="sans-serif" font-size="18" lengthAdjust="spacing" textLength="111" x="332.5" y="486.4268">menu: Menu</text><rect fill="none" height="6" style="stroke:#C82930;stroke-width:1.0;" width="6" x="319.5" y="499.6484"/><text fill="#000000" font-family="sans-serif" font-size="18" lengthAdjust="spacing" textLength="155" x="332.5" y="507.3799">location: Location</text><rect fill="none" height="6" style="stroke:#C82930;stroke-width:1.0;" width="6" x="319.5" y="520.6016"/><text fill="#000000" font-family="sans-serif" font-size="18" lengthAdjust="spacing" textLength="261" x="332.5" y="528.333">openingHours: OpeningHours</text><line style="stroke:#181818;stroke-width:0.5;" x1="312.5" x2="671.5" y1="536.5781" y2="536.5781"/></g><!--class ShopCategory--><g id="elem_ShopCategory"><rect codeLine="53" fill="#F1F1F1" height="91.9063" id="ShopCategory" rx="2.5" ry="2.5" style="stroke:#181818;stroke-width:0.5;" width="160" x="7" y="637.5"/><ellipse cx="23" cy="654.5" fill="#ADD1B2" rx="12" ry="12" style="stroke:#181818;stroke-width:1.0;"/><path d="M26,660.625 Q25.3906,660.9375 24.7031,661.0938 Q24.0313,661.25 23.2813,661.25 Q20.625,661.25 19.2344,659.5 Q17.8438,657.75 17.8438,654.4531 Q17.8438,651.1406 19.2344,649.3906 Q20.625,647.6406 23.2813,647.6406 Q24.0313,647.6406 24.7188,647.7969 Q25.4063,647.9531 26,648.2656 L26,651.1563 Q25.3281,650.5469 24.7031,650.2656 Q24.0781,649.9688 23.4063,649.9688 Q21.9844,649.9688 21.25,651.1094 Q20.5313,652.2344 20.5313,654.4531 Q20.5313,656.6719 21.25,657.7969 Q21.9844,658.9219 23.4063,658.9219 Q24.0781,658.9219 24.7031,658.6406 Q25.3281,658.3594 26,657.7344 L26,660.625 Z " fill="#000000"/><text fill="#000000" font-family="sans-serif" font-size="18" lengthAdjust="spacing" textLength="126" x="38" y="660.7314">ShopCategory</text><line style="stroke:#181818;stroke-width:0.5;" x1="8" x2="166" y1="671.5" y2="671.5"/><rect fill="none" height="6" style="stroke:#C82930;stroke-width:1.0;" width="6" x="15" y="684.4766"/><text fill="#000000" font-family="sans-serif" font-size="18" lengthAdjust="spacing" textLength="114" x="28" y="692.208">name: String</text><rect fill="none" height="6" style="stroke:#C82930;stroke-width:1.0;" width="6" x="15" y="705.4297"/><text fill="#000000" font-family="sans-serif" font-size="18" lengthAdjust="spacing" textLength="104" x="28" y="713.1611">color: Color</text><line style="stroke:#181818;stroke-width:0.5;" x1="8" x2="166" y1="721.4063" y2="721.4063"/></g><!--class Menu--><g id="elem_Menu"><rect codeLine="62" fill="#F1F1F1" height="70.9531" id="Menu" rx="2.5" ry="2.5" style="stroke:#181818;stroke-width:0.5;" width="237" x="202.5" y="648"/><ellipse cx="292" cy="665" fill="#ADD1B2" rx="12" ry="12" style="stroke:#181818;stroke-width:1.0;"/><path d="M295,671.125 Q294.3906,671.4375 293.7031,671.5938 Q293.0313,671.75 292.2813,671.75 Q289.625,671.75 288.2344,670 Q286.8438,668.25 286.8438,664.9531 Q286.8438,661.6406 288.2344,659.8906 Q289.625,658.1406 292.2813,658.1406 Q293.0313,658.1406 293.7188,658.2969 Q294.4063,658.4531 295,658.7656 L295,661.6563 Q294.3281,661.0469 293.7031,660.7656 Q293.0781,660.4688 292.4063,660.4688 Q290.9844,660.4688 290.25,661.6094 Q289.5313,662.7344 289.5313,664.9531 Q289.5313,667.1719 290.25,668.2969 Q290.9844,669.4219 292.4063,669.4219 Q293.0781,669.4219 293.7031,669.1406 Q294.3281,668.8594 295,668.2344 L295,671.125 Z " fill="#000000"/><text fill="#000000" font-family="sans-serif" font-size="18" lengthAdjust="spacing" textLength="49" x="314" y="671.2314">Menu</text><line style="stroke:#181818;stroke-width:0.5;" x1="203.5" x2="438.5" y1="682" y2="682"/><rect fill="none" height="6" style="stroke:#C82930;stroke-width:1.0;" width="6" x="210.5" y="694.9766"/><text fill="#000000" font-family="sans-serif" font-size="18" lengthAdjust="spacing" textLength="210" x="223.5" y="702.708">items: List&lt;MenuItem&gt;</text><line style="stroke:#181818;stroke-width:0.5;" x1="203.5" x2="438.5" y1="710.9531" y2="710.9531"/></g><!--class MenuItem--><g id="elem_MenuItem"><rect codeLine="66" fill="#F1F1F1" height="133.8125" id="MenuItem" rx="2.5" ry="2.5" style="stroke:#181818;stroke-width:0.5;" width="199" x="221.5" y="853.5"/><ellipse cx="271.5" cy="870.5" fill="#ADD1B2" rx="12" ry="12" style="stroke:#181818;stroke-width:1.0;"/><path d="M274.5,876.625 Q273.8906,876.9375 273.2031,877.0938 Q272.5313,877.25 271.7813,877.25 Q269.125,877.25 267.7344,875.5 Q266.3438,873.75 266.3438,870.4531 Q266.3438,867.1406 267.7344,865.3906 Q269.125,863.6406 271.7813,863.6406 Q272.5313,863.6406 273.2188,863.7969 Q273.9063,863.9531 274.5,864.2656 L274.5,867.1563 Q273.8281,866.5469 273.2031,866.2656 Q272.5781,865.9688 271.9063,865.9688 Q270.4844,865.9688 269.75,867.1094 Q269.0313,868.2344 269.0313,870.4531 Q269.0313,872.6719 269.75,873.7969 Q270.4844,874.9219 271.9063,874.9219 Q272.5781,874.9219 273.2031,874.6406 Q273.8281,874.3594 274.5,873.7344 L274.5,876.625 Z " fill="#000000"/><text fill="#000000" font-family="sans-serif" font-size="18" lengthAdjust="spacing" textLength="90" x="293.5" y="876.7314">MenuItem</text><line style="stroke:#181818;stroke-width:0.5;" x1="222.5" x2="419.5" y1="887.5" y2="887.5"/><rect fill="none" height="6" style="stroke:#C82930;stroke-width:1.0;" width="6" x="229.5" y="900.4766"/><text fill="#000000" font-family="sans-serif" font-size="18" lengthAdjust="spacing" textLength="114" x="242.5" y="908.208">name: String</text><rect fill="none" height="6" style="stroke:#C82930;stroke-width:1.0;" width="6" x="229.5" y="921.4297"/><text fill="#000000" font-family="sans-serif" font-size="18" lengthAdjust="spacing" textLength="172" x="242.5" y="929.1611">description: String?</text><rect fill="none" height="6" style="stroke:#C82930;stroke-width:1.0;" width="6" x="229.5" y="942.3828"/><text fill="#000000" font-family="sans-serif" font-size="18" lengthAdjust="spacing" textLength="168" x="242.5" y="950.1143">price: ProductPrice</text><rect fill="none" height="6" style="stroke:#C82930;stroke-width:1.0;" width="6" x="229.5" y="963.3359"/><text fill="#000000" font-family="sans-serif" font-size="18" lengthAdjust="spacing" textLength="147" x="242.5" y="971.0674">inStock: Boolean</text><line style="stroke:#181818;stroke-width:0.5;" x1="222.5" x2="419.5" y1="979.3125" y2="979.3125"/></g><!--class ProductPrice--><g id="elem_ProductPrice"><rect codeLine="73" fill="#F1F1F1" height="70.9531" id="ProductPrice" rx="2.5" ry="2.5" style="stroke:#181818;stroke-width:0.5;" width="146" x="248" y="1101"/><ellipse cx="264" cy="1118" fill="#ADD1B2" rx="12" ry="12" style="stroke:#181818;stroke-width:1.0;"/><path d="M267,1124.125 Q266.3906,1124.4375 265.7031,1124.5938 Q265.0313,1124.75 264.2813,1124.75 Q261.625,1124.75 260.2344,1123 Q258.8438,1121.25 258.8438,1117.9531 Q258.8438,1114.6406 260.2344,1112.8906 Q261.625,1111.1406 264.2813,1111.1406 Q265.0313,1111.1406 265.7188,1111.2969 Q266.4063,1111.4531 267,1111.7656 L267,1114.6563 Q266.3281,1114.0469 265.7031,1113.7656 Q265.0781,1113.4688 264.4063,1113.4688 Q262.9844,1113.4688 262.25,1114.6094 Q261.5313,1115.7344 261.5313,1117.9531 Q261.5313,1120.1719 262.25,1121.2969 Q262.9844,1122.4219 264.4063,1122.4219 Q265.0781,1122.4219 265.7031,1122.1406 Q266.3281,1121.8594 267,1121.2344 L267,1124.125 Z " fill="#000000"/><text fill="#000000" font-family="sans-serif" font-size="18" lengthAdjust="spacing" textLength="112" x="279" y="1124.2314">ProductPrice</text><line style="stroke:#181818;stroke-width:0.5;" x1="249" x2="393" y1="1135" y2="1135"/><rect fill="none" height="6" style="stroke:#C82930;stroke-width:1.0;" width="6" x="256" y="1147.9766"/><text fill="#000000" font-family="sans-serif" font-size="18" lengthAdjust="spacing" textLength="109" x="269" y="1155.708">price: String</text><line style="stroke:#181818;stroke-width:0.5;" x1="249" x2="393" y1="1163.9531" y2="1163.9531"/></g><!--class OpeningHours--><g id="elem_OpeningHours"><rect codeLine="83" fill="#F1F1F1" height="70.9531" id="OpeningHours" rx="2.5" ry="2.5" style="stroke:#181818;stroke-width:0.5;" width="384" x="475" y="648"/><ellipse cx="599.5" cy="665" fill="#ADD1B2" rx="12" ry="12" style="stroke:#181818;stroke-width:1.0;"/><path d="M602.5,671.125 Q601.8906,671.4375 601.2031,671.5938 Q600.5313,671.75 599.7813,671.75 Q597.125,671.75 595.7344,670 Q594.3438,668.25 594.3438,664.9531 Q594.3438,661.6406 595.7344,659.8906 Q597.125,658.1406 599.7813,658.1406 Q600.5313,658.1406 601.2188,658.2969 Q601.9063,658.4531 602.5,658.7656 L602.5,661.6563 Q601.8281,661.0469 601.2031,660.7656 Q600.5781,660.4688 599.9063,660.4688 Q598.4844,660.4688 597.75,661.6094 Q597.0313,662.7344 597.0313,664.9531 Q597.0313,667.1719 597.75,668.2969 Q598.4844,669.4219 599.9063,669.4219 Q600.5781,669.4219 601.2031,669.1406 Q601.8281,668.8594 602.5,668.2344 L602.5,671.125 Z " fill="#000000"/><text fill="#000000" font-family="sans-serif" font-size="18" lengthAdjust="spacing" textLength="126" x="621.5" y="671.2314">OpeningHours</text><line style="stroke:#181818;stroke-width:0.5;" x1="476" x2="858" y1="682" y2="682"/><rect fill="none" height="6" style="stroke:#C82930;stroke-width:1.0;" width="6" x="483" y="694.9766"/><text fill="#000000" font-family="sans-serif" font-size="18" lengthAdjust="spacing" textLength="357" x="496" y="702.708">dayToHours: Map&lt;DayOfWeek, String&gt;</text><line style="stroke:#181818;stroke-width:0.5;" x1="476" x2="858" y1="710.9531" y2="710.9531"/></g><!--class DayOfWeek--><g id="elem_DayOfWeek"><rect codeLine="87" fill="#F1F1F1" height="196.6719" id="DayOfWeek" rx="2.5" ry="2.5" style="stroke:#181818;stroke-width:0.5;" width="140" x="597" y="822"/><ellipse cx="613" cy="839" fill="#EB937F" rx="12" ry="12" style="stroke:#181818;stroke-width:1.0;"/><path d="M617.1563,845.5 L608.9844,845.5 L608.9844,832.375 L617.1563,832.375 L617.1563,834.6563 L611.5625,834.6563 L611.5625,837.5 L616.625,837.5 L616.625,839.7813 L611.5625,839.7813 L611.5625,843.2188 L617.1563,843.2188 L617.1563,845.5 Z " fill="#000000"/><text fill="#000000" font-family="sans-serif" font-size="18" lengthAdjust="spacing" textLength="106" x="628" y="845.2314">DayOfWeek</text><line style="stroke:#181818;stroke-width:0.5;" x1="598" x2="736" y1="856" y2="856"/><text fill="#000000" font-family="sans-serif" font-size="18" lengthAdjust="spacing" textLength="82" x="603" y="876.708">MONDAY</text><text fill="#000000" font-family="sans-serif" font-size="18" lengthAdjust="spacing" textLength="86" x="603" y="897.6611">TUESDAY</text><text fill="#000000" font-family="sans-serif" font-size="18" lengthAdjust="spacing" textLength="118" x="603" y="918.6143">WEDNESDAY</text><text fill="#000000" font-family="sans-serif" font-size="18" lengthAdjust="spacing" textLength="102" x="603" y="939.5674">THURSDAY</text><text fill="#000000" font-family="sans-serif" font-size="18" lengthAdjust="spacing" textLength="67" x="603" y="960.5205">FRIDAY</text><text fill="#000000" font-family="sans-serif" font-size="18" lengthAdjust="spacing" textLength="100" x="603" y="981.4736">SATURDAY</text><text fill="#000000" font-family="sans-serif" font-size="18" lengthAdjust="spacing" textLength="77" x="603" y="1002.4268">SUNDAY</text><line style="stroke:#181818;stroke-width:0.5;" x1="598" x2="736" y1="1010.6719" y2="1010.6719"/></g><!--class Location--><g id="elem_Location"><rect codeLine="102" fill="#F1F1F1" height="112.8594" id="Location" rx="2.5" ry="2.5" style="stroke:#181818;stroke-width:0.5;" width="231" x="894.5" y="627"/><ellipse cx="968.5" cy="644" fill="#ADD1B2" rx="12" ry="12" style="stroke:#181818;stroke-width:1.0;"/><path d="M971.5,650.125 Q970.8906,650.4375 970.2031,650.5938 Q969.5313,650.75 968.7813,650.75 Q966.125,650.75 964.7344,649 Q963.3438,647.25 963.3438,643.9531 Q963.3438,640.6406 964.7344,638.8906 Q966.125,637.1406 968.7813,637.1406 Q969.5313,637.1406 970.2188,637.2969 Q970.9063,637.4531 971.5,637.7656 L971.5,640.6563 Q970.8281,640.0469 970.2031,639.7656 Q969.5781,639.4688 968.9063,639.4688 Q967.4844,639.4688 966.75,640.6094 Q966.0313,641.7344 966.0313,643.9531 Q966.0313,646.1719 966.75,647.2969 Q967.4844,648.4219 968.9063,648.4219 Q969.5781,648.4219 970.2031,648.1406 Q970.8281,647.8594 971.5,647.2344 L971.5,650.125 Z " fill="#000000"/><text fill="#000000" font-family="sans-serif" font-size="18" lengthAdjust="spacing" textLength="74" x="990.5" y="650.2314">Location</text><line style="stroke:#181818;stroke-width:0.5;" x1="895.5" x2="1124.5" y1="661" y2="661"/><rect fill="none" height="6" style="stroke:#C82930;stroke-width:1.0;" width="6" x="902.5" y="673.9766"/><text fill="#000000" font-family="sans-serif" font-size="18" lengthAdjust="spacing" textLength="132" x="915.5" y="681.708">address: String</text><rect fill="none" height="6" style="stroke:#C82930;stroke-width:1.0;" width="6" x="902.5" y="694.9297"/><text fill="#000000" font-family="sans-serif" font-size="18" lengthAdjust="spacing" textLength="188" x="915.5" y="702.6611">latitude: BigDecimal?</text><rect fill="none" height="6" style="stroke:#C82930;stroke-width:1.0;" width="6" x="902.5" y="715.8828"/><text fill="#000000" font-family="sans-serif" font-size="18" lengthAdjust="spacing" textLength="204" x="915.5" y="723.6143">longitude: BigDecimal?</text><line style="stroke:#181818;stroke-width:0.5;" x1="895.5" x2="1124.5" y1="731.8594" y2="731.8594"/></g><!--class Review--><g id="elem_Review"><rect codeLine="112" fill="#F1F1F1" height="133.8125" id="Review" rx="2.5" ry="2.5" style="stroke:#181818;stroke-width:0.5;" width="185" x="796.5" y="358.5"/><ellipse cx="851" cy="375.5" fill="#ADD1B2" rx="12" ry="12" style="stroke:#181818;stroke-width:1.0;"/><path d="M854,381.625 Q853.3906,381.9375 852.7031,382.0938 Q852.0313,382.25 851.2813,382.25 Q848.625,382.25 847.2344,380.5 Q845.8438,378.75 845.8438,375.4531 Q845.8438,372.1406 847.2344,370.3906 Q848.625,368.6406 851.2813,368.6406 Q852.0313,368.6406 852.7188,368.7969 Q853.4063,368.9531 854,369.2656 L854,372.1563 Q853.3281,371.5469 852.7031,371.2656 Q852.0781,370.9688 851.4063,370.9688 Q849.9844,370.9688 849.25,372.1094 Q848.5313,373.2344 848.5313,375.4531 Q848.5313,377.6719 849.25,378.7969 Q849.9844,379.9219 851.4063,379.9219 Q852.0781,379.9219 852.7031,379.6406 Q853.3281,379.3594 854,378.7344 L854,381.625 Z " fill="#000000"/><text fill="#000000" font-family="sans-serif" font-size="18" lengthAdjust="spacing" textLength="67" x="873" y="381.7314">Review</text><line style="stroke:#181818;stroke-width:0.5;" x1="797.5" x2="980.5" y1="392.5" y2="392.5"/><rect fill="none" height="6" style="stroke:#C82930;stroke-width:1.0;" width="6" x="804.5" y="405.4766"/><text fill="#000000" font-family="sans-serif" font-size="18" lengthAdjust="spacing" textLength="91" x="817.5" y="413.208">user: User</text><rect fill="none" height="6" style="stroke:#C82930;stroke-width:1.0;" width="6" x="804.5" y="426.4297"/><text fill="#000000" font-family="sans-serif" font-size="18" lengthAdjust="spacing" textLength="97" x="817.5" y="434.1611">shop: Shop</text><rect fill="none" height="6" style="stroke:#C82930;stroke-width:1.0;" width="6" x="804.5" y="447.3828"/><text fill="#000000" font-family="sans-serif" font-size="18" lengthAdjust="spacing" textLength="87" x="817.5" y="455.1143">rating: int</text><rect fill="none" height="6" style="stroke:#C82930;stroke-width:1.0;" width="6" x="804.5" y="468.3359"/><text fill="#000000" font-family="sans-serif" font-size="18" lengthAdjust="spacing" textLength="158" x="817.5" y="476.0674">comment: String?</text><line style="stroke:#181818;stroke-width:0.5;" x1="797.5" x2="980.5" y1="484.3125" y2="484.3125"/></g><!--reverse link ImageResource to User--><g id="link_ImageResource_User"><path codeLine="19" d="M574.62,84.5 C624.83,84.5 677.76,84.5 736.46,84.5 " fill="none" id="ImageResource-backto-User" style="stroke:#181818;stroke-width:1.0;"/><polygon fill="none" points="562.62,84.5,568.62,88.5,574.62,84.5,568.62,80.5,562.62,84.5" style="stroke:#181818;stroke-width:1.0;"/><polygon fill="#000000" points="580,70.9766,592.6631,75.0911,592.6631,66.8621,580,70.9766" style="stroke:#000000;stroke-width:1.0;"/><text fill="#000000" font-family="sans-serif" font-size="18" lengthAdjust="spacing" textLength="119" x="599" y="77.208">profilePicture</text><text fill="#000000" font-family="sans-serif" font-size="18" lengthAdjust="spacing" textLength="34" x="570.4768" y="102.0119">0..1</text><text fill="#000000" font-family="sans-serif" font-size="18" lengthAdjust="spacing" textLength="11" x="717.3111" y="80.7218">1</text></g><!--reverse link User to ContactInfo--><g id="link_User_ContactInfo"><path codeLine="31" d="M1053.65,84.5 C1104.95,84.5 1148.67,84.5 1194.21,84.5 " fill="none" id="User-backto-ContactInfo" style="stroke:#181818;stroke-width:1.0;"/><polygon fill="#181818" points="1041.65,84.5,1047.65,88.5,1053.65,84.5,1047.65,80.5,1041.65,84.5" style="stroke:#181818;stroke-width:1.0;"/><polygon fill="#000000" points="1073,70.9766,1060.3369,66.8621,1060.3369,75.0911,1073,70.9766" style="stroke:#000000;stroke-width:1.0;"/><text fill="#000000" font-family="sans-serif" font-size="18" lengthAdjust="spacing" textLength="98" x="1078" y="77.208">contactInfo</text><text fill="#000000" font-family="sans-serif" font-size="18" lengthAdjust="spacing" textLength="11" x="1049.3104" y="80.7513">1</text><text fill="#000000" font-family="sans-serif" font-size="18" lengthAdjust="spacing" textLength="11" x="1175.5315" y="80.4878">1</text></g><!--link User to Shop--><g id="link_User_Shop"><path codeLine="47" d="M811.51,151.67 C760.29,195.41 700.8056,246.1975 640.2956,297.8675 " fill="none" id="User-to-Shop" style="stroke:#181818;stroke-width:1.0;"/><polygon fill="none" points="631.17,305.66,638.3303,304.8056,640.2956,297.8675,633.1353,298.7219,631.17,305.66" style="stroke:#181818;stroke-width:1.0;"/><polygon fill="#000000" points="740.3234,229.931,728.0215,235.025,733.3651,241.283,740.3234,229.931" style="stroke:#000000;stroke-width:1.0;"/><text fill="#000000" font-family="sans-serif" font-size="18" lengthAdjust="spacing" textLength="83" x="747" y="240.708">ownedBy</text><text fill="#000000" font-family="sans-serif" font-size="18" lengthAdjust="spacing" textLength="11" x="792.3407" y="176.0306">1</text><text fill="#000000" font-family="sans-serif" font-size="18" lengthAdjust="spacing" textLength="32" x="607.4455" y="293.6906">0..*</text></g><!--link Shop to ImageResource--><g id="link_Shop_ImageResource"><path codeLine="49" d="M486.75,305.89 C483.85,240.36 480.46,163.64 478.53,120.19 " fill="none" id="Shop-ImageResource" style="stroke:#181818;stroke-width:1.0;"/><polygon fill="#000000" points="491.6904,227.4834,488.14,240.3161,496.3609,239.9522,491.6904,227.4834" style="stroke:#000000;stroke-width:1.0;"/><text fill="#000000" font-family="sans-serif" font-size="18" lengthAdjust="spacing" textLength="62" x="504" y="240.708">images</text><text fill="#000000" font-family="sans-serif" font-size="18" lengthAdjust="spacing" textLength="11" x="475.0277" y="293.936">1</text><text fill="#000000" font-family="sans-serif" font-size="18" lengthAdjust="spacing" textLength="32" x="444.1334" y="144.5482">0..*</text></g><!--reverse link Shop to ShopCategory--><g id="link_Shop_ShopCategory"><path codeLine="58" d="M301.2668,547.0622 C247.0568,581.3322 200.87,610.52 158.21,637.49 " fill="none" id="Shop-backto-ShopCategory" style="stroke:#181818;stroke-width:1.0;"/><polygon fill="#181818" points="311.41,540.65,304.201,540.4751,301.2668,547.0622,308.4758,547.2372,311.41,540.65" style="stroke:#181818;stroke-width:1.0;"/><polygon fill="#000000" points="255.083,590.2168,267.9854,586.9286,263.5885,579.9728,255.083,590.2168" style="stroke:#000000;stroke-width:1.0;"/><text fill="#000000" font-family="sans-serif" font-size="18" lengthAdjust="spacing" textLength="91" x="273" y="592.708">categories</text><text fill="#000000" font-family="sans-serif" font-size="18" lengthAdjust="spacing" textLength="11" x="292.5593" y="541.823">1</text><text fill="#000000" font-family="sans-serif" font-size="18" lengthAdjust="spacing" textLength="32" x="135.0091" y="625.3548">0..*</text></g><!--reverse link Shop to Menu--><g id="link_Shop_Menu"><path codeLine="77" d="M406.0938,555.1081 C381.0138,592.6481 361.89,621.29 344.06,647.98 " fill="none" id="Shop-backto-Menu" style="stroke:#181818;stroke-width:1.0;"/><polygon fill="#181818" points="412.76,545.13,406.1009,547.897,406.0938,555.1081,412.7529,552.3411,412.76,545.13" style="stroke:#181818;stroke-width:1.0;"/><polygon fill="#000000" points="395.1119,592.2975,405.567,584.0527,398.7241,579.482,395.1119,592.2975" style="stroke:#000000;stroke-width:1.0;"/><text fill="#000000" font-family="sans-serif" font-size="18" lengthAdjust="spacing" textLength="50" x="411" y="592.708">menu</text><text fill="#000000" font-family="sans-serif" font-size="18" lengthAdjust="spacing" textLength="11" x="396.861" y="569.372">1</text><text fill="#000000" font-family="sans-serif" font-size="18" lengthAdjust="spacing" textLength="11" x="336.5171" y="635.8247">1</text></g><!--reverse link Menu to MenuItem--><g id="link_Menu_MenuItem"><path codeLine="78" d="M321,731.18 C321,766.29 321,809.47 321,853.04 " fill="none" id="Menu-backto-MenuItem" style="stroke:#181818;stroke-width:1.0;"/><polygon fill="#181818" points="321,719.18,317,725.18,321,731.18,325,725.18,321,719.18" style="stroke:#181818;stroke-width:1.0;"/><polygon fill="#000000" points="328,788.4766,332.1145,775.8134,323.8855,775.8134,328,788.4766" style="stroke:#000000;stroke-width:1.0;"/><text fill="#000000" font-family="sans-serif" font-size="18" lengthAdjust="spacing" textLength="48" x="340" y="787.708">items</text><text fill="#000000" font-family="sans-serif" font-size="18" lengthAdjust="spacing" textLength="11" x="309.0891" y="743.5366">1</text><text fill="#000000" font-family="sans-serif" font-size="18" lengthAdjust="spacing" textLength="32" x="287.25" y="841.3382">0..*</text></g><!--reverse link MenuItem to ProductPrice--><g id="link_MenuItem_ProductPrice"><path codeLine="79" d="M321,999.75 C321,1037.19 321,1070.45 321,1100.93 " fill="none" id="MenuItem-backto-ProductPrice" style="stroke:#181818;stroke-width:1.0;"/><polygon fill="#181818" points="321,987.75,317,993.75,321,999.75,325,993.75,321,987.75" style="stroke:#181818;stroke-width:1.0;"/><polygon fill="#000000" points="328,1067.4766,332.1145,1054.8134,323.8855,1054.8134,328,1067.4766" style="stroke:#000000;stroke-width:1.0;"/><text fill="#000000" font-family="sans-serif" font-size="18" lengthAdjust="spacing" textLength="112" x="340" y="1066.708">productPrice</text><text fill="#000000" font-family="sans-serif" font-size="18" lengthAdjust="spacing" textLength="11" x="309.4586" y="1012.1184">1</text><text fill="#000000" font-family="sans-serif" font-size="18" lengthAdjust="spacing" textLength="11" x="308.9172" y="1088.7649">1</text></g><!--reverse link Shop to OpeningHours--><g id="link_Shop_OpeningHours"><path codeLine="97" d="M579.8717,555.0368 C605.5317,592.5768 625.15,621.29 643.4,647.98 " fill="none" id="Shop-backto-OpeningHours" style="stroke:#181818;stroke-width:1.0;"/><polygon fill="#181818" points="573.1,545.13,573.1836,552.3406,579.8717,555.0368,579.7881,547.8262,573.1,545.13" style="stroke:#181818;stroke-width:1.0;"/><polygon fill="#000000" points="616.9501,592.2556,613.2012,579.4795,606.4075,584.123,616.9501,592.2556" style="stroke:#000000;stroke-width:1.0;"/><text fill="#000000" font-family="sans-serif" font-size="18" lengthAdjust="spacing" textLength="123" x="625" y="592.708">openingHours</text><text fill="#000000" font-family="sans-serif" font-size="18" lengthAdjust="spacing" textLength="11" x="566.4706" y="569.372">1</text><text fill="#000000" font-family="sans-serif" font-size="18" lengthAdjust="spacing" textLength="11" x="626.6709" y="635.8247">1</text></g><!--reverse link OpeningHours to DayOfWeek--><g id="link_OpeningHours_DayOfWeek"><path codeLine="98" d="M667,731.18 C667,758.31 667,785.42 667,821.9 " fill="none" id="OpeningHours-backto-DayOfWeek" style="stroke:#181818;stroke-width:1.0;"/><polygon fill="#181818" points="667,719.18,663,725.18,667,731.18,671,725.18,667,719.18" style="stroke:#181818;stroke-width:1.0;"/><polygon fill="#000000" points="674,788.4766,678.1145,775.8134,669.8855,775.8134,674,788.4766" style="stroke:#000000;stroke-width:1.0;"/><text fill="#000000" font-family="sans-serif" font-size="18" lengthAdjust="spacing" textLength="107" x="686" y="787.708">dayToHours</text><text fill="#000000" font-family="sans-serif" font-size="18" lengthAdjust="spacing" textLength="11" x="655.0891" y="743.5366">1</text><text fill="#000000" font-family="sans-serif" font-size="18" lengthAdjust="spacing" textLength="32" x="633.675" y="809.6676">0..*</text></g><!--reverse link Shop to Location--><g id="link_Shop_Location"><path codeLine="108" d="M683.5683,521.1758 C758.2883,558.0958 831.82,594.44 897.44,626.87 " fill="none" id="Shop-backto-Location" style="stroke:#181818;stroke-width:1.0;"/><polygon fill="#181818" points="672.81,515.86,676.4172,522.104,683.5683,521.1758,679.9611,514.9318,672.81,515.86" style="stroke:#181818;stroke-width:1.0;"/><polygon fill="#000000" points="841.2755,589.5779,831.7459,580.2789,828.1001,587.6562,841.2755,589.5779" style="stroke:#000000;stroke-width:1.0;"/><text fill="#000000" font-family="sans-serif" font-size="18" lengthAdjust="spacing" textLength="69" x="847" y="592.708">location</text><text fill="#000000" font-family="sans-serif" font-size="18" lengthAdjust="spacing" textLength="11" x="680.67" y="515.9872">1</text><text fill="#000000" font-family="sans-serif" font-size="18" lengthAdjust="spacing" textLength="11" x="875.5563" y="617.486">1</text></g><!--link Shop to Review--><g id="link_Shop_Review"><path codeLine="119" d="M672.78,425.5 C715.56,425.5 747.44,425.5 784.4,425.5 " fill="none" id="Shop-to-Review" style="stroke:#181818;stroke-width:1.0;"/><polygon fill="#181818" points="796.4,425.5,790.4,421.5,784.4,425.5,790.4,429.5,796.4,425.5" style="stroke:#181818;stroke-width:1.0;"/><polygon fill="#000000" points="703.5,411.9766,690.8369,407.8621,690.8369,416.0911,703.5,411.9766" style="stroke:#000000;stroke-width:1.0;"/><text fill="#000000" font-family="sans-serif" font-size="18" lengthAdjust="spacing" textLength="70" x="708.5" y="418.208">reviews</text><text fill="#000000" font-family="sans-serif" font-size="18" lengthAdjust="spacing" textLength="11" x="680.6387" y="421.8151">1</text><text fill="#000000" font-family="sans-serif" font-size="18" lengthAdjust="spacing" textLength="32" x="756.4247" y="442.9843">0..*</text></g><!--link User to Review--><g id="link_User_Review"><path codeLine="120" d="M889,151.67 C889,211.4 889,286.82 889,346.5 " fill="none" id="User-to-Review" style="stroke:#181818;stroke-width:1.0;"/><polygon fill="#181818" points="889,358.5,893,352.5,889,346.5,885,352.5,889,358.5" style="stroke:#181818;stroke-width:1.0;"/><polygon fill="#000000" points="896,241.4766,900.1145,228.8134,891.8855,228.8134,896,241.4766" style="stroke:#000000;stroke-width:1.0;"/><text fill="#000000" font-family="sans-serif" font-size="18" lengthAdjust="spacing" textLength="70" x="908" y="240.708">reviews</text><text fill="#000000" font-family="sans-serif" font-size="18" lengthAdjust="spacing" textLength="11" x="877.4586" y="176.0306">1</text><text fill="#000000" font-family="sans-serif" font-size="18" lengthAdjust="spacing" textLength="32" x="855.15" y="346.3708">0..*</text></g><!--SRC=[dLNVQzim47xtNo6oXq9OolesH6XfceO6qgR4CMMFYgou8hPa97ab6_lVTvOjoVP2HkE7MFSZTzzzkZlh0nSbKQH0ATkJAZSBAKpCVp5qypsAjBVk23raIbOYVP2vLEZBmZvHH7EYDLeM96CRfcMbA4E_8mJF15KgnoWsYeii-XD5LsZo_mTTkPY9Pig7ugcFr2W4ATX0LIgvvpbxvTHK2emzK7Uj4uNw23LBiPSOFGIX1cWpZcv6QBAIQFJj-XgE_Shm80cw_NHPdPo-kl9T2b-DGyeAmlEXyeFjD3V_-Eu9PJif3qCz5zgG32um6BfrZYVsrOM4kmnTK5xyBilUhIN9SdxYpXp2b6cgU6cu54EJ_11COTi7hKP3y0TYM2OLPngZ5TTc6WVbyTObhc_DEVIkq7aKJ5GOFSDlgyWb9GsALNjoC4ec0DKJ_1qYhZjIlsScawPfngE616mBI6T7D8qYgsdSdDEminhC5rBk2F3KdvWFMazktVJmgg5xJEC0gXSBUi6JVG6kcjpG2eOLxa9gmnBasnf5yArLv_2VQPLISGhkhqgc5JMljUGd83QImc3CfCmP4I5brpbCOXCeBAq-IV2sLM7RFy29bGOS-bfmKtNhPbNTI3q0ThC4yVDiTnlJbvEIurQsdVjCokcS7DVxDyOENziIxHK0k09vK_ldv_NB_Fw7FMwJnzYTtnxdBq7QFYKRBomsItUCxxV9nWk9ZNIAp1vet1ireA1d7P0SuE9EbHVmvgRTSqRIL36j1ysNWvEfKkYD6S_cZCAqvdT-TOZiXF5KmJuRzWld0imRzfEpZ_2TrIVs9BQpt2eKP18PzACmVXaKqCAczrq8IshiQ6upOQJieIOuRBnpNdy1]--></g></svg>