<?xml version="1.0" encoding="us-ascii" standalone="no"?><svg xmlns="http://www.w3.org/2000/svg" xmlns:xlink="http://www.w3.org/1999/xlink" contentStyleType="text/css" height="1127px" preserveAspectRatio="none" style="width:1105px;height:1127px;background:#FFFFFF;" version="1.1" viewBox="0 0 1105 1127" width="1105px" zoomAndPan="magnify"><defs/><g><!--class User--><g id="elem_User"><rect codeLine="4" fill="#F1F1F1" height="113.1875" id="User" rx="2.5" ry="2.5" style="stroke:#181818;stroke-width:0.5;" width="191" x="450.5" y="15"/><ellipse cx="525.75" cy="31" fill="#ADD1B2" rx="11" ry="11" style="stroke:#181818;stroke-width:1.0;"/><path d="M528.7188,36.6406 Q528.1406,36.9375 527.5,37.0781 Q526.8594,37.2344 526.1563,37.2344 Q523.6563,37.2344 522.3281,35.5938 Q521.0156,33.9375 521.0156,30.8125 Q521.0156,27.6875 522.3281,26.0313 Q523.6563,24.375 526.1563,24.375 Q526.8594,24.375 527.5,24.5313 Q528.1563,24.6875 528.7188,24.9844 L528.7188,27.7031 Q528.0938,27.125 527.5,26.8594 Q526.9063,26.5781 526.2813,26.5781 Q524.9375,26.5781 524.25,27.6563 Q523.5625,28.7188 523.5625,30.8125 Q523.5625,32.9063 524.25,33.9844 Q524.9375,35.0469 526.2813,35.0469 Q526.9063,35.0469 527.5,34.7813 Q528.0938,34.5 528.7188,33.9219 L528.7188,36.6406 Z " fill="#000000"/><text fill="#000000" font-family="sans-serif" font-size="14" lengthAdjust="spacing" textLength="32" x="546.25" y="35.8467">User</text><line style="stroke:#181818;stroke-width:0.5;" x1="451.5" x2="640.5" y1="47" y2="47"/><rect fill="none" height="6" style="stroke:#C82930;stroke-width:1.0;" width="6" x="458.5" y="57.6484"/><text fill="#000000" font-family="sans-serif" font-size="14" lengthAdjust="spacing" textLength="61" x="470.5" y="63.9951">id: String</text><rect fill="none" height="6" style="stroke:#C82930;stroke-width:1.0;" width="6" x="458.5" y="73.9453"/><text fill="#000000" font-family="sans-serif" font-size="14" lengthAdjust="spacing" textLength="88" x="470.5" y="80.292">name: String</text><rect fill="none" height="6" style="stroke:#C82930;stroke-width:1.0;" width="6" x="458.5" y="90.2422"/><text fill="#000000" font-family="sans-serif" font-size="14" lengthAdjust="spacing" textLength="148" x="470.5" y="96.5889">profilePicture: Image?</text><rect fill="none" height="6" style="stroke:#C82930;stroke-width:1.0;" width="6" x="458.5" y="106.5391"/><text fill="#000000" font-family="sans-serif" font-size="14" lengthAdjust="spacing" textLength="165" x="470.5" y="112.8857">contactInfo: ContactInfo</text><line style="stroke:#181818;stroke-width:0.5;" x1="451.5" x2="640.5" y1="120.1875" y2="120.1875"/></g><!--class ContactInfo--><g id="elem_ContactInfo"><rect codeLine="13" fill="#F1F1F1" height="129.4844" id="ContactInfo" rx="2.5" ry="2.5" style="stroke:#181818;stroke-width:0.5;" width="178" x="762" y="7"/><ellipse cx="807.25" cy="23" fill="#ADD1B2" rx="11" ry="11" style="stroke:#181818;stroke-width:1.0;"/><path d="M810.2188,28.6406 Q809.6406,28.9375 809,29.0781 Q808.3594,29.2344 807.6563,29.2344 Q805.1563,29.2344 803.8281,27.5938 Q802.5156,25.9375 802.5156,22.8125 Q802.5156,19.6875 803.8281,18.0313 Q805.1563,16.375 807.6563,16.375 Q808.3594,16.375 809,16.5313 Q809.6563,16.6875 810.2188,16.9844 L810.2188,19.7031 Q809.5938,19.125 809,18.8594 Q808.4063,18.5781 807.7813,18.5781 Q806.4375,18.5781 805.75,19.6563 Q805.0625,20.7188 805.0625,22.8125 Q805.0625,24.9063 805.75,25.9844 Q806.4375,27.0469 807.7813,27.0469 Q808.4063,27.0469 809,26.7813 Q809.5938,26.5 810.2188,25.9219 L810.2188,28.6406 Z " fill="#000000"/><text fill="#000000" font-family="sans-serif" font-size="14" lengthAdjust="spacing" textLength="79" x="827.75" y="27.8467">ContactInfo</text><line style="stroke:#181818;stroke-width:0.5;" x1="763" x2="939" y1="39" y2="39"/><rect fill="none" height="6" style="stroke:#C82930;stroke-width:1.0;" width="6" x="770" y="49.6484"/><text fill="#000000" font-family="sans-serif" font-size="14" lengthAdjust="spacing" textLength="101" x="782" y="55.9951">phone: String?</text><rect fill="none" height="6" style="stroke:#C82930;stroke-width:1.0;" width="6" x="770" y="65.9453"/><text fill="#000000" font-family="sans-serif" font-size="14" lengthAdjust="spacing" textLength="92" x="782" y="72.292">email: String?</text><rect fill="none" height="6" style="stroke:#C82930;stroke-width:1.0;" width="6" x="770" y="82.2422"/><text fill="#000000" font-family="sans-serif" font-size="14" lengthAdjust="spacing" textLength="138" x="782" y="88.5889">website: MediaLink?</text><rect fill="none" height="6" style="stroke:#C82930;stroke-width:1.0;" width="6" x="770" y="98.5391"/><text fill="#000000" font-family="sans-serif" font-size="14" lengthAdjust="spacing" textLength="148" x="782" y="104.8857">facebook: MediaLink?</text><rect fill="none" height="6" style="stroke:#C82930;stroke-width:1.0;" width="6" x="770" y="114.8359"/><text fill="#000000" font-family="sans-serif" font-size="14" lengthAdjust="spacing" textLength="152" x="782" y="121.1826">instagram: MediaLink?</text><line style="stroke:#181818;stroke-width:0.5;" x1="763" x2="939" y1="128.4844" y2="128.4844"/></g><!--class MediaLink--><g id="elem_MediaLink"><rect codeLine="25" fill="#F1F1F1" height="80.5938" id="MediaLink" rx="2.5" ry="2.5" style="stroke:#181818;stroke-width:0.5;" width="100" x="801" y="213"/><ellipse cx="816" cy="229" fill="#ADD1B2" rx="11" ry="11" style="stroke:#181818;stroke-width:1.0;"/><path d="M818.9688,234.6406 Q818.3906,234.9375 817.75,235.0781 Q817.1094,235.2344 816.4063,235.2344 Q813.9063,235.2344 812.5781,233.5938 Q811.2656,231.9375 811.2656,228.8125 Q811.2656,225.6875 812.5781,224.0313 Q813.9063,222.375 816.4063,222.375 Q817.1094,222.375 817.75,222.5313 Q818.4063,222.6875 818.9688,222.9844 L818.9688,225.7031 Q818.3438,225.125 817.75,224.8594 Q817.1563,224.5781 816.5313,224.5781 Q815.1875,224.5781 814.5,225.6563 Q813.8125,226.7188 813.8125,228.8125 Q813.8125,230.9063 814.5,231.9844 Q815.1875,233.0469 816.5313,233.0469 Q817.1563,233.0469 817.75,232.7813 Q818.3438,232.5 818.9688,231.9219 L818.9688,234.6406 Z " fill="#000000"/><text fill="#000000" font-family="sans-serif" font-size="14" lengthAdjust="spacing" textLength="68" x="830" y="233.8467">MediaLink</text><line style="stroke:#181818;stroke-width:0.5;" x1="802" x2="900" y1="245" y2="245"/><rect fill="none" height="6" style="stroke:#C82930;stroke-width:1.0;" width="6" x="809" y="255.6484"/><text fill="#000000" font-family="sans-serif" font-size="14" lengthAdjust="spacing" textLength="74" x="821" y="261.9951">title: String</text><rect fill="none" height="6" style="stroke:#C82930;stroke-width:1.0;" width="6" x="809" y="271.9453"/><text fill="#000000" font-family="sans-serif" font-size="14" lengthAdjust="spacing" textLength="66" x="821" y="278.292">url: String</text><line style="stroke:#181818;stroke-width:0.5;" x1="802" x2="900" y1="285.5938" y2="285.5938"/></g><!--class Shop--><g id="elem_Shop"><rect codeLine="36" fill="#F1F1F1" height="210.9688" id="Shop" rx="2.5" ry="2.5" style="stroke:#181818;stroke-width:0.5;" width="290" x="401" y="355"/><ellipse cx="523.75" cy="371" fill="#ADD1B2" rx="11" ry="11" style="stroke:#181818;stroke-width:1.0;"/><path d="M526.7188,376.6406 Q526.1406,376.9375 525.5,377.0781 Q524.8594,377.2344 524.1563,377.2344 Q521.6563,377.2344 520.3281,375.5938 Q519.0156,373.9375 519.0156,370.8125 Q519.0156,367.6875 520.3281,366.0313 Q521.6563,364.375 524.1563,364.375 Q524.8594,364.375 525.5,364.5313 Q526.1563,364.6875 526.7188,364.9844 L526.7188,367.7031 Q526.0938,367.125 525.5,366.8594 Q524.9063,366.5781 524.2813,366.5781 Q522.9375,366.5781 522.25,367.6563 Q521.5625,368.7188 521.5625,370.8125 Q521.5625,372.9063 522.25,373.9844 Q522.9375,375.0469 524.2813,375.0469 Q524.9063,375.0469 525.5,374.7813 Q526.0938,374.5 526.7188,373.9219 L526.7188,376.6406 Z " fill="#000000"/><text fill="#000000" font-family="sans-serif" font-size="14" lengthAdjust="spacing" textLength="36" x="544.25" y="375.8467">Shop</text><line style="stroke:#181818;stroke-width:0.5;" x1="402" x2="690" y1="387" y2="387"/><rect fill="none" height="6" style="stroke:#C82930;stroke-width:1.0;" width="6" x="409" y="397.6484"/><text fill="#000000" font-family="sans-serif" font-size="14" lengthAdjust="spacing" textLength="55" x="421" y="403.9951">id: UUID</text><rect fill="none" height="6" style="stroke:#C82930;stroke-width:1.0;" width="6" x="409" y="413.9453"/><text fill="#000000" font-family="sans-serif" font-size="14" lengthAdjust="spacing" textLength="95" x="421" y="420.292">name: String?</text><rect fill="none" height="6" style="stroke:#C82930;stroke-width:1.0;" width="6" x="409" y="430.2422"/><text fill="#000000" font-family="sans-serif" font-size="14" lengthAdjust="spacing" textLength="133" x="421" y="436.5889">description: String?</text><rect fill="none" height="6" style="stroke:#C82930;stroke-width:1.0;" width="6" x="409" y="446.5391"/><text fill="#000000" font-family="sans-serif" font-size="14" lengthAdjust="spacing" textLength="84" x="421" y="452.8857">owner: User</text><rect fill="none" height="6" style="stroke:#C82930;stroke-width:1.0;" width="6" x="409" y="462.8359"/><text fill="#000000" font-family="sans-serif" font-size="14" lengthAdjust="spacing" textLength="264" x="421" y="469.1826">shopCategories: List&lt;ShopCategory&gt;</text><rect fill="none" height="6" style="stroke:#C82930;stroke-width:1.0;" width="6" x="409" y="479.1328"/><text fill="#000000" font-family="sans-serif" font-size="14" lengthAdjust="spacing" textLength="148" x="421" y="485.4795">images: List&lt;Image&gt;</text><rect fill="none" height="6" style="stroke:#C82930;stroke-width:1.0;" width="6" x="409" y="495.4297"/><text fill="#000000" font-family="sans-serif" font-size="14" lengthAdjust="spacing" textLength="88" x="421" y="501.7764">menu: Menu</text><rect fill="none" height="6" style="stroke:#C82930;stroke-width:1.0;" width="6" x="409" y="511.7266"/><text fill="#000000" font-family="sans-serif" font-size="14" lengthAdjust="spacing" textLength="121" x="421" y="518.0732">location: Location</text><rect fill="none" height="6" style="stroke:#C82930;stroke-width:1.0;" width="6" x="409" y="528.0234"/><text fill="#000000" font-family="sans-serif" font-size="14" lengthAdjust="spacing" textLength="207" x="421" y="534.3701">openingHours: OpeningHours</text><rect fill="none" height="6" style="stroke:#C82930;stroke-width:1.0;" width="6" x="409" y="544.3203"/><text fill="#000000" font-family="sans-serif" font-size="14" lengthAdjust="spacing" textLength="157" x="421" y="550.667">reviews: List&lt;Review&gt;</text><line style="stroke:#181818;stroke-width:0.5;" x1="402" x2="690" y1="557.9688" y2="557.9688"/></g><!--class ShopCategory--><g id="elem_ShopCategory"><rect codeLine="53" fill="#F1F1F1" height="80.5938" id="ShopCategory" rx="2.5" ry="2.5" style="stroke:#181818;stroke-width:0.5;" width="130" x="7" y="651"/><ellipse cx="22" cy="667" fill="#ADD1B2" rx="11" ry="11" style="stroke:#181818;stroke-width:1.0;"/><path d="M24.9688,672.6406 Q24.3906,672.9375 23.75,673.0781 Q23.1094,673.2344 22.4063,673.2344 Q19.9063,673.2344 18.5781,671.5938 Q17.2656,669.9375 17.2656,666.8125 Q17.2656,663.6875 18.5781,662.0313 Q19.9063,660.375 22.4063,660.375 Q23.1094,660.375 23.75,660.5313 Q24.4063,660.6875 24.9688,660.9844 L24.9688,663.7031 Q24.3438,663.125 23.75,662.8594 Q23.1563,662.5781 22.5313,662.5781 Q21.1875,662.5781 20.5,663.6563 Q19.8125,664.7188 19.8125,666.8125 Q19.8125,668.9063 20.5,669.9844 Q21.1875,671.0469 22.5313,671.0469 Q23.1563,671.0469 23.75,670.7813 Q24.3438,670.5 24.9688,669.9219 L24.9688,672.6406 Z " fill="#000000"/><text fill="#000000" font-family="sans-serif" font-size="14" lengthAdjust="spacing" textLength="98" x="36" y="671.8467">ShopCategory</text><line style="stroke:#181818;stroke-width:0.5;" x1="8" x2="136" y1="683" y2="683"/><rect fill="none" height="6" style="stroke:#C82930;stroke-width:1.0;" width="6" x="15" y="693.6484"/><text fill="#000000" font-family="sans-serif" font-size="14" lengthAdjust="spacing" textLength="88" x="27" y="699.9951">name: String</text><rect fill="none" height="6" style="stroke:#C82930;stroke-width:1.0;" width="6" x="15" y="709.9453"/><text fill="#000000" font-family="sans-serif" font-size="14" lengthAdjust="spacing" textLength="79" x="27" y="716.292">color: Color</text><line style="stroke:#181818;stroke-width:0.5;" x1="8" x2="136" y1="723.5938" y2="723.5938"/></g><!--class Menu--><g id="elem_Menu"><rect codeLine="62" fill="#F1F1F1" height="64.2969" id="Menu" rx="2.5" ry="2.5" style="stroke:#181818;stroke-width:0.5;" width="189" x="172.5" y="659.5"/><ellipse cx="243.25" cy="675.5" fill="#ADD1B2" rx="11" ry="11" style="stroke:#181818;stroke-width:1.0;"/><path d="M246.2188,681.1406 Q245.6406,681.4375 245,681.5781 Q244.3594,681.7344 243.6563,681.7344 Q241.1563,681.7344 239.8281,680.0938 Q238.5156,678.4375 238.5156,675.3125 Q238.5156,672.1875 239.8281,670.5313 Q241.1563,668.875 243.6563,668.875 Q244.3594,668.875 245,669.0313 Q245.6563,669.1875 246.2188,669.4844 L246.2188,672.2031 Q245.5938,671.625 245,671.3594 Q244.4063,671.0781 243.7813,671.0781 Q242.4375,671.0781 241.75,672.1563 Q241.0625,673.2188 241.0625,675.3125 Q241.0625,677.4063 241.75,678.4844 Q242.4375,679.5469 243.7813,679.5469 Q244.4063,679.5469 245,679.2813 Q245.5938,679 246.2188,678.4219 L246.2188,681.1406 Z " fill="#000000"/><text fill="#000000" font-family="sans-serif" font-size="14" lengthAdjust="spacing" textLength="39" x="263.75" y="680.3467">Menu</text><line style="stroke:#181818;stroke-width:0.5;" x1="173.5" x2="360.5" y1="691.5" y2="691.5"/><rect fill="none" height="6" style="stroke:#C82930;stroke-width:1.0;" width="6" x="180.5" y="702.1484"/><text fill="#000000" font-family="sans-serif" font-size="14" lengthAdjust="spacing" textLength="163" x="192.5" y="708.4951">items: List&lt;MenuItem&gt;</text><line style="stroke:#181818;stroke-width:0.5;" x1="173.5" x2="360.5" y1="715.7969" y2="715.7969"/></g><!--class MenuItem--><g id="elem_MenuItem"><rect codeLine="66" fill="#F1F1F1" height="113.1875" id="MenuItem" rx="2.5" ry="2.5" style="stroke:#181818;stroke-width:0.5;" width="159" x="187.5" y="841.5"/><ellipse cx="228.6" cy="857.5" fill="#ADD1B2" rx="11" ry="11" style="stroke:#181818;stroke-width:1.0;"/><path d="M231.5688,863.1406 Q230.9906,863.4375 230.35,863.5781 Q229.7094,863.7344 229.0063,863.7344 Q226.5063,863.7344 225.1781,862.0938 Q223.8656,860.4375 223.8656,857.3125 Q223.8656,854.1875 225.1781,852.5313 Q226.5063,850.875 229.0063,850.875 Q229.7094,850.875 230.35,851.0313 Q231.0063,851.1875 231.5688,851.4844 L231.5688,854.2031 Q230.9438,853.625 230.35,853.3594 Q229.7563,853.0781 229.1313,853.0781 Q227.7875,853.0781 227.1,854.1563 Q226.4125,855.2188 226.4125,857.3125 Q226.4125,859.4063 227.1,860.4844 Q227.7875,861.5469 229.1313,861.5469 Q229.7563,861.5469 230.35,861.2813 Q230.9438,861 231.5688,860.4219 L231.5688,863.1406 Z " fill="#000000"/><text fill="#000000" font-family="sans-serif" font-size="14" lengthAdjust="spacing" textLength="69" x="248.4" y="862.3467">MenuItem</text><line style="stroke:#181818;stroke-width:0.5;" x1="188.5" x2="345.5" y1="873.5" y2="873.5"/><rect fill="none" height="6" style="stroke:#C82930;stroke-width:1.0;" width="6" x="195.5" y="884.1484"/><text fill="#000000" font-family="sans-serif" font-size="14" lengthAdjust="spacing" textLength="88" x="207.5" y="890.4951">name: String</text><rect fill="none" height="6" style="stroke:#C82930;stroke-width:1.0;" width="6" x="195.5" y="900.4453"/><text fill="#000000" font-family="sans-serif" font-size="14" lengthAdjust="spacing" textLength="133" x="207.5" y="906.792">description: String?</text><rect fill="none" height="6" style="stroke:#C82930;stroke-width:1.0;" width="6" x="195.5" y="916.7422"/><text fill="#000000" font-family="sans-serif" font-size="14" lengthAdjust="spacing" textLength="131" x="207.5" y="923.0889">price: ProductPrice</text><rect fill="none" height="6" style="stroke:#C82930;stroke-width:1.0;" width="6" x="195.5" y="933.0391"/><text fill="#000000" font-family="sans-serif" font-size="14" lengthAdjust="spacing" textLength="117" x="207.5" y="939.3857">inStock: Boolean</text><line style="stroke:#181818;stroke-width:0.5;" x1="188.5" x2="345.5" y1="946.6875" y2="946.6875"/></g><!--class ProductPrice--><g id="elem_ProductPrice"><rect codeLine="73" fill="#F1F1F1" height="64.2969" id="ProductPrice" rx="2.5" ry="2.5" style="stroke:#181818;stroke-width:0.5;" width="120" x="207" y="1056"/><ellipse cx="222" cy="1072" fill="#ADD1B2" rx="11" ry="11" style="stroke:#181818;stroke-width:1.0;"/><path d="M224.9688,1077.6406 Q224.3906,1077.9375 223.75,1078.0781 Q223.1094,1078.2344 222.4063,1078.2344 Q219.9063,1078.2344 218.5781,1076.5938 Q217.2656,1074.9375 217.2656,1071.8125 Q217.2656,1068.6875 218.5781,1067.0313 Q219.9063,1065.375 222.4063,1065.375 Q223.1094,1065.375 223.75,1065.5313 Q224.4063,1065.6875 224.9688,1065.9844 L224.9688,1068.7031 Q224.3438,1068.125 223.75,1067.8594 Q223.1563,1067.5781 222.5313,1067.5781 Q221.1875,1067.5781 220.5,1068.6563 Q219.8125,1069.7188 219.8125,1071.8125 Q219.8125,1073.9063 220.5,1074.9844 Q221.1875,1076.0469 222.5313,1076.0469 Q223.1563,1076.0469 223.75,1075.7813 Q224.3438,1075.5 224.9688,1074.9219 L224.9688,1077.6406 Z " fill="#000000"/><text fill="#000000" font-family="sans-serif" font-size="14" lengthAdjust="spacing" textLength="88" x="236" y="1076.8467">ProductPrice</text><line style="stroke:#181818;stroke-width:0.5;" x1="208" x2="326" y1="1088" y2="1088"/><rect fill="none" height="6" style="stroke:#C82930;stroke-width:1.0;" width="6" x="215" y="1098.6484"/><text fill="#000000" font-family="sans-serif" font-size="14" lengthAdjust="spacing" textLength="83" x="227" y="1104.9951">price: String</text><line style="stroke:#181818;stroke-width:0.5;" x1="208" x2="326" y1="1112.2969" y2="1112.2969"/></g><!--class OpeningHours--><g id="elem_OpeningHours"><rect codeLine="83" fill="#F1F1F1" height="64.2969" id="OpeningHours" rx="2.5" ry="2.5" style="stroke:#181818;stroke-width:0.5;" width="299" x="396.5" y="659.5"/><ellipse cx="491.75" cy="675.5" fill="#ADD1B2" rx="11" ry="11" style="stroke:#181818;stroke-width:1.0;"/><path d="M494.7188,681.1406 Q494.1406,681.4375 493.5,681.5781 Q492.8594,681.7344 492.1563,681.7344 Q489.6563,681.7344 488.3281,680.0938 Q487.0156,678.4375 487.0156,675.3125 Q487.0156,672.1875 488.3281,670.5313 Q489.6563,668.875 492.1563,668.875 Q492.8594,668.875 493.5,669.0313 Q494.1563,669.1875 494.7188,669.4844 L494.7188,672.2031 Q494.0938,671.625 493.5,671.3594 Q492.9063,671.0781 492.2813,671.0781 Q490.9375,671.0781 490.25,672.1563 Q489.5625,673.2188 489.5625,675.3125 Q489.5625,677.4063 490.25,678.4844 Q490.9375,679.5469 492.2813,679.5469 Q492.9063,679.5469 493.5,679.2813 Q494.0938,679 494.7188,678.4219 L494.7188,681.1406 Z " fill="#000000"/><text fill="#000000" font-family="sans-serif" font-size="14" lengthAdjust="spacing" textLength="100" x="512.25" y="680.3467">OpeningHours</text><line style="stroke:#181818;stroke-width:0.5;" x1="397.5" x2="694.5" y1="691.5" y2="691.5"/><rect fill="none" height="6" style="stroke:#C82930;stroke-width:1.0;" width="6" x="404.5" y="702.1484"/><text fill="#000000" font-family="sans-serif" font-size="14" lengthAdjust="spacing" textLength="273" x="416.5" y="708.4951">dayToHours: Map&lt;DayOfWeek, String&gt;</text><line style="stroke:#181818;stroke-width:0.5;" x1="397.5" x2="694.5" y1="715.7969" y2="715.7969"/></g><!--class DayOfWeek--><g id="elem_DayOfWeek"><rect codeLine="87" fill="#F1F1F1" height="162.0781" id="DayOfWeek" rx="2.5" ry="2.5" style="stroke:#181818;stroke-width:0.5;" width="112" x="490" y="817"/><ellipse cx="505" cy="833" fill="#EB937F" rx="11" ry="11" style="stroke:#181818;stroke-width:1.0;"/><path d="M509.1094,839 L501.3906,839 L501.3906,826.6094 L509.1094,826.6094 L509.1094,828.7656 L503.8438,828.7656 L503.8438,831.4375 L508.6094,831.4375 L508.6094,833.5938 L503.8438,833.5938 L503.8438,836.8438 L509.1094,836.8438 L509.1094,839 Z " fill="#000000"/><text fill="#000000" font-family="sans-serif" font-size="14" lengthAdjust="spacing" textLength="80" x="519" y="837.8467">DayOfWeek</text><line style="stroke:#181818;stroke-width:0.5;" x1="491" x2="601" y1="849" y2="849"/><text fill="#000000" font-family="sans-serif" font-size="14" lengthAdjust="spacing" textLength="62" x="496" y="865.9951">MONDAY</text><text fill="#000000" font-family="sans-serif" font-size="14" lengthAdjust="spacing" textLength="66" x="496" y="882.292">TUESDAY</text><text fill="#000000" font-family="sans-serif" font-size="14" lengthAdjust="spacing" textLength="90" x="496" y="898.5889">WEDNESDAY</text><text fill="#000000" font-family="sans-serif" font-size="14" lengthAdjust="spacing" textLength="77" x="496" y="914.8857">THURSDAY</text><text fill="#000000" font-family="sans-serif" font-size="14" lengthAdjust="spacing" textLength="50" x="496" y="931.1826">FRIDAY</text><text fill="#000000" font-family="sans-serif" font-size="14" lengthAdjust="spacing" textLength="76" x="496" y="947.4795">SATURDAY</text><text fill="#000000" font-family="sans-serif" font-size="14" lengthAdjust="spacing" textLength="58" x="496" y="963.7764">SUNDAY</text><line style="stroke:#181818;stroke-width:0.5;" x1="491" x2="601" y1="971.0781" y2="971.0781"/></g><!--class Location--><g id="elem_Location"><rect codeLine="102" fill="#F1F1F1" height="96.8906" id="Location" rx="2.5" ry="2.5" style="stroke:#181818;stroke-width:0.5;" width="184" x="731" y="643"/><ellipse cx="789.75" cy="659" fill="#ADD1B2" rx="11" ry="11" style="stroke:#181818;stroke-width:1.0;"/><path d="M792.7188,664.6406 Q792.1406,664.9375 791.5,665.0781 Q790.8594,665.2344 790.1563,665.2344 Q787.6563,665.2344 786.3281,663.5938 Q785.0156,661.9375 785.0156,658.8125 Q785.0156,655.6875 786.3281,654.0313 Q787.6563,652.375 790.1563,652.375 Q790.8594,652.375 791.5,652.5313 Q792.1563,652.6875 792.7188,652.9844 L792.7188,655.7031 Q792.0938,655.125 791.5,654.8594 Q790.9063,654.5781 790.2813,654.5781 Q788.9375,654.5781 788.25,655.6563 Q787.5625,656.7188 787.5625,658.8125 Q787.5625,660.9063 788.25,661.9844 Q788.9375,663.0469 790.2813,663.0469 Q790.9063,663.0469 791.5,662.7813 Q792.0938,662.5 792.7188,661.9219 L792.7188,664.6406 Z " fill="#000000"/><text fill="#000000" font-family="sans-serif" font-size="14" lengthAdjust="spacing" textLength="58" x="810.25" y="663.8467">Location</text><line style="stroke:#181818;stroke-width:0.5;" x1="732" x2="914" y1="675" y2="675"/><rect fill="none" height="6" style="stroke:#C82930;stroke-width:1.0;" width="6" x="739" y="685.6484"/><text fill="#000000" font-family="sans-serif" font-size="14" lengthAdjust="spacing" textLength="105" x="751" y="691.9951">address: String</text><rect fill="none" height="6" style="stroke:#C82930;stroke-width:1.0;" width="6" x="739" y="701.9453"/><text fill="#000000" font-family="sans-serif" font-size="14" lengthAdjust="spacing" textLength="144" x="751" y="708.292">latitude: BigDecimal?</text><rect fill="none" height="6" style="stroke:#C82930;stroke-width:1.0;" width="6" x="739" y="718.2422"/><text fill="#000000" font-family="sans-serif" font-size="14" lengthAdjust="spacing" textLength="158" x="751" y="724.5889">longitude: BigDecimal?</text><line style="stroke:#181818;stroke-width:0.5;" x1="732" x2="914" y1="731.8906" y2="731.8906"/></g><!--class Review--><g id="elem_Review"><rect codeLine="112" fill="#F1F1F1" height="96.8906" id="Review" rx="2.5" ry="2.5" style="stroke:#181818;stroke-width:0.5;" width="148" x="950" y="643"/><ellipse cx="995.25" cy="659" fill="#ADD1B2" rx="11" ry="11" style="stroke:#181818;stroke-width:1.0;"/><path d="M998.2188,664.6406 Q997.6406,664.9375 997,665.0781 Q996.3594,665.2344 995.6563,665.2344 Q993.1563,665.2344 991.8281,663.5938 Q990.5156,661.9375 990.5156,658.8125 Q990.5156,655.6875 991.8281,654.0313 Q993.1563,652.375 995.6563,652.375 Q996.3594,652.375 997,652.5313 Q997.6563,652.6875 998.2188,652.9844 L998.2188,655.7031 Q997.5938,655.125 997,654.8594 Q996.4063,654.5781 995.7813,654.5781 Q994.4375,654.5781 993.75,655.6563 Q993.0625,656.7188 993.0625,658.8125 Q993.0625,660.9063 993.75,661.9844 Q994.4375,663.0469 995.7813,663.0469 Q996.4063,663.0469 997,662.7813 Q997.5938,662.5 998.2188,661.9219 L998.2188,664.6406 Z " fill="#000000"/><text fill="#000000" font-family="sans-serif" font-size="14" lengthAdjust="spacing" textLength="49" x="1015.75" y="663.8467">Review</text><line style="stroke:#181818;stroke-width:0.5;" x1="951" x2="1097" y1="675" y2="675"/><rect fill="none" height="6" style="stroke:#C82930;stroke-width:1.0;" width="6" x="958" y="685.6484"/><text fill="#000000" font-family="sans-serif" font-size="14" lengthAdjust="spacing" textLength="72" x="970" y="691.9951">user: User</text><rect fill="none" height="6" style="stroke:#C82930;stroke-width:1.0;" width="6" x="958" y="701.9453"/><text fill="#000000" font-family="sans-serif" font-size="14" lengthAdjust="spacing" textLength="65" x="970" y="708.292">rating: int</text><rect fill="none" height="6" style="stroke:#C82930;stroke-width:1.0;" width="6" x="958" y="718.2422"/><text fill="#000000" font-family="sans-serif" font-size="14" lengthAdjust="spacing" textLength="122" x="970" y="724.5889">comment: String?</text><line style="stroke:#181818;stroke-width:0.5;" x1="951" x2="1097" y1="731.8906" y2="731.8906"/></g><!--class Image--><g id="elem_Image"><rect codeLine="122" fill="#F1F1F1" height="64.2969" id="Image" rx="2.5" ry="2.5" style="stroke:#181818;stroke-width:0.5;" width="92" x="975" y="39.5"/><ellipse cx="998.1" cy="55.5" fill="#ADD1B2" rx="11" ry="11" style="stroke:#181818;stroke-width:1.0;"/><path d="M1001.0688,61.1406 Q1000.4906,61.4375 999.85,61.5781 Q999.2094,61.7344 998.5063,61.7344 Q996.0063,61.7344 994.6781,60.0938 Q993.3656,58.4375 993.3656,55.3125 Q993.3656,52.1875 994.6781,50.5313 Q996.0063,48.875 998.5063,48.875 Q999.2094,48.875 999.85,49.0313 Q1000.5063,49.1875 1001.0688,49.4844 L1001.0688,52.2031 Q1000.4438,51.625 999.85,51.3594 Q999.2563,51.0781 998.6313,51.0781 Q997.2875,51.0781 996.6,52.1563 Q995.9125,53.2188 995.9125,55.3125 Q995.9125,57.4063 996.6,58.4844 Q997.2875,59.5469 998.6313,59.5469 Q999.2563,59.5469 999.85,59.2813 Q1000.4438,59 1001.0688,58.4219 L1001.0688,61.1406 Z " fill="#000000"/><text fill="#000000" font-family="sans-serif" font-size="14" lengthAdjust="spacing" textLength="42" x="1013.9" y="60.3467">Image</text><line style="stroke:#181818;stroke-width:0.5;" x1="976" x2="1066" y1="71.5" y2="71.5"/><rect fill="none" height="6" style="stroke:#C82930;stroke-width:1.0;" width="6" x="983" y="82.1484"/><text fill="#000000" font-family="sans-serif" font-size="14" lengthAdjust="spacing" textLength="66" x="995" y="88.4951">url: String</text><line style="stroke:#181818;stroke-width:0.5;" x1="976" x2="1066" y1="95.7969" y2="95.7969"/></g><!--reverse link User to ContactInfo--><g id="link_User_ContactInfo"><path codeLine="21" d="M653.67,71.5 C692.1,71.5 724.16,71.5 761.9,71.5 " fill="none" id="User-backto-ContactInfo" style="stroke:#181818;stroke-width:1.0;"/><polygon fill="#181818" points="641.67,71.5,647.67,75.5,653.67,71.5,647.67,67.5,641.67,71.5" style="stroke:#181818;stroke-width:1.0;"/><polygon fill="#000000" points="668.75,60.0664,659.7049,57.1275,659.7049,63.0053,668.75,60.0664" style="stroke:#000000;stroke-width:1.0;"/><text fill="#000000" font-family="sans-serif" font-size="13" lengthAdjust="spacing" textLength="71" x="672.75" y="64.5669">contactInfo</text><text fill="#000000" font-family="sans-serif" font-size="13" lengthAdjust="spacing" textLength="8" x="649.6125" y="67.9671">1</text><text fill="#000000" font-family="sans-serif" font-size="13" lengthAdjust="spacing" textLength="8" x="745.8992" y="67.9073">1</text></g><!--reverse link ContactInfo to MediaLink--><g id="link_ContactInfo_MediaLink"><path codeLine="30" d="M752.1902,123.6769 C727.6002,142.0669 720.74,157.83 735,183 C749.18,208.02 776.35,225.01 800.83,235.93 " fill="none" id="ContactInfo-backto-MediaLink" style="stroke:#181818;stroke-width:1.0;"/><polygon fill="#181818" points="761.8,116.49,754.5995,116.8802,752.1902,123.6769,759.3907,123.2867,761.8,116.49" style="stroke:#181818;stroke-width:1.0;"/><polygon fill="#000000" points="741.9879,179.1542,741.0884,169.6863,735.6951,172.0233,741.9879,179.1542" style="stroke:#000000;stroke-width:1.0;"/><text fill="#000000" font-family="sans-serif" font-size="13" lengthAdjust="spacing" textLength="58" x="749" y="179.0669">facebook</text><text fill="#000000" font-family="sans-serif" font-size="13" lengthAdjust="spacing" textLength="8" x="746.0819" y="116.647">1</text><text fill="#000000" font-family="sans-serif" font-size="13" lengthAdjust="spacing" textLength="24" x="768.8645" y="229.8193">0..1</text></g><!--reverse link ContactInfo to MediaLink--><g id="link_ContactInfo_MediaLink"><path codeLine="31" d="M847.9126,148.1863 C847.5326,163.5163 847.67,167.84 848,183 C848.21,192.66 848.58,203.07 848.99,212.82 " fill="none" id="ContactInfo-backto-MediaLink-1" style="stroke:#181818;stroke-width:1.0;"/><polygon fill="#181818" points="848.21,136.19,844.0625,142.089,847.9126,148.1863,852.0601,142.2873,848.21,136.19" style="stroke:#181818;stroke-width:1.0;"/><polygon fill="#000000" points="853.0833,179.5657,855.8711,170.4729,849.9941,170.5709,853.0833,179.5657" style="stroke:#000000;stroke-width:1.0;"/><text fill="#000000" font-family="sans-serif" font-size="13" lengthAdjust="spacing" textLength="65" x="862" y="179.0669">instagram</text><text fill="#000000" font-family="sans-serif" font-size="13" lengthAdjust="spacing" textLength="8" x="839.4249" y="156.5835">1</text><text fill="#000000" font-family="sans-serif" font-size="13" lengthAdjust="spacing" textLength="24" x="822.6696" y="201.9517">0..1</text></g><!--reverse link ContactInfo to MediaLink--><g id="link_ContactInfo_MediaLink"><path codeLine="32" d="M922.7485,145.9138 C929.2885,155.3238 928.1,155.54 932,166 C940.84,189.71 922.49,210.61 901.03,225.92 " fill="none" id="ContactInfo-backto-MediaLink-2" style="stroke:#181818;stroke-width:1.0;"/><polygon fill="#181818" points="915.9,136.06,916.0396,143.2698,922.7485,145.9138,922.6089,138.7041,915.9,136.06" style="stroke:#181818;stroke-width:1.0;"/><polygon fill="#000000" points="937.6901,179.3918,942.896,171.4325,937.2234,169.8927,937.6901,179.3918" style="stroke:#000000;stroke-width:1.0;"/><text fill="#000000" font-family="sans-serif" font-size="13" lengthAdjust="spacing" textLength="48" x="948" y="179.0669">website</text><text fill="#000000" font-family="sans-serif" font-size="13" lengthAdjust="spacing" textLength="8" x="914.9416" y="156.4385">1</text><text fill="#000000" font-family="sans-serif" font-size="13" lengthAdjust="spacing" textLength="24" x="908.9776" y="218.5268">0..1</text></g><!--link User to Shop--><g id="link_User_Shop"><path codeLine="49" d="M546,128.36 C546,187.39 546,269.85 546,342.8 " fill="none" id="User-to-Shop" style="stroke:#181818;stroke-width:1.0;"/><polygon fill="none" points="546,354.8,550,348.8,546,342.8,542,348.8,546,354.8" style="stroke:#181818;stroke-width:1.0;"/><polygon fill="#000000" points="551,248.5664,548.0611,257.6115,553.9389,257.6115,551,248.5664" style="stroke:#000000;stroke-width:1.0;"/><text fill="#000000" font-family="sans-serif" font-size="13" lengthAdjust="spacing" textLength="57" x="560" y="258.0669">ownedBy</text><text fill="#000000" font-family="sans-serif" font-size="13" lengthAdjust="spacing" textLength="8" x="537.5125" y="148.2674">1</text><text fill="#000000" font-family="sans-serif" font-size="13" lengthAdjust="spacing" textLength="23" x="522.1914" y="343.9133">0..*</text></g><!--reverse link Shop to ShopCategory--><g id="link_Shop_ShopCategory"><path codeLine="58" d="M389.7239,530.3499 C315.4939,563.8799 235.11,601.58 155,643 C149.25,645.97 143.32,649.14 137.41,652.38 " fill="none" id="Shop-backto-ShopCategory" style="stroke:#181818;stroke-width:1.0;"/><polygon fill="#181818" points="400.66,525.41,393.5453,524.2346,389.7239,530.3499,396.8386,531.5253,400.66,525.41" style="stroke:#181818;stroke-width:1.0;"/><polygon fill="#000000" points="240.4988,606.7434,249.9211,605.4509,247.3619,600.1595,240.4988,606.7434" style="stroke:#000000;stroke-width:1.0;"/><text fill="#000000" font-family="sans-serif" font-size="13" lengthAdjust="spacing" textLength="67" x="254" y="609.0669">categories</text><text fill="#000000" font-family="sans-serif" font-size="13" lengthAdjust="spacing" textLength="8" x="384.9597" y="525.4413">1</text><text fill="#000000" font-family="sans-serif" font-size="13" lengthAdjust="spacing" textLength="23" x="144.9808" y="644.8843">0..*</text></g><!--reverse link Shop to Menu--><g id="link_Shop_Menu"><path codeLine="77" d="M409.0649,573.894 C367.7449,607.814 334.3,635.26 304.83,659.45 " fill="none" id="Shop-backto-Menu" style="stroke:#181818;stroke-width:1.0;"/><polygon fill="#181818" points="418.34,566.28,411.1645,566.9953,409.0649,573.894,416.2405,573.1787,418.34,566.28" style="stroke:#181818;stroke-width:1.0;"/><polygon fill="#000000" points="383.1352,607.7387,391.9913,604.2717,388.2621,599.7283,383.1352,607.7387" style="stroke:#000000;stroke-width:1.0;"/><text fill="#000000" font-family="sans-serif" font-size="13" lengthAdjust="spacing" textLength="37" x="396" y="609.0669">menu</text><text fill="#000000" font-family="sans-serif" font-size="13" lengthAdjust="spacing" textLength="8" x="401.4941" y="585.9634">1</text><text fill="#000000" font-family="sans-serif" font-size="13" lengthAdjust="spacing" textLength="8" x="303.8074" y="648.3428">1</text></g><!--reverse link Menu to MenuItem--><g id="link_Menu_MenuItem"><path codeLine="78" d="M267,735.56 C267,766.73 267,803.43 267,841.3 " fill="none" id="Menu-backto-MenuItem" style="stroke:#181818;stroke-width:1.0;"/><polygon fill="#181818" points="267,723.56,263,729.56,267,735.56,271,729.56,267,723.56" style="stroke:#181818;stroke-width:1.0;"/><polygon fill="#000000" points="272,783.5664,274.9389,774.5213,269.0611,774.5213,272,783.5664" style="stroke:#000000;stroke-width:1.0;"/><text fill="#000000" font-family="sans-serif" font-size="13" lengthAdjust="spacing" textLength="36" x="281" y="783.0669">items</text><text fill="#000000" font-family="sans-serif" font-size="13" lengthAdjust="spacing" textLength="8" x="258.175" y="743.7692">1</text><text fill="#000000" font-family="sans-serif" font-size="13" lengthAdjust="spacing" textLength="23" x="242.5984" y="830.5392">0..*</text></g><!--reverse link MenuItem to ProductPrice--><g id="link_MenuItem_ProductPrice"><path codeLine="79" d="M267,966.64 C267,999.67 267,1028.31 267,1055.78 " fill="none" id="MenuItem-backto-ProductPrice" style="stroke:#181818;stroke-width:1.0;"/><polygon fill="#181818" points="267,954.64,263,960.64,267,966.64,271,960.64,267,954.64" style="stroke:#181818;stroke-width:1.0;"/><polygon fill="#000000" points="272,1022.5664,274.9389,1013.5213,269.0611,1013.5213,272,1022.5664" style="stroke:#000000;stroke-width:1.0;"/><text fill="#000000" font-family="sans-serif" font-size="13" lengthAdjust="spacing" textLength="80" x="281" y="1022.0669">productPrice</text><text fill="#000000" font-family="sans-serif" font-size="13" lengthAdjust="spacing" textLength="8" x="258.4875" y="974.9213">1</text><text fill="#000000" font-family="sans-serif" font-size="13" lengthAdjust="spacing" textLength="8" x="258.2125" y="1045.0109">1</text></g><!--reverse link Shop to OpeningHours--><g id="link_Shop_OpeningHours"><path codeLine="97" d="M546,578.28 C546,612.2 546,635.26 546,659.45 " fill="none" id="Shop-backto-OpeningHours" style="stroke:#181818;stroke-width:1.0;"/><polygon fill="#181818" points="546,566.28,542,572.28,546,578.28,550,572.28,546,566.28" style="stroke:#181818;stroke-width:1.0;"/><polygon fill="#000000" points="551,609.5664,553.9389,600.5213,548.0611,600.5213,551,609.5664" style="stroke:#000000;stroke-width:1.0;"/><text fill="#000000" font-family="sans-serif" font-size="13" lengthAdjust="spacing" textLength="89" x="560" y="609.0669">openingHours</text><text fill="#000000" font-family="sans-serif" font-size="13" lengthAdjust="spacing" textLength="8" x="537.7313" y="585.9634">1</text><text fill="#000000" font-family="sans-serif" font-size="13" lengthAdjust="spacing" textLength="8" x="537.175" y="648.3428">1</text></g><!--reverse link OpeningHours to DayOfWeek--><g id="link_OpeningHours_DayOfWeek"><path codeLine="98" d="M546,735.56 C546,760.36 546,784.27 546,816.98 " fill="none" id="OpeningHours-backto-DayOfWeek" style="stroke:#181818;stroke-width:1.0;"/><polygon fill="#181818" points="546,723.56,542,729.56,546,735.56,550,729.56,546,723.56" style="stroke:#181818;stroke-width:1.0;"/><polygon fill="#000000" points="551,783.5664,553.9389,774.5213,548.0611,774.5213,551,783.5664" style="stroke:#000000;stroke-width:1.0;"/><text fill="#000000" font-family="sans-serif" font-size="13" lengthAdjust="spacing" textLength="76" x="560" y="783.0669">dayToHours</text><text fill="#000000" font-family="sans-serif" font-size="13" lengthAdjust="spacing" textLength="8" x="537.175" y="743.7692">1</text><text fill="#000000" font-family="sans-serif" font-size="13" lengthAdjust="spacing" textLength="23" x="521.9398" y="805.889">0..*</text></g><!--reverse link Shop to Location--><g id="link_Shop_Location"><path codeLine="108" d="M681.997,573.9281 C714.327,600.6681 738.28,620.46 765.22,642.73 " fill="none" id="Shop-backto-Location" style="stroke:#181818;stroke-width:1.0;"/><polygon fill="#181818" points="672.75,566.28,674.8241,573.1864,681.997,573.9281,679.9229,567.0217,672.75,566.28" style="stroke:#181818;stroke-width:1.0;"/><polygon fill="#000000" points="734.8536,607.7523,729.755,599.7239,726.0098,604.2541,734.8536,607.7523" style="stroke:#000000;stroke-width:1.0;"/><text fill="#000000" font-family="sans-serif" font-size="13" lengthAdjust="spacing" textLength="50" x="740" y="609.0669">location</text><text fill="#000000" font-family="sans-serif" font-size="13" lengthAdjust="spacing" textLength="8" x="672.9973" y="585.9634">1</text><text fill="#000000" font-family="sans-serif" font-size="13" lengthAdjust="spacing" textLength="8" x="748.5322" y="631.901">1</text></g><!--reverse link Shop to Review--><g id="link_Shop_Review"><path codeLine="118" d="M702.3096,532.9614 C775.1896,566.7014 853.7,603.73 933,643 C938.43,645.69 944.02,648.5 949.64,651.36 " fill="none" id="Shop-backto-Review" style="stroke:#181818;stroke-width:1.0;"/><polygon fill="#181818" points="691.42,527.92,695.1844,534.0706,702.3096,532.9614,698.5453,526.8108,691.42,527.92" style="stroke:#181818;stroke-width:1.0;"/><polygon fill="#000000" points="879.5099,606.7253,872.6204,600.169,870.0824,605.4707,879.5099,606.7253" style="stroke:#000000;stroke-width:1.0;"/><text fill="#000000" font-family="sans-serif" font-size="13" lengthAdjust="spacing" textLength="47" x="884" y="609.0669">reviews</text><text fill="#000000" font-family="sans-serif" font-size="13" lengthAdjust="spacing" textLength="8" x="699.1245" y="528.0807">1</text><text fill="#000000" font-family="sans-serif" font-size="13" lengthAdjust="spacing" textLength="23" x="918.9931" y="644.1947">0..*</text></g><!--SRC=[dLLBR-8m4BxpAopsKAbQgjshXQWAj2eI50H4LO_6CQb5OaUsimYjzh_lnFYHH6ot9HSy3yzyytbcq0SkIg98WNQ47Z8bAv5EP2uL-lPalrwFvaHhb6YcqEyUWc-0U8hHnYWkCgSGf60TLQdadkTinQcf51Xd1SdOlJDIAGoXPYRs4gD957f_UhqRDFZ_XsuyiCRjWAzyboBWyJbPGNZULHxPJdC3lWkMSZBduk0jUqBPJih31HCNsf0CI6lP0BebgV-pZsu7zgU93JUBHgClrnaoXIeDDtcNzKg54cj0JG1dN03inzqT76Cy76e5M9-y4IZu_1L7zHMbRzvbsUgz99bDBtIUVv-KQQfuQRWKNPCy2gQmxMQdqH1yGWpBfE9COpJdsWmtKNaQ-SHr0ti7sytUKZ1HrQqWAgV89INdx7DtykbB9W3DiwmKH5es9EUWs2_EZZxBsagZLci1CzBIUzi_4uDjKUduX8PNCUlh30nV66PQhuHwKk6dHcCJDz_QWGcneDi3frSrkwZYYnjMU4PgmmnaoqdqhLKVuV-W8qh5ARYlb4mhQbQr5CPyOoI51J2MCcT4n9HDvxXqpe7YyBL9ijC0LM7RBi29bJeSXbhmkMhdPbNDI2q0kDwrKVmwsyq-3EMavBILhb4Nf1nEoMcvVsNiyDsLQ9y0m1KecDpbnV9b-l1cZzlaSUFFhu_JboXjdvDr49xMCt_SF6oJTH0I6-aIcItGk3LPG47BsY4vmiMDAg_WpGztu8oagM9QTvel1oTJfT0ROvvD6OL5aj-7JI6o2yPB1OTiEEoNAp2VLqf0NEdEEbGGM6JrWZTXzWleM1FdvX_pxo9ZlyEk06UtQiJM-Y_x2m00]--></g></svg>