<?xml version="1.0" encoding="us-ascii" standalone="no"?><svg xmlns="http://www.w3.org/2000/svg" xmlns:xlink="http://www.w3.org/1999/xlink" contentStyleType="text/css" height="1192px" preserveAspectRatio="none" style="width:1336px;height:1192px;background:#FFFFFF;" version="1.1" viewBox="0 0 1336 1192" width="1336px" zoomAndPan="magnify"><defs/><g><!--class User--><g id="elem_User"><rect codeLine="2" fill="#F1F1F1" height="96.8906" id="User" rx="2.5" ry="2.5" style="stroke:#181818;stroke-width:0.5;" width="174" x="575" y="7"/><ellipse cx="641.75" cy="23" fill="#ADD1B2" rx="11" ry="11" style="stroke:#181818;stroke-width:1.0;"/><path d="M644.7188,28.6406 Q644.1406,28.9375 643.5,29.0781 Q642.8594,29.2344 642.1563,29.2344 Q639.6563,29.2344 638.3281,27.5938 Q637.0156,25.9375 637.0156,22.8125 Q637.0156,19.6875 638.3281,18.0313 Q639.6563,16.375 642.1563,16.375 Q642.8594,16.375 643.5,16.5313 Q644.1563,16.6875 644.7188,16.9844 L644.7188,19.7031 Q644.0938,19.125 643.5,18.8594 Q642.9063,18.5781 642.2813,18.5781 Q640.9375,18.5781 640.25,19.6563 Q639.5625,20.7188 639.5625,22.8125 Q639.5625,24.9063 640.25,25.9844 Q640.9375,27.0469 642.2813,27.0469 Q642.9063,27.0469 643.5,26.7813 Q644.0938,26.5 644.7188,25.9219 L644.7188,28.6406 Z " fill="#000000"/><text fill="#000000" font-family="sans-serif" font-size="14" lengthAdjust="spacing" textLength="32" x="662.25" y="27.8467">User</text><line style="stroke:#181818;stroke-width:0.5;" x1="576" x2="748" y1="39" y2="39"/><rect fill="none" height="6" style="stroke:#C82930;stroke-width:1.0;" width="6" x="583" y="49.6484"/><text fill="#000000" font-family="sans-serif" font-size="14" lengthAdjust="spacing" textLength="61" x="595" y="55.9951">id: String</text><rect fill="none" height="6" style="stroke:#C82930;stroke-width:1.0;" width="6" x="583" y="65.9453"/><text fill="#000000" font-family="sans-serif" font-size="14" lengthAdjust="spacing" textLength="88" x="595" y="72.292">name: String</text><rect fill="none" height="6" style="stroke:#C82930;stroke-width:1.0;" width="6" x="583" y="82.2422"/><text fill="#000000" font-family="sans-serif" font-size="14" lengthAdjust="spacing" textLength="148" x="595" y="88.5889">profilePicture: Image?</text><line style="stroke:#181818;stroke-width:0.5;" x1="576" x2="748" y1="95.8906" y2="95.8906"/></g><!--class UserContactInfo--><g id="elem_UserContactInfo"><rect codeLine="10" fill="#F1F1F1" height="80.5938" id="UserContactInfo" rx="2.5" ry="2.5" style="stroke:#181818;stroke-width:0.5;" width="143" x="519.5" y="181"/><ellipse cx="534.5" cy="197" fill="#ADD1B2" rx="11" ry="11" style="stroke:#181818;stroke-width:1.0;"/><path d="M537.4688,202.6406 Q536.8906,202.9375 536.25,203.0781 Q535.6094,203.2344 534.9063,203.2344 Q532.4063,203.2344 531.0781,201.5938 Q529.7656,199.9375 529.7656,196.8125 Q529.7656,193.6875 531.0781,192.0313 Q532.4063,190.375 534.9063,190.375 Q535.6094,190.375 536.25,190.5313 Q536.9063,190.6875 537.4688,190.9844 L537.4688,193.7031 Q536.8438,193.125 536.25,192.8594 Q535.6563,192.5781 535.0313,192.5781 Q533.6875,192.5781 533,193.6563 Q532.3125,194.7188 532.3125,196.8125 Q532.3125,198.9063 533,199.9844 Q533.6875,201.0469 535.0313,201.0469 Q535.6563,201.0469 536.25,200.7813 Q536.8438,200.5 537.4688,199.9219 L537.4688,202.6406 Z " fill="#000000"/><text fill="#000000" font-family="sans-serif" font-size="14" lengthAdjust="spacing" textLength="111" x="548.5" y="201.8467">UserContactInfo</text><line style="stroke:#181818;stroke-width:0.5;" x1="520.5" x2="661.5" y1="213" y2="213"/><rect fill="none" height="6" style="stroke:#C82930;stroke-width:1.0;" width="6" x="527.5" y="223.6484"/><text fill="#000000" font-family="sans-serif" font-size="14" lengthAdjust="spacing" textLength="101" x="539.5" y="229.9951">phone: String?</text><rect fill="none" height="6" style="stroke:#C82930;stroke-width:1.0;" width="6" x="527.5" y="239.9453"/><text fill="#000000" font-family="sans-serif" font-size="14" lengthAdjust="spacing" textLength="92" x="539.5" y="246.292">email: String?</text><line style="stroke:#181818;stroke-width:0.5;" x1="520.5" x2="661.5" y1="253.5938" y2="253.5938"/></g><!--class Shop--><g id="elem_Shop"><rect codeLine="19" fill="#F1F1F1" height="210.9688" id="Shop" rx="2.5" ry="2.5" style="stroke:#181818;stroke-width:0.5;" width="327" x="569.5" y="323"/><ellipse cx="710.75" cy="339" fill="#ADD1B2" rx="11" ry="11" style="stroke:#181818;stroke-width:1.0;"/><path d="M713.7188,344.6406 Q713.1406,344.9375 712.5,345.0781 Q711.8594,345.2344 711.1563,345.2344 Q708.6563,345.2344 707.3281,343.5938 Q706.0156,341.9375 706.0156,338.8125 Q706.0156,335.6875 707.3281,334.0313 Q708.6563,332.375 711.1563,332.375 Q711.8594,332.375 712.5,332.5313 Q713.1563,332.6875 713.7188,332.9844 L713.7188,335.7031 Q713.0938,335.125 712.5,334.8594 Q711.9063,334.5781 711.2813,334.5781 Q709.9375,334.5781 709.25,335.6563 Q708.5625,336.7188 708.5625,338.8125 Q708.5625,340.9063 709.25,341.9844 Q709.9375,343.0469 711.2813,343.0469 Q711.9063,343.0469 712.5,342.7813 Q713.0938,342.5 713.7188,341.9219 L713.7188,344.6406 Z " fill="#000000"/><text fill="#000000" font-family="sans-serif" font-size="14" lengthAdjust="spacing" textLength="36" x="731.25" y="343.8467">Shop</text><line style="stroke:#181818;stroke-width:0.5;" x1="570.5" x2="895.5" y1="355" y2="355"/><rect fill="none" height="6" style="stroke:#C82930;stroke-width:1.0;" width="6" x="577.5" y="365.6484"/><text fill="#000000" font-family="sans-serif" font-size="14" lengthAdjust="spacing" textLength="55" x="589.5" y="371.9951">id: UUID</text><rect fill="none" height="6" style="stroke:#C82930;stroke-width:1.0;" width="6" x="577.5" y="381.9453"/><text fill="#000000" font-family="sans-serif" font-size="14" lengthAdjust="spacing" textLength="88" x="589.5" y="388.292">name: String</text><rect fill="none" height="6" style="stroke:#C82930;stroke-width:1.0;" width="6" x="577.5" y="398.2422"/><text fill="#000000" font-family="sans-serif" font-size="14" lengthAdjust="spacing" textLength="84" x="589.5" y="404.5889">owner: User</text><rect fill="none" height="6" style="stroke:#C82930;stroke-width:1.0;" width="6" x="577.5" y="414.5391"/><text fill="#000000" font-family="sans-serif" font-size="14" lengthAdjust="spacing" textLength="301" x="589.5" y="420.8857">productCategories: List&lt;ProductCategory&gt;</text><rect fill="none" height="6" style="stroke:#C82930;stroke-width:1.0;" width="6" x="577.5" y="430.8359"/><text fill="#000000" font-family="sans-serif" font-size="14" lengthAdjust="spacing" textLength="148" x="589.5" y="437.1826">images: List&lt;Image&gt;</text><rect fill="none" height="6" style="stroke:#C82930;stroke-width:1.0;" width="6" x="577.5" y="447.1328"/><text fill="#000000" font-family="sans-serif" font-size="14" lengthAdjust="spacing" textLength="88" x="589.5" y="453.4795">menu: Menu</text><rect fill="none" height="6" style="stroke:#C82930;stroke-width:1.0;" width="6" x="577.5" y="463.4297"/><text fill="#000000" font-family="sans-serif" font-size="14" lengthAdjust="spacing" textLength="121" x="589.5" y="469.7764">location: Location</text><rect fill="none" height="6" style="stroke:#C82930;stroke-width:1.0;" width="6" x="577.5" y="479.7266"/><text fill="#000000" font-family="sans-serif" font-size="14" lengthAdjust="spacing" textLength="207" x="589.5" y="486.0732">openingHours: OpeningHours</text><rect fill="none" height="6" style="stroke:#C82930;stroke-width:1.0;" width="6" x="577.5" y="496.0234"/><text fill="#000000" font-family="sans-serif" font-size="14" lengthAdjust="spacing" textLength="165" x="589.5" y="502.3701">contactInfo: ContactInfo</text><rect fill="none" height="6" style="stroke:#C82930;stroke-width:1.0;" width="6" x="577.5" y="512.3203"/><text fill="#000000" font-family="sans-serif" font-size="14" lengthAdjust="spacing" textLength="157" x="589.5" y="518.667">reviews: List&lt;Review&gt;</text><line style="stroke:#181818;stroke-width:0.5;" x1="570.5" x2="895.5" y1="525.9688" y2="525.9688"/></g><!--class ProductCategory--><g id="elem_ProductCategory"><rect codeLine="36" fill="#F1F1F1" height="80.5938" id="ProductCategory" rx="2.5" ry="2.5" style="stroke:#181818;stroke-width:0.5;" width="148" x="7" y="635"/><ellipse cx="22" cy="651" fill="#ADD1B2" rx="11" ry="11" style="stroke:#181818;stroke-width:1.0;"/><path d="M24.9688,656.6406 Q24.3906,656.9375 23.75,657.0781 Q23.1094,657.2344 22.4063,657.2344 Q19.9063,657.2344 18.5781,655.5938 Q17.2656,653.9375 17.2656,650.8125 Q17.2656,647.6875 18.5781,646.0313 Q19.9063,644.375 22.4063,644.375 Q23.1094,644.375 23.75,644.5313 Q24.4063,644.6875 24.9688,644.9844 L24.9688,647.7031 Q24.3438,647.125 23.75,646.8594 Q23.1563,646.5781 22.5313,646.5781 Q21.1875,646.5781 20.5,647.6563 Q19.8125,648.7188 19.8125,650.8125 Q19.8125,652.9063 20.5,653.9844 Q21.1875,655.0469 22.5313,655.0469 Q23.1563,655.0469 23.75,654.7813 Q24.3438,654.5 24.9688,653.9219 L24.9688,656.6406 Z " fill="#000000"/><text fill="#000000" font-family="sans-serif" font-size="14" lengthAdjust="spacing" textLength="116" x="36" y="655.8467">ProductCategory</text><line style="stroke:#181818;stroke-width:0.5;" x1="8" x2="154" y1="667" y2="667"/><rect fill="none" height="6" style="stroke:#C82930;stroke-width:1.0;" width="6" x="15" y="677.6484"/><text fill="#000000" font-family="sans-serif" font-size="14" lengthAdjust="spacing" textLength="88" x="27" y="683.9951">name: String</text><rect fill="none" height="6" style="stroke:#C82930;stroke-width:1.0;" width="6" x="15" y="693.9453"/><text fill="#000000" font-family="sans-serif" font-size="14" lengthAdjust="spacing" textLength="79" x="27" y="700.292">color: Color</text><line style="stroke:#181818;stroke-width:0.5;" x1="8" x2="154" y1="707.5938" y2="707.5938"/></g><!--class Menu--><g id="elem_Menu"><rect codeLine="45" fill="#F1F1F1" height="64.2969" id="Menu" rx="2.5" ry="2.5" style="stroke:#181818;stroke-width:0.5;" width="189" x="190.5" y="643.5"/><ellipse cx="261.25" cy="659.5" fill="#ADD1B2" rx="11" ry="11" style="stroke:#181818;stroke-width:1.0;"/><path d="M264.2188,665.1406 Q263.6406,665.4375 263,665.5781 Q262.3594,665.7344 261.6563,665.7344 Q259.1563,665.7344 257.8281,664.0938 Q256.5156,662.4375 256.5156,659.3125 Q256.5156,656.1875 257.8281,654.5313 Q259.1563,652.875 261.6563,652.875 Q262.3594,652.875 263,653.0313 Q263.6563,653.1875 264.2188,653.4844 L264.2188,656.2031 Q263.5938,655.625 263,655.3594 Q262.4063,655.0781 261.7813,655.0781 Q260.4375,655.0781 259.75,656.1563 Q259.0625,657.2188 259.0625,659.3125 Q259.0625,661.4063 259.75,662.4844 Q260.4375,663.5469 261.7813,663.5469 Q262.4063,663.5469 263,663.2813 Q263.5938,663 264.2188,662.4219 L264.2188,665.1406 Z " fill="#000000"/><text fill="#000000" font-family="sans-serif" font-size="14" lengthAdjust="spacing" textLength="39" x="281.75" y="664.3467">Menu</text><line style="stroke:#181818;stroke-width:0.5;" x1="191.5" x2="378.5" y1="675.5" y2="675.5"/><rect fill="none" height="6" style="stroke:#C82930;stroke-width:1.0;" width="6" x="198.5" y="686.1484"/><text fill="#000000" font-family="sans-serif" font-size="14" lengthAdjust="spacing" textLength="163" x="210.5" y="692.4951">items: List&lt;MenuItem&gt;</text><line style="stroke:#181818;stroke-width:0.5;" x1="191.5" x2="378.5" y1="699.7969" y2="699.7969"/></g><!--class MenuItem--><g id="elem_MenuItem"><rect codeLine="49" fill="#F1F1F1" height="129.4844" id="MenuItem" rx="2.5" ry="2.5" style="stroke:#181818;stroke-width:0.5;" width="159" x="205.5" y="833.5"/><ellipse cx="246.6" cy="849.5" fill="#ADD1B2" rx="11" ry="11" style="stroke:#181818;stroke-width:1.0;"/><path d="M249.5688,855.1406 Q248.9906,855.4375 248.35,855.5781 Q247.7094,855.7344 247.0063,855.7344 Q244.5063,855.7344 243.1781,854.0938 Q241.8656,852.4375 241.8656,849.3125 Q241.8656,846.1875 243.1781,844.5313 Q244.5063,842.875 247.0063,842.875 Q247.7094,842.875 248.35,843.0313 Q249.0063,843.1875 249.5688,843.4844 L249.5688,846.2031 Q248.9438,845.625 248.35,845.3594 Q247.7563,845.0781 247.1313,845.0781 Q245.7875,845.0781 245.1,846.1563 Q244.4125,847.2188 244.4125,849.3125 Q244.4125,851.4063 245.1,852.4844 Q245.7875,853.5469 247.1313,853.5469 Q247.7563,853.5469 248.35,853.2813 Q248.9438,853 249.5688,852.4219 L249.5688,855.1406 Z " fill="#000000"/><text fill="#000000" font-family="sans-serif" font-size="14" lengthAdjust="spacing" textLength="69" x="266.4" y="854.3467">MenuItem</text><line style="stroke:#181818;stroke-width:0.5;" x1="206.5" x2="363.5" y1="865.5" y2="865.5"/><rect fill="none" height="6" style="stroke:#C82930;stroke-width:1.0;" width="6" x="213.5" y="876.1484"/><text fill="#000000" font-family="sans-serif" font-size="14" lengthAdjust="spacing" textLength="88" x="225.5" y="882.4951">name: String</text><rect fill="none" height="6" style="stroke:#C82930;stroke-width:1.0;" width="6" x="213.5" y="892.4453"/><text fill="#000000" font-family="sans-serif" font-size="14" lengthAdjust="spacing" textLength="133" x="225.5" y="898.792">description: String?</text><rect fill="none" height="6" style="stroke:#C82930;stroke-width:1.0;" width="6" x="213.5" y="908.7422"/><text fill="#000000" font-family="sans-serif" font-size="14" lengthAdjust="spacing" textLength="127" x="225.5" y="915.0889">pricePerUnit: Price</text><rect fill="none" height="6" style="stroke:#C82930;stroke-width:1.0;" width="6" x="213.5" y="925.0391"/><text fill="#000000" font-family="sans-serif" font-size="14" lengthAdjust="spacing" textLength="131" x="225.5" y="931.3857">unit: MenuItemUnit</text><rect fill="none" height="6" style="stroke:#C82930;stroke-width:1.0;" width="6" x="213.5" y="941.3359"/><text fill="#000000" font-family="sans-serif" font-size="14" lengthAdjust="spacing" textLength="117" x="225.5" y="947.6826">inStock: Boolean</text><line style="stroke:#181818;stroke-width:0.5;" x1="206.5" x2="363.5" y1="954.9844" y2="954.9844"/></g><!--class Price--><g id="elem_Price"><rect codeLine="57" fill="#F1F1F1" height="80.5938" id="Price" rx="2.5" ry="2.5" style="stroke:#181818;stroke-width:0.5;" width="165" x="111.5" y="1080"/><ellipse cx="172.75" cy="1096" fill="#ADD1B2" rx="11" ry="11" style="stroke:#181818;stroke-width:1.0;"/><path d="M175.7188,1101.6406 Q175.1406,1101.9375 174.5,1102.0781 Q173.8594,1102.2344 173.1563,1102.2344 Q170.6563,1102.2344 169.3281,1100.5938 Q168.0156,1098.9375 168.0156,1095.8125 Q168.0156,1092.6875 169.3281,1091.0313 Q170.6563,1089.375 173.1563,1089.375 Q173.8594,1089.375 174.5,1089.5313 Q175.1563,1089.6875 175.7188,1089.9844 L175.7188,1092.7031 Q175.0938,1092.125 174.5,1091.8594 Q173.9063,1091.5781 173.2813,1091.5781 Q171.9375,1091.5781 171.25,1092.6563 Q170.5625,1093.7188 170.5625,1095.8125 Q170.5625,1097.9063 171.25,1098.9844 Q171.9375,1100.0469 173.2813,1100.0469 Q173.9063,1100.0469 174.5,1099.7813 Q175.0938,1099.5 175.7188,1098.9219 L175.7188,1101.6406 Z " fill="#000000"/><text fill="#000000" font-family="sans-serif" font-size="14" lengthAdjust="spacing" textLength="34" x="193.25" y="1100.8467">Price</text><line style="stroke:#181818;stroke-width:0.5;" x1="112.5" x2="275.5" y1="1112" y2="1112"/><rect fill="none" height="6" style="stroke:#C82930;stroke-width:1.0;" width="6" x="119.5" y="1122.6484"/><text fill="#000000" font-family="sans-serif" font-size="14" lengthAdjust="spacing" textLength="139" x="131.5" y="1128.9951">amount: BigDecimal</text><rect fill="none" height="6" style="stroke:#C82930;stroke-width:1.0;" width="6" x="119.5" y="1138.9453"/><text fill="#000000" font-family="sans-serif" font-size="14" lengthAdjust="spacing" textLength="131" x="131.5" y="1145.292">currency: Currency</text><line style="stroke:#181818;stroke-width:0.5;" x1="112.5" x2="275.5" y1="1152.5938" y2="1152.5938"/></g><!--class MenuItemUnit--><g id="elem_MenuItemUnit"><rect codeLine="62" fill="#F1F1F1" height="129.4844" id="MenuItemUnit" rx="2.5" ry="2.5" style="stroke:#181818;stroke-width:0.5;" width="128" x="312" y="1056"/><ellipse cx="327" cy="1072" fill="#EB937F" rx="11" ry="11" style="stroke:#181818;stroke-width:1.0;"/><path d="M331.1094,1078 L323.3906,1078 L323.3906,1065.6094 L331.1094,1065.6094 L331.1094,1067.7656 L325.8438,1067.7656 L325.8438,1070.4375 L330.6094,1070.4375 L330.6094,1072.5938 L325.8438,1072.5938 L325.8438,1075.8438 L331.1094,1075.8438 L331.1094,1078 Z " fill="#000000"/><text fill="#000000" font-family="sans-serif" font-size="14" lengthAdjust="spacing" textLength="96" x="341" y="1076.8467">MenuItemUnit</text><line style="stroke:#181818;stroke-width:0.5;" x1="313" x2="439" y1="1088" y2="1088"/><text fill="#000000" font-family="sans-serif" font-size="14" lengthAdjust="spacing" textLength="40" x="318" y="1104.9951">PIECE</text><text fill="#000000" font-family="sans-serif" font-size="14" lengthAdjust="spacing" textLength="72" x="318" y="1121.292">KILOGRAM</text><text fill="#000000" font-family="sans-serif" font-size="14" lengthAdjust="spacing" textLength="42" x="318" y="1137.5889">GRAM</text><text fill="#000000" font-family="sans-serif" font-size="14" lengthAdjust="spacing" textLength="38" x="318" y="1153.8857">LITER</text><text fill="#000000" font-family="sans-serif" font-size="14" lengthAdjust="spacing" textLength="70" x="318" y="1170.1826">MILLILITER</text><line style="stroke:#181818;stroke-width:0.5;" x1="313" x2="439" y1="1177.4844" y2="1177.4844"/></g><!--class OpeningHours--><g id="elem_OpeningHours"><rect codeLine="77" fill="#F1F1F1" height="64.2969" id="OpeningHours" rx="2.5" ry="2.5" style="stroke:#181818;stroke-width:0.5;" width="299" x="414.5" y="643.5"/><ellipse cx="509.75" cy="659.5" fill="#ADD1B2" rx="11" ry="11" style="stroke:#181818;stroke-width:1.0;"/><path d="M512.7188,665.1406 Q512.1406,665.4375 511.5,665.5781 Q510.8594,665.7344 510.1563,665.7344 Q507.6563,665.7344 506.3281,664.0938 Q505.0156,662.4375 505.0156,659.3125 Q505.0156,656.1875 506.3281,654.5313 Q507.6563,652.875 510.1563,652.875 Q510.8594,652.875 511.5,653.0313 Q512.1563,653.1875 512.7188,653.4844 L512.7188,656.2031 Q512.0938,655.625 511.5,655.3594 Q510.9063,655.0781 510.2813,655.0781 Q508.9375,655.0781 508.25,656.1563 Q507.5625,657.2188 507.5625,659.3125 Q507.5625,661.4063 508.25,662.4844 Q508.9375,663.5469 510.2813,663.5469 Q510.9063,663.5469 511.5,663.2813 Q512.0938,663 512.7188,662.4219 L512.7188,665.1406 Z " fill="#000000"/><text fill="#000000" font-family="sans-serif" font-size="14" lengthAdjust="spacing" textLength="100" x="530.25" y="664.3467">OpeningHours</text><line style="stroke:#181818;stroke-width:0.5;" x1="415.5" x2="712.5" y1="675.5" y2="675.5"/><rect fill="none" height="6" style="stroke:#C82930;stroke-width:1.0;" width="6" x="422.5" y="686.1484"/><text fill="#000000" font-family="sans-serif" font-size="14" lengthAdjust="spacing" textLength="273" x="434.5" y="692.4951">dayToHours: Map&lt;DayOfWeek, String&gt;</text><line style="stroke:#181818;stroke-width:0.5;" x1="415.5" x2="712.5" y1="699.7969" y2="699.7969"/></g><!--class DayOfWeek--><g id="elem_DayOfWeek"><rect codeLine="81" fill="#F1F1F1" height="162.0781" id="DayOfWeek" rx="2.5" ry="2.5" style="stroke:#181818;stroke-width:0.5;" width="112" x="508" y="817"/><ellipse cx="523" cy="833" fill="#EB937F" rx="11" ry="11" style="stroke:#181818;stroke-width:1.0;"/><path d="M527.1094,839 L519.3906,839 L519.3906,826.6094 L527.1094,826.6094 L527.1094,828.7656 L521.8438,828.7656 L521.8438,831.4375 L526.6094,831.4375 L526.6094,833.5938 L521.8438,833.5938 L521.8438,836.8438 L527.1094,836.8438 L527.1094,839 Z " fill="#000000"/><text fill="#000000" font-family="sans-serif" font-size="14" lengthAdjust="spacing" textLength="80" x="537" y="837.8467">DayOfWeek</text><line style="stroke:#181818;stroke-width:0.5;" x1="509" x2="619" y1="849" y2="849"/><text fill="#000000" font-family="sans-serif" font-size="14" lengthAdjust="spacing" textLength="62" x="514" y="865.9951">MONDAY</text><text fill="#000000" font-family="sans-serif" font-size="14" lengthAdjust="spacing" textLength="66" x="514" y="882.292">TUESDAY</text><text fill="#000000" font-family="sans-serif" font-size="14" lengthAdjust="spacing" textLength="90" x="514" y="898.5889">WEDNESDAY</text><text fill="#000000" font-family="sans-serif" font-size="14" lengthAdjust="spacing" textLength="77" x="514" y="914.8857">THURSDAY</text><text fill="#000000" font-family="sans-serif" font-size="14" lengthAdjust="spacing" textLength="50" x="514" y="931.1826">FRIDAY</text><text fill="#000000" font-family="sans-serif" font-size="14" lengthAdjust="spacing" textLength="76" x="514" y="947.4795">SATURDAY</text><text fill="#000000" font-family="sans-serif" font-size="14" lengthAdjust="spacing" textLength="58" x="514" y="963.7764">SUNDAY</text><line style="stroke:#181818;stroke-width:0.5;" x1="509" x2="619" y1="971.0781" y2="971.0781"/></g><!--class ContactInfo--><g id="elem_ContactInfo"><rect codeLine="96" fill="#F1F1F1" height="129.4844" id="ContactInfo" rx="2.5" ry="2.5" style="stroke:#181818;stroke-width:0.5;" width="178" x="749" y="611"/><ellipse cx="794.25" cy="627" fill="#ADD1B2" rx="11" ry="11" style="stroke:#181818;stroke-width:1.0;"/><path d="M797.2188,632.6406 Q796.6406,632.9375 796,633.0781 Q795.3594,633.2344 794.6563,633.2344 Q792.1563,633.2344 790.8281,631.5938 Q789.5156,629.9375 789.5156,626.8125 Q789.5156,623.6875 790.8281,622.0313 Q792.1563,620.375 794.6563,620.375 Q795.3594,620.375 796,620.5313 Q796.6563,620.6875 797.2188,620.9844 L797.2188,623.7031 Q796.5938,623.125 796,622.8594 Q795.4063,622.5781 794.7813,622.5781 Q793.4375,622.5781 792.75,623.6563 Q792.0625,624.7188 792.0625,626.8125 Q792.0625,628.9063 792.75,629.9844 Q793.4375,631.0469 794.7813,631.0469 Q795.4063,631.0469 796,630.7813 Q796.5938,630.5 797.2188,629.9219 L797.2188,632.6406 Z " fill="#000000"/><text fill="#000000" font-family="sans-serif" font-size="14" lengthAdjust="spacing" textLength="79" x="814.75" y="631.8467">ContactInfo</text><line style="stroke:#181818;stroke-width:0.5;" x1="750" x2="926" y1="643" y2="643"/><rect fill="none" height="6" style="stroke:#C82930;stroke-width:1.0;" width="6" x="757" y="653.6484"/><text fill="#000000" font-family="sans-serif" font-size="14" lengthAdjust="spacing" textLength="101" x="769" y="659.9951">phone: String?</text><rect fill="none" height="6" style="stroke:#C82930;stroke-width:1.0;" width="6" x="757" y="669.9453"/><text fill="#000000" font-family="sans-serif" font-size="14" lengthAdjust="spacing" textLength="92" x="769" y="676.292">email: String?</text><rect fill="none" height="6" style="stroke:#C82930;stroke-width:1.0;" width="6" x="757" y="686.2422"/><text fill="#000000" font-family="sans-serif" font-size="14" lengthAdjust="spacing" textLength="138" x="769" y="692.5889">website: MediaLink?</text><rect fill="none" height="6" style="stroke:#C82930;stroke-width:1.0;" width="6" x="757" y="702.5391"/><text fill="#000000" font-family="sans-serif" font-size="14" lengthAdjust="spacing" textLength="148" x="769" y="708.8857">facebook: MediaLink?</text><rect fill="none" height="6" style="stroke:#C82930;stroke-width:1.0;" width="6" x="757" y="718.8359"/><text fill="#000000" font-family="sans-serif" font-size="14" lengthAdjust="spacing" textLength="152" x="769" y="725.1826">instagram: MediaLink?</text><line style="stroke:#181818;stroke-width:0.5;" x1="750" x2="926" y1="732.4844" y2="732.4844"/></g><!--class MediaLink--><g id="elem_MediaLink"><rect codeLine="108" fill="#F1F1F1" height="80.5938" id="MediaLink" rx="2.5" ry="2.5" style="stroke:#181818;stroke-width:0.5;" width="100" x="788" y="857.5"/><ellipse cx="803" cy="873.5" fill="#ADD1B2" rx="11" ry="11" style="stroke:#181818;stroke-width:1.0;"/><path d="M805.9688,879.1406 Q805.3906,879.4375 804.75,879.5781 Q804.1094,879.7344 803.4063,879.7344 Q800.9063,879.7344 799.5781,878.0938 Q798.2656,876.4375 798.2656,873.3125 Q798.2656,870.1875 799.5781,868.5313 Q800.9063,866.875 803.4063,866.875 Q804.1094,866.875 804.75,867.0313 Q805.4063,867.1875 805.9688,867.4844 L805.9688,870.2031 Q805.3438,869.625 804.75,869.3594 Q804.1563,869.0781 803.5313,869.0781 Q802.1875,869.0781 801.5,870.1563 Q800.8125,871.2188 800.8125,873.3125 Q800.8125,875.4063 801.5,876.4844 Q802.1875,877.5469 803.5313,877.5469 Q804.1563,877.5469 804.75,877.2813 Q805.3438,877 805.9688,876.4219 L805.9688,879.1406 Z " fill="#000000"/><text fill="#000000" font-family="sans-serif" font-size="14" lengthAdjust="spacing" textLength="68" x="817" y="878.3467">MediaLink</text><line style="stroke:#181818;stroke-width:0.5;" x1="789" x2="887" y1="889.5" y2="889.5"/><rect fill="none" height="6" style="stroke:#C82930;stroke-width:1.0;" width="6" x="796" y="900.1484"/><text fill="#000000" font-family="sans-serif" font-size="14" lengthAdjust="spacing" textLength="74" x="808" y="906.4951">title: String</text><rect fill="none" height="6" style="stroke:#C82930;stroke-width:1.0;" width="6" x="796" y="916.4453"/><text fill="#000000" font-family="sans-serif" font-size="14" lengthAdjust="spacing" textLength="66" x="808" y="922.792">url: String</text><line style="stroke:#181818;stroke-width:0.5;" x1="789" x2="887" y1="930.0938" y2="930.0938"/></g><!--class Location--><g id="elem_Location"><rect codeLine="119" fill="#F1F1F1" height="96.8906" id="Location" rx="2.5" ry="2.5" style="stroke:#181818;stroke-width:0.5;" width="184" x="962" y="627"/><ellipse cx="1020.75" cy="643" fill="#ADD1B2" rx="11" ry="11" style="stroke:#181818;stroke-width:1.0;"/><path d="M1023.7188,648.6406 Q1023.1406,648.9375 1022.5,649.0781 Q1021.8594,649.2344 1021.1563,649.2344 Q1018.6563,649.2344 1017.3281,647.5938 Q1016.0156,645.9375 1016.0156,642.8125 Q1016.0156,639.6875 1017.3281,638.0313 Q1018.6563,636.375 1021.1563,636.375 Q1021.8594,636.375 1022.5,636.5313 Q1023.1563,636.6875 1023.7188,636.9844 L1023.7188,639.7031 Q1023.0938,639.125 1022.5,638.8594 Q1021.9063,638.5781 1021.2813,638.5781 Q1019.9375,638.5781 1019.25,639.6563 Q1018.5625,640.7188 1018.5625,642.8125 Q1018.5625,644.9063 1019.25,645.9844 Q1019.9375,647.0469 1021.2813,647.0469 Q1021.9063,647.0469 1022.5,646.7813 Q1023.0938,646.5 1023.7188,645.9219 L1023.7188,648.6406 Z " fill="#000000"/><text fill="#000000" font-family="sans-serif" font-size="14" lengthAdjust="spacing" textLength="58" x="1041.25" y="647.8467">Location</text><line style="stroke:#181818;stroke-width:0.5;" x1="963" x2="1145" y1="659" y2="659"/><rect fill="none" height="6" style="stroke:#C82930;stroke-width:1.0;" width="6" x="970" y="669.6484"/><text fill="#000000" font-family="sans-serif" font-size="14" lengthAdjust="spacing" textLength="105" x="982" y="675.9951">address: String</text><rect fill="none" height="6" style="stroke:#C82930;stroke-width:1.0;" width="6" x="970" y="685.9453"/><text fill="#000000" font-family="sans-serif" font-size="14" lengthAdjust="spacing" textLength="144" x="982" y="692.292">latitude: BigDecimal?</text><rect fill="none" height="6" style="stroke:#C82930;stroke-width:1.0;" width="6" x="970" y="702.2422"/><text fill="#000000" font-family="sans-serif" font-size="14" lengthAdjust="spacing" textLength="158" x="982" y="708.5889">longitude: BigDecimal?</text><line style="stroke:#181818;stroke-width:0.5;" x1="963" x2="1145" y1="715.8906" y2="715.8906"/></g><!--class Review--><g id="elem_Review"><rect codeLine="129" fill="#F1F1F1" height="96.8906" id="Review" rx="2.5" ry="2.5" style="stroke:#181818;stroke-width:0.5;" width="148" x="1181" y="627"/><ellipse cx="1226.25" cy="643" fill="#ADD1B2" rx="11" ry="11" style="stroke:#181818;stroke-width:1.0;"/><path d="M1229.2188,648.6406 Q1228.6406,648.9375 1228,649.0781 Q1227.3594,649.2344 1226.6563,649.2344 Q1224.1563,649.2344 1222.8281,647.5938 Q1221.5156,645.9375 1221.5156,642.8125 Q1221.5156,639.6875 1222.8281,638.0313 Q1224.1563,636.375 1226.6563,636.375 Q1227.3594,636.375 1228,636.5313 Q1228.6563,636.6875 1229.2188,636.9844 L1229.2188,639.7031 Q1228.5938,639.125 1228,638.8594 Q1227.4063,638.5781 1226.7813,638.5781 Q1225.4375,638.5781 1224.75,639.6563 Q1224.0625,640.7188 1224.0625,642.8125 Q1224.0625,644.9063 1224.75,645.9844 Q1225.4375,647.0469 1226.7813,647.0469 Q1227.4063,647.0469 1228,646.7813 Q1228.5938,646.5 1229.2188,645.9219 L1229.2188,648.6406 Z " fill="#000000"/><text fill="#000000" font-family="sans-serif" font-size="14" lengthAdjust="spacing" textLength="49" x="1246.75" y="647.8467">Review</text><line style="stroke:#181818;stroke-width:0.5;" x1="1182" x2="1328" y1="659" y2="659"/><rect fill="none" height="6" style="stroke:#C82930;stroke-width:1.0;" width="6" x="1189" y="669.6484"/><text fill="#000000" font-family="sans-serif" font-size="14" lengthAdjust="spacing" textLength="72" x="1201" y="675.9951">user: User</text><rect fill="none" height="6" style="stroke:#C82930;stroke-width:1.0;" width="6" x="1189" y="685.9453"/><text fill="#000000" font-family="sans-serif" font-size="14" lengthAdjust="spacing" textLength="65" x="1201" y="692.292">rating: int</text><rect fill="none" height="6" style="stroke:#C82930;stroke-width:1.0;" width="6" x="1189" y="702.2422"/><text fill="#000000" font-family="sans-serif" font-size="14" lengthAdjust="spacing" textLength="122" x="1201" y="708.5889">comment: String?</text><line style="stroke:#181818;stroke-width:0.5;" x1="1182" x2="1328" y1="715.8906" y2="715.8906"/></g><!--class Image--><g id="elem_Image"><rect codeLine="139" fill="#F1F1F1" height="64.2969" id="Image" rx="2.5" ry="2.5" style="stroke:#181818;stroke-width:0.5;" width="92" x="784" y="23.5"/><ellipse cx="807.1" cy="39.5" fill="#ADD1B2" rx="11" ry="11" style="stroke:#181818;stroke-width:1.0;"/><path d="M810.0688,45.1406 Q809.4906,45.4375 808.85,45.5781 Q808.2094,45.7344 807.5063,45.7344 Q805.0063,45.7344 803.6781,44.0938 Q802.3656,42.4375 802.3656,39.3125 Q802.3656,36.1875 803.6781,34.5313 Q805.0063,32.875 807.5063,32.875 Q808.2094,32.875 808.85,33.0313 Q809.5063,33.1875 810.0688,33.4844 L810.0688,36.2031 Q809.4438,35.625 808.85,35.3594 Q808.2563,35.0781 807.6313,35.0781 Q806.2875,35.0781 805.6,36.1563 Q804.9125,37.2188 804.9125,39.3125 Q804.9125,41.4063 805.6,42.4844 Q806.2875,43.5469 807.6313,43.5469 Q808.2563,43.5469 808.85,43.2813 Q809.4438,43 810.0688,42.4219 L810.0688,45.1406 Z " fill="#000000"/><text fill="#000000" font-family="sans-serif" font-size="14" lengthAdjust="spacing" textLength="42" x="822.9" y="44.3467">Image</text><line style="stroke:#181818;stroke-width:0.5;" x1="785" x2="875" y1="55.5" y2="55.5"/><rect fill="none" height="6" style="stroke:#C82930;stroke-width:1.0;" width="6" x="792" y="66.1484"/><text fill="#000000" font-family="sans-serif" font-size="14" lengthAdjust="spacing" textLength="66" x="804" y="72.4951">url: String</text><line style="stroke:#181818;stroke-width:0.5;" x1="785" x2="875" y1="79.7969" y2="79.7969"/></g><!--reverse link User to UserContactInfo--><g id="link_User_UserContactInfo"><path codeLine="15" d="M629.7432,114.9719 C624.7332,124.6719 625.25,124.23 621,134 C614.47,149.01 608.34,165.95 603.34,180.83 " fill="none" id="User-backto-UserContactInfo" style="stroke:#181818;stroke-width:1.0;"/><polygon fill="#181818" points="635.25,104.31,628.9427,107.8053,629.7432,114.9719,636.0506,111.4765,635.25,104.31" style="stroke:#181818;stroke-width:1.0;"/><polygon fill="#000000" points="624.1394,147.2073,630.2331,139.9054,624.7774,137.7182,624.1394,147.2073" style="stroke:#000000;stroke-width:1.0;"/><text fill="#000000" font-family="sans-serif" font-size="13" lengthAdjust="spacing" textLength="71" x="635" y="147.0669">contactInfo</text><text fill="#000000" font-family="sans-serif" font-size="13" lengthAdjust="spacing" textLength="8" x="623.118" y="123.9598">1</text><text fill="#000000" font-family="sans-serif" font-size="13" lengthAdjust="spacing" textLength="8" x="596.7213" y="169.9634">1</text></g><!--link User to Shop--><g id="link_User_Shop"><path codeLine="32" d="M697.21,104.29 C702.7,113.74 707.65,123.87 711,134 C731.01,194.52 736.6098,253.7607 737.2298,310.8907 " fill="none" id="User-to-Shop" style="stroke:#181818;stroke-width:1.0;"/><polygon fill="none" points="737.36,322.89,741.2947,316.8469,737.2298,310.8907,733.2951,316.9338,737.36,322.89" style="stroke:#181818;stroke-width:1.0;"/><polygon fill="#000000" points="739.0491,216.6577,737.884,226.0966,743.6546,224.9788,739.0491,216.6577" style="stroke:#000000;stroke-width:1.0;"/><text fill="#000000" font-family="sans-serif" font-size="13" lengthAdjust="spacing" textLength="57" x="749" y="226.0669">ownedBy</text><text fill="#000000" font-family="sans-serif" font-size="13" lengthAdjust="spacing" textLength="8" x="693.4038" y="123.9371">1</text><text fill="#000000" font-family="sans-serif" font-size="13" lengthAdjust="spacing" textLength="23" x="713.858" y="312.0096">0..*</text></g><!--reverse link Shop to ProductCategory--><g id="link_Shop_ProductCategory"><path codeLine="41" d="M557.8534,472.1126 C443.4934,502.9326 300.6,547.98 173,611 C159.43,617.7 145.59,626.22 132.9,634.82 " fill="none" id="Shop-backto-ProductCategory" style="stroke:#181818;stroke-width:1.0;"/><polygon fill="#181818" points="569.44,468.99,562.6058,466.6891,557.8534,472.1126,564.6876,474.4135,569.44,468.99" style="stroke:#181818;stroke-width:1.0;"/><polygon fill="#000000" points="276.3306,574.3543,285.8285,573.8646,283.7268,568.3754,276.3306,574.3543" style="stroke:#000000;stroke-width:1.0;"/><text fill="#000000" font-family="sans-serif" font-size="13" lengthAdjust="spacing" textLength="67" x="290" y="577.0669">categories</text><text fill="#000000" font-family="sans-serif" font-size="13" lengthAdjust="spacing" textLength="8" x="553.3238" y="467.6588">1</text><text fill="#000000" font-family="sans-serif" font-size="13" lengthAdjust="spacing" textLength="23" x="116.5913" y="623.9517">0..*</text></g><!--reverse link Shop to Menu--><g id="link_Shop_Menu"><path codeLine="70" d="M558.8669,522.684 C503.9369,552.294 452.98,580.02 397,611 C378.13,621.45 357.57,633.04 339.28,643.43 " fill="none" id="Shop-backto-Menu" style="stroke:#181818;stroke-width:1.0;"/><polygon fill="#181818" points="569.43,516.99,562.2505,516.316,558.8669,522.684,566.0465,523.358,569.43,516.99" style="stroke:#181818;stroke-width:1.0;"/><polygon fill="#000000" points="480.6187,574.9756,489.9606,573.1926,487.1285,568.0421,480.6187,574.9756" style="stroke:#000000;stroke-width:1.0;"/><text fill="#000000" font-family="sans-serif" font-size="13" lengthAdjust="spacing" textLength="37" x="494" y="577.0669">menu</text><text fill="#000000" font-family="sans-serif" font-size="13" lengthAdjust="spacing" textLength="8" x="553.3133" y="517.9838">1</text><text fill="#000000" font-family="sans-serif" font-size="13" lengthAdjust="spacing" textLength="8" x="341.6502" y="632.3187">1</text></g><!--reverse link Menu to MenuItem--><g id="link_Menu_MenuItem"><path codeLine="71" d="M285,719.62 C285,752.15 285,792.1 285,833.37 " fill="none" id="Menu-backto-MenuItem" style="stroke:#181818;stroke-width:1.0;"/><polygon fill="#181818" points="285,707.62,281,713.62,285,719.62,289,713.62,285,707.62" style="stroke:#181818;stroke-width:1.0;"/><polygon fill="#000000" points="290,783.5664,292.9389,774.5213,287.0611,774.5213,290,783.5664" style="stroke:#000000;stroke-width:1.0;"/><text fill="#000000" font-family="sans-serif" font-size="13" lengthAdjust="spacing" textLength="36" x="299" y="783.0669">items</text><text fill="#000000" font-family="sans-serif" font-size="13" lengthAdjust="spacing" textLength="8" x="276.175" y="727.8416">1</text><text fill="#000000" font-family="sans-serif" font-size="13" lengthAdjust="spacing" textLength="23" x="260.7422" y="822.5284">0..*</text></g><!--reverse link MenuItem to Price--><g id="link_MenuItem_Price"><path codeLine="72" d="M254.1016,973.8722 C238.5116,1011.6422 223.82,1047.24 210.39,1079.79 " fill="none" id="MenuItem-backto-Price" style="stroke:#181818;stroke-width:1.0;"/><polygon fill="#181818" points="258.68,962.78,252.6934,966.8,254.1016,973.8722,260.0882,969.8523,258.68,962.78" style="stroke:#181818;stroke-width:1.0;"/><polygon fill="#000000" points="243.0926,1022.1883,249.2598,1014.9484,243.8265,1012.7061,243.0926,1022.1883" style="stroke:#000000;stroke-width:1.0;"/><text fill="#000000" font-family="sans-serif" font-size="13" lengthAdjust="spacing" textLength="78" x="254" y="1022.0669">pricePerUnit</text><text fill="#000000" font-family="sans-serif" font-size="13" lengthAdjust="spacing" textLength="8" x="247.1743" y="983.1839">1</text><text fill="#000000" font-family="sans-serif" font-size="13" lengthAdjust="spacing" textLength="8" x="204.4421" y="1068.9168">1</text></g><!--reverse link MenuItem to MenuItemUnit--><g id="link_MenuItem_MenuItemUnit"><path codeLine="73" d="M321.596,973.6442 C328.646,988.6742 330.77,993.86 337,1009 C343.19,1024.05 349.33,1040.49 354.83,1055.97 " fill="none" id="MenuItem-backto-MenuItemUnit" style="stroke:#181818;stroke-width:1.0;"/><polygon fill="#181818" points="316.5,962.78,315.4266,969.9108,321.596,973.6442,322.6694,966.5134,316.5,962.78" style="stroke:#181818;stroke-width:1.0;"/><polygon fill="#000000" points="349.8717,1022.2029,349.211,1012.7153,343.7605,1014.9156,349.8717,1022.2029" style="stroke:#000000;stroke-width:1.0;"/><text fill="#000000" font-family="sans-serif" font-size="13" lengthAdjust="spacing" textLength="24" x="357" y="1022.0669">unit</text><text fill="#000000" font-family="sans-serif" font-size="13" lengthAdjust="spacing" textLength="8" x="311.6797" y="983.1839">1</text><text fill="#000000" font-family="sans-serif" font-size="13" lengthAdjust="spacing" textLength="8" x="344.077" y="1045.1394">1</text></g><!--reverse link Shop to OpeningHours--><g id="link_Shop_OpeningHours"><path codeLine="91" d="M654.027,543.9884 C626.757,583.5284 604.54,615.73 585.46,643.39 " fill="none" id="Shop-backto-OpeningHours" style="stroke:#181818;stroke-width:1.0;"/><polygon fill="#181818" points="660.84,534.11,654.1407,536.7782,654.027,543.9884,660.7263,541.3202,660.84,534.11" style="stroke:#181818;stroke-width:1.0;"/><polygon fill="#000000" points="641.1609,576.6822,648.7161,570.9054,643.8777,567.5679,641.1609,576.6822" style="stroke:#000000;stroke-width:1.0;"/><text fill="#000000" font-family="sans-serif" font-size="13" lengthAdjust="spacing" textLength="89" x="653" y="577.0669">openingHours</text><text fill="#000000" font-family="sans-serif" font-size="13" lengthAdjust="spacing" textLength="8" x="647.485" y="554.1357">1</text><text fill="#000000" font-family="sans-serif" font-size="13" lengthAdjust="spacing" textLength="8" x="581.0611" y="632.2704">1</text></g><!--reverse link OpeningHours to DayOfWeek--><g id="link_OpeningHours_DayOfWeek"><path codeLine="92" d="M564,719.62 C564,747.88 564,778.79 564,816.62 " fill="none" id="OpeningHours-backto-DayOfWeek" style="stroke:#181818;stroke-width:1.0;"/><polygon fill="#181818" points="564,707.62,560,713.62,564,719.62,568,713.62,564,707.62" style="stroke:#181818;stroke-width:1.0;"/><polygon fill="#000000" points="569,783.5664,571.9389,774.5213,566.0611,774.5213,569,783.5664" style="stroke:#000000;stroke-width:1.0;"/><text fill="#000000" font-family="sans-serif" font-size="13" lengthAdjust="spacing" textLength="76" x="578" y="783.0669">dayToHours</text><text fill="#000000" font-family="sans-serif" font-size="13" lengthAdjust="spacing" textLength="8" x="555.175" y="727.8416">1</text><text fill="#000000" font-family="sans-serif" font-size="13" lengthAdjust="spacing" textLength="23" x="540.0117" y="806.0511">0..*</text></g><!--reverse link Shop to ContactInfo--><g id="link_Shop_ContactInfo"><path codeLine="104" d="M782.5596,545.1386 C793.7696,571.2786 800.72,587.51 810.77,610.97 " fill="none" id="Shop-backto-ContactInfo" style="stroke:#181818;stroke-width:1.0;"/><polygon fill="#181818" points="777.83,534.11,776.5186,541.2009,782.5596,545.1386,783.871,538.0478,777.83,534.11" style="stroke:#181818;stroke-width:1.0;"/><polygon fill="#000000" points="801.9694,577.1622,801.1081,567.6907,795.7054,570.0059,801.9694,577.1622" style="stroke:#000000;stroke-width:1.0;"/><text fill="#000000" font-family="sans-serif" font-size="13" lengthAdjust="spacing" textLength="71" x="809" y="577.0669">contactInfo</text><text fill="#000000" font-family="sans-serif" font-size="13" lengthAdjust="spacing" textLength="8" x="772.7009" y="554.1357">1</text><text fill="#000000" font-family="sans-serif" font-size="13" lengthAdjust="spacing" textLength="8" x="799.3542" y="600.1394">1</text></g><!--reverse link ContactInfo to MediaLink--><g id="link_ContactInfo_MediaLink"><path codeLine="113" d="M740.2829,741.9635 C729.4729,752.7435 728.47,756.47 722,770 C718.74,776.82 719.02,780.06 722,787 C735.54,818.49 763.01,845.2 787.82,864.41 " fill="none" id="ContactInfo-backto-MediaLink" style="stroke:#181818;stroke-width:1.0;"/><polygon fill="#181818" points="748.78,733.49,741.707,734.8944,740.2829,741.9635,747.356,740.5591,748.78,733.49" style="stroke:#181818;stroke-width:1.0;"/><polygon fill="#000000" points="728.8096,783.2275,728.2757,773.7319,722.7963,775.8592,728.8096,783.2275" style="stroke:#000000;stroke-width:1.0;"/><text fill="#000000" font-family="sans-serif" font-size="13" lengthAdjust="spacing" textLength="58" x="736" y="783.0669">facebook</text><text fill="#000000" font-family="sans-serif" font-size="13" lengthAdjust="spacing" textLength="8" x="733.0602" y="734.7235">1</text><text fill="#000000" font-family="sans-serif" font-size="13" lengthAdjust="spacing" textLength="24" x="755.8532" y="856.2468">0..1</text></g><!--reverse link ContactInfo to MediaLink--><g id="link_ContactInfo_MediaLink"><path codeLine="114" d="M835.3441,752.1153 C835.0641,762.1153 835.15,760.34 835,770 C834.53,799.22 835.35,832.21 836.25,857.25 " fill="none" id="ContactInfo-backto-MediaLink-1" style="stroke:#181818;stroke-width:1.0;"/><polygon fill="#181818" points="835.68,740.12,831.5136,746.0057,835.3441,752.1153,839.5105,746.2296,835.68,740.12" style="stroke:#181818;stroke-width:1.0;"/><polygon fill="#000000" points="840.0431,783.5662,842.904,774.4961,837.0263,774.5468,840.0431,783.5662" style="stroke:#000000;stroke-width:1.0;"/><text fill="#000000" font-family="sans-serif" font-size="13" lengthAdjust="spacing" textLength="65" x="849" y="783.0669">instagram</text><text fill="#000000" font-family="sans-serif" font-size="13" lengthAdjust="spacing" textLength="8" x="826.9492" y="760.5054">1</text><text fill="#000000" font-family="sans-serif" font-size="13" lengthAdjust="spacing" textLength="24" x="809.9727" y="846.3701">0..1</text></g><!--reverse link ContactInfo to MediaLink--><g id="link_ContactInfo_MediaLink"><path codeLine="115" d="M917.6842,750.4517 C926.4242,764.9217 924.38,770.62 919,787 C910.45,813.02 893.13,837.96 876.69,857.49 " fill="none" id="ContactInfo-backto-MediaLink-2" style="stroke:#181818;stroke-width:1.0;"/><polygon fill="#181818" points="911.48,740.18,911.1582,747.3839,917.6842,750.4517,918.006,743.2478,911.48,740.18" style="stroke:#181818;stroke-width:1.0;"/><polygon fill="#000000" points="925.2117,783.2357,931.1913,775.84,925.7022,773.7378,925.2117,783.2357" style="stroke:#000000;stroke-width:1.0;"/><text fill="#000000" font-family="sans-serif" font-size="13" lengthAdjust="spacing" textLength="48" x="936" y="783.0669">website</text><text fill="#000000" font-family="sans-serif" font-size="13" lengthAdjust="spacing" textLength="8" x="911.5136" y="760.5724">1</text><text fill="#000000" font-family="sans-serif" font-size="13" lengthAdjust="spacing" textLength="24" x="857.2773" y="846.3515">0..1</text></g><!--reverse link Shop to Location--><g id="link_Shop_Location"><path codeLine="125" d="M879.5984,541.3914 C921.8584,573.6514 956.8,600.31 991.43,626.74 " fill="none" id="Shop-backto-Location" style="stroke:#181818;stroke-width:1.0;"/><polygon fill="#181818" points="870.06,534.11,872.4021,540.9302,879.5984,541.3914,877.2563,534.5712,870.06,534.11" style="stroke:#181818;stroke-width:1.0;"/><polygon fill="#000000" points="931.9747,575.5999,926.5674,567.776,923.0014,572.4486,931.9747,575.5999" style="stroke:#000000;stroke-width:1.0;"/><text fill="#000000" font-family="sans-serif" font-size="13" lengthAdjust="spacing" textLength="50" x="937" y="577.0669">location</text><text fill="#000000" font-family="sans-serif" font-size="13" lengthAdjust="spacing" textLength="8" x="871.4158" y="554.1357">1</text><text fill="#000000" font-family="sans-serif" font-size="13" lengthAdjust="spacing" textLength="8" x="974.0686" y="615.9124">1</text></g><!--reverse link Shop to Review--><g id="link_Shop_Review"><path codeLine="135" d="M907.8726,493.3987 C990.0326,525.5987 1078.77,564.01 1164,611 C1172.69,615.79 1181.56,621.22 1190.2,626.85 " fill="none" id="Shop-backto-Review" style="stroke:#181818;stroke-width:1.0;"/><polygon fill="#181818" points="896.7,489.02,900.8267,494.9336,907.8726,493.3987,903.7459,487.4852,896.7,489.02" style="stroke:#181818;stroke-width:1.0;"/><polygon fill="#000000" points="1106.5204,574.7031,1099.5988,568.1807,1097.0869,573.4948,1106.5204,574.7031" style="stroke:#000000;stroke-width:1.0;"/><text fill="#000000" font-family="sans-serif" font-size="13" lengthAdjust="spacing" textLength="47" x="1111" y="577.0669">reviews</text><text fill="#000000" font-family="sans-serif" font-size="13" lengthAdjust="spacing" textLength="8" x="904.2989" y="488.4931">1</text><text fill="#000000" font-family="sans-serif" font-size="13" lengthAdjust="spacing" textLength="23" x="1156.4703" y="616.0378">0..*</text></g><!--SRC=[hLR1Rjim3BtdAuHS2XHhiLs58aNRPAknf0cI64MFggouGcp9aEKLmR1_7orBikMvMsiiXrWa9VBnaHPDCrAMA2wPGZyd27uNY2SOxRJY8hKAGNBMKnLA7dZ6DfpgIe4noadAhYU_9fCpTF7l7pgRJAYFV2U59bH7uY0zYE952X_qsYfPJdZMAY6Q0JxzCaNduBH-zlrXH3lIxCFuTY-o29Y9usZ-DY_oLJ253OgMgQIY-evebah5MOdHafVwQXFeJpCNeYRIxJ6iEalEH8NH2lwj8fEKQ2u5RBOh1w9W0Y3Toqg1ftL7iXiwb63KOSkQ5Vl1sQi3iJNIB60RA99e-ldoydpQC8HDvidj2LrzcE8U4vxj0NgfpAIg8SEZ1cHY-_8tUFhke0CyzoCQe2QyRG3DSiTBROX0DioqUslLtr98M4aLBvh2XUrTA4xPXgbOS8qX3v2ifJ8QvxwsEq1YfoKzOdGhPSQ8QB6Ounu8oMKbmCKjJ-UCGfDbZj5AAIRe2KYrgze51Cg3SDRH9bhSBSpgUxHSVzlUh8pW5yjelzYQrIfQBgD6_ADEy3IiOjFJK1CZzShekSGDwtQRKNKzDNdYWBotzWOPOSFgY8xelb2Uu8ISzjA-SIjINCt9QNruPEpuoHPvvddr9djujNwOtpoPvJvUxDpwSJ5_QANzVRprmjTjv9QxctsyzK9iF0qH7e36mHK150JMNY5QkBYJvGZUnbxpZVALFPVG2FLRa72ovEBeB0T2sREKnm4J5wKcgI9vO1lYvt_E31_AfwcvpleNGQLyZZMYBe1k1KpREd_O9mkmtdd2S_3-8vRh4QcxITHUF4cYM5dsSizWawuIrhsGhlrO4-c0SQXeFXhsmt04vcR0USHLsPlW2XoBj2PI-p6KmysbWo-HeL5aFMCtKKU0Cvy0BRQWPtu3]--></g></svg>