<?xml version="1.0" encoding="us-ascii" standalone="no"?><svg xmlns="http://www.w3.org/2000/svg" xmlns:xlink="http://www.w3.org/1999/xlink" contentStyleType="text/css" height="1110px" preserveAspectRatio="none" style="width:849px;height:1110px;background:#FFFFFF;" version="1.1" viewBox="0 0 849 1110" width="849px" zoomAndPan="magnify"><defs/><g><!--class ImageResource--><g id="elem_ImageResource"><rect codeLine="5" fill="#F1F1F1" height="64.2969" id="ImageResource" rx="2.5" ry="2.5" style="stroke:#181818;stroke-width:0.5;" width="141" x="224.5" y="245.5"/><ellipse cx="239.5" cy="261.5" fill="#ADD1B2" rx="11" ry="11" style="stroke:#181818;stroke-width:1.0;"/><path d="M242.4688,267.1406 Q241.8906,267.4375 241.25,267.5781 Q240.6094,267.7344 239.9063,267.7344 Q237.4063,267.7344 236.0781,266.0938 Q234.7656,264.4375 234.7656,261.3125 Q234.7656,258.1875 236.0781,256.5313 Q237.4063,254.875 239.9063,254.875 Q240.6094,254.875 241.25,255.0313 Q241.9063,255.1875 242.4688,255.4844 L242.4688,258.2031 Q241.8438,257.625 241.25,257.3594 Q240.6563,257.0781 240.0313,257.0781 Q238.6875,257.0781 238,258.1563 Q237.3125,259.2188 237.3125,261.3125 Q237.3125,263.4063 238,264.4844 Q238.6875,265.5469 240.0313,265.5469 Q240.6563,265.5469 241.25,265.2813 Q241.8438,265 242.4688,264.4219 L242.4688,267.1406 Z " fill="#000000"/><text fill="#000000" font-family="sans-serif" font-size="14" lengthAdjust="spacing" textLength="109" x="253.5" y="266.3467">ImageResource</text><line style="stroke:#181818;stroke-width:0.5;" x1="225.5" x2="364.5" y1="277.5" y2="277.5"/><rect fill="none" height="6" style="stroke:#C82930;stroke-width:1.0;" width="6" x="232.5" y="288.1484"/><text fill="#000000" font-family="sans-serif" font-size="14" lengthAdjust="spacing" textLength="66" x="244.5" y="294.4951">url: String</text><line style="stroke:#181818;stroke-width:0.5;" x1="225.5" x2="364.5" y1="301.7969" y2="301.7969"/></g><!--class User--><g id="elem_User"><rect codeLine="11" fill="#F1F1F1" height="129.4844" id="User" rx="2.5" ry="2.5" style="stroke:#181818;stroke-width:0.5;" width="241" x="498.5" y="213"/><ellipse cx="598.75" cy="229" fill="#ADD1B2" rx="11" ry="11" style="stroke:#181818;stroke-width:1.0;"/><path d="M601.7188,234.6406 Q601.1406,234.9375 600.5,235.0781 Q599.8594,235.2344 599.1563,235.2344 Q596.6563,235.2344 595.3281,233.5938 Q594.0156,231.9375 594.0156,228.8125 Q594.0156,225.6875 595.3281,224.0313 Q596.6563,222.375 599.1563,222.375 Q599.8594,222.375 600.5,222.5313 Q601.1563,222.6875 601.7188,222.9844 L601.7188,225.7031 Q601.0938,225.125 600.5,224.8594 Q599.9063,224.5781 599.2813,224.5781 Q597.9375,224.5781 597.25,225.6563 Q596.5625,226.7188 596.5625,228.8125 Q596.5625,230.9063 597.25,231.9844 Q597.9375,233.0469 599.2813,233.0469 Q599.9063,233.0469 600.5,232.7813 Q601.0938,232.5 601.7188,231.9219 L601.7188,234.6406 Z " fill="#000000"/><text fill="#000000" font-family="sans-serif" font-size="14" lengthAdjust="spacing" textLength="32" x="619.25" y="233.8467">User</text><line style="stroke:#181818;stroke-width:0.5;" x1="499.5" x2="738.5" y1="245" y2="245"/><rect fill="none" height="6" style="stroke:#C82930;stroke-width:1.0;" width="6" x="506.5" y="255.6484"/><text fill="#000000" font-family="sans-serif" font-size="14" lengthAdjust="spacing" textLength="55" x="518.5" y="261.9951">id: UUID</text><rect fill="none" height="6" style="stroke:#C82930;stroke-width:1.0;" width="6" x="506.5" y="271.9453"/><text fill="#000000" font-family="sans-serif" font-size="14" lengthAdjust="spacing" textLength="92" x="518.5" y="278.292">authId: String</text><rect fill="none" height="6" style="stroke:#C82930;stroke-width:1.0;" width="6" x="506.5" y="288.2422"/><text fill="#000000" font-family="sans-serif" font-size="14" lengthAdjust="spacing" textLength="88" x="518.5" y="294.5889">name: String</text><rect fill="none" height="6" style="stroke:#C82930;stroke-width:1.0;" width="6" x="506.5" y="304.5391"/><text fill="#000000" font-family="sans-serif" font-size="14" lengthAdjust="spacing" textLength="215" x="518.5" y="310.8857">profilePicture: ImageResource?</text><rect fill="none" height="6" style="stroke:#C82930;stroke-width:1.0;" width="6" x="506.5" y="320.8359"/><text fill="#000000" font-family="sans-serif" font-size="14" lengthAdjust="spacing" textLength="165" x="518.5" y="327.1826">contactInfo: ContactInfo</text><line style="stroke:#181818;stroke-width:0.5;" x1="499.5" x2="738.5" y1="334.4844" y2="334.4844"/></g><!--class ContactInfo--><g id="elem_ContactInfo"><rect codeLine="23" fill="#F1F1F1" height="129.4844" id="ContactInfo" rx="2.5" ry="2.5" style="stroke:#181818;stroke-width:0.5;" width="150" x="544" y="7"/><ellipse cx="576.55" cy="23" fill="#ADD1B2" rx="11" ry="11" style="stroke:#181818;stroke-width:1.0;"/><path d="M579.5188,28.6406 Q578.9406,28.9375 578.3,29.0781 Q577.6594,29.2344 576.9563,29.2344 Q574.4563,29.2344 573.1281,27.5938 Q571.8156,25.9375 571.8156,22.8125 Q571.8156,19.6875 573.1281,18.0313 Q574.4563,16.375 576.9563,16.375 Q577.6594,16.375 578.3,16.5313 Q578.9563,16.6875 579.5188,16.9844 L579.5188,19.7031 Q578.8938,19.125 578.3,18.8594 Q577.7063,18.5781 577.0813,18.5781 Q575.7375,18.5781 575.05,19.6563 Q574.3625,20.7188 574.3625,22.8125 Q574.3625,24.9063 575.05,25.9844 Q575.7375,27.0469 577.0813,27.0469 Q577.7063,27.0469 578.3,26.7813 Q578.8938,26.5 579.5188,25.9219 L579.5188,28.6406 Z " fill="#000000"/><text fill="#000000" font-family="sans-serif" font-size="14" lengthAdjust="spacing" textLength="79" x="594.45" y="27.8467">ContactInfo</text><line style="stroke:#181818;stroke-width:0.5;" x1="545" x2="693" y1="39" y2="39"/><rect fill="none" height="6" style="stroke:#C82930;stroke-width:1.0;" width="6" x="552" y="49.6484"/><text fill="#000000" font-family="sans-serif" font-size="14" lengthAdjust="spacing" textLength="101" x="564" y="55.9951">phone: String?</text><rect fill="none" height="6" style="stroke:#C82930;stroke-width:1.0;" width="6" x="552" y="65.9453"/><text fill="#000000" font-family="sans-serif" font-size="14" lengthAdjust="spacing" textLength="92" x="564" y="72.292">email: String?</text><rect fill="none" height="6" style="stroke:#C82930;stroke-width:1.0;" width="6" x="552" y="82.2422"/><text fill="#000000" font-family="sans-serif" font-size="14" lengthAdjust="spacing" textLength="110" x="564" y="88.5889">website: String?</text><rect fill="none" height="6" style="stroke:#C82930;stroke-width:1.0;" width="6" x="552" y="98.5391"/><text fill="#000000" font-family="sans-serif" font-size="14" lengthAdjust="spacing" textLength="120" x="564" y="104.8857">facebook: String?</text><rect fill="none" height="6" style="stroke:#C82930;stroke-width:1.0;" width="6" x="552" y="114.8359"/><text fill="#000000" font-family="sans-serif" font-size="14" lengthAdjust="spacing" textLength="124" x="564" y="121.1826">instagram: String?</text><line style="stroke:#181818;stroke-width:0.5;" x1="545" x2="693" y1="128.4844" y2="128.4844"/></g><!--class Shop--><g id="elem_Shop"><rect codeLine="35" fill="#F1F1F1" height="194.6719" id="Shop" rx="2.5" ry="2.5" style="stroke:#181818;stroke-width:0.5;" width="290" x="220" y="419"/><ellipse cx="342.75" cy="435" fill="#ADD1B2" rx="11" ry="11" style="stroke:#181818;stroke-width:1.0;"/><path d="M345.7188,440.6406 Q345.1406,440.9375 344.5,441.0781 Q343.8594,441.2344 343.1563,441.2344 Q340.6563,441.2344 339.3281,439.5938 Q338.0156,437.9375 338.0156,434.8125 Q338.0156,431.6875 339.3281,430.0313 Q340.6563,428.375 343.1563,428.375 Q343.8594,428.375 344.5,428.5313 Q345.1563,428.6875 345.7188,428.9844 L345.7188,431.7031 Q345.0938,431.125 344.5,430.8594 Q343.9063,430.5781 343.2813,430.5781 Q341.9375,430.5781 341.25,431.6563 Q340.5625,432.7188 340.5625,434.8125 Q340.5625,436.9063 341.25,437.9844 Q341.9375,439.0469 343.2813,439.0469 Q343.9063,439.0469 344.5,438.7813 Q345.0938,438.5 345.7188,437.9219 L345.7188,440.6406 Z " fill="#000000"/><text fill="#000000" font-family="sans-serif" font-size="14" lengthAdjust="spacing" textLength="36" x="363.25" y="439.8467">Shop</text><line style="stroke:#181818;stroke-width:0.5;" x1="221" x2="509" y1="451" y2="451"/><rect fill="none" height="6" style="stroke:#C82930;stroke-width:1.0;" width="6" x="228" y="461.6484"/><text fill="#000000" font-family="sans-serif" font-size="14" lengthAdjust="spacing" textLength="55" x="240" y="467.9951">id: UUID</text><rect fill="none" height="6" style="stroke:#C82930;stroke-width:1.0;" width="6" x="228" y="477.9453"/><text fill="#000000" font-family="sans-serif" font-size="14" lengthAdjust="spacing" textLength="88" x="240" y="484.292">name: String</text><rect fill="none" height="6" style="stroke:#C82930;stroke-width:1.0;" width="6" x="228" y="494.2422"/><text fill="#000000" font-family="sans-serif" font-size="14" lengthAdjust="spacing" textLength="133" x="240" y="500.5889">description: String?</text><rect fill="none" height="6" style="stroke:#C82930;stroke-width:1.0;" width="6" x="228" y="510.5391"/><text fill="#000000" font-family="sans-serif" font-size="14" lengthAdjust="spacing" textLength="84" x="240" y="516.8857">owner: User</text><rect fill="none" height="6" style="stroke:#C82930;stroke-width:1.0;" width="6" x="228" y="526.8359"/><text fill="#000000" font-family="sans-serif" font-size="14" lengthAdjust="spacing" textLength="264" x="240" y="533.1826">shopCategories: List&lt;ShopCategory&gt;</text><rect fill="none" height="6" style="stroke:#C82930;stroke-width:1.0;" width="6" x="228" y="543.1328"/><text fill="#000000" font-family="sans-serif" font-size="14" lengthAdjust="spacing" textLength="215" x="240" y="549.4795">images: List&lt;ImageResource&gt;</text><rect fill="none" height="6" style="stroke:#C82930;stroke-width:1.0;" width="6" x="228" y="559.4297"/><text fill="#000000" font-family="sans-serif" font-size="14" lengthAdjust="spacing" textLength="88" x="240" y="565.7764">menu: Menu</text><rect fill="none" height="6" style="stroke:#C82930;stroke-width:1.0;" width="6" x="228" y="575.7266"/><text fill="#000000" font-family="sans-serif" font-size="14" lengthAdjust="spacing" textLength="121" x="240" y="582.0732">location: Location</text><rect fill="none" height="6" style="stroke:#C82930;stroke-width:1.0;" width="6" x="228" y="592.0234"/><text fill="#000000" font-family="sans-serif" font-size="14" lengthAdjust="spacing" textLength="207" x="240" y="598.3701">openingHours: OpeningHours</text><line style="stroke:#181818;stroke-width:0.5;" x1="221" x2="509" y1="605.6719" y2="605.6719"/></g><!--class ShopCategory--><g id="elem_ShopCategory"><rect codeLine="53" fill="#F1F1F1" height="80.5938" id="ShopCategory" rx="2.5" ry="2.5" style="stroke:#181818;stroke-width:0.5;" width="130" x="7" y="691"/><ellipse cx="22" cy="707" fill="#ADD1B2" rx="11" ry="11" style="stroke:#181818;stroke-width:1.0;"/><path d="M24.9688,712.6406 Q24.3906,712.9375 23.75,713.0781 Q23.1094,713.2344 22.4063,713.2344 Q19.9063,713.2344 18.5781,711.5938 Q17.2656,709.9375 17.2656,706.8125 Q17.2656,703.6875 18.5781,702.0313 Q19.9063,700.375 22.4063,700.375 Q23.1094,700.375 23.75,700.5313 Q24.4063,700.6875 24.9688,700.9844 L24.9688,703.7031 Q24.3438,703.125 23.75,702.8594 Q23.1563,702.5781 22.5313,702.5781 Q21.1875,702.5781 20.5,703.6563 Q19.8125,704.7188 19.8125,706.8125 Q19.8125,708.9063 20.5,709.9844 Q21.1875,711.0469 22.5313,711.0469 Q23.1563,711.0469 23.75,710.7813 Q24.3438,710.5 24.9688,709.9219 L24.9688,712.6406 Z " fill="#000000"/><text fill="#000000" font-family="sans-serif" font-size="14" lengthAdjust="spacing" textLength="98" x="36" y="711.8467">ShopCategory</text><line style="stroke:#181818;stroke-width:0.5;" x1="8" x2="136" y1="723" y2="723"/><rect fill="none" height="6" style="stroke:#C82930;stroke-width:1.0;" width="6" x="15" y="733.6484"/><text fill="#000000" font-family="sans-serif" font-size="14" lengthAdjust="spacing" textLength="88" x="27" y="739.9951">name: String</text><rect fill="none" height="6" style="stroke:#C82930;stroke-width:1.0;" width="6" x="15" y="749.9453"/><text fill="#000000" font-family="sans-serif" font-size="14" lengthAdjust="spacing" textLength="79" x="27" y="756.292">color: Color</text><line style="stroke:#181818;stroke-width:0.5;" x1="8" x2="136" y1="763.5938" y2="763.5938"/></g><!--class Menu--><g id="elem_Menu"><rect codeLine="63" fill="#F1F1F1" height="64.2969" id="Menu" rx="2.5" ry="2.5" style="stroke:#181818;stroke-width:0.5;" width="189" x="172.5" y="699.5"/><ellipse cx="243.25" cy="715.5" fill="#ADD1B2" rx="11" ry="11" style="stroke:#181818;stroke-width:1.0;"/><path d="M246.2188,721.1406 Q245.6406,721.4375 245,721.5781 Q244.3594,721.7344 243.6563,721.7344 Q241.1563,721.7344 239.8281,720.0938 Q238.5156,718.4375 238.5156,715.3125 Q238.5156,712.1875 239.8281,710.5313 Q241.1563,708.875 243.6563,708.875 Q244.3594,708.875 245,709.0313 Q245.6563,709.1875 246.2188,709.4844 L246.2188,712.2031 Q245.5938,711.625 245,711.3594 Q244.4063,711.0781 243.7813,711.0781 Q242.4375,711.0781 241.75,712.1563 Q241.0625,713.2188 241.0625,715.3125 Q241.0625,717.4063 241.75,718.4844 Q242.4375,719.5469 243.7813,719.5469 Q244.4063,719.5469 245,719.2813 Q245.5938,719 246.2188,718.4219 L246.2188,721.1406 Z " fill="#000000"/><text fill="#000000" font-family="sans-serif" font-size="14" lengthAdjust="spacing" textLength="39" x="263.75" y="720.3467">Menu</text><line style="stroke:#181818;stroke-width:0.5;" x1="173.5" x2="360.5" y1="731.5" y2="731.5"/><rect fill="none" height="6" style="stroke:#C82930;stroke-width:1.0;" width="6" x="180.5" y="742.1484"/><text fill="#000000" font-family="sans-serif" font-size="14" lengthAdjust="spacing" textLength="163" x="192.5" y="748.4951">items: List&lt;MenuItem&gt;</text><line style="stroke:#181818;stroke-width:0.5;" x1="173.5" x2="360.5" y1="755.7969" y2="755.7969"/></g><!--class MenuItem--><g id="elem_MenuItem"><rect codeLine="67" fill="#F1F1F1" height="113.1875" id="MenuItem" rx="2.5" ry="2.5" style="stroke:#181818;stroke-width:0.5;" width="159" x="119.5" y="849"/><ellipse cx="160.6" cy="865" fill="#ADD1B2" rx="11" ry="11" style="stroke:#181818;stroke-width:1.0;"/><path d="M163.5688,870.6406 Q162.9906,870.9375 162.35,871.0781 Q161.7094,871.2344 161.0063,871.2344 Q158.5063,871.2344 157.1781,869.5938 Q155.8656,867.9375 155.8656,864.8125 Q155.8656,861.6875 157.1781,860.0313 Q158.5063,858.375 161.0063,858.375 Q161.7094,858.375 162.35,858.5313 Q163.0063,858.6875 163.5688,858.9844 L163.5688,861.7031 Q162.9438,861.125 162.35,860.8594 Q161.7563,860.5781 161.1313,860.5781 Q159.7875,860.5781 159.1,861.6563 Q158.4125,862.7188 158.4125,864.8125 Q158.4125,866.9063 159.1,867.9844 Q159.7875,869.0469 161.1313,869.0469 Q161.7563,869.0469 162.35,868.7813 Q162.9438,868.5 163.5688,867.9219 L163.5688,870.6406 Z " fill="#000000"/><text fill="#000000" font-family="sans-serif" font-size="14" lengthAdjust="spacing" textLength="69" x="180.4" y="869.8467">MenuItem</text><line style="stroke:#181818;stroke-width:0.5;" x1="120.5" x2="277.5" y1="881" y2="881"/><rect fill="none" height="6" style="stroke:#C82930;stroke-width:1.0;" width="6" x="127.5" y="891.6484"/><text fill="#000000" font-family="sans-serif" font-size="14" lengthAdjust="spacing" textLength="88" x="139.5" y="897.9951">name: String</text><rect fill="none" height="6" style="stroke:#C82930;stroke-width:1.0;" width="6" x="127.5" y="907.9453"/><text fill="#000000" font-family="sans-serif" font-size="14" lengthAdjust="spacing" textLength="133" x="139.5" y="914.292">description: String?</text><rect fill="none" height="6" style="stroke:#C82930;stroke-width:1.0;" width="6" x="127.5" y="924.2422"/><text fill="#000000" font-family="sans-serif" font-size="14" lengthAdjust="spacing" textLength="113" x="139.5" y="930.5889">price: PriceLabel</text><rect fill="none" height="6" style="stroke:#C82930;stroke-width:1.0;" width="6" x="127.5" y="940.5391"/><text fill="#000000" font-family="sans-serif" font-size="14" lengthAdjust="spacing" textLength="117" x="139.5" y="946.8857">inStock: Boolean</text><line style="stroke:#181818;stroke-width:0.5;" x1="120.5" x2="277.5" y1="954.1875" y2="954.1875"/></g><!--class PriceLabel--><g id="elem_PriceLabel"><rect codeLine="76" fill="#F1F1F1" height="64.2969" id="PriceLabel" rx="2.5" ry="2.5" style="stroke:#181818;stroke-width:0.5;" width="109" x="144.5" y="1039"/><ellipse cx="162.65" cy="1055" fill="#ADD1B2" rx="11" ry="11" style="stroke:#181818;stroke-width:1.0;"/><path d="M165.6188,1060.6406 Q165.0406,1060.9375 164.4,1061.0781 Q163.7594,1061.2344 163.0563,1061.2344 Q160.5563,1061.2344 159.2281,1059.5938 Q157.9156,1057.9375 157.9156,1054.8125 Q157.9156,1051.6875 159.2281,1050.0313 Q160.5563,1048.375 163.0563,1048.375 Q163.7594,1048.375 164.4,1048.5313 Q165.0563,1048.6875 165.6188,1048.9844 L165.6188,1051.7031 Q164.9938,1051.125 164.4,1050.8594 Q163.8063,1050.5781 163.1813,1050.5781 Q161.8375,1050.5781 161.15,1051.6563 Q160.4625,1052.7188 160.4625,1054.8125 Q160.4625,1056.9063 161.15,1057.9844 Q161.8375,1059.0469 163.1813,1059.0469 Q163.8063,1059.0469 164.4,1058.7813 Q164.9938,1058.5 165.6188,1057.9219 L165.6188,1060.6406 Z " fill="#000000"/><text fill="#000000" font-family="sans-serif" font-size="14" lengthAdjust="spacing" textLength="70" x="177.35" y="1059.8467">PriceLabel</text><line style="stroke:#181818;stroke-width:0.5;" x1="145.5" x2="252.5" y1="1071" y2="1071"/><rect fill="none" height="6" style="stroke:#C82930;stroke-width:1.0;" width="6" x="152.5" y="1081.6484"/><text fill="#000000" font-family="sans-serif" font-size="14" lengthAdjust="spacing" textLength="83" x="164.5" y="1087.9951">price: String</text><line style="stroke:#181818;stroke-width:0.5;" x1="145.5" x2="252.5" y1="1095.2969" y2="1095.2969"/></g><!--class OpeningHours--><g id="elem_OpeningHours"><rect codeLine="86" fill="#F1F1F1" height="48" id="OpeningHours" rx="2.5" ry="2.5" style="stroke:#181818;stroke-width:0.5;" width="132" x="397" y="707.5"/><ellipse cx="412" cy="723.5" fill="#B4A7E5" rx="11" ry="11" style="stroke:#181818;stroke-width:1.0;"/><path d="M407.9219,719.2656 L407.9219,717.1094 L415.3125,717.1094 L415.3125,719.2656 L412.8438,719.2656 L412.8438,727.3438 L415.3125,727.3438 L415.3125,729.5 L407.9219,729.5 L407.9219,727.3438 L410.3906,727.3438 L410.3906,719.2656 L407.9219,719.2656 Z " fill="#000000"/><text fill="#000000" font-family="sans-serif" font-size="14" font-style="italic" lengthAdjust="spacing" textLength="100" x="426" y="728.3467">OpeningHours</text><line style="stroke:#181818;stroke-width:0.5;" x1="398" x2="528" y1="739.5" y2="739.5"/><line style="stroke:#181818;stroke-width:0.5;" x1="398" x2="528" y1="747.5" y2="747.5"/></g><!--class TimeOpeningHours--><g id="elem_TimeOpeningHours"><rect codeLine="88" fill="#F1F1F1" height="64.2969" id="TimeOpeningHours" rx="2.5" ry="2.5" style="stroke:#181818;stroke-width:0.5;" width="299" x="313.5" y="873.5"/><ellipse cx="391.75" cy="889.5" fill="#ADD1B2" rx="11" ry="11" style="stroke:#181818;stroke-width:1.0;"/><path d="M394.7188,895.1406 Q394.1406,895.4375 393.5,895.5781 Q392.8594,895.7344 392.1563,895.7344 Q389.6563,895.7344 388.3281,894.0938 Q387.0156,892.4375 387.0156,889.3125 Q387.0156,886.1875 388.3281,884.5313 Q389.6563,882.875 392.1563,882.875 Q392.8594,882.875 393.5,883.0313 Q394.1563,883.1875 394.7188,883.4844 L394.7188,886.2031 Q394.0938,885.625 393.5,885.3594 Q392.9063,885.0781 392.2813,885.0781 Q390.9375,885.0781 390.25,886.1563 Q389.5625,887.2188 389.5625,889.3125 Q389.5625,891.4063 390.25,892.4844 Q390.9375,893.5469 392.2813,893.5469 Q392.9063,893.5469 393.5,893.2813 Q394.0938,893 394.7188,892.4219 L394.7188,895.1406 Z " fill="#000000"/><text fill="#000000" font-family="sans-serif" font-size="14" lengthAdjust="spacing" textLength="134" x="412.25" y="894.3467">TimeOpeningHours</text><line style="stroke:#181818;stroke-width:0.5;" x1="314.5" x2="611.5" y1="905.5" y2="905.5"/><rect fill="none" height="6" style="stroke:#C82930;stroke-width:1.0;" width="6" x="321.5" y="916.1484"/><text fill="#000000" font-family="sans-serif" font-size="14" lengthAdjust="spacing" textLength="273" x="333.5" y="922.4951">dayToHours: Map&lt;DayOfWeek, String&gt;</text><line style="stroke:#181818;stroke-width:0.5;" x1="314.5" x2="611.5" y1="929.7969" y2="929.7969"/></g><!--class MessageOpeningHours--><g id="elem_MessageOpeningHours"><rect codeLine="92" fill="#F1F1F1" height="64.2969" id="MessageOpeningHours" rx="2.5" ry="2.5" style="stroke:#181818;stroke-width:0.5;" width="195" x="647.5" y="873.5"/><ellipse cx="662.5" cy="889.5" fill="#ADD1B2" rx="11" ry="11" style="stroke:#181818;stroke-width:1.0;"/><path d="M665.4688,895.1406 Q664.8906,895.4375 664.25,895.5781 Q663.6094,895.7344 662.9063,895.7344 Q660.4063,895.7344 659.0781,894.0938 Q657.7656,892.4375 657.7656,889.3125 Q657.7656,886.1875 659.0781,884.5313 Q660.4063,882.875 662.9063,882.875 Q663.6094,882.875 664.25,883.0313 Q664.9063,883.1875 665.4688,883.4844 L665.4688,886.2031 Q664.8438,885.625 664.25,885.3594 Q663.6563,885.0781 663.0313,885.0781 Q661.6875,885.0781 661,886.1563 Q660.3125,887.2188 660.3125,889.3125 Q660.3125,891.4063 661,892.4844 Q661.6875,893.5469 663.0313,893.5469 Q663.6563,893.5469 664.25,893.2813 Q664.8438,893 665.4688,892.4219 L665.4688,895.1406 Z " fill="#000000"/><text fill="#000000" font-family="sans-serif" font-size="14" lengthAdjust="spacing" textLength="163" x="676.5" y="894.3467">MessageOpeningHours</text><line style="stroke:#181818;stroke-width:0.5;" x1="648.5" x2="841.5" y1="905.5" y2="905.5"/><rect fill="none" height="6" style="stroke:#C82930;stroke-width:1.0;" width="6" x="655.5" y="916.1484"/><text fill="#000000" font-family="sans-serif" font-size="14" lengthAdjust="spacing" textLength="113" x="667.5" y="922.4951">message: String</text><line style="stroke:#181818;stroke-width:0.5;" x1="648.5" x2="841.5" y1="929.7969" y2="929.7969"/></g><!--class Location--><g id="elem_Location"><rect codeLine="103" fill="#F1F1F1" height="80.5938" id="Location" rx="2.5" ry="2.5" style="stroke:#181818;stroke-width:0.5;" width="150" x="564" y="691"/><ellipse cx="606" cy="707" fill="#ADD1B2" rx="11" ry="11" style="stroke:#181818;stroke-width:1.0;"/><path d="M608.9688,712.6406 Q608.3906,712.9375 607.75,713.0781 Q607.1094,713.2344 606.4063,713.2344 Q603.9063,713.2344 602.5781,711.5938 Q601.2656,709.9375 601.2656,706.8125 Q601.2656,703.6875 602.5781,702.0313 Q603.9063,700.375 606.4063,700.375 Q607.1094,700.375 607.75,700.5313 Q608.4063,700.6875 608.9688,700.9844 L608.9688,703.7031 Q608.3438,703.125 607.75,702.8594 Q607.1563,702.5781 606.5313,702.5781 Q605.1875,702.5781 604.5,703.6563 Q603.8125,704.7188 603.8125,706.8125 Q603.8125,708.9063 604.5,709.9844 Q605.1875,711.0469 606.5313,711.0469 Q607.1563,711.0469 607.75,710.7813 Q608.3438,710.5 608.9688,709.9219 L608.9688,712.6406 Z " fill="#000000"/><text fill="#000000" font-family="sans-serif" font-size="14" lengthAdjust="spacing" textLength="58" x="626" y="711.8467">Location</text><line style="stroke:#181818;stroke-width:0.5;" x1="565" x2="713" y1="723" y2="723"/><rect fill="none" height="6" style="stroke:#C82930;stroke-width:1.0;" width="6" x="572" y="733.6484"/><text fill="#000000" font-family="sans-serif" font-size="14" lengthAdjust="spacing" textLength="110" x="584" y="739.9951">latitude: Double</text><rect fill="none" height="6" style="stroke:#C82930;stroke-width:1.0;" width="6" x="572" y="749.9453"/><text fill="#000000" font-family="sans-serif" font-size="14" lengthAdjust="spacing" textLength="124" x="584" y="756.292">longitude: Double</text><line style="stroke:#181818;stroke-width:0.5;" x1="565" x2="713" y1="763.5938" y2="763.5938"/></g><!--class Review--><g id="elem_Review"><rect codeLine="112" fill="#F1F1F1" height="129.4844" id="Review" rx="2.5" ry="2.5" style="stroke:#181818;stroke-width:0.5;" width="148" x="545" y="452"/><ellipse cx="590.25" cy="468" fill="#ADD1B2" rx="11" ry="11" style="stroke:#181818;stroke-width:1.0;"/><path d="M593.2188,473.6406 Q592.6406,473.9375 592,474.0781 Q591.3594,474.2344 590.6563,474.2344 Q588.1563,474.2344 586.8281,472.5938 Q585.5156,470.9375 585.5156,467.8125 Q585.5156,464.6875 586.8281,463.0313 Q588.1563,461.375 590.6563,461.375 Q591.3594,461.375 592,461.5313 Q592.6563,461.6875 593.2188,461.9844 L593.2188,464.7031 Q592.5938,464.125 592,463.8594 Q591.4063,463.5781 590.7813,463.5781 Q589.4375,463.5781 588.75,464.6563 Q588.0625,465.7188 588.0625,467.8125 Q588.0625,469.9063 588.75,470.9844 Q589.4375,472.0469 590.7813,472.0469 Q591.4063,472.0469 592,471.7813 Q592.5938,471.5 593.2188,470.9219 L593.2188,473.6406 Z " fill="#000000"/><text fill="#000000" font-family="sans-serif" font-size="14" lengthAdjust="spacing" textLength="49" x="610.75" y="472.8467">Review</text><line style="stroke:#181818;stroke-width:0.5;" x1="546" x2="692" y1="484" y2="484"/><rect fill="none" height="6" style="stroke:#C82930;stroke-width:1.0;" width="6" x="553" y="494.6484"/><text fill="#000000" font-family="sans-serif" font-size="14" lengthAdjust="spacing" textLength="55" x="565" y="500.9951">id: UUID</text><rect fill="none" height="6" style="stroke:#C82930;stroke-width:1.0;" width="6" x="553" y="510.9453"/><text fill="#000000" font-family="sans-serif" font-size="14" lengthAdjust="spacing" textLength="86" x="565" y="517.292">author: User</text><rect fill="none" height="6" style="stroke:#C82930;stroke-width:1.0;" width="6" x="553" y="527.2422"/><text fill="#000000" font-family="sans-serif" font-size="14" lengthAdjust="spacing" textLength="80" x="565" y="533.5889">shop: Shop</text><rect fill="none" height="6" style="stroke:#C82930;stroke-width:1.0;" width="6" x="553" y="543.5391"/><text fill="#000000" font-family="sans-serif" font-size="14" lengthAdjust="spacing" textLength="65" x="565" y="549.8857">rating: int</text><rect fill="none" height="6" style="stroke:#C82930;stroke-width:1.0;" width="6" x="553" y="559.8359"/><text fill="#000000" font-family="sans-serif" font-size="14" lengthAdjust="spacing" textLength="122" x="565" y="566.1826">comment: String?</text><line style="stroke:#181818;stroke-width:0.5;" x1="546" x2="692" y1="573.4844" y2="573.4844"/></g><path d="M728,499 L728,507.5664 L630,545.0391 L728,515.5664 L728,524.1328 A0,0 0 0 0 728,524.1328 L820,524.1328 A0,0 0 0 0 820,524.1328 L820,509 L810,499 L728,499 A0,0 0 0 0 728,499 " fill="#FEFFDD" style="stroke:#181818;stroke-width:0.5;"/><path d="M810,499 L810,509 L820,509 L810,499 " fill="#FEFFDD" style="stroke:#181818;stroke-width:0.5;"/><text fill="#000000" font-family="sans-serif" font-size="13" lengthAdjust="spacing" textLength="71" x="734" y="516.0669">from 0 to 5</text><!--link ImageResource to User--><g id="link_ImageResource_User"><path codeLine="19" d="M365.7,277.5 C404.53,277.5 441.73,277.5 486.43,277.5 " fill="none" id="ImageResource-to-User" style="stroke:#181818;stroke-width:1.0;"/><polygon fill="#181818" points="498.43,277.5,492.43,273.5,486.43,277.5,492.43,281.5,498.43,277.5" style="stroke:#181818;stroke-width:1.0;"/><polygon fill="#000000" points="383,266.0664,392.0451,269.0053,392.0451,263.1275,383,266.0664" style="stroke:#000000;stroke-width:1.0;"/><text fill="#000000" font-family="sans-serif" font-size="13" lengthAdjust="spacing" textLength="83" x="397" y="270.5669">profilePicture</text><text fill="#000000" font-family="sans-serif" font-size="13" lengthAdjust="spacing" textLength="24" x="373.5823" y="290.2739">0..1</text><text fill="#000000" font-family="sans-serif" font-size="13" lengthAdjust="spacing" textLength="8" x="482.4497" y="274.0752">1</text></g><!--link ContactInfo to User--><g id="link_ContactInfo_User"><path codeLine="31" d="M619,136.21 C619,160.64 619,176.5 619,200.92 " fill="none" id="ContactInfo-to-User" style="stroke:#181818;stroke-width:1.0;"/><polygon fill="#181818" points="619,212.92,623,206.92,619,200.92,615,206.92,619,212.92" style="stroke:#181818;stroke-width:1.0;"/><polygon fill="#000000" points="624,169.5664,621.0611,178.6115,626.9389,178.6115,624,169.5664" style="stroke:#000000;stroke-width:1.0;"/><text fill="#000000" font-family="sans-serif" font-size="13" lengthAdjust="spacing" textLength="71" x="633" y="179.0669">contactInfo</text><text fill="#000000" font-family="sans-serif" font-size="13" lengthAdjust="spacing" textLength="8" x="610.5375" y="156.6059">1</text><text fill="#000000" font-family="sans-serif" font-size="13" lengthAdjust="spacing" textLength="8" x="610.5625" y="202.0839">1</text></g><!--link User to Shop--><g id="link_User_Shop"><path codeLine="47" d="M550.93,342.01 C525.66,365.6 505.1543,384.724 477.4143,410.604 " fill="none" id="User-to-Shop" style="stroke:#181818;stroke-width:1.0;"/><polygon fill="none" points="468.64,418.79,475.7558,417.6218,477.4143,410.604,470.2985,411.7722,468.64,418.79" style="stroke:#181818;stroke-width:1.0;"/><polygon fill="#000000" points="522.6558,377.1554,514.0374,381.1772,518.0474,385.4748,522.6558,377.1554" style="stroke:#000000;stroke-width:1.0;"/><text fill="#000000" font-family="sans-serif" font-size="13" lengthAdjust="spacing" textLength="57" x="528" y="385.0669">ownedBy</text><text fill="#000000" font-family="sans-serif" font-size="13" lengthAdjust="spacing" textLength="8" x="534.5969" y="362.3827">1</text><text fill="#000000" font-family="sans-serif" font-size="13" lengthAdjust="spacing" textLength="23" x="452.6945" y="407.8194">0..*</text></g><!--link ImageResource to Shop--><g id="link_ImageResource_Shop"><path codeLine="49" d="M304.3,309.97 C312.51,337.8 321.5502,368.3917 333.0302,407.2517 " fill="none" id="ImageResource-to-Shop" style="stroke:#181818;stroke-width:1.0;"/><polygon fill="#181818" points="336.43,418.76,338.5662,411.8726,333.0302,407.2517,330.894,414.1391,336.43,418.76" style="stroke:#181818;stroke-width:1.0;"/><polygon fill="#000000" points="329.5838,375.7712,329.3271,385.2783,334.9643,383.6134,329.5838,375.7712" style="stroke:#000000;stroke-width:1.0;"/><text fill="#000000" font-family="sans-serif" font-size="13" lengthAdjust="spacing" textLength="47" x="340" y="385.0669">images</text><text fill="#000000" font-family="sans-serif" font-size="13" lengthAdjust="spacing" textLength="23" x="280.8669" y="329.8898">0..*</text><text fill="#000000" font-family="sans-serif" font-size="13" lengthAdjust="spacing" textLength="8" x="325.9364" y="407.7871">1</text></g><!--reverse link Shop to ShopCategory--><g id="link_Shop_ShopCategory"><path codeLine="59" d="M222.5138,621.0862 C185.2638,648.1662 156.53,669.05 126.64,690.78 " fill="none" id="Shop-backto-ShopCategory" style="stroke:#181818;stroke-width:1.0;"/><polygon fill="#181818" points="232.22,614.03,225.0148,614.3227,222.5138,621.0862,229.719,620.7935,232.22,614.03" style="stroke:#181818;stroke-width:1.0;"/><polygon fill="#000000" points="184.9557,655.5064,194,652.5651,190.5439,647.8107,184.9557,655.5064" style="stroke:#000000;stroke-width:1.0;"/><text fill="#000000" font-family="sans-serif" font-size="13" lengthAdjust="spacing" textLength="67" x="198" y="657.0669">categories</text><text fill="#000000" font-family="sans-serif" font-size="13" lengthAdjust="spacing" textLength="8" x="214.1752" y="633.827">1</text><text fill="#000000" font-family="sans-serif" font-size="13" lengthAdjust="spacing" textLength="23" x="110.7851" y="679.9051">0..*</text></g><!--reverse link Shop to Menu--><g id="link_Shop_Menu"><path codeLine="80" d="M315.5743,624.9315 C301.3943,655.7515 291.71,676.79 281.3,699.41 " fill="none" id="Shop-backto-Menu" style="stroke:#181818;stroke-width:1.0;"/><polygon fill="#181818" points="320.59,614.03,314.4483,617.8089,315.5743,624.9315,321.716,621.1526,320.59,614.03" style="stroke:#181818;stroke-width:1.0;"/><polygon fill="#000000" points="307.9098,657.1085,314.3608,650.1204,309.0212,647.6631,307.9098,657.1085" style="stroke:#000000;stroke-width:1.0;"/><text fill="#000000" font-family="sans-serif" font-size="13" lengthAdjust="spacing" textLength="37" x="319" y="657.0669">menu</text><text fill="#000000" font-family="sans-serif" font-size="13" lengthAdjust="spacing" textLength="8" x="309.0349" y="633.827">1</text><text fill="#000000" font-family="sans-serif" font-size="13" lengthAdjust="spacing" textLength="8" x="275.4244" y="688.2945">1</text></g><!--reverse link Menu to MenuItem--><g id="link_Menu_MenuItem"><path codeLine="81" d="M250.2771,774.8092 C240.8971,798.5292 232.16,820.64 220.99,848.89 " fill="none" id="Menu-backto-MenuItem" style="stroke:#181818;stroke-width:1.0;"/><polygon fill="#181818" points="254.69,763.65,248.7639,767.7586,250.2771,774.8092,256.2033,770.7005,254.69,763.65" style="stroke:#181818;stroke-width:1.0;"/><polygon fill="#000000" points="243.1617,815.2162,249.2203,807.8851,243.7541,805.7241,243.1617,815.2162" style="stroke:#000000;stroke-width:1.0;"/><text fill="#000000" font-family="sans-serif" font-size="13" lengthAdjust="spacing" textLength="36" x="254" y="815.0669">items</text><text fill="#000000" font-family="sans-serif" font-size="13" lengthAdjust="spacing" textLength="8" x="243.3261" y="783.8778">1</text><text fill="#000000" font-family="sans-serif" font-size="13" lengthAdjust="spacing" textLength="23" x="199.334" y="837.7393">0..*</text></g><!--reverse link MenuItem to PriceLabel--><g id="link_MenuItem_PriceLabel"><path codeLine="82" d="M199,974.31 C199,999.84 199,1017.14 199,1038.73 " fill="none" id="MenuItem-backto-PriceLabel" style="stroke:#181818;stroke-width:1.0;"/><polygon fill="#181818" points="199,962.31,195,968.31,199,974.31,203,968.31,199,962.31" style="stroke:#181818;stroke-width:1.0;"/><polygon fill="#000000" points="204,1005.5664,206.9389,996.5213,201.0611,996.5213,204,1005.5664" style="stroke:#000000;stroke-width:1.0;"/><text fill="#000000" font-family="sans-serif" font-size="13" lengthAdjust="spacing" textLength="65" x="213" y="1005.0669">priceLabel</text><text fill="#000000" font-family="sans-serif" font-size="13" lengthAdjust="spacing" textLength="8" x="190.5125" y="982.2113">1</text><text fill="#000000" font-family="sans-serif" font-size="13" lengthAdjust="spacing" textLength="8" x="190.2125" y="1027.951">1</text></g><!--reverse link OpeningHours to TimeOpeningHours--><g id="link_OpeningHours_TimeOpeningHours"><path codeLine="96" d="M463,773.7 C463,804.05 463,839.35 463,873.24 " fill="none" id="OpeningHours-backto-TimeOpeningHours" style="stroke:#181818;stroke-width:1.0;"/><polygon fill="none" points="463,755.7,457,773.7,469,773.7,463,755.7" style="stroke:#181818;stroke-width:1.0;"/></g><!--reverse link OpeningHours to MessageOpeningHours--><g id="link_OpeningHours_MessageOpeningHours"><path codeLine="97" d="M516.1075,764.8922 C565.9375,795.2822 638.48,839.53 694.13,873.48 " fill="none" id="OpeningHours-backto-MessageOpeningHours" style="stroke:#181818;stroke-width:1.0;"/><polygon fill="none" points="500.74,755.52,512.9834,770.0148,519.2316,759.7697,500.74,755.52" style="stroke:#181818;stroke-width:1.0;"/></g><!--reverse link Shop to OpeningHours--><g id="link_Shop_OpeningHours"><path codeLine="99" d="M414.4255,624.9316 C430.3255,659.4916 441.87,684.57 452.29,707.22 " fill="none" id="Shop-backto-OpeningHours" style="stroke:#181818;stroke-width:1.0;"/><polygon fill="#181818" points="409.41,614.03,408.2839,621.1526,414.4255,624.9316,415.5516,617.809,409.41,614.03" style="stroke:#181818;stroke-width:1.0;"/><polygon fill="#000000" points="436.0901,657.1086,434.9789,647.6632,429.6393,650.1202,436.0901,657.1086" style="stroke:#000000;stroke-width:1.0;"/><text fill="#000000" font-family="sans-serif" font-size="13" lengthAdjust="spacing" textLength="89" x="443" y="657.0669">openingHours</text><text fill="#000000" font-family="sans-serif" font-size="13" lengthAdjust="spacing" textLength="8" x="404.3776" y="633.827">1</text><text fill="#000000" font-family="sans-serif" font-size="13" lengthAdjust="spacing" textLength="8" x="440.7044" y="696.5567">1</text></g><!--reverse link Shop to Location--><g id="link_Shop_Location"><path codeLine="108" d="M512.04,621.45 C525.2,631.32 528.64,634.15 541,644 C559.45,658.71 579.09,675.75 595.9,690.79 " fill="none" id="Shop-backto-Location" style="stroke:#181818;stroke-width:1.0;"/><polygon fill="#181818" points="502.44,614.25,504.84,621.05,512.04,621.45,509.64,614.65,502.44,614.25" style="stroke:#181818;stroke-width:1.0;"/><polygon fill="#000000" points="568.8534,655.7526,563.7553,647.7238,560.0098,652.2537,568.8534,655.7526" style="stroke:#000000;stroke-width:1.0;"/><text fill="#000000" font-family="sans-serif" font-size="13" lengthAdjust="spacing" textLength="50" x="574" y="657.0669">location</text><text fill="#000000" font-family="sans-serif" font-size="13" lengthAdjust="spacing" textLength="8" x="503.8225" y="633.7335">1</text><text fill="#000000" font-family="sans-serif" font-size="13" lengthAdjust="spacing" textLength="8" x="580.0991" y="679.9168">1</text></g><!--link Shop to Review--><g id="link_Shop_Review"><path codeLine="124" d="M510.36,516.5 C521.81,516.5 533.27,516.5 544.73,516.5 " fill="none" id="Shop-Review" style="stroke:#181818;stroke-width:1.0;"/><text fill="#000000" font-family="sans-serif" font-size="13" lengthAdjust="spacing" textLength="8" x="518.0614" y="513.1921">1</text><text fill="#000000" font-family="sans-serif" font-size="13" lengthAdjust="spacing" textLength="23" x="514.0911" y="512.8833">0..*</text></g><!--link User to Review--><g id="link_User_Review"><path codeLine="125" d="M619,342.01 C619,376.02 619,417.78 619,451.81 " fill="none" id="User-Review" style="stroke:#181818;stroke-width:1.0;"/><text fill="#000000" font-family="sans-serif" font-size="13" lengthAdjust="spacing" textLength="42" x="620" y="385.0669">author</text><text fill="#000000" font-family="sans-serif" font-size="13" lengthAdjust="spacing" textLength="8" x="610.5375" y="362.3827">1</text><text fill="#000000" font-family="sans-serif" font-size="13" lengthAdjust="spacing" textLength="23" x="594.7422" y="440.9619">0..*</text></g><!--SRC=[dLPBRnen4BxlhnYbXqWHHEcX5mkbKX9LHI9A58fwzYu3k7WzrFQ6qiT_xzXUza5egh07rXwFP-QRnxUujJ8RQMK9kIpMIqkLcT-I9WllFiKdoywVfQuGAF-6XOU2Z9VAABE4sTC4Q07IW2hb4a6PiCOV7gsH6fmdo-AiqD8v60UL9tHKsGBXLmRy3A6oMi3KMpQN_M5NCFp_0-TPRNFcq3Qcr5p0R3Q-gxUoyglnl36UX4QMU23QM5eeZO-gy9NbmrwS7skb2BhmOxCW0RVj9iGSWpXxVmONmmcSNLrUyh8FLXmuWUit8-tuR01lLcGQDFj8iPHA7mgtc3lbN-WkP84vqVfGheppSiazqHxqSSw6ST4DIdHpT0B0wOes_ohbaQhDqHLMRRmYSnWzRGrQ4NkZbZYsVIizBiagT08coldHj1NkhlT-Gzds2hqQxZLAD9M0U_wj1PeAcQAOrAjz61iCG_APhxF5XywkbypXa6BJN9ob58WO__nc1wCiYv8svKdjiBTIq2UcV9-19lL7Sbq4EWXjpwyuf352o7SniGFWpkQ93uGmvuQ4oeMb8LjAhNwoOZ3fkbY6NSHD1Dn1JOrEG1DgqZQGnt9Vnt0mvlrrYBtL3QBNKB_IOHkh2bP_3A-9p54tSpFrLF0utH1fb2OcAog33cgW74YcnPWhJo2rfYtdYrk1TybXZgoIxkJISVQ8IRLaLlO3-5v9uvNV3Q2eh4LJy0fzSVd2IPKkwXqicCXhmm790FmAcO1Onn0uifv3wLOmcaj9Qk6rZ9E0jtpTBog_OnL471EkOTmTrBp9lKXLgjMYg6kfuruansdpbivGXc45bklFNmtmYognAszWpkNk2zM3UoytepkvUrXyHLmFQkYzLdAEv- -edJATTHFMqnlzvZ0FepYYSiJ7aTJtxeaU_vmmJdisQy1etlfgpcZkgCerDlndbdtviRPeh8c6C4-8wGcV5MvV- -3JI-8NaMLgWPMXuRdpZ6_8hUHczRqldI6FODLovSFVc-HLY7GtNbjOAk4g3Es730qp75_ee6vwFLtjadt_XDEHeix-0W00]--></g></svg>