<?xml version="1.0" encoding="us-ascii" standalone="no"?><svg xmlns="http://www.w3.org/2000/svg" xmlns:xlink="http://www.w3.org/1999/xlink" contentStyleType="text/css" height="1031px" preserveAspectRatio="none" style="width:1120px;height:1031px;background:#FFFFFF;" version="1.1" viewBox="0 0 1120 1031" width="1120px" zoomAndPan="magnify"><defs/><g><!--class ImageResource--><g id="elem_ImageResource"><rect codeLine="4" fill="#F1F1F1" height="64.2969" id="ImageResource" rx="2.5" ry="2.5" style="stroke:#181818;stroke-width:0.5;" width="141" x="327.5" y="39.5"/><ellipse cx="342.5" cy="55.5" fill="#ADD1B2" rx="11" ry="11" style="stroke:#181818;stroke-width:1.0;"/><path d="M345.4688,61.1406 Q344.8906,61.4375 344.25,61.5781 Q343.6094,61.7344 342.9063,61.7344 Q340.4063,61.7344 339.0781,60.0938 Q337.7656,58.4375 337.7656,55.3125 Q337.7656,52.1875 339.0781,50.5313 Q340.4063,48.875 342.9063,48.875 Q343.6094,48.875 344.25,49.0313 Q344.9063,49.1875 345.4688,49.4844 L345.4688,52.2031 Q344.8438,51.625 344.25,51.3594 Q343.6563,51.0781 343.0313,51.0781 Q341.6875,51.0781 341,52.1563 Q340.3125,53.2188 340.3125,55.3125 Q340.3125,57.4063 341,58.4844 Q341.6875,59.5469 343.0313,59.5469 Q343.6563,59.5469 344.25,59.2813 Q344.8438,59 345.4688,58.4219 L345.4688,61.1406 Z " fill="#000000"/><text fill="#000000" font-family="sans-serif" font-size="14" lengthAdjust="spacing" textLength="109" x="356.5" y="60.3467">ImageResource</text><line style="stroke:#181818;stroke-width:0.5;" x1="328.5" x2="467.5" y1="71.5" y2="71.5"/><rect fill="none" height="6" style="stroke:#C82930;stroke-width:1.0;" width="6" x="335.5" y="82.1484"/><text fill="#000000" font-family="sans-serif" font-size="14" lengthAdjust="spacing" textLength="66" x="347.5" y="88.4951">url: String</text><line style="stroke:#181818;stroke-width:0.5;" x1="328.5" x2="467.5" y1="95.7969" y2="95.7969"/></g><!--class User--><g id="elem_User"><rect codeLine="10" fill="#F1F1F1" height="113.1875" id="User" rx="2.5" ry="2.5" style="stroke:#181818;stroke-width:0.5;" width="241" x="601.5" y="15"/><ellipse cx="701.75" cy="31" fill="#ADD1B2" rx="11" ry="11" style="stroke:#181818;stroke-width:1.0;"/><path d="M704.7188,36.6406 Q704.1406,36.9375 703.5,37.0781 Q702.8594,37.2344 702.1563,37.2344 Q699.6563,37.2344 698.3281,35.5938 Q697.0156,33.9375 697.0156,30.8125 Q697.0156,27.6875 698.3281,26.0313 Q699.6563,24.375 702.1563,24.375 Q702.8594,24.375 703.5,24.5313 Q704.1563,24.6875 704.7188,24.9844 L704.7188,27.7031 Q704.0938,27.125 703.5,26.8594 Q702.9063,26.5781 702.2813,26.5781 Q700.9375,26.5781 700.25,27.6563 Q699.5625,28.7188 699.5625,30.8125 Q699.5625,32.9063 700.25,33.9844 Q700.9375,35.0469 702.2813,35.0469 Q702.9063,35.0469 703.5,34.7813 Q704.0938,34.5 704.7188,33.9219 L704.7188,36.6406 Z " fill="#000000"/><text fill="#000000" font-family="sans-serif" font-size="14" lengthAdjust="spacing" textLength="32" x="722.25" y="35.8467">User</text><line style="stroke:#181818;stroke-width:0.5;" x1="602.5" x2="841.5" y1="47" y2="47"/><rect fill="none" height="6" style="stroke:#C82930;stroke-width:1.0;" width="6" x="609.5" y="57.6484"/><text fill="#000000" font-family="sans-serif" font-size="14" lengthAdjust="spacing" textLength="61" x="621.5" y="63.9951">id: String</text><rect fill="none" height="6" style="stroke:#C82930;stroke-width:1.0;" width="6" x="609.5" y="73.9453"/><text fill="#000000" font-family="sans-serif" font-size="14" lengthAdjust="spacing" textLength="88" x="621.5" y="80.292">name: String</text><rect fill="none" height="6" style="stroke:#C82930;stroke-width:1.0;" width="6" x="609.5" y="90.2422"/><text fill="#000000" font-family="sans-serif" font-size="14" lengthAdjust="spacing" textLength="215" x="621.5" y="96.5889">profilePicture: ImageResource?</text><rect fill="none" height="6" style="stroke:#C82930;stroke-width:1.0;" width="6" x="609.5" y="106.5391"/><text fill="#000000" font-family="sans-serif" font-size="14" lengthAdjust="spacing" textLength="165" x="621.5" y="112.8857">contactInfo: ContactInfo</text><line style="stroke:#181818;stroke-width:0.5;" x1="602.5" x2="841.5" y1="120.1875" y2="120.1875"/></g><!--class ContactInfo--><g id="elem_ContactInfo"><rect codeLine="21" fill="#F1F1F1" height="129.4844" id="ContactInfo" rx="2.5" ry="2.5" style="stroke:#181818;stroke-width:0.5;" width="150" x="963" y="7"/><ellipse cx="995.55" cy="23" fill="#ADD1B2" rx="11" ry="11" style="stroke:#181818;stroke-width:1.0;"/><path d="M998.5188,28.6406 Q997.9406,28.9375 997.3,29.0781 Q996.6594,29.2344 995.9563,29.2344 Q993.4563,29.2344 992.1281,27.5938 Q990.8156,25.9375 990.8156,22.8125 Q990.8156,19.6875 992.1281,18.0313 Q993.4563,16.375 995.9563,16.375 Q996.6594,16.375 997.3,16.5313 Q997.9563,16.6875 998.5188,16.9844 L998.5188,19.7031 Q997.8938,19.125 997.3,18.8594 Q996.7063,18.5781 996.0813,18.5781 Q994.7375,18.5781 994.05,19.6563 Q993.3625,20.7188 993.3625,22.8125 Q993.3625,24.9063 994.05,25.9844 Q994.7375,27.0469 996.0813,27.0469 Q996.7063,27.0469 997.3,26.7813 Q997.8938,26.5 998.5188,25.9219 L998.5188,28.6406 Z " fill="#000000"/><text fill="#000000" font-family="sans-serif" font-size="14" lengthAdjust="spacing" textLength="79" x="1013.45" y="27.8467">ContactInfo</text><line style="stroke:#181818;stroke-width:0.5;" x1="964" x2="1112" y1="39" y2="39"/><rect fill="none" height="6" style="stroke:#C82930;stroke-width:1.0;" width="6" x="971" y="49.6484"/><text fill="#000000" font-family="sans-serif" font-size="14" lengthAdjust="spacing" textLength="101" x="983" y="55.9951">phone: String?</text><rect fill="none" height="6" style="stroke:#C82930;stroke-width:1.0;" width="6" x="971" y="65.9453"/><text fill="#000000" font-family="sans-serif" font-size="14" lengthAdjust="spacing" textLength="92" x="983" y="72.292">email: String?</text><rect fill="none" height="6" style="stroke:#C82930;stroke-width:1.0;" width="6" x="971" y="82.2422"/><text fill="#000000" font-family="sans-serif" font-size="14" lengthAdjust="spacing" textLength="110" x="983" y="88.5889">website: String?</text><rect fill="none" height="6" style="stroke:#C82930;stroke-width:1.0;" width="6" x="971" y="98.5391"/><text fill="#000000" font-family="sans-serif" font-size="14" lengthAdjust="spacing" textLength="120" x="983" y="104.8857">facebook: String?</text><rect fill="none" height="6" style="stroke:#C82930;stroke-width:1.0;" width="6" x="971" y="114.8359"/><text fill="#000000" font-family="sans-serif" font-size="14" lengthAdjust="spacing" textLength="124" x="983" y="121.1826">instagram: String?</text><line style="stroke:#181818;stroke-width:0.5;" x1="964" x2="1112" y1="128.4844" y2="128.4844"/></g><!--class Shop--><g id="elem_Shop"><rect codeLine="33" fill="#F1F1F1" height="194.6719" id="Shop" rx="2.5" ry="2.5" style="stroke:#181818;stroke-width:0.5;" width="290" x="261" y="275"/><ellipse cx="383.75" cy="291" fill="#ADD1B2" rx="11" ry="11" style="stroke:#181818;stroke-width:1.0;"/><path d="M386.7188,296.6406 Q386.1406,296.9375 385.5,297.0781 Q384.8594,297.2344 384.1563,297.2344 Q381.6563,297.2344 380.3281,295.5938 Q379.0156,293.9375 379.0156,290.8125 Q379.0156,287.6875 380.3281,286.0313 Q381.6563,284.375 384.1563,284.375 Q384.8594,284.375 385.5,284.5313 Q386.1563,284.6875 386.7188,284.9844 L386.7188,287.7031 Q386.0938,287.125 385.5,286.8594 Q384.9063,286.5781 384.2813,286.5781 Q382.9375,286.5781 382.25,287.6563 Q381.5625,288.7188 381.5625,290.8125 Q381.5625,292.9063 382.25,293.9844 Q382.9375,295.0469 384.2813,295.0469 Q384.9063,295.0469 385.5,294.7813 Q386.0938,294.5 386.7188,293.9219 L386.7188,296.6406 Z " fill="#000000"/><text fill="#000000" font-family="sans-serif" font-size="14" lengthAdjust="spacing" textLength="36" x="404.25" y="295.8467">Shop</text><line style="stroke:#181818;stroke-width:0.5;" x1="262" x2="550" y1="307" y2="307"/><rect fill="none" height="6" style="stroke:#C82930;stroke-width:1.0;" width="6" x="269" y="317.6484"/><text fill="#000000" font-family="sans-serif" font-size="14" lengthAdjust="spacing" textLength="55" x="281" y="323.9951">id: UUID</text><rect fill="none" height="6" style="stroke:#C82930;stroke-width:1.0;" width="6" x="269" y="333.9453"/><text fill="#000000" font-family="sans-serif" font-size="14" lengthAdjust="spacing" textLength="95" x="281" y="340.292">name: String?</text><rect fill="none" height="6" style="stroke:#C82930;stroke-width:1.0;" width="6" x="269" y="350.2422"/><text fill="#000000" font-family="sans-serif" font-size="14" lengthAdjust="spacing" textLength="133" x="281" y="356.5889">description: String?</text><rect fill="none" height="6" style="stroke:#C82930;stroke-width:1.0;" width="6" x="269" y="366.5391"/><text fill="#000000" font-family="sans-serif" font-size="14" lengthAdjust="spacing" textLength="84" x="281" y="372.8857">owner: User</text><rect fill="none" height="6" style="stroke:#C82930;stroke-width:1.0;" width="6" x="269" y="382.8359"/><text fill="#000000" font-family="sans-serif" font-size="14" lengthAdjust="spacing" textLength="264" x="281" y="389.1826">shopCategories: List&lt;ShopCategory&gt;</text><rect fill="none" height="6" style="stroke:#C82930;stroke-width:1.0;" width="6" x="269" y="399.1328"/><text fill="#000000" font-family="sans-serif" font-size="14" lengthAdjust="spacing" textLength="215" x="281" y="405.4795">images: List&lt;ImageResource&gt;</text><rect fill="none" height="6" style="stroke:#C82930;stroke-width:1.0;" width="6" x="269" y="415.4297"/><text fill="#000000" font-family="sans-serif" font-size="14" lengthAdjust="spacing" textLength="88" x="281" y="421.7764">menu: Menu</text><rect fill="none" height="6" style="stroke:#C82930;stroke-width:1.0;" width="6" x="269" y="431.7266"/><text fill="#000000" font-family="sans-serif" font-size="14" lengthAdjust="spacing" textLength="121" x="281" y="438.0732">location: Location</text><rect fill="none" height="6" style="stroke:#C82930;stroke-width:1.0;" width="6" x="269" y="448.0234"/><text fill="#000000" font-family="sans-serif" font-size="14" lengthAdjust="spacing" textLength="207" x="281" y="454.3701">openingHours: OpeningHours</text><line style="stroke:#181818;stroke-width:0.5;" x1="262" x2="550" y1="461.6719" y2="461.6719"/></g><!--class ShopCategory--><g id="elem_ShopCategory"><rect codeLine="51" fill="#F1F1F1" height="80.5938" id="ShopCategory" rx="2.5" ry="2.5" style="stroke:#181818;stroke-width:0.5;" width="130" x="7" y="555"/><ellipse cx="22" cy="571" fill="#ADD1B2" rx="11" ry="11" style="stroke:#181818;stroke-width:1.0;"/><path d="M24.9688,576.6406 Q24.3906,576.9375 23.75,577.0781 Q23.1094,577.2344 22.4063,577.2344 Q19.9063,577.2344 18.5781,575.5938 Q17.2656,573.9375 17.2656,570.8125 Q17.2656,567.6875 18.5781,566.0313 Q19.9063,564.375 22.4063,564.375 Q23.1094,564.375 23.75,564.5313 Q24.4063,564.6875 24.9688,564.9844 L24.9688,567.7031 Q24.3438,567.125 23.75,566.8594 Q23.1563,566.5781 22.5313,566.5781 Q21.1875,566.5781 20.5,567.6563 Q19.8125,568.7188 19.8125,570.8125 Q19.8125,572.9063 20.5,573.9844 Q21.1875,575.0469 22.5313,575.0469 Q23.1563,575.0469 23.75,574.7813 Q24.3438,574.5 24.9688,573.9219 L24.9688,576.6406 Z " fill="#000000"/><text fill="#000000" font-family="sans-serif" font-size="14" lengthAdjust="spacing" textLength="98" x="36" y="575.8467">ShopCategory</text><line style="stroke:#181818;stroke-width:0.5;" x1="8" x2="136" y1="587" y2="587"/><rect fill="none" height="6" style="stroke:#C82930;stroke-width:1.0;" width="6" x="15" y="597.6484"/><text fill="#000000" font-family="sans-serif" font-size="14" lengthAdjust="spacing" textLength="88" x="27" y="603.9951">name: String</text><rect fill="none" height="6" style="stroke:#C82930;stroke-width:1.0;" width="6" x="15" y="613.9453"/><text fill="#000000" font-family="sans-serif" font-size="14" lengthAdjust="spacing" textLength="79" x="27" y="620.292">color: Color</text><line style="stroke:#181818;stroke-width:0.5;" x1="8" x2="136" y1="627.5938" y2="627.5938"/></g><!--class Menu--><g id="elem_Menu"><rect codeLine="60" fill="#F1F1F1" height="64.2969" id="Menu" rx="2.5" ry="2.5" style="stroke:#181818;stroke-width:0.5;" width="189" x="172.5" y="563.5"/><ellipse cx="243.25" cy="579.5" fill="#ADD1B2" rx="11" ry="11" style="stroke:#181818;stroke-width:1.0;"/><path d="M246.2188,585.1406 Q245.6406,585.4375 245,585.5781 Q244.3594,585.7344 243.6563,585.7344 Q241.1563,585.7344 239.8281,584.0938 Q238.5156,582.4375 238.5156,579.3125 Q238.5156,576.1875 239.8281,574.5313 Q241.1563,572.875 243.6563,572.875 Q244.3594,572.875 245,573.0313 Q245.6563,573.1875 246.2188,573.4844 L246.2188,576.2031 Q245.5938,575.625 245,575.3594 Q244.4063,575.0781 243.7813,575.0781 Q242.4375,575.0781 241.75,576.1563 Q241.0625,577.2188 241.0625,579.3125 Q241.0625,581.4063 241.75,582.4844 Q242.4375,583.5469 243.7813,583.5469 Q244.4063,583.5469 245,583.2813 Q245.5938,583 246.2188,582.4219 L246.2188,585.1406 Z " fill="#000000"/><text fill="#000000" font-family="sans-serif" font-size="14" lengthAdjust="spacing" textLength="39" x="263.75" y="584.3467">Menu</text><line style="stroke:#181818;stroke-width:0.5;" x1="173.5" x2="360.5" y1="595.5" y2="595.5"/><rect fill="none" height="6" style="stroke:#C82930;stroke-width:1.0;" width="6" x="180.5" y="606.1484"/><text fill="#000000" font-family="sans-serif" font-size="14" lengthAdjust="spacing" textLength="163" x="192.5" y="612.4951">items: List&lt;MenuItem&gt;</text><line style="stroke:#181818;stroke-width:0.5;" x1="173.5" x2="360.5" y1="619.7969" y2="619.7969"/></g><!--class MenuItem--><g id="elem_MenuItem"><rect codeLine="64" fill="#F1F1F1" height="113.1875" id="MenuItem" rx="2.5" ry="2.5" style="stroke:#181818;stroke-width:0.5;" width="159" x="187.5" y="745.5"/><ellipse cx="228.6" cy="761.5" fill="#ADD1B2" rx="11" ry="11" style="stroke:#181818;stroke-width:1.0;"/><path d="M231.5688,767.1406 Q230.9906,767.4375 230.35,767.5781 Q229.7094,767.7344 229.0063,767.7344 Q226.5063,767.7344 225.1781,766.0938 Q223.8656,764.4375 223.8656,761.3125 Q223.8656,758.1875 225.1781,756.5313 Q226.5063,754.875 229.0063,754.875 Q229.7094,754.875 230.35,755.0313 Q231.0063,755.1875 231.5688,755.4844 L231.5688,758.2031 Q230.9438,757.625 230.35,757.3594 Q229.7563,757.0781 229.1313,757.0781 Q227.7875,757.0781 227.1,758.1563 Q226.4125,759.2188 226.4125,761.3125 Q226.4125,763.4063 227.1,764.4844 Q227.7875,765.5469 229.1313,765.5469 Q229.7563,765.5469 230.35,765.2813 Q230.9438,765 231.5688,764.4219 L231.5688,767.1406 Z " fill="#000000"/><text fill="#000000" font-family="sans-serif" font-size="14" lengthAdjust="spacing" textLength="69" x="248.4" y="766.3467">MenuItem</text><line style="stroke:#181818;stroke-width:0.5;" x1="188.5" x2="345.5" y1="777.5" y2="777.5"/><rect fill="none" height="6" style="stroke:#C82930;stroke-width:1.0;" width="6" x="195.5" y="788.1484"/><text fill="#000000" font-family="sans-serif" font-size="14" lengthAdjust="spacing" textLength="88" x="207.5" y="794.4951">name: String</text><rect fill="none" height="6" style="stroke:#C82930;stroke-width:1.0;" width="6" x="195.5" y="804.4453"/><text fill="#000000" font-family="sans-serif" font-size="14" lengthAdjust="spacing" textLength="133" x="207.5" y="810.792">description: String?</text><rect fill="none" height="6" style="stroke:#C82930;stroke-width:1.0;" width="6" x="195.5" y="820.7422"/><text fill="#000000" font-family="sans-serif" font-size="14" lengthAdjust="spacing" textLength="131" x="207.5" y="827.0889">price: ProductPrice</text><rect fill="none" height="6" style="stroke:#C82930;stroke-width:1.0;" width="6" x="195.5" y="837.0391"/><text fill="#000000" font-family="sans-serif" font-size="14" lengthAdjust="spacing" textLength="117" x="207.5" y="843.3857">inStock: Boolean</text><line style="stroke:#181818;stroke-width:0.5;" x1="188.5" x2="345.5" y1="850.6875" y2="850.6875"/></g><!--class ProductPrice--><g id="elem_ProductPrice"><rect codeLine="71" fill="#F1F1F1" height="64.2969" id="ProductPrice" rx="2.5" ry="2.5" style="stroke:#181818;stroke-width:0.5;" width="120" x="207" y="960"/><ellipse cx="222" cy="976" fill="#ADD1B2" rx="11" ry="11" style="stroke:#181818;stroke-width:1.0;"/><path d="M224.9688,981.6406 Q224.3906,981.9375 223.75,982.0781 Q223.1094,982.2344 222.4063,982.2344 Q219.9063,982.2344 218.5781,980.5938 Q217.2656,978.9375 217.2656,975.8125 Q217.2656,972.6875 218.5781,971.0313 Q219.9063,969.375 222.4063,969.375 Q223.1094,969.375 223.75,969.5313 Q224.4063,969.6875 224.9688,969.9844 L224.9688,972.7031 Q224.3438,972.125 223.75,971.8594 Q223.1563,971.5781 222.5313,971.5781 Q221.1875,971.5781 220.5,972.6563 Q219.8125,973.7188 219.8125,975.8125 Q219.8125,977.9063 220.5,978.9844 Q221.1875,980.0469 222.5313,980.0469 Q223.1563,980.0469 223.75,979.7813 Q224.3438,979.5 224.9688,978.9219 L224.9688,981.6406 Z " fill="#000000"/><text fill="#000000" font-family="sans-serif" font-size="14" lengthAdjust="spacing" textLength="88" x="236" y="980.8467">ProductPrice</text><line style="stroke:#181818;stroke-width:0.5;" x1="208" x2="326" y1="992" y2="992"/><rect fill="none" height="6" style="stroke:#C82930;stroke-width:1.0;" width="6" x="215" y="1002.6484"/><text fill="#000000" font-family="sans-serif" font-size="14" lengthAdjust="spacing" textLength="83" x="227" y="1008.9951">price: String</text><line style="stroke:#181818;stroke-width:0.5;" x1="208" x2="326" y1="1016.2969" y2="1016.2969"/></g><!--class OpeningHours--><g id="elem_OpeningHours"><rect codeLine="81" fill="#F1F1F1" height="64.2969" id="OpeningHours" rx="2.5" ry="2.5" style="stroke:#181818;stroke-width:0.5;" width="299" x="396.5" y="563.5"/><ellipse cx="491.75" cy="579.5" fill="#ADD1B2" rx="11" ry="11" style="stroke:#181818;stroke-width:1.0;"/><path d="M494.7188,585.1406 Q494.1406,585.4375 493.5,585.5781 Q492.8594,585.7344 492.1563,585.7344 Q489.6563,585.7344 488.3281,584.0938 Q487.0156,582.4375 487.0156,579.3125 Q487.0156,576.1875 488.3281,574.5313 Q489.6563,572.875 492.1563,572.875 Q492.8594,572.875 493.5,573.0313 Q494.1563,573.1875 494.7188,573.4844 L494.7188,576.2031 Q494.0938,575.625 493.5,575.3594 Q492.9063,575.0781 492.2813,575.0781 Q490.9375,575.0781 490.25,576.1563 Q489.5625,577.2188 489.5625,579.3125 Q489.5625,581.4063 490.25,582.4844 Q490.9375,583.5469 492.2813,583.5469 Q492.9063,583.5469 493.5,583.2813 Q494.0938,583 494.7188,582.4219 L494.7188,585.1406 Z " fill="#000000"/><text fill="#000000" font-family="sans-serif" font-size="14" lengthAdjust="spacing" textLength="100" x="512.25" y="584.3467">OpeningHours</text><line style="stroke:#181818;stroke-width:0.5;" x1="397.5" x2="694.5" y1="595.5" y2="595.5"/><rect fill="none" height="6" style="stroke:#C82930;stroke-width:1.0;" width="6" x="404.5" y="606.1484"/><text fill="#000000" font-family="sans-serif" font-size="14" lengthAdjust="spacing" textLength="273" x="416.5" y="612.4951">dayToHours: Map&lt;DayOfWeek, String&gt;</text><line style="stroke:#181818;stroke-width:0.5;" x1="397.5" x2="694.5" y1="619.7969" y2="619.7969"/></g><!--class DayOfWeek--><g id="elem_DayOfWeek"><rect codeLine="85" fill="#F1F1F1" height="162.0781" id="DayOfWeek" rx="2.5" ry="2.5" style="stroke:#181818;stroke-width:0.5;" width="112" x="490" y="721"/><ellipse cx="505" cy="737" fill="#EB937F" rx="11" ry="11" style="stroke:#181818;stroke-width:1.0;"/><path d="M509.1094,743 L501.3906,743 L501.3906,730.6094 L509.1094,730.6094 L509.1094,732.7656 L503.8438,732.7656 L503.8438,735.4375 L508.6094,735.4375 L508.6094,737.5938 L503.8438,737.5938 L503.8438,740.8438 L509.1094,740.8438 L509.1094,743 Z " fill="#000000"/><text fill="#000000" font-family="sans-serif" font-size="14" lengthAdjust="spacing" textLength="80" x="519" y="741.8467">DayOfWeek</text><line style="stroke:#181818;stroke-width:0.5;" x1="491" x2="601" y1="753" y2="753"/><text fill="#000000" font-family="sans-serif" font-size="14" lengthAdjust="spacing" textLength="62" x="496" y="769.9951">MONDAY</text><text fill="#000000" font-family="sans-serif" font-size="14" lengthAdjust="spacing" textLength="66" x="496" y="786.292">TUESDAY</text><text fill="#000000" font-family="sans-serif" font-size="14" lengthAdjust="spacing" textLength="90" x="496" y="802.5889">WEDNESDAY</text><text fill="#000000" font-family="sans-serif" font-size="14" lengthAdjust="spacing" textLength="77" x="496" y="818.8857">THURSDAY</text><text fill="#000000" font-family="sans-serif" font-size="14" lengthAdjust="spacing" textLength="50" x="496" y="835.1826">FRIDAY</text><text fill="#000000" font-family="sans-serif" font-size="14" lengthAdjust="spacing" textLength="76" x="496" y="851.4795">SATURDAY</text><text fill="#000000" font-family="sans-serif" font-size="14" lengthAdjust="spacing" textLength="58" x="496" y="867.7764">SUNDAY</text><line style="stroke:#181818;stroke-width:0.5;" x1="491" x2="601" y1="875.0781" y2="875.0781"/></g><!--class Location--><g id="elem_Location"><rect codeLine="100" fill="#F1F1F1" height="96.8906" id="Location" rx="2.5" ry="2.5" style="stroke:#181818;stroke-width:0.5;" width="184" x="731" y="547"/><ellipse cx="789.75" cy="563" fill="#ADD1B2" rx="11" ry="11" style="stroke:#181818;stroke-width:1.0;"/><path d="M792.7188,568.6406 Q792.1406,568.9375 791.5,569.0781 Q790.8594,569.2344 790.1563,569.2344 Q787.6563,569.2344 786.3281,567.5938 Q785.0156,565.9375 785.0156,562.8125 Q785.0156,559.6875 786.3281,558.0313 Q787.6563,556.375 790.1563,556.375 Q790.8594,556.375 791.5,556.5313 Q792.1563,556.6875 792.7188,556.9844 L792.7188,559.7031 Q792.0938,559.125 791.5,558.8594 Q790.9063,558.5781 790.2813,558.5781 Q788.9375,558.5781 788.25,559.6563 Q787.5625,560.7188 787.5625,562.8125 Q787.5625,564.9063 788.25,565.9844 Q788.9375,567.0469 790.2813,567.0469 Q790.9063,567.0469 791.5,566.7813 Q792.0938,566.5 792.7188,565.9219 L792.7188,568.6406 Z " fill="#000000"/><text fill="#000000" font-family="sans-serif" font-size="14" lengthAdjust="spacing" textLength="58" x="810.25" y="567.8467">Location</text><line style="stroke:#181818;stroke-width:0.5;" x1="732" x2="914" y1="579" y2="579"/><rect fill="none" height="6" style="stroke:#C82930;stroke-width:1.0;" width="6" x="739" y="589.6484"/><text fill="#000000" font-family="sans-serif" font-size="14" lengthAdjust="spacing" textLength="105" x="751" y="595.9951">address: String</text><rect fill="none" height="6" style="stroke:#C82930;stroke-width:1.0;" width="6" x="739" y="605.9453"/><text fill="#000000" font-family="sans-serif" font-size="14" lengthAdjust="spacing" textLength="144" x="751" y="612.292">latitude: BigDecimal?</text><rect fill="none" height="6" style="stroke:#C82930;stroke-width:1.0;" width="6" x="739" y="622.2422"/><text fill="#000000" font-family="sans-serif" font-size="14" lengthAdjust="spacing" textLength="158" x="751" y="628.5889">longitude: BigDecimal?</text><line style="stroke:#181818;stroke-width:0.5;" x1="732" x2="914" y1="635.8906" y2="635.8906"/></g><!--class Review--><g id="elem_Review"><rect codeLine="110" fill="#F1F1F1" height="113.1875" id="Review" rx="2.5" ry="2.5" style="stroke:#181818;stroke-width:0.5;" width="148" x="648" y="316"/><ellipse cx="693.25" cy="332" fill="#ADD1B2" rx="11" ry="11" style="stroke:#181818;stroke-width:1.0;"/><path d="M696.2188,337.6406 Q695.6406,337.9375 695,338.0781 Q694.3594,338.2344 693.6563,338.2344 Q691.1563,338.2344 689.8281,336.5938 Q688.5156,334.9375 688.5156,331.8125 Q688.5156,328.6875 689.8281,327.0313 Q691.1563,325.375 693.6563,325.375 Q694.3594,325.375 695,325.5313 Q695.6563,325.6875 696.2188,325.9844 L696.2188,328.7031 Q695.5938,328.125 695,327.8594 Q694.4063,327.5781 693.7813,327.5781 Q692.4375,327.5781 691.75,328.6563 Q691.0625,329.7188 691.0625,331.8125 Q691.0625,333.9063 691.75,334.9844 Q692.4375,336.0469 693.7813,336.0469 Q694.4063,336.0469 695,335.7813 Q695.5938,335.5 696.2188,334.9219 L696.2188,337.6406 Z " fill="#000000"/><text fill="#000000" font-family="sans-serif" font-size="14" lengthAdjust="spacing" textLength="49" x="713.75" y="336.8467">Review</text><line style="stroke:#181818;stroke-width:0.5;" x1="649" x2="795" y1="348" y2="348"/><rect fill="none" height="6" style="stroke:#C82930;stroke-width:1.0;" width="6" x="656" y="358.6484"/><text fill="#000000" font-family="sans-serif" font-size="14" lengthAdjust="spacing" textLength="72" x="668" y="364.9951">user: User</text><rect fill="none" height="6" style="stroke:#C82930;stroke-width:1.0;" width="6" x="656" y="374.9453"/><text fill="#000000" font-family="sans-serif" font-size="14" lengthAdjust="spacing" textLength="80" x="668" y="381.292">shop: Shop</text><rect fill="none" height="6" style="stroke:#C82930;stroke-width:1.0;" width="6" x="656" y="391.2422"/><text fill="#000000" font-family="sans-serif" font-size="14" lengthAdjust="spacing" textLength="65" x="668" y="397.5889">rating: int</text><rect fill="none" height="6" style="stroke:#C82930;stroke-width:1.0;" width="6" x="656" y="407.5391"/><text fill="#000000" font-family="sans-serif" font-size="14" lengthAdjust="spacing" textLength="122" x="668" y="413.8857">comment: String?</text><line style="stroke:#181818;stroke-width:0.5;" x1="649" x2="795" y1="421.1875" y2="421.1875"/></g><!--reverse link ImageResource to User--><g id="link_ImageResource_User"><path codeLine="17" d="M480.7,71.5 C519.53,71.5 556.73,71.5 601.43,71.5 " fill="none" id="ImageResource-backto-User" style="stroke:#181818;stroke-width:1.0;"/><polygon fill="none" points="468.7,71.5,474.7,75.5,480.7,71.5,474.7,67.5,468.7,71.5" style="stroke:#181818;stroke-width:1.0;"/><polygon fill="#000000" points="486,60.0664,495.0451,63.0053,495.0451,57.1275,486,60.0664" style="stroke:#000000;stroke-width:1.0;"/><text fill="#000000" font-family="sans-serif" font-size="13" lengthAdjust="spacing" textLength="83" x="500" y="64.5669">profilePicture</text><text fill="#000000" font-family="sans-serif" font-size="13" lengthAdjust="spacing" textLength="24" x="476.5823" y="84.2739">0..1</text><text fill="#000000" font-family="sans-serif" font-size="13" lengthAdjust="spacing" textLength="8" x="585.4497" y="68.0847">1</text></g><!--reverse link User to ContactInfo--><g id="link_User_ContactInfo"><path codeLine="29" d="M854.82,71.5 C895.24,71.5 927.11,71.5 962.99,71.5 " fill="none" id="User-backto-ContactInfo" style="stroke:#181818;stroke-width:1.0;"/><polygon fill="#181818" points="842.82,71.5,848.82,75.5,854.82,71.5,848.82,67.5,842.82,71.5" style="stroke:#181818;stroke-width:1.0;"/><polygon fill="#000000" points="869.75,60.0664,860.7049,57.1275,860.7049,63.0053,869.75,60.0664" style="stroke:#000000;stroke-width:1.0;"/><text fill="#000000" font-family="sans-serif" font-size="13" lengthAdjust="spacing" textLength="71" x="873.75" y="64.5669">contactInfo</text><text fill="#000000" font-family="sans-serif" font-size="13" lengthAdjust="spacing" textLength="8" x="850.4262" y="68.1082">1</text><text fill="#000000" font-family="sans-serif" font-size="13" lengthAdjust="spacing" textLength="8" x="946.8421" y="67.7753">1</text></g><!--link User to Shop--><g id="link_User_Shop"><path codeLine="45" d="M663.3,128.04 C619.84,169.16 568.2365,217.9924 516.9265,266.5424 " fill="none" id="User-to-Shop" style="stroke:#181818;stroke-width:1.0;"/><polygon fill="none" points="508.21,274.79,515.3174,273.5717,516.9265,266.5424,509.819,267.7607,508.21,274.79" style="stroke:#181818;stroke-width:1.0;"/><polygon fill="#000000" points="599.6318,202.1299,591.0418,206.2119,595.0817,210.4814,599.6318,202.1299" style="stroke:#000000;stroke-width:1.0;"/><text fill="#000000" font-family="sans-serif" font-size="13" lengthAdjust="spacing" textLength="57" x="605" y="210.0669">ownedBy</text><text fill="#000000" font-family="sans-serif" font-size="13" lengthAdjust="spacing" textLength="8" x="647.2666" y="148.3085">1</text><text fill="#000000" font-family="sans-serif" font-size="13" lengthAdjust="spacing" textLength="23" x="492.155" y="263.8194">0..*</text></g><!--link Shop to ImageResource--><g id="link_Shop_ImageResource"><path codeLine="47" d="M403.42,274.96 C401.83,215.78 399.91,143.89 398.83,103.65 " fill="none" id="Shop-ImageResource" style="stroke:#181818;stroke-width:1.0;"/><polygon fill="#000000" points="406.8661,200.5682,404.1705,209.6888,410.0462,209.5313,406.8661,200.5682" style="stroke:#000000;stroke-width:1.0;"/><text fill="#000000" font-family="sans-serif" font-size="13" lengthAdjust="spacing" textLength="47" x="416" y="210.0669">images</text><text fill="#000000" font-family="sans-serif" font-size="13" lengthAdjust="spacing" textLength="8" x="394.9162" y="264.0024">1</text><text fill="#000000" font-family="sans-serif" font-size="13" lengthAdjust="spacing" textLength="23" x="373.6293" y="123.8778">0..*</text></g><!--reverse link Shop to ShopCategory--><g id="link_Shop_ShopCategory"><path codeLine="56" d="M250.9521,476.0913 C205.5321,506.1413 167.91,531.04 131.84,554.91 " fill="none" id="Shop-backto-ShopCategory" style="stroke:#181818;stroke-width:1.0;"/><polygon fill="#181818" points="260.96,469.47,253.7489,469.4447,250.9521,476.0913,258.1631,476.1166,260.96,469.47" style="stroke:#181818;stroke-width:1.0;"/><polygon fill="#000000" points="210.8303,511.3256,219.9952,508.7851,216.7516,503.8832,210.8303,511.3256" style="stroke:#000000;stroke-width:1.0;"/><text fill="#000000" font-family="sans-serif" font-size="13" lengthAdjust="spacing" textLength="67" x="224" y="513.0669">categories</text><text fill="#000000" font-family="sans-serif" font-size="13" lengthAdjust="spacing" textLength="8" x="244.8094" y="471.4424">1</text><text fill="#000000" font-family="sans-serif" font-size="13" lengthAdjust="spacing" textLength="23" x="116.8463" y="544.0566">0..*</text></g><!--reverse link Shop to Menu--><g id="link_Shop_Menu"><path codeLine="75" d="M338.842,480.2684 C317.732,513.8384 301.92,538.98 286.58,563.37 " fill="none" id="Shop-backto-Menu" style="stroke:#181818;stroke-width:1.0;"/><polygon fill="#181818" points="345.23,470.11,338.6499,473.0599,338.842,480.2684,345.4222,477.3185,345.23,470.11" style="stroke:#181818;stroke-width:1.0;"/><polygon fill="#000000" points="327.3382,512.799,334.6413,506.7068,329.6656,503.5776,327.3382,512.799" style="stroke:#000000;stroke-width:1.0;"/><text fill="#000000" font-family="sans-serif" font-size="13" lengthAdjust="spacing" textLength="37" x="339" y="513.0669">menu</text><text fill="#000000" font-family="sans-serif" font-size="13" lengthAdjust="spacing" textLength="8" x="332.6759" y="489.5836">1</text><text fill="#000000" font-family="sans-serif" font-size="13" lengthAdjust="spacing" textLength="8" x="281.7934" y="552.2463">1</text></g><!--reverse link Menu to MenuItem--><g id="link_Menu_MenuItem"><path codeLine="76" d="M267,639.56 C267,670.73 267,707.43 267,745.3 " fill="none" id="Menu-backto-MenuItem" style="stroke:#181818;stroke-width:1.0;"/><polygon fill="#181818" points="267,627.56,263,633.56,267,639.56,271,633.56,267,627.56" style="stroke:#181818;stroke-width:1.0;"/><polygon fill="#000000" points="272,687.5664,274.9389,678.5213,269.0611,678.5213,272,687.5664" style="stroke:#000000;stroke-width:1.0;"/><text fill="#000000" font-family="sans-serif" font-size="13" lengthAdjust="spacing" textLength="36" x="281" y="687.0669">items</text><text fill="#000000" font-family="sans-serif" font-size="13" lengthAdjust="spacing" textLength="8" x="258.175" y="647.7692">1</text><text fill="#000000" font-family="sans-serif" font-size="13" lengthAdjust="spacing" textLength="23" x="242.5984" y="734.5392">0..*</text></g><!--reverse link MenuItem to ProductPrice--><g id="link_MenuItem_ProductPrice"><path codeLine="77" d="M267,870.64 C267,903.67 267,932.31 267,959.78 " fill="none" id="MenuItem-backto-ProductPrice" style="stroke:#181818;stroke-width:1.0;"/><polygon fill="#181818" points="267,858.64,263,864.64,267,870.64,271,864.64,267,858.64" style="stroke:#181818;stroke-width:1.0;"/><polygon fill="#000000" points="272,926.5664,274.9389,917.5213,269.0611,917.5213,272,926.5664" style="stroke:#000000;stroke-width:1.0;"/><text fill="#000000" font-family="sans-serif" font-size="13" lengthAdjust="spacing" textLength="80" x="281" y="926.0669">productPrice</text><text fill="#000000" font-family="sans-serif" font-size="13" lengthAdjust="spacing" textLength="8" x="258.4875" y="878.9213">1</text><text fill="#000000" font-family="sans-serif" font-size="13" lengthAdjust="spacing" textLength="8" x="258.2125" y="949.0109">1</text></g><!--reverse link Shop to OpeningHours--><g id="link_Shop_OpeningHours"><path codeLine="95" d="M473.6226,480.2466 C494.8926,513.8166 510.83,538.98 526.28,563.37 " fill="none" id="Shop-backto-OpeningHours" style="stroke:#181818;stroke-width:1.0;"/><polygon fill="#181818" points="467.2,470.11,467.0324,477.3192,473.6226,480.2466,473.7901,473.0374,467.2,470.11" style="stroke:#181818;stroke-width:1.0;"/><polygon fill="#000000" points="504.6757,512.7902,502.318,503.5765,497.3526,506.722,504.6757,512.7902" style="stroke:#000000;stroke-width:1.0;"/><text fill="#000000" font-family="sans-serif" font-size="13" lengthAdjust="spacing" textLength="89" x="511" y="513.0669">openingHours</text><text fill="#000000" font-family="sans-serif" font-size="13" lengthAdjust="spacing" textLength="8" x="463.2219" y="489.5836">1</text><text fill="#000000" font-family="sans-serif" font-size="13" lengthAdjust="spacing" textLength="8" x="513.3878" y="552.2463">1</text></g><!--reverse link OpeningHours to DayOfWeek--><g id="link_OpeningHours_DayOfWeek"><path codeLine="96" d="M546,639.56 C546,664.36 546,688.27 546,720.98 " fill="none" id="OpeningHours-backto-DayOfWeek" style="stroke:#181818;stroke-width:1.0;"/><polygon fill="#181818" points="546,627.56,542,633.56,546,639.56,550,633.56,546,627.56" style="stroke:#181818;stroke-width:1.0;"/><polygon fill="#000000" points="551,687.5664,553.9389,678.5213,548.0611,678.5213,551,687.5664" style="stroke:#000000;stroke-width:1.0;"/><text fill="#000000" font-family="sans-serif" font-size="13" lengthAdjust="spacing" textLength="76" x="560" y="687.0669">dayToHours</text><text fill="#000000" font-family="sans-serif" font-size="13" lengthAdjust="spacing" textLength="8" x="537.175" y="647.7692">1</text><text fill="#000000" font-family="sans-serif" font-size="13" lengthAdjust="spacing" textLength="23" x="521.9398" y="709.889">0..*</text></g><!--reverse link Shop to Location--><g id="link_Shop_Location"><path codeLine="106" d="M561.8629,456.0994 C622.3929,488.1794 680.17,518.8 733.19,546.9 " fill="none" id="Shop-backto-Location" style="stroke:#181818;stroke-width:1.0;"/><polygon fill="#181818" points="551.26,450.48,554.6883,456.824,561.8629,456.0994,558.4346,449.7554,551.26,450.48" style="stroke:#181818;stroke-width:1.0;"/><polygon fill="#000000" points="686.4179,510.9078,679.8021,504.0754,677.0496,509.2689,686.4179,510.9078" style="stroke:#000000;stroke-width:1.0;"/><text fill="#000000" font-family="sans-serif" font-size="13" lengthAdjust="spacing" textLength="50" x="691" y="513.0669">location</text><text fill="#000000" font-family="sans-serif" font-size="13" lengthAdjust="spacing" textLength="8" x="558.9562" y="451.1929">1</text><text fill="#000000" font-family="sans-serif" font-size="13" lengthAdjust="spacing" textLength="8" x="714.9295" y="537.8442">1</text></g><!--link Shop to Review--><g id="link_Shop_Review"><path codeLine="117" d="M551.05,372.5 C584.48,372.5 606.68,372.5 635.62,372.5 " fill="none" id="Shop-to-Review" style="stroke:#181818;stroke-width:1.0;"/><polygon fill="#181818" points="647.62,372.5,641.62,368.5,635.62,372.5,641.62,376.5,647.62,372.5" style="stroke:#181818;stroke-width:1.0;"/><polygon fill="#000000" points="578.5,361.0664,569.4549,358.1275,569.4549,364.0053,578.5,361.0664" style="stroke:#000000;stroke-width:1.0;"/><text fill="#000000" font-family="sans-serif" font-size="13" lengthAdjust="spacing" textLength="47" x="582.5" y="365.5669">reviews</text><text fill="#000000" font-family="sans-serif" font-size="13" lengthAdjust="spacing" textLength="8" x="559.2012" y="369.1693">1</text><text fill="#000000" font-family="sans-serif" font-size="13" lengthAdjust="spacing" textLength="23" x="616.9713" y="385.2324">0..*</text></g><!--link User to Review--><g id="link_User_Review"><path codeLine="118" d="M722,128.04 C722,181.58 722,250.15 722,303.75 " fill="none" id="User-to-Review" style="stroke:#181818;stroke-width:1.0;"/><polygon fill="#181818" points="722,315.75,726,309.75,722,303.75,718,309.75,722,315.75" style="stroke:#181818;stroke-width:1.0;"/><polygon fill="#000000" points="727,210.5664,729.9389,201.5213,724.0611,201.5213,727,210.5664" style="stroke:#000000;stroke-width:1.0;"/><text fill="#000000" font-family="sans-serif" font-size="13" lengthAdjust="spacing" textLength="47" x="736" y="210.0669">reviews</text><text fill="#000000" font-family="sans-serif" font-size="13" lengthAdjust="spacing" textLength="8" x="713.4875" y="148.3085">1</text><text fill="#000000" font-family="sans-serif" font-size="13" lengthAdjust="spacing" textLength="23" x="697.5984" y="304.9831">0..*</text></g><!--SRC=[dLLDR-8m4BtdLrZieHBQLBjN2xKgqAf8K10GLJqQnwGMYHtPpYAqsl- -ZXFRSJPYLN8Wdl4my-RDH-I9iX89L803mgTCy8gbCvvp0Rwzc2UAS8wa18i2PMHB9Ay49k1t1FGJWqha4EoKe2oB_aJH7OZ__u0xwpEHH3XND7MU6WL31UcfIi6FD2SRYbKbz6K0wh4rmfmfXDM27Ja4Co_K04t4qSyHY9SSZ7xSt-jZc1di1G4FNqwh4zDbLtvovhAnI4c1QDvNdib1KlMFxH5XSk3yrDTJ9XNAT07zHJVFSMnUNKYmoz0DwUq-UHbKBKaMyu6QMOGfaLZGKb7E-bVyp8Y0fWzQZTJEPqYHZ0jA90HBAjLavvMN1nkuhfer24feBGh2AWXM-hTLv1oZ1iMoFLaO9M4QrQl-k_QuxaXXpyHnqpJZKKC2D0caqmkOH97HD6RMgDzP3UORARS4EEe7vWFNaritlNxLq1sciGSL-DAzuCY-0LTDhcy5HGfRaFfYeUM76eMthLNNy5zfbL9GhCqtWgSLLfjQSXEmKnphmPXodXF4VCYkiP_4nf5VMY59-csoWgP_D2T6wd7eSe5DrgsPKNKz1G3CPl7YrzdkDgPB9qMNFMyxTuNAoHnTriTtGaxVsnHD2JIu0hYhzi-hzTlywSCSzydppfxVd-TlNjg_9bidl6mNzhXxsYTR9oJ6qn2P0MWOZ9gc8BZjaUpXmawMD_1cfzrnXj9K42bxpPTh8rMbkZUcD9iJhASrVtIhWsK3bqC9ksZGBPmRC6_9BqhE_Zih1_OaDBFSAeIEn3BTZqovPL3e5bR1Ty4lgR6bkOq4WJ27cc2_yQvP_GK0]--></g></svg>