<?xml version="1.0" encoding="us-ascii" standalone="no"?><svg xmlns="http://www.w3.org/2000/svg" xmlns:xlink="http://www.w3.org/1999/xlink" contentStyleType="text/css" height="1332px" preserveAspectRatio="none" style="width:1132px;height:1332px;background:#FFFFFF;" version="1.1" viewBox="0 0 1132 1332" width="1132px" zoomAndPan="magnify"><defs/><g><!--class ImageResource--><g id="elem_ImageResource"><rect codeLine="6" fill="#F1F1F1" height="70.9531" id="ImageResource" rx="2.5" ry="2.5" style="stroke:#181818;stroke-width:0.5;" width="171" x="391.5" y="275.5"/><ellipse cx="407.5" cy="292.5" fill="#ADD1B2" rx="12" ry="12" style="stroke:#181818;stroke-width:1.0;"/><path d="M410.5,298.625 Q409.8906,298.9375 409.2031,299.0938 Q408.5313,299.25 407.7813,299.25 Q405.125,299.25 403.7344,297.5 Q402.3438,295.75 402.3438,292.4531 Q402.3438,289.1406 403.7344,287.3906 Q405.125,285.6406 407.7813,285.6406 Q408.5313,285.6406 409.2188,285.7969 Q409.9063,285.9531 410.5,286.2656 L410.5,289.1563 Q409.8281,288.5469 409.2031,288.2656 Q408.5781,287.9688 407.9063,287.9688 Q406.4844,287.9688 405.75,289.1094 Q405.0313,290.2344 405.0313,292.4531 Q405.0313,294.6719 405.75,295.7969 Q406.4844,296.9219 407.9063,296.9219 Q408.5781,296.9219 409.2031,296.6406 Q409.8281,296.3594 410.5,295.7344 L410.5,298.625 Z " fill="#000000"/><text fill="#000000" font-family="sans-serif" font-size="18" lengthAdjust="spacing" textLength="137" x="422.5" y="298.7314">ImageResource</text><line style="stroke:#181818;stroke-width:0.5;" x1="392.5" x2="561.5" y1="309.5" y2="309.5"/><rect fill="none" height="6" style="stroke:#C82930;stroke-width:1.0;" width="6" x="399.5" y="322.4766"/><text fill="#000000" font-family="sans-serif" font-size="18" lengthAdjust="spacing" textLength="89" x="412.5" y="330.208">url: String</text><line style="stroke:#181818;stroke-width:0.5;" x1="392.5" x2="561.5" y1="338.4531" y2="338.4531"/></g><!--class User--><g id="elem_User"><rect codeLine="12" fill="#F1F1F1" height="133.8125" id="User" rx="2.5" ry="2.5" style="stroke:#181818;stroke-width:0.5;" width="305" x="736.5" y="244"/><ellipse cx="864" cy="261" fill="#ADD1B2" rx="12" ry="12" style="stroke:#181818;stroke-width:1.0;"/><path d="M867,267.125 Q866.3906,267.4375 865.7031,267.5938 Q865.0313,267.75 864.2813,267.75 Q861.625,267.75 860.2344,266 Q858.8438,264.25 858.8438,260.9531 Q858.8438,257.6406 860.2344,255.8906 Q861.625,254.1406 864.2813,254.1406 Q865.0313,254.1406 865.7188,254.2969 Q866.4063,254.4531 867,254.7656 L867,257.6563 Q866.3281,257.0469 865.7031,256.7656 Q865.0781,256.4688 864.4063,256.4688 Q862.9844,256.4688 862.25,257.6094 Q861.5313,258.7344 861.5313,260.9531 Q861.5313,263.1719 862.25,264.2969 Q862.9844,265.4219 864.4063,265.4219 Q865.0781,265.4219 865.7031,265.1406 Q866.3281,264.8594 867,264.2344 L867,267.125 Z " fill="#000000"/><text fill="#000000" font-family="sans-serif" font-size="18" lengthAdjust="spacing" textLength="41" x="886" y="267.2314">User</text><line style="stroke:#181818;stroke-width:0.5;" x1="737.5" x2="1040.5" y1="278" y2="278"/><rect fill="none" height="6" style="stroke:#C82930;stroke-width:1.0;" width="6" x="744.5" y="290.9766"/><text fill="#000000" font-family="sans-serif" font-size="18" lengthAdjust="spacing" textLength="81" x="757.5" y="298.708">id: String</text><rect fill="none" height="6" style="stroke:#C82930;stroke-width:1.0;" width="6" x="744.5" y="311.9297"/><text fill="#000000" font-family="sans-serif" font-size="18" lengthAdjust="spacing" textLength="114" x="757.5" y="319.6611">name: String</text><rect fill="none" height="6" style="stroke:#C82930;stroke-width:1.0;" width="6" x="744.5" y="332.8828"/><text fill="#000000" font-family="sans-serif" font-size="18" lengthAdjust="spacing" textLength="278" x="757.5" y="340.6143">profilePicture: ImageResource?</text><rect fill="none" height="6" style="stroke:#C82930;stroke-width:1.0;" width="6" x="744.5" y="353.8359"/><text fill="#000000" font-family="sans-serif" font-size="18" lengthAdjust="spacing" textLength="212" x="757.5" y="361.5674">contactInfo: ContactInfo</text><line style="stroke:#181818;stroke-width:0.5;" x1="737.5" x2="1040.5" y1="369.8125" y2="369.8125"/></g><!--class ContactInfo--><g id="elem_ContactInfo"><rect codeLine="23" fill="#F1F1F1" height="154.7656" id="ContactInfo" rx="2.5" ry="2.5" style="stroke:#181818;stroke-width:0.5;" width="189" x="794.5" y="7"/><ellipse cx="834.35" cy="24" fill="#ADD1B2" rx="12" ry="12" style="stroke:#181818;stroke-width:1.0;"/><path d="M837.35,30.125 Q836.7406,30.4375 836.0531,30.5938 Q835.3813,30.75 834.6313,30.75 Q831.975,30.75 830.5844,29 Q829.1938,27.25 829.1938,23.9531 Q829.1938,20.6406 830.5844,18.8906 Q831.975,17.1406 834.6313,17.1406 Q835.3813,17.1406 836.0688,17.2969 Q836.7563,17.4531 837.35,17.7656 L837.35,20.6563 Q836.6781,20.0469 836.0531,19.7656 Q835.4281,19.4688 834.7563,19.4688 Q833.3344,19.4688 832.6,20.6094 Q831.8813,21.7344 831.8813,23.9531 Q831.8813,26.1719 832.6,27.2969 Q833.3344,28.4219 834.7563,28.4219 Q835.4281,28.4219 836.0531,28.1406 Q836.6781,27.8594 837.35,27.2344 L837.35,30.125 Z " fill="#000000"/><text fill="#000000" font-family="sans-serif" font-size="18" lengthAdjust="spacing" textLength="102" x="854.65" y="30.2314">ContactInfo</text><line style="stroke:#181818;stroke-width:0.5;" x1="795.5" x2="982.5" y1="41" y2="41"/><rect fill="none" height="6" style="stroke:#C82930;stroke-width:1.0;" width="6" x="802.5" y="53.9766"/><text fill="#000000" font-family="sans-serif" font-size="18" lengthAdjust="spacing" textLength="130" x="815.5" y="61.708">phone: String?</text><rect fill="none" height="6" style="stroke:#C82930;stroke-width:1.0;" width="6" x="802.5" y="74.9297"/><text fill="#000000" font-family="sans-serif" font-size="18" lengthAdjust="spacing" textLength="123" x="815.5" y="82.6611">email: String?</text><rect fill="none" height="6" style="stroke:#C82930;stroke-width:1.0;" width="6" x="802.5" y="95.8828"/><text fill="#000000" font-family="sans-serif" font-size="18" lengthAdjust="spacing" textLength="144" x="815.5" y="103.6143">website: String?</text><rect fill="none" height="6" style="stroke:#C82930;stroke-width:1.0;" width="6" x="802.5" y="116.8359"/><text fill="#000000" font-family="sans-serif" font-size="18" lengthAdjust="spacing" textLength="154" x="815.5" y="124.5674">facebook: String?</text><rect fill="none" height="6" style="stroke:#C82930;stroke-width:1.0;" width="6" x="802.5" y="137.7891"/><text fill="#000000" font-family="sans-serif" font-size="18" lengthAdjust="spacing" textLength="162" x="815.5" y="145.5205">instagram: String?</text><line style="stroke:#181818;stroke-width:0.5;" x1="795.5" x2="982.5" y1="153.7656" y2="153.7656"/></g><!--class Shop--><g id="elem_Shop"><rect codeLine="35" fill="#F1F1F1" height="238.5781" id="Shop" rx="2.5" ry="2.5" style="stroke:#181818;stroke-width:0.5;" width="361" x="311.5" y="460"/><ellipse cx="465.5" cy="477" fill="#ADD1B2" rx="12" ry="12" style="stroke:#181818;stroke-width:1.0;"/><path d="M468.5,483.125 Q467.8906,483.4375 467.2031,483.5938 Q466.5313,483.75 465.7813,483.75 Q463.125,483.75 461.7344,482 Q460.3438,480.25 460.3438,476.9531 Q460.3438,473.6406 461.7344,471.8906 Q463.125,470.1406 465.7813,470.1406 Q466.5313,470.1406 467.2188,470.2969 Q467.9063,470.4531 468.5,470.7656 L468.5,473.6563 Q467.8281,473.0469 467.2031,472.7656 Q466.5781,472.4688 465.9063,472.4688 Q464.4844,472.4688 463.75,473.6094 Q463.0313,474.7344 463.0313,476.9531 Q463.0313,479.1719 463.75,480.2969 Q464.4844,481.4219 465.9063,481.4219 Q466.5781,481.4219 467.2031,481.1406 Q467.8281,480.8594 468.5,480.2344 L468.5,483.125 Z " fill="#000000"/><text fill="#000000" font-family="sans-serif" font-size="18" lengthAdjust="spacing" textLength="44" x="487.5" y="483.2314">Shop</text><line style="stroke:#181818;stroke-width:0.5;" x1="312.5" x2="671.5" y1="494" y2="494"/><rect fill="none" height="6" style="stroke:#C82930;stroke-width:1.0;" width="6" x="319.5" y="506.9766"/><text fill="#000000" font-family="sans-serif" font-size="18" lengthAdjust="spacing" textLength="76" x="332.5" y="514.708">id: UUID</text><rect fill="none" height="6" style="stroke:#C82930;stroke-width:1.0;" width="6" x="319.5" y="527.9297"/><text fill="#000000" font-family="sans-serif" font-size="18" lengthAdjust="spacing" textLength="124" x="332.5" y="535.6611">name: String?</text><rect fill="none" height="6" style="stroke:#C82930;stroke-width:1.0;" width="6" x="319.5" y="548.8828"/><text fill="#000000" font-family="sans-serif" font-size="18" lengthAdjust="spacing" textLength="172" x="332.5" y="556.6143">description: String?</text><rect fill="none" height="6" style="stroke:#C82930;stroke-width:1.0;" width="6" x="319.5" y="569.8359"/><text fill="#000000" font-family="sans-serif" font-size="18" lengthAdjust="spacing" textLength="110" x="332.5" y="577.5674">owner: User</text><rect fill="none" height="6" style="stroke:#C82930;stroke-width:1.0;" width="6" x="319.5" y="590.7891"/><text fill="#000000" font-family="sans-serif" font-size="18" lengthAdjust="spacing" textLength="334" x="332.5" y="598.5205">shopCategories: List&lt;ShopCategory&gt;</text><rect fill="none" height="6" style="stroke:#C82930;stroke-width:1.0;" width="6" x="319.5" y="611.7422"/><text fill="#000000" font-family="sans-serif" font-size="18" lengthAdjust="spacing" textLength="271" x="332.5" y="619.4736">images: List&lt;ImageResource&gt;</text><rect fill="none" height="6" style="stroke:#C82930;stroke-width:1.0;" width="6" x="319.5" y="632.6953"/><text fill="#000000" font-family="sans-serif" font-size="18" lengthAdjust="spacing" textLength="111" x="332.5" y="640.4268">menu: Menu</text><rect fill="none" height="6" style="stroke:#C82930;stroke-width:1.0;" width="6" x="319.5" y="653.6484"/><text fill="#000000" font-family="sans-serif" font-size="18" lengthAdjust="spacing" textLength="155" x="332.5" y="661.3799">location: Location</text><rect fill="none" height="6" style="stroke:#C82930;stroke-width:1.0;" width="6" x="319.5" y="674.6016"/><text fill="#000000" font-family="sans-serif" font-size="18" lengthAdjust="spacing" textLength="261" x="332.5" y="682.333">openingHours: OpeningHours</text><line style="stroke:#181818;stroke-width:0.5;" x1="312.5" x2="671.5" y1="690.5781" y2="690.5781"/></g><!--class ShopCategory--><g id="elem_ShopCategory"><rect codeLine="53" fill="#F1F1F1" height="91.9063" id="ShopCategory" rx="2.5" ry="2.5" style="stroke:#181818;stroke-width:0.5;" width="160" x="7" y="791.5"/><ellipse cx="23" cy="808.5" fill="#ADD1B2" rx="12" ry="12" style="stroke:#181818;stroke-width:1.0;"/><path d="M26,814.625 Q25.3906,814.9375 24.7031,815.0938 Q24.0313,815.25 23.2813,815.25 Q20.625,815.25 19.2344,813.5 Q17.8438,811.75 17.8438,808.4531 Q17.8438,805.1406 19.2344,803.3906 Q20.625,801.6406 23.2813,801.6406 Q24.0313,801.6406 24.7188,801.7969 Q25.4063,801.9531 26,802.2656 L26,805.1563 Q25.3281,804.5469 24.7031,804.2656 Q24.0781,803.9688 23.4063,803.9688 Q21.9844,803.9688 21.25,805.1094 Q20.5313,806.2344 20.5313,808.4531 Q20.5313,810.6719 21.25,811.7969 Q21.9844,812.9219 23.4063,812.9219 Q24.0781,812.9219 24.7031,812.6406 Q25.3281,812.3594 26,811.7344 L26,814.625 Z " fill="#000000"/><text fill="#000000" font-family="sans-serif" font-size="18" lengthAdjust="spacing" textLength="126" x="38" y="814.7314">ShopCategory</text><line style="stroke:#181818;stroke-width:0.5;" x1="8" x2="166" y1="825.5" y2="825.5"/><rect fill="none" height="6" style="stroke:#C82930;stroke-width:1.0;" width="6" x="15" y="838.4766"/><text fill="#000000" font-family="sans-serif" font-size="18" lengthAdjust="spacing" textLength="114" x="28" y="846.208">name: String</text><rect fill="none" height="6" style="stroke:#C82930;stroke-width:1.0;" width="6" x="15" y="859.4297"/><text fill="#000000" font-family="sans-serif" font-size="18" lengthAdjust="spacing" textLength="104" x="28" y="867.1611">color: Color</text><line style="stroke:#181818;stroke-width:0.5;" x1="8" x2="166" y1="875.4063" y2="875.4063"/></g><!--class Menu--><g id="elem_Menu"><rect codeLine="62" fill="#F1F1F1" height="70.9531" id="Menu" rx="2.5" ry="2.5" style="stroke:#181818;stroke-width:0.5;" width="237" x="202.5" y="802"/><ellipse cx="292" cy="819" fill="#ADD1B2" rx="12" ry="12" style="stroke:#181818;stroke-width:1.0;"/><path d="M295,825.125 Q294.3906,825.4375 293.7031,825.5938 Q293.0313,825.75 292.2813,825.75 Q289.625,825.75 288.2344,824 Q286.8438,822.25 286.8438,818.9531 Q286.8438,815.6406 288.2344,813.8906 Q289.625,812.1406 292.2813,812.1406 Q293.0313,812.1406 293.7188,812.2969 Q294.4063,812.4531 295,812.7656 L295,815.6563 Q294.3281,815.0469 293.7031,814.7656 Q293.0781,814.4688 292.4063,814.4688 Q290.9844,814.4688 290.25,815.6094 Q289.5313,816.7344 289.5313,818.9531 Q289.5313,821.1719 290.25,822.2969 Q290.9844,823.4219 292.4063,823.4219 Q293.0781,823.4219 293.7031,823.1406 Q294.3281,822.8594 295,822.2344 L295,825.125 Z " fill="#000000"/><text fill="#000000" font-family="sans-serif" font-size="18" lengthAdjust="spacing" textLength="49" x="314" y="825.2314">Menu</text><line style="stroke:#181818;stroke-width:0.5;" x1="203.5" x2="438.5" y1="836" y2="836"/><rect fill="none" height="6" style="stroke:#C82930;stroke-width:1.0;" width="6" x="210.5" y="848.9766"/><text fill="#000000" font-family="sans-serif" font-size="18" lengthAdjust="spacing" textLength="210" x="223.5" y="856.708">items: List&lt;MenuItem&gt;</text><line style="stroke:#181818;stroke-width:0.5;" x1="203.5" x2="438.5" y1="864.9531" y2="864.9531"/></g><!--class MenuItem--><g id="elem_MenuItem"><rect codeLine="66" fill="#F1F1F1" height="133.8125" id="MenuItem" rx="2.5" ry="2.5" style="stroke:#181818;stroke-width:0.5;" width="199" x="221.5" y="1007.5"/><ellipse cx="271.5" cy="1024.5" fill="#ADD1B2" rx="12" ry="12" style="stroke:#181818;stroke-width:1.0;"/><path d="M274.5,1030.625 Q273.8906,1030.9375 273.2031,1031.0938 Q272.5313,1031.25 271.7813,1031.25 Q269.125,1031.25 267.7344,1029.5 Q266.3438,1027.75 266.3438,1024.4531 Q266.3438,1021.1406 267.7344,1019.3906 Q269.125,1017.6406 271.7813,1017.6406 Q272.5313,1017.6406 273.2188,1017.7969 Q273.9063,1017.9531 274.5,1018.2656 L274.5,1021.1563 Q273.8281,1020.5469 273.2031,1020.2656 Q272.5781,1019.9688 271.9063,1019.9688 Q270.4844,1019.9688 269.75,1021.1094 Q269.0313,1022.2344 269.0313,1024.4531 Q269.0313,1026.6719 269.75,1027.7969 Q270.4844,1028.9219 271.9063,1028.9219 Q272.5781,1028.9219 273.2031,1028.6406 Q273.8281,1028.3594 274.5,1027.7344 L274.5,1030.625 Z " fill="#000000"/><text fill="#000000" font-family="sans-serif" font-size="18" lengthAdjust="spacing" textLength="90" x="293.5" y="1030.7314">MenuItem</text><line style="stroke:#181818;stroke-width:0.5;" x1="222.5" x2="419.5" y1="1041.5" y2="1041.5"/><rect fill="none" height="6" style="stroke:#C82930;stroke-width:1.0;" width="6" x="229.5" y="1054.4766"/><text fill="#000000" font-family="sans-serif" font-size="18" lengthAdjust="spacing" textLength="114" x="242.5" y="1062.208">name: String</text><rect fill="none" height="6" style="stroke:#C82930;stroke-width:1.0;" width="6" x="229.5" y="1075.4297"/><text fill="#000000" font-family="sans-serif" font-size="18" lengthAdjust="spacing" textLength="172" x="242.5" y="1083.1611">description: String?</text><rect fill="none" height="6" style="stroke:#C82930;stroke-width:1.0;" width="6" x="229.5" y="1096.3828"/><text fill="#000000" font-family="sans-serif" font-size="18" lengthAdjust="spacing" textLength="168" x="242.5" y="1104.1143">price: ProductPrice</text><rect fill="none" height="6" style="stroke:#C82930;stroke-width:1.0;" width="6" x="229.5" y="1117.3359"/><text fill="#000000" font-family="sans-serif" font-size="18" lengthAdjust="spacing" textLength="147" x="242.5" y="1125.0674">inStock: Boolean</text><line style="stroke:#181818;stroke-width:0.5;" x1="222.5" x2="419.5" y1="1133.3125" y2="1133.3125"/></g><!--class ProductPrice--><g id="elem_ProductPrice"><rect codeLine="73" fill="#F1F1F1" height="70.9531" id="ProductPrice" rx="2.5" ry="2.5" style="stroke:#181818;stroke-width:0.5;" width="146" x="248" y="1255"/><ellipse cx="264" cy="1272" fill="#ADD1B2" rx="12" ry="12" style="stroke:#181818;stroke-width:1.0;"/><path d="M267,1278.125 Q266.3906,1278.4375 265.7031,1278.5938 Q265.0313,1278.75 264.2813,1278.75 Q261.625,1278.75 260.2344,1277 Q258.8438,1275.25 258.8438,1271.9531 Q258.8438,1268.6406 260.2344,1266.8906 Q261.625,1265.1406 264.2813,1265.1406 Q265.0313,1265.1406 265.7188,1265.2969 Q266.4063,1265.4531 267,1265.7656 L267,1268.6563 Q266.3281,1268.0469 265.7031,1267.7656 Q265.0781,1267.4688 264.4063,1267.4688 Q262.9844,1267.4688 262.25,1268.6094 Q261.5313,1269.7344 261.5313,1271.9531 Q261.5313,1274.1719 262.25,1275.2969 Q262.9844,1276.4219 264.4063,1276.4219 Q265.0781,1276.4219 265.7031,1276.1406 Q266.3281,1275.8594 267,1275.2344 L267,1278.125 Z " fill="#000000"/><text fill="#000000" font-family="sans-serif" font-size="18" lengthAdjust="spacing" textLength="112" x="279" y="1278.2314">ProductPrice</text><line style="stroke:#181818;stroke-width:0.5;" x1="249" x2="393" y1="1289" y2="1289"/><rect fill="none" height="6" style="stroke:#C82930;stroke-width:1.0;" width="6" x="256" y="1301.9766"/><text fill="#000000" font-family="sans-serif" font-size="18" lengthAdjust="spacing" textLength="109" x="269" y="1309.708">price: String</text><line style="stroke:#181818;stroke-width:0.5;" x1="249" x2="393" y1="1317.9531" y2="1317.9531"/></g><!--class OpeningHours--><g id="elem_OpeningHours"><rect codeLine="83" fill="#F1F1F1" height="70.9531" id="OpeningHours" rx="2.5" ry="2.5" style="stroke:#181818;stroke-width:0.5;" width="384" x="475" y="802"/><ellipse cx="599.5" cy="819" fill="#ADD1B2" rx="12" ry="12" style="stroke:#181818;stroke-width:1.0;"/><path d="M602.5,825.125 Q601.8906,825.4375 601.2031,825.5938 Q600.5313,825.75 599.7813,825.75 Q597.125,825.75 595.7344,824 Q594.3438,822.25 594.3438,818.9531 Q594.3438,815.6406 595.7344,813.8906 Q597.125,812.1406 599.7813,812.1406 Q600.5313,812.1406 601.2188,812.2969 Q601.9063,812.4531 602.5,812.7656 L602.5,815.6563 Q601.8281,815.0469 601.2031,814.7656 Q600.5781,814.4688 599.9063,814.4688 Q598.4844,814.4688 597.75,815.6094 Q597.0313,816.7344 597.0313,818.9531 Q597.0313,821.1719 597.75,822.2969 Q598.4844,823.4219 599.9063,823.4219 Q600.5781,823.4219 601.2031,823.1406 Q601.8281,822.8594 602.5,822.2344 L602.5,825.125 Z " fill="#000000"/><text fill="#000000" font-family="sans-serif" font-size="18" lengthAdjust="spacing" textLength="126" x="621.5" y="825.2314">OpeningHours</text><line style="stroke:#181818;stroke-width:0.5;" x1="476" x2="858" y1="836" y2="836"/><rect fill="none" height="6" style="stroke:#C82930;stroke-width:1.0;" width="6" x="483" y="848.9766"/><text fill="#000000" font-family="sans-serif" font-size="18" lengthAdjust="spacing" textLength="357" x="496" y="856.708">dayToHours: Map&lt;DayOfWeek, String&gt;</text><line style="stroke:#181818;stroke-width:0.5;" x1="476" x2="858" y1="864.9531" y2="864.9531"/></g><!--class DayOfWeek--><g id="elem_DayOfWeek"><rect codeLine="87" fill="#F1F1F1" height="196.6719" id="DayOfWeek" rx="2.5" ry="2.5" style="stroke:#181818;stroke-width:0.5;" width="140" x="597" y="976"/><ellipse cx="613" cy="993" fill="#EB937F" rx="12" ry="12" style="stroke:#181818;stroke-width:1.0;"/><path d="M617.1563,999.5 L608.9844,999.5 L608.9844,986.375 L617.1563,986.375 L617.1563,988.6563 L611.5625,988.6563 L611.5625,991.5 L616.625,991.5 L616.625,993.7813 L611.5625,993.7813 L611.5625,997.2188 L617.1563,997.2188 L617.1563,999.5 Z " fill="#000000"/><text fill="#000000" font-family="sans-serif" font-size="18" lengthAdjust="spacing" textLength="106" x="628" y="999.2314">DayOfWeek</text><line style="stroke:#181818;stroke-width:0.5;" x1="598" x2="736" y1="1010" y2="1010"/><text fill="#000000" font-family="sans-serif" font-size="18" lengthAdjust="spacing" textLength="82" x="603" y="1030.708">MONDAY</text><text fill="#000000" font-family="sans-serif" font-size="18" lengthAdjust="spacing" textLength="86" x="603" y="1051.6611">TUESDAY</text><text fill="#000000" font-family="sans-serif" font-size="18" lengthAdjust="spacing" textLength="118" x="603" y="1072.6143">WEDNESDAY</text><text fill="#000000" font-family="sans-serif" font-size="18" lengthAdjust="spacing" textLength="102" x="603" y="1093.5674">THURSDAY</text><text fill="#000000" font-family="sans-serif" font-size="18" lengthAdjust="spacing" textLength="67" x="603" y="1114.5205">FRIDAY</text><text fill="#000000" font-family="sans-serif" font-size="18" lengthAdjust="spacing" textLength="100" x="603" y="1135.4736">SATURDAY</text><text fill="#000000" font-family="sans-serif" font-size="18" lengthAdjust="spacing" textLength="77" x="603" y="1156.4268">SUNDAY</text><line style="stroke:#181818;stroke-width:0.5;" x1="598" x2="736" y1="1164.6719" y2="1164.6719"/></g><!--class Location--><g id="elem_Location"><rect codeLine="102" fill="#F1F1F1" height="112.8594" id="Location" rx="2.5" ry="2.5" style="stroke:#181818;stroke-width:0.5;" width="231" x="894.5" y="781"/><ellipse cx="968.5" cy="798" fill="#ADD1B2" rx="12" ry="12" style="stroke:#181818;stroke-width:1.0;"/><path d="M971.5,804.125 Q970.8906,804.4375 970.2031,804.5938 Q969.5313,804.75 968.7813,804.75 Q966.125,804.75 964.7344,803 Q963.3438,801.25 963.3438,797.9531 Q963.3438,794.6406 964.7344,792.8906 Q966.125,791.1406 968.7813,791.1406 Q969.5313,791.1406 970.2188,791.2969 Q970.9063,791.4531 971.5,791.7656 L971.5,794.6563 Q970.8281,794.0469 970.2031,793.7656 Q969.5781,793.4688 968.9063,793.4688 Q967.4844,793.4688 966.75,794.6094 Q966.0313,795.7344 966.0313,797.9531 Q966.0313,800.1719 966.75,801.2969 Q967.4844,802.4219 968.9063,802.4219 Q969.5781,802.4219 970.2031,802.1406 Q970.8281,801.8594 971.5,801.2344 L971.5,804.125 Z " fill="#000000"/><text fill="#000000" font-family="sans-serif" font-size="18" lengthAdjust="spacing" textLength="74" x="990.5" y="804.2314">Location</text><line style="stroke:#181818;stroke-width:0.5;" x1="895.5" x2="1124.5" y1="815" y2="815"/><rect fill="none" height="6" style="stroke:#C82930;stroke-width:1.0;" width="6" x="902.5" y="827.9766"/><text fill="#000000" font-family="sans-serif" font-size="18" lengthAdjust="spacing" textLength="132" x="915.5" y="835.708">address: String</text><rect fill="none" height="6" style="stroke:#C82930;stroke-width:1.0;" width="6" x="902.5" y="848.9297"/><text fill="#000000" font-family="sans-serif" font-size="18" lengthAdjust="spacing" textLength="188" x="915.5" y="856.6611">latitude: BigDecimal?</text><rect fill="none" height="6" style="stroke:#C82930;stroke-width:1.0;" width="6" x="902.5" y="869.8828"/><text fill="#000000" font-family="sans-serif" font-size="18" lengthAdjust="spacing" textLength="204" x="915.5" y="877.6143">longitude: BigDecimal?</text><line style="stroke:#181818;stroke-width:0.5;" x1="895.5" x2="1124.5" y1="885.8594" y2="885.8594"/></g><!--class Review--><g id="elem_Review"><rect codeLine="112" fill="#F1F1F1" height="133.8125" id="Review" rx="2.5" ry="2.5" style="stroke:#181818;stroke-width:0.5;" width="185" x="796.5" y="512.5"/><ellipse cx="851" cy="529.5" fill="#ADD1B2" rx="12" ry="12" style="stroke:#181818;stroke-width:1.0;"/><path d="M854,535.625 Q853.3906,535.9375 852.7031,536.0938 Q852.0313,536.25 851.2813,536.25 Q848.625,536.25 847.2344,534.5 Q845.8438,532.75 845.8438,529.4531 Q845.8438,526.1406 847.2344,524.3906 Q848.625,522.6406 851.2813,522.6406 Q852.0313,522.6406 852.7188,522.7969 Q853.4063,522.9531 854,523.2656 L854,526.1563 Q853.3281,525.5469 852.7031,525.2656 Q852.0781,524.9688 851.4063,524.9688 Q849.9844,524.9688 849.25,526.1094 Q848.5313,527.2344 848.5313,529.4531 Q848.5313,531.6719 849.25,532.7969 Q849.9844,533.9219 851.4063,533.9219 Q852.0781,533.9219 852.7031,533.6406 Q853.3281,533.3594 854,532.7344 L854,535.625 Z " fill="#000000"/><text fill="#000000" font-family="sans-serif" font-size="18" lengthAdjust="spacing" textLength="67" x="873" y="535.7314">Review</text><line style="stroke:#181818;stroke-width:0.5;" x1="797.5" x2="980.5" y1="546.5" y2="546.5"/><rect fill="none" height="6" style="stroke:#C82930;stroke-width:1.0;" width="6" x="804.5" y="559.4766"/><text fill="#000000" font-family="sans-serif" font-size="18" lengthAdjust="spacing" textLength="91" x="817.5" y="567.208">user: User</text><rect fill="none" height="6" style="stroke:#C82930;stroke-width:1.0;" width="6" x="804.5" y="580.4297"/><text fill="#000000" font-family="sans-serif" font-size="18" lengthAdjust="spacing" textLength="97" x="817.5" y="588.1611">shop: Shop</text><rect fill="none" height="6" style="stroke:#C82930;stroke-width:1.0;" width="6" x="804.5" y="601.3828"/><text fill="#000000" font-family="sans-serif" font-size="18" lengthAdjust="spacing" textLength="87" x="817.5" y="609.1143">rating: int</text><rect fill="none" height="6" style="stroke:#C82930;stroke-width:1.0;" width="6" x="804.5" y="622.3359"/><text fill="#000000" font-family="sans-serif" font-size="18" lengthAdjust="spacing" textLength="158" x="817.5" y="630.0674">comment: String?</text><line style="stroke:#181818;stroke-width:0.5;" x1="797.5" x2="980.5" y1="638.3125" y2="638.3125"/></g><!--reverse link ImageResource to User--><g id="link_ImageResource_User"><path codeLine="19" d="M574.62,311 C624.83,311 677.76,311 736.46,311 " fill="none" id="ImageResource-backto-User" style="stroke:#181818;stroke-width:1.0;"/><polygon fill="none" points="562.62,311,568.62,315,574.62,311,568.62,307,562.62,311" style="stroke:#181818;stroke-width:1.0;"/><polygon fill="#000000" points="580,297.4766,592.6631,301.5911,592.6631,293.3621,580,297.4766" style="stroke:#000000;stroke-width:1.0;"/><text fill="#000000" font-family="sans-serif" font-size="18" lengthAdjust="spacing" textLength="119" x="599" y="303.708">profilePicture</text><text fill="#000000" font-family="sans-serif" font-size="18" lengthAdjust="spacing" textLength="34" x="570.4768" y="328.5119">0..1</text><text fill="#000000" font-family="sans-serif" font-size="18" lengthAdjust="spacing" textLength="11" x="717.3111" y="307.2218">1</text></g><!--link ContactInfo to User--><g id="link_ContactInfo_User"><path codeLine="31" d="M889,162.13 C889,188.68 889,206.19 889,231.83 " fill="none" id="ContactInfo-to-User" style="stroke:#181818;stroke-width:1.0;"/><polygon fill="#181818" points="889,243.83,893,237.83,889,231.83,885,237.83,889,243.83" style="stroke:#181818;stroke-width:1.0;"/><polygon fill="#000000" points="896,196.4766,891.8855,209.1397,900.1145,209.1397,896,196.4766" style="stroke:#000000;stroke-width:1.0;"/><text fill="#000000" font-family="sans-serif" font-size="18" lengthAdjust="spacing" textLength="98" x="908" y="209.708">contactInfo</text><text fill="#000000" font-family="sans-serif" font-size="18" lengthAdjust="spacing" textLength="11" x="877.5273" y="186.4197">1</text><text fill="#000000" font-family="sans-serif" font-size="18" lengthAdjust="spacing" textLength="11" x="877.3641" y="231.6812">1</text></g><!--link User to Shop--><g id="link_User_Shop"><path codeLine="47" d="M790.61,378.05 C753.75,402.79 720.6244,425.0334 678.8244,453.0834 " fill="none" id="User-to-Shop" style="stroke:#181818;stroke-width:1.0;"/><polygon fill="none" points="668.86,459.77,676.0711,459.7481,678.8244,453.0834,671.6133,453.1052,668.86,459.77" style="stroke:#181818;stroke-width:1.0;"/><polygon fill="#000000" points="750.8121,415.5753,738.0048,419.2165,742.591,426.049,750.8121,415.5753" style="stroke:#000000;stroke-width:1.0;"/><text fill="#000000" font-family="sans-serif" font-size="18" lengthAdjust="spacing" textLength="83" x="757" y="425.708">ownedBy</text><text fill="#000000" font-family="sans-serif" font-size="18" lengthAdjust="spacing" textLength="11" x="768.8963" y="402.7626">1</text><text fill="#000000" font-family="sans-serif" font-size="18" lengthAdjust="spacing" textLength="32" x="647.6678" y="447.808">0..*</text></g><!--link ImageResource to Shop--><g id="link_ImageResource_Shop"><path codeLine="49" d="M478.95,346.57 C480.57,375.51 483,418.58 485.32,459.78 " fill="none" id="ImageResource-Shop" style="stroke:#181818;stroke-width:1.0;"/><polygon fill="#000000" points="490.6068,412.4876,487.2101,425.3619,495.4261,424.8996,490.6068,412.4876" style="stroke:#000000;stroke-width:1.0;"/><text fill="#000000" font-family="sans-serif" font-size="18" lengthAdjust="spacing" textLength="62" x="503" y="425.708">images</text><text fill="#000000" font-family="sans-serif" font-size="18" lengthAdjust="spacing" textLength="32" x="444.5352" y="371.1963">0..*</text><text fill="#000000" font-family="sans-serif" font-size="18" lengthAdjust="spacing" textLength="11" x="473.5017" y="447.8186">1</text></g><!--reverse link Shop to ShopCategory--><g id="link_Shop_ShopCategory"><path codeLine="58" d="M301.2668,701.0622 C247.0568,735.3322 200.87,764.52 158.21,791.49 " fill="none" id="Shop-backto-ShopCategory" style="stroke:#181818;stroke-width:1.0;"/><polygon fill="#181818" points="311.41,694.65,304.201,694.4751,301.2668,701.0622,308.4758,701.2372,311.41,694.65" style="stroke:#181818;stroke-width:1.0;"/><polygon fill="#000000" points="255.083,744.2168,267.9854,740.9286,263.5885,733.9728,255.083,744.2168" style="stroke:#000000;stroke-width:1.0;"/><text fill="#000000" font-family="sans-serif" font-size="18" lengthAdjust="spacing" textLength="91" x="273" y="746.708">categories</text><text fill="#000000" font-family="sans-serif" font-size="18" lengthAdjust="spacing" textLength="11" x="292.5593" y="695.823">1</text><text fill="#000000" font-family="sans-serif" font-size="18" lengthAdjust="spacing" textLength="32" x="135.0091" y="779.3548">0..*</text></g><!--reverse link Shop to Menu--><g id="link_Shop_Menu"><path codeLine="77" d="M406.0938,709.1081 C381.0138,746.6481 361.89,775.29 344.06,801.98 " fill="none" id="Shop-backto-Menu" style="stroke:#181818;stroke-width:1.0;"/><polygon fill="#181818" points="412.76,699.13,406.1009,701.897,406.0938,709.1081,412.7529,706.3411,412.76,699.13" style="stroke:#181818;stroke-width:1.0;"/><polygon fill="#000000" points="395.1119,746.2975,405.567,738.0527,398.7241,733.482,395.1119,746.2975" style="stroke:#000000;stroke-width:1.0;"/><text fill="#000000" font-family="sans-serif" font-size="18" lengthAdjust="spacing" textLength="50" x="411" y="746.708">menu</text><text fill="#000000" font-family="sans-serif" font-size="18" lengthAdjust="spacing" textLength="11" x="396.861" y="723.372">1</text><text fill="#000000" font-family="sans-serif" font-size="18" lengthAdjust="spacing" textLength="11" x="336.5171" y="789.8247">1</text></g><!--reverse link Menu to MenuItem--><g id="link_Menu_MenuItem"><path codeLine="78" d="M321,885.18 C321,920.29 321,963.47 321,1007.04 " fill="none" id="Menu-backto-MenuItem" style="stroke:#181818;stroke-width:1.0;"/><polygon fill="#181818" points="321,873.18,317,879.18,321,885.18,325,879.18,321,873.18" style="stroke:#181818;stroke-width:1.0;"/><polygon fill="#000000" points="328,942.4766,332.1145,929.8134,323.8855,929.8134,328,942.4766" style="stroke:#000000;stroke-width:1.0;"/><text fill="#000000" font-family="sans-serif" font-size="18" lengthAdjust="spacing" textLength="48" x="340" y="941.708">items</text><text fill="#000000" font-family="sans-serif" font-size="18" lengthAdjust="spacing" textLength="11" x="309.0891" y="897.5366">1</text><text fill="#000000" font-family="sans-serif" font-size="18" lengthAdjust="spacing" textLength="32" x="287.25" y="995.3382">0..*</text></g><!--reverse link MenuItem to ProductPrice--><g id="link_MenuItem_ProductPrice"><path codeLine="79" d="M321,1153.75 C321,1191.19 321,1224.45 321,1254.93 " fill="none" id="MenuItem-backto-ProductPrice" style="stroke:#181818;stroke-width:1.0;"/><polygon fill="#181818" points="321,1141.75,317,1147.75,321,1153.75,325,1147.75,321,1141.75" style="stroke:#181818;stroke-width:1.0;"/><polygon fill="#000000" points="328,1221.4766,332.1145,1208.8134,323.8855,1208.8134,328,1221.4766" style="stroke:#000000;stroke-width:1.0;"/><text fill="#000000" font-family="sans-serif" font-size="18" lengthAdjust="spacing" textLength="112" x="340" y="1220.708">productPrice</text><text fill="#000000" font-family="sans-serif" font-size="18" lengthAdjust="spacing" textLength="11" x="309.4586" y="1166.1184">1</text><text fill="#000000" font-family="sans-serif" font-size="18" lengthAdjust="spacing" textLength="11" x="308.9172" y="1242.7649">1</text></g><!--reverse link Shop to OpeningHours--><g id="link_Shop_OpeningHours"><path codeLine="97" d="M579.8717,709.0368 C605.5317,746.5768 625.15,775.29 643.4,801.98 " fill="none" id="Shop-backto-OpeningHours" style="stroke:#181818;stroke-width:1.0;"/><polygon fill="#181818" points="573.1,699.13,573.1836,706.3406,579.8717,709.0368,579.7881,701.8262,573.1,699.13" style="stroke:#181818;stroke-width:1.0;"/><polygon fill="#000000" points="616.9501,746.2556,613.2012,733.4795,606.4075,738.123,616.9501,746.2556" style="stroke:#000000;stroke-width:1.0;"/><text fill="#000000" font-family="sans-serif" font-size="18" lengthAdjust="spacing" textLength="123" x="625" y="746.708">openingHours</text><text fill="#000000" font-family="sans-serif" font-size="18" lengthAdjust="spacing" textLength="11" x="566.4706" y="723.372">1</text><text fill="#000000" font-family="sans-serif" font-size="18" lengthAdjust="spacing" textLength="11" x="626.6709" y="789.8247">1</text></g><!--reverse link OpeningHours to DayOfWeek--><g id="link_OpeningHours_DayOfWeek"><path codeLine="98" d="M667,885.18 C667,912.31 667,939.42 667,975.9 " fill="none" id="OpeningHours-backto-DayOfWeek" style="stroke:#181818;stroke-width:1.0;"/><polygon fill="#181818" points="667,873.18,663,879.18,667,885.18,671,879.18,667,873.18" style="stroke:#181818;stroke-width:1.0;"/><polygon fill="#000000" points="674,942.4766,678.1145,929.8134,669.8855,929.8134,674,942.4766" style="stroke:#000000;stroke-width:1.0;"/><text fill="#000000" font-family="sans-serif" font-size="18" lengthAdjust="spacing" textLength="107" x="686" y="941.708">dayToHours</text><text fill="#000000" font-family="sans-serif" font-size="18" lengthAdjust="spacing" textLength="11" x="655.0891" y="897.5366">1</text><text fill="#000000" font-family="sans-serif" font-size="18" lengthAdjust="spacing" textLength="32" x="633.675" y="963.6676">0..*</text></g><!--reverse link Shop to Location--><g id="link_Shop_Location"><path codeLine="108" d="M683.5683,675.1758 C758.2883,712.0958 831.82,748.44 897.44,780.87 " fill="none" id="Shop-backto-Location" style="stroke:#181818;stroke-width:1.0;"/><polygon fill="#181818" points="672.81,669.86,676.4172,676.104,683.5683,675.1758,679.9611,668.9318,672.81,669.86" style="stroke:#181818;stroke-width:1.0;"/><polygon fill="#000000" points="840.2755,743.5779,830.7459,734.2789,827.1001,741.6562,840.2755,743.5779" style="stroke:#000000;stroke-width:1.0;"/><text fill="#000000" font-family="sans-serif" font-size="18" lengthAdjust="spacing" textLength="69" x="846" y="746.708">location</text><text fill="#000000" font-family="sans-serif" font-size="18" lengthAdjust="spacing" textLength="11" x="680.67" y="669.9872">1</text><text fill="#000000" font-family="sans-serif" font-size="18" lengthAdjust="spacing" textLength="11" x="875.5563" y="771.486">1</text></g><!--link Shop to Review--><g id="link_Shop_Review"><path codeLine="119" d="M672.78,579.5 C715.56,579.5 747.44,579.5 784.4,579.5 " fill="none" id="Shop-to-Review" style="stroke:#181818;stroke-width:1.0;"/><polygon fill="#181818" points="796.4,579.5,790.4,575.5,784.4,579.5,790.4,583.5,796.4,579.5" style="stroke:#181818;stroke-width:1.0;"/><polygon fill="#000000" points="703.5,565.9766,690.8369,561.8621,690.8369,570.0911,703.5,565.9766" style="stroke:#000000;stroke-width:1.0;"/><text fill="#000000" font-family="sans-serif" font-size="18" lengthAdjust="spacing" textLength="70" x="708.5" y="572.208">reviews</text><text fill="#000000" font-family="sans-serif" font-size="18" lengthAdjust="spacing" textLength="11" x="680.6387" y="575.8151">1</text><text fill="#000000" font-family="sans-serif" font-size="18" lengthAdjust="spacing" textLength="32" x="756.4247" y="596.9843">0..*</text></g><!--link User to Review--><g id="link_User_Review"><path codeLine="120" d="M889,378.22 C889,419.07 889,459.29 889,500.16 " fill="none" id="User-to-Review" style="stroke:#181818;stroke-width:1.0;"/><polygon fill="#181818" points="889,512.16,893,506.16,889,500.16,885,506.16,889,512.16" style="stroke:#181818;stroke-width:1.0;"/><polygon fill="#000000" points="896,426.4766,900.1145,413.8134,891.8855,413.8134,896,426.4766" style="stroke:#000000;stroke-width:1.0;"/><text fill="#000000" font-family="sans-serif" font-size="18" lengthAdjust="spacing" textLength="70" x="908" y="425.708">reviews</text><text fill="#000000" font-family="sans-serif" font-size="18" lengthAdjust="spacing" textLength="11" x="877.4586" y="402.5855">1</text><text fill="#000000" font-family="sans-serif" font-size="18" lengthAdjust="spacing" textLength="32" x="855.25" y="500.4713">0..*</text></g><!--SRC=[dLNVQzim47xtNo6oXqAOo_esH6XfafO6sYR4CMMFggou8hPa97ab6_lVTvOjoVP2H-E7HFV3TzzzkZlh0nSLKQH46TkJkZ3tKfY4_sBewdiKQMzz9VIGArcBR24BgT2NU_j44Is8rcXLafnjcPQreWpzZX0yCQfLWL5Y51Tvz2UABb3y_mTTk9YfPig7ufcFr2e4ATb8LIcvvmNRS6fg1SO1g9lEYK9zX9gLs4kC5a5e0DgCawi9YXybcdoxl8JZi38yIeAkFrrMBwUlhdgJmbVZaBAIy6AiV6Ulcfj_VFU4ibSf3sCz5zgG72um6FfrJkCqjeS-ADpdw8m2apTP3UujJLVB4xVcC6PCKyKhmwKOc-IxO0hRJkWq6e8lY66vL9nfZ1wvDhCaA8_NBd5pRyvXS8dEesIYnkW9VZj58IbfKJns9mUZOW9GFS3h477TauPT4xTTCvsq762BFviVqIoAhCPwDPItNkFUQZ6VIRaZm5D_Oa9eCxjDsyDV0zs3ciPn7xgF1RtWoJu3LqDkQ0N3IdSXZM45ydM38lWsge_mVz0gbU8Kt3TAPZKrcqRoCv0OIM4qvb8MZ8YGikySPh4D5DRMa2JujrLXsp_0YPL67FfQS5jrvsPL_KW307Qt1F7pRFSRqvUJaUDETftxHAhPaXpN-nV63b-x4kqL0BWIULFtyjFwUNdxmnvtwLtYpYzto-SWxHxIhHVkjojtJ6vtwTOBgOrqYim1Q3mODQ1WO1sH7E3YNfLdyEQctND6iamnhKVDLu2JgJFeZJdFbup2j1OtVdM8_8JnLC4-6_OBvmpCM_QJi_VmfTKdzYIsizmf56GIEVIZC7uPbD32Pl1b25jgwcZkCc6axA4XE6oyZxp-0W00]--></g></svg>