<?xml version="1.0" encoding="us-ascii" standalone="no"?><svg xmlns="http://www.w3.org/2000/svg" xmlns:xlink="http://www.w3.org/1999/xlink" contentStyleType="text/css" height="1111px" preserveAspectRatio="none" style="width:969px;height:1111px;background:#FFFFFF;" version="1.1" viewBox="0 0 969 1111" width="969px" zoomAndPan="magnify"><defs/><g><!--class User--><g id="elem_User"><rect codeLine="4" fill="#F1F1F1" height="113.1875" id="User" rx="2.5" ry="2.5" style="stroke:#181818;stroke-width:0.5;" width="191" x="345.5" y="15"/><ellipse cx="420.75" cy="31" fill="#ADD1B2" rx="11" ry="11" style="stroke:#181818;stroke-width:1.0;"/><path d="M423.7188,36.6406 Q423.1406,36.9375 422.5,37.0781 Q421.8594,37.2344 421.1563,37.2344 Q418.6563,37.2344 417.3281,35.5938 Q416.0156,33.9375 416.0156,30.8125 Q416.0156,27.6875 417.3281,26.0313 Q418.6563,24.375 421.1563,24.375 Q421.8594,24.375 422.5,24.5313 Q423.1563,24.6875 423.7188,24.9844 L423.7188,27.7031 Q423.0938,27.125 422.5,26.8594 Q421.9063,26.5781 421.2813,26.5781 Q419.9375,26.5781 419.25,27.6563 Q418.5625,28.7188 418.5625,30.8125 Q418.5625,32.9063 419.25,33.9844 Q419.9375,35.0469 421.2813,35.0469 Q421.9063,35.0469 422.5,34.7813 Q423.0938,34.5 423.7188,33.9219 L423.7188,36.6406 Z " fill="#000000"/><text fill="#000000" font-family="sans-serif" font-size="14" lengthAdjust="spacing" textLength="32" x="441.25" y="35.8467">User</text><line style="stroke:#181818;stroke-width:0.5;" x1="346.5" x2="535.5" y1="47" y2="47"/><rect fill="none" height="6" style="stroke:#C82930;stroke-width:1.0;" width="6" x="353.5" y="57.6484"/><text fill="#000000" font-family="sans-serif" font-size="14" lengthAdjust="spacing" textLength="61" x="365.5" y="63.9951">id: String</text><rect fill="none" height="6" style="stroke:#C82930;stroke-width:1.0;" width="6" x="353.5" y="73.9453"/><text fill="#000000" font-family="sans-serif" font-size="14" lengthAdjust="spacing" textLength="88" x="365.5" y="80.292">name: String</text><rect fill="none" height="6" style="stroke:#C82930;stroke-width:1.0;" width="6" x="353.5" y="90.2422"/><text fill="#000000" font-family="sans-serif" font-size="14" lengthAdjust="spacing" textLength="148" x="365.5" y="96.5889">profilePicture: Image?</text><rect fill="none" height="6" style="stroke:#C82930;stroke-width:1.0;" width="6" x="353.5" y="106.5391"/><text fill="#000000" font-family="sans-serif" font-size="14" lengthAdjust="spacing" textLength="165" x="365.5" y="112.8857">contactInfo: ContactInfo</text><line style="stroke:#181818;stroke-width:0.5;" x1="346.5" x2="535.5" y1="120.1875" y2="120.1875"/></g><!--class ContactInfo--><g id="elem_ContactInfo"><rect codeLine="13" fill="#F1F1F1" height="129.4844" id="ContactInfo" rx="2.5" ry="2.5" style="stroke:#181818;stroke-width:0.5;" width="178" x="657" y="7"/><ellipse cx="702.25" cy="23" fill="#ADD1B2" rx="11" ry="11" style="stroke:#181818;stroke-width:1.0;"/><path d="M705.2188,28.6406 Q704.6406,28.9375 704,29.0781 Q703.3594,29.2344 702.6563,29.2344 Q700.1563,29.2344 698.8281,27.5938 Q697.5156,25.9375 697.5156,22.8125 Q697.5156,19.6875 698.8281,18.0313 Q700.1563,16.375 702.6563,16.375 Q703.3594,16.375 704,16.5313 Q704.6563,16.6875 705.2188,16.9844 L705.2188,19.7031 Q704.5938,19.125 704,18.8594 Q703.4063,18.5781 702.7813,18.5781 Q701.4375,18.5781 700.75,19.6563 Q700.0625,20.7188 700.0625,22.8125 Q700.0625,24.9063 700.75,25.9844 Q701.4375,27.0469 702.7813,27.0469 Q703.4063,27.0469 704,26.7813 Q704.5938,26.5 705.2188,25.9219 L705.2188,28.6406 Z " fill="#000000"/><text fill="#000000" font-family="sans-serif" font-size="14" lengthAdjust="spacing" textLength="79" x="722.75" y="27.8467">ContactInfo</text><line style="stroke:#181818;stroke-width:0.5;" x1="658" x2="834" y1="39" y2="39"/><rect fill="none" height="6" style="stroke:#C82930;stroke-width:1.0;" width="6" x="665" y="49.6484"/><text fill="#000000" font-family="sans-serif" font-size="14" lengthAdjust="spacing" textLength="101" x="677" y="55.9951">phone: String?</text><rect fill="none" height="6" style="stroke:#C82930;stroke-width:1.0;" width="6" x="665" y="65.9453"/><text fill="#000000" font-family="sans-serif" font-size="14" lengthAdjust="spacing" textLength="92" x="677" y="72.292">email: String?</text><rect fill="none" height="6" style="stroke:#C82930;stroke-width:1.0;" width="6" x="665" y="82.2422"/><text fill="#000000" font-family="sans-serif" font-size="14" lengthAdjust="spacing" textLength="138" x="677" y="88.5889">website: MediaLink?</text><rect fill="none" height="6" style="stroke:#C82930;stroke-width:1.0;" width="6" x="665" y="98.5391"/><text fill="#000000" font-family="sans-serif" font-size="14" lengthAdjust="spacing" textLength="148" x="677" y="104.8857">facebook: MediaLink?</text><rect fill="none" height="6" style="stroke:#C82930;stroke-width:1.0;" width="6" x="665" y="114.8359"/><text fill="#000000" font-family="sans-serif" font-size="14" lengthAdjust="spacing" textLength="152" x="677" y="121.1826">instagram: MediaLink?</text><line style="stroke:#181818;stroke-width:0.5;" x1="658" x2="834" y1="128.4844" y2="128.4844"/></g><!--class MediaLink--><g id="elem_MediaLink"><rect codeLine="25" fill="#F1F1F1" height="80.5938" id="MediaLink" rx="2.5" ry="2.5" style="stroke:#181818;stroke-width:0.5;" width="100" x="696" y="213"/><ellipse cx="711" cy="229" fill="#ADD1B2" rx="11" ry="11" style="stroke:#181818;stroke-width:1.0;"/><path d="M713.9688,234.6406 Q713.3906,234.9375 712.75,235.0781 Q712.1094,235.2344 711.4063,235.2344 Q708.9063,235.2344 707.5781,233.5938 Q706.2656,231.9375 706.2656,228.8125 Q706.2656,225.6875 707.5781,224.0313 Q708.9063,222.375 711.4063,222.375 Q712.1094,222.375 712.75,222.5313 Q713.4063,222.6875 713.9688,222.9844 L713.9688,225.7031 Q713.3438,225.125 712.75,224.8594 Q712.1563,224.5781 711.5313,224.5781 Q710.1875,224.5781 709.5,225.6563 Q708.8125,226.7188 708.8125,228.8125 Q708.8125,230.9063 709.5,231.9844 Q710.1875,233.0469 711.5313,233.0469 Q712.1563,233.0469 712.75,232.7813 Q713.3438,232.5 713.9688,231.9219 L713.9688,234.6406 Z " fill="#000000"/><text fill="#000000" font-family="sans-serif" font-size="14" lengthAdjust="spacing" textLength="68" x="725" y="233.8467">MediaLink</text><line style="stroke:#181818;stroke-width:0.5;" x1="697" x2="795" y1="245" y2="245"/><rect fill="none" height="6" style="stroke:#C82930;stroke-width:1.0;" width="6" x="704" y="255.6484"/><text fill="#000000" font-family="sans-serif" font-size="14" lengthAdjust="spacing" textLength="74" x="716" y="261.9951">title: String</text><rect fill="none" height="6" style="stroke:#C82930;stroke-width:1.0;" width="6" x="704" y="271.9453"/><text fill="#000000" font-family="sans-serif" font-size="14" lengthAdjust="spacing" textLength="66" x="716" y="278.292">url: String</text><line style="stroke:#181818;stroke-width:0.5;" x1="697" x2="795" y1="285.5938" y2="285.5938"/></g><!--class Shop--><g id="elem_Shop"><rect codeLine="36" fill="#F1F1F1" height="194.6719" id="Shop" rx="2.5" ry="2.5" style="stroke:#181818;stroke-width:0.5;" width="290" x="296" y="355"/><ellipse cx="418.75" cy="371" fill="#ADD1B2" rx="11" ry="11" style="stroke:#181818;stroke-width:1.0;"/><path d="M421.7188,376.6406 Q421.1406,376.9375 420.5,377.0781 Q419.8594,377.2344 419.1563,377.2344 Q416.6563,377.2344 415.3281,375.5938 Q414.0156,373.9375 414.0156,370.8125 Q414.0156,367.6875 415.3281,366.0313 Q416.6563,364.375 419.1563,364.375 Q419.8594,364.375 420.5,364.5313 Q421.1563,364.6875 421.7188,364.9844 L421.7188,367.7031 Q421.0938,367.125 420.5,366.8594 Q419.9063,366.5781 419.2813,366.5781 Q417.9375,366.5781 417.25,367.6563 Q416.5625,368.7188 416.5625,370.8125 Q416.5625,372.9063 417.25,373.9844 Q417.9375,375.0469 419.2813,375.0469 Q419.9063,375.0469 420.5,374.7813 Q421.0938,374.5 421.7188,373.9219 L421.7188,376.6406 Z " fill="#000000"/><text fill="#000000" font-family="sans-serif" font-size="14" lengthAdjust="spacing" textLength="36" x="439.25" y="375.8467">Shop</text><line style="stroke:#181818;stroke-width:0.5;" x1="297" x2="585" y1="387" y2="387"/><rect fill="none" height="6" style="stroke:#C82930;stroke-width:1.0;" width="6" x="304" y="397.6484"/><text fill="#000000" font-family="sans-serif" font-size="14" lengthAdjust="spacing" textLength="55" x="316" y="403.9951">id: UUID</text><rect fill="none" height="6" style="stroke:#C82930;stroke-width:1.0;" width="6" x="304" y="413.9453"/><text fill="#000000" font-family="sans-serif" font-size="14" lengthAdjust="spacing" textLength="95" x="316" y="420.292">name: String?</text><rect fill="none" height="6" style="stroke:#C82930;stroke-width:1.0;" width="6" x="304" y="430.2422"/><text fill="#000000" font-family="sans-serif" font-size="14" lengthAdjust="spacing" textLength="133" x="316" y="436.5889">description: String?</text><rect fill="none" height="6" style="stroke:#C82930;stroke-width:1.0;" width="6" x="304" y="446.5391"/><text fill="#000000" font-family="sans-serif" font-size="14" lengthAdjust="spacing" textLength="84" x="316" y="452.8857">owner: User</text><rect fill="none" height="6" style="stroke:#C82930;stroke-width:1.0;" width="6" x="304" y="462.8359"/><text fill="#000000" font-family="sans-serif" font-size="14" lengthAdjust="spacing" textLength="264" x="316" y="469.1826">shopCategories: List&lt;ShopCategory&gt;</text><rect fill="none" height="6" style="stroke:#C82930;stroke-width:1.0;" width="6" x="304" y="479.1328"/><text fill="#000000" font-family="sans-serif" font-size="14" lengthAdjust="spacing" textLength="148" x="316" y="485.4795">images: List&lt;Image&gt;</text><rect fill="none" height="6" style="stroke:#C82930;stroke-width:1.0;" width="6" x="304" y="495.4297"/><text fill="#000000" font-family="sans-serif" font-size="14" lengthAdjust="spacing" textLength="88" x="316" y="501.7764">menu: Menu</text><rect fill="none" height="6" style="stroke:#C82930;stroke-width:1.0;" width="6" x="304" y="511.7266"/><text fill="#000000" font-family="sans-serif" font-size="14" lengthAdjust="spacing" textLength="121" x="316" y="518.0732">location: Location</text><rect fill="none" height="6" style="stroke:#C82930;stroke-width:1.0;" width="6" x="304" y="528.0234"/><text fill="#000000" font-family="sans-serif" font-size="14" lengthAdjust="spacing" textLength="207" x="316" y="534.3701">openingHours: OpeningHours</text><line style="stroke:#181818;stroke-width:0.5;" x1="297" x2="585" y1="541.6719" y2="541.6719"/></g><!--class ShopCategory--><g id="elem_ShopCategory"><rect codeLine="52" fill="#F1F1F1" height="80.5938" id="ShopCategory" rx="2.5" ry="2.5" style="stroke:#181818;stroke-width:0.5;" width="130" x="7" y="635"/><ellipse cx="22" cy="651" fill="#ADD1B2" rx="11" ry="11" style="stroke:#181818;stroke-width:1.0;"/><path d="M24.9688,656.6406 Q24.3906,656.9375 23.75,657.0781 Q23.1094,657.2344 22.4063,657.2344 Q19.9063,657.2344 18.5781,655.5938 Q17.2656,653.9375 17.2656,650.8125 Q17.2656,647.6875 18.5781,646.0313 Q19.9063,644.375 22.4063,644.375 Q23.1094,644.375 23.75,644.5313 Q24.4063,644.6875 24.9688,644.9844 L24.9688,647.7031 Q24.3438,647.125 23.75,646.8594 Q23.1563,646.5781 22.5313,646.5781 Q21.1875,646.5781 20.5,647.6563 Q19.8125,648.7188 19.8125,650.8125 Q19.8125,652.9063 20.5,653.9844 Q21.1875,655.0469 22.5313,655.0469 Q23.1563,655.0469 23.75,654.7813 Q24.3438,654.5 24.9688,653.9219 L24.9688,656.6406 Z " fill="#000000"/><text fill="#000000" font-family="sans-serif" font-size="14" lengthAdjust="spacing" textLength="98" x="36" y="655.8467">ShopCategory</text><line style="stroke:#181818;stroke-width:0.5;" x1="8" x2="136" y1="667" y2="667"/><rect fill="none" height="6" style="stroke:#C82930;stroke-width:1.0;" width="6" x="15" y="677.6484"/><text fill="#000000" font-family="sans-serif" font-size="14" lengthAdjust="spacing" textLength="88" x="27" y="683.9951">name: String</text><rect fill="none" height="6" style="stroke:#C82930;stroke-width:1.0;" width="6" x="15" y="693.9453"/><text fill="#000000" font-family="sans-serif" font-size="14" lengthAdjust="spacing" textLength="79" x="27" y="700.292">color: Color</text><line style="stroke:#181818;stroke-width:0.5;" x1="8" x2="136" y1="707.5938" y2="707.5938"/></g><!--class Menu--><g id="elem_Menu"><rect codeLine="61" fill="#F1F1F1" height="64.2969" id="Menu" rx="2.5" ry="2.5" style="stroke:#181818;stroke-width:0.5;" width="189" x="172.5" y="643.5"/><ellipse cx="243.25" cy="659.5" fill="#ADD1B2" rx="11" ry="11" style="stroke:#181818;stroke-width:1.0;"/><path d="M246.2188,665.1406 Q245.6406,665.4375 245,665.5781 Q244.3594,665.7344 243.6563,665.7344 Q241.1563,665.7344 239.8281,664.0938 Q238.5156,662.4375 238.5156,659.3125 Q238.5156,656.1875 239.8281,654.5313 Q241.1563,652.875 243.6563,652.875 Q244.3594,652.875 245,653.0313 Q245.6563,653.1875 246.2188,653.4844 L246.2188,656.2031 Q245.5938,655.625 245,655.3594 Q244.4063,655.0781 243.7813,655.0781 Q242.4375,655.0781 241.75,656.1563 Q241.0625,657.2188 241.0625,659.3125 Q241.0625,661.4063 241.75,662.4844 Q242.4375,663.5469 243.7813,663.5469 Q244.4063,663.5469 245,663.2813 Q245.5938,663 246.2188,662.4219 L246.2188,665.1406 Z " fill="#000000"/><text fill="#000000" font-family="sans-serif" font-size="14" lengthAdjust="spacing" textLength="39" x="263.75" y="664.3467">Menu</text><line style="stroke:#181818;stroke-width:0.5;" x1="173.5" x2="360.5" y1="675.5" y2="675.5"/><rect fill="none" height="6" style="stroke:#C82930;stroke-width:1.0;" width="6" x="180.5" y="686.1484"/><text fill="#000000" font-family="sans-serif" font-size="14" lengthAdjust="spacing" textLength="163" x="192.5" y="692.4951">items: List&lt;MenuItem&gt;</text><line style="stroke:#181818;stroke-width:0.5;" x1="173.5" x2="360.5" y1="699.7969" y2="699.7969"/></g><!--class MenuItem--><g id="elem_MenuItem"><rect codeLine="65" fill="#F1F1F1" height="113.1875" id="MenuItem" rx="2.5" ry="2.5" style="stroke:#181818;stroke-width:0.5;" width="159" x="187.5" y="825.5"/><ellipse cx="228.6" cy="841.5" fill="#ADD1B2" rx="11" ry="11" style="stroke:#181818;stroke-width:1.0;"/><path d="M231.5688,847.1406 Q230.9906,847.4375 230.35,847.5781 Q229.7094,847.7344 229.0063,847.7344 Q226.5063,847.7344 225.1781,846.0938 Q223.8656,844.4375 223.8656,841.3125 Q223.8656,838.1875 225.1781,836.5313 Q226.5063,834.875 229.0063,834.875 Q229.7094,834.875 230.35,835.0313 Q231.0063,835.1875 231.5688,835.4844 L231.5688,838.2031 Q230.9438,837.625 230.35,837.3594 Q229.7563,837.0781 229.1313,837.0781 Q227.7875,837.0781 227.1,838.1563 Q226.4125,839.2188 226.4125,841.3125 Q226.4125,843.4063 227.1,844.4844 Q227.7875,845.5469 229.1313,845.5469 Q229.7563,845.5469 230.35,845.2813 Q230.9438,845 231.5688,844.4219 L231.5688,847.1406 Z " fill="#000000"/><text fill="#000000" font-family="sans-serif" font-size="14" lengthAdjust="spacing" textLength="69" x="248.4" y="846.3467">MenuItem</text><line style="stroke:#181818;stroke-width:0.5;" x1="188.5" x2="345.5" y1="857.5" y2="857.5"/><rect fill="none" height="6" style="stroke:#C82930;stroke-width:1.0;" width="6" x="195.5" y="868.1484"/><text fill="#000000" font-family="sans-serif" font-size="14" lengthAdjust="spacing" textLength="88" x="207.5" y="874.4951">name: String</text><rect fill="none" height="6" style="stroke:#C82930;stroke-width:1.0;" width="6" x="195.5" y="884.4453"/><text fill="#000000" font-family="sans-serif" font-size="14" lengthAdjust="spacing" textLength="133" x="207.5" y="890.792">description: String?</text><rect fill="none" height="6" style="stroke:#C82930;stroke-width:1.0;" width="6" x="195.5" y="900.7422"/><text fill="#000000" font-family="sans-serif" font-size="14" lengthAdjust="spacing" textLength="131" x="207.5" y="907.0889">price: ProductPrice</text><rect fill="none" height="6" style="stroke:#C82930;stroke-width:1.0;" width="6" x="195.5" y="917.0391"/><text fill="#000000" font-family="sans-serif" font-size="14" lengthAdjust="spacing" textLength="117" x="207.5" y="923.3857">inStock: Boolean</text><line style="stroke:#181818;stroke-width:0.5;" x1="188.5" x2="345.5" y1="930.6875" y2="930.6875"/></g><!--class ProductPrice--><g id="elem_ProductPrice"><rect codeLine="72" fill="#F1F1F1" height="64.2969" id="ProductPrice" rx="2.5" ry="2.5" style="stroke:#181818;stroke-width:0.5;" width="120" x="207" y="1040"/><ellipse cx="222" cy="1056" fill="#ADD1B2" rx="11" ry="11" style="stroke:#181818;stroke-width:1.0;"/><path d="M224.9688,1061.6406 Q224.3906,1061.9375 223.75,1062.0781 Q223.1094,1062.2344 222.4063,1062.2344 Q219.9063,1062.2344 218.5781,1060.5938 Q217.2656,1058.9375 217.2656,1055.8125 Q217.2656,1052.6875 218.5781,1051.0313 Q219.9063,1049.375 222.4063,1049.375 Q223.1094,1049.375 223.75,1049.5313 Q224.4063,1049.6875 224.9688,1049.9844 L224.9688,1052.7031 Q224.3438,1052.125 223.75,1051.8594 Q223.1563,1051.5781 222.5313,1051.5781 Q221.1875,1051.5781 220.5,1052.6563 Q219.8125,1053.7188 219.8125,1055.8125 Q219.8125,1057.9063 220.5,1058.9844 Q221.1875,1060.0469 222.5313,1060.0469 Q223.1563,1060.0469 223.75,1059.7813 Q224.3438,1059.5 224.9688,1058.9219 L224.9688,1061.6406 Z " fill="#000000"/><text fill="#000000" font-family="sans-serif" font-size="14" lengthAdjust="spacing" textLength="88" x="236" y="1060.8467">ProductPrice</text><line style="stroke:#181818;stroke-width:0.5;" x1="208" x2="326" y1="1072" y2="1072"/><rect fill="none" height="6" style="stroke:#C82930;stroke-width:1.0;" width="6" x="215" y="1082.6484"/><text fill="#000000" font-family="sans-serif" font-size="14" lengthAdjust="spacing" textLength="83" x="227" y="1088.9951">price: String</text><line style="stroke:#181818;stroke-width:0.5;" x1="208" x2="326" y1="1096.2969" y2="1096.2969"/></g><!--class OpeningHours--><g id="elem_OpeningHours"><rect codeLine="82" fill="#F1F1F1" height="64.2969" id="OpeningHours" rx="2.5" ry="2.5" style="stroke:#181818;stroke-width:0.5;" width="299" x="396.5" y="643.5"/><ellipse cx="491.75" cy="659.5" fill="#ADD1B2" rx="11" ry="11" style="stroke:#181818;stroke-width:1.0;"/><path d="M494.7188,665.1406 Q494.1406,665.4375 493.5,665.5781 Q492.8594,665.7344 492.1563,665.7344 Q489.6563,665.7344 488.3281,664.0938 Q487.0156,662.4375 487.0156,659.3125 Q487.0156,656.1875 488.3281,654.5313 Q489.6563,652.875 492.1563,652.875 Q492.8594,652.875 493.5,653.0313 Q494.1563,653.1875 494.7188,653.4844 L494.7188,656.2031 Q494.0938,655.625 493.5,655.3594 Q492.9063,655.0781 492.2813,655.0781 Q490.9375,655.0781 490.25,656.1563 Q489.5625,657.2188 489.5625,659.3125 Q489.5625,661.4063 490.25,662.4844 Q490.9375,663.5469 492.2813,663.5469 Q492.9063,663.5469 493.5,663.2813 Q494.0938,663 494.7188,662.4219 L494.7188,665.1406 Z " fill="#000000"/><text fill="#000000" font-family="sans-serif" font-size="14" lengthAdjust="spacing" textLength="100" x="512.25" y="664.3467">OpeningHours</text><line style="stroke:#181818;stroke-width:0.5;" x1="397.5" x2="694.5" y1="675.5" y2="675.5"/><rect fill="none" height="6" style="stroke:#C82930;stroke-width:1.0;" width="6" x="404.5" y="686.1484"/><text fill="#000000" font-family="sans-serif" font-size="14" lengthAdjust="spacing" textLength="273" x="416.5" y="692.4951">dayToHours: Map&lt;DayOfWeek, String&gt;</text><line style="stroke:#181818;stroke-width:0.5;" x1="397.5" x2="694.5" y1="699.7969" y2="699.7969"/></g><!--class DayOfWeek--><g id="elem_DayOfWeek"><rect codeLine="86" fill="#F1F1F1" height="162.0781" id="DayOfWeek" rx="2.5" ry="2.5" style="stroke:#181818;stroke-width:0.5;" width="112" x="490" y="801"/><ellipse cx="505" cy="817" fill="#EB937F" rx="11" ry="11" style="stroke:#181818;stroke-width:1.0;"/><path d="M509.1094,823 L501.3906,823 L501.3906,810.6094 L509.1094,810.6094 L509.1094,812.7656 L503.8438,812.7656 L503.8438,815.4375 L508.6094,815.4375 L508.6094,817.5938 L503.8438,817.5938 L503.8438,820.8438 L509.1094,820.8438 L509.1094,823 Z " fill="#000000"/><text fill="#000000" font-family="sans-serif" font-size="14" lengthAdjust="spacing" textLength="80" x="519" y="821.8467">DayOfWeek</text><line style="stroke:#181818;stroke-width:0.5;" x1="491" x2="601" y1="833" y2="833"/><text fill="#000000" font-family="sans-serif" font-size="14" lengthAdjust="spacing" textLength="62" x="496" y="849.9951">MONDAY</text><text fill="#000000" font-family="sans-serif" font-size="14" lengthAdjust="spacing" textLength="66" x="496" y="866.292">TUESDAY</text><text fill="#000000" font-family="sans-serif" font-size="14" lengthAdjust="spacing" textLength="90" x="496" y="882.5889">WEDNESDAY</text><text fill="#000000" font-family="sans-serif" font-size="14" lengthAdjust="spacing" textLength="77" x="496" y="898.8857">THURSDAY</text><text fill="#000000" font-family="sans-serif" font-size="14" lengthAdjust="spacing" textLength="50" x="496" y="915.1826">FRIDAY</text><text fill="#000000" font-family="sans-serif" font-size="14" lengthAdjust="spacing" textLength="76" x="496" y="931.4795">SATURDAY</text><text fill="#000000" font-family="sans-serif" font-size="14" lengthAdjust="spacing" textLength="58" x="496" y="947.7764">SUNDAY</text><line style="stroke:#181818;stroke-width:0.5;" x1="491" x2="601" y1="955.0781" y2="955.0781"/></g><!--class Location--><g id="elem_Location"><rect codeLine="101" fill="#F1F1F1" height="96.8906" id="Location" rx="2.5" ry="2.5" style="stroke:#181818;stroke-width:0.5;" width="184" x="731" y="627"/><ellipse cx="789.75" cy="643" fill="#ADD1B2" rx="11" ry="11" style="stroke:#181818;stroke-width:1.0;"/><path d="M792.7188,648.6406 Q792.1406,648.9375 791.5,649.0781 Q790.8594,649.2344 790.1563,649.2344 Q787.6563,649.2344 786.3281,647.5938 Q785.0156,645.9375 785.0156,642.8125 Q785.0156,639.6875 786.3281,638.0313 Q787.6563,636.375 790.1563,636.375 Q790.8594,636.375 791.5,636.5313 Q792.1563,636.6875 792.7188,636.9844 L792.7188,639.7031 Q792.0938,639.125 791.5,638.8594 Q790.9063,638.5781 790.2813,638.5781 Q788.9375,638.5781 788.25,639.6563 Q787.5625,640.7188 787.5625,642.8125 Q787.5625,644.9063 788.25,645.9844 Q788.9375,647.0469 790.2813,647.0469 Q790.9063,647.0469 791.5,646.7813 Q792.0938,646.5 792.7188,645.9219 L792.7188,648.6406 Z " fill="#000000"/><text fill="#000000" font-family="sans-serif" font-size="14" lengthAdjust="spacing" textLength="58" x="810.25" y="647.8467">Location</text><line style="stroke:#181818;stroke-width:0.5;" x1="732" x2="914" y1="659" y2="659"/><rect fill="none" height="6" style="stroke:#C82930;stroke-width:1.0;" width="6" x="739" y="669.6484"/><text fill="#000000" font-family="sans-serif" font-size="14" lengthAdjust="spacing" textLength="105" x="751" y="675.9951">address: String</text><rect fill="none" height="6" style="stroke:#C82930;stroke-width:1.0;" width="6" x="739" y="685.9453"/><text fill="#000000" font-family="sans-serif" font-size="14" lengthAdjust="spacing" textLength="144" x="751" y="692.292">latitude: BigDecimal?</text><rect fill="none" height="6" style="stroke:#C82930;stroke-width:1.0;" width="6" x="739" y="702.2422"/><text fill="#000000" font-family="sans-serif" font-size="14" lengthAdjust="spacing" textLength="158" x="751" y="708.5889">longitude: BigDecimal?</text><line style="stroke:#181818;stroke-width:0.5;" x1="732" x2="914" y1="715.8906" y2="715.8906"/></g><!--class Review--><g id="elem_Review"><rect codeLine="111" fill="#F1F1F1" height="113.1875" id="Review" rx="2.5" ry="2.5" style="stroke:#181818;stroke-width:0.5;" width="148" x="683" y="396"/><ellipse cx="728.25" cy="412" fill="#ADD1B2" rx="11" ry="11" style="stroke:#181818;stroke-width:1.0;"/><path d="M731.2188,417.6406 Q730.6406,417.9375 730,418.0781 Q729.3594,418.2344 728.6563,418.2344 Q726.1563,418.2344 724.8281,416.5938 Q723.5156,414.9375 723.5156,411.8125 Q723.5156,408.6875 724.8281,407.0313 Q726.1563,405.375 728.6563,405.375 Q729.3594,405.375 730,405.5313 Q730.6563,405.6875 731.2188,405.9844 L731.2188,408.7031 Q730.5938,408.125 730,407.8594 Q729.4063,407.5781 728.7813,407.5781 Q727.4375,407.5781 726.75,408.6563 Q726.0625,409.7188 726.0625,411.8125 Q726.0625,413.9063 726.75,414.9844 Q727.4375,416.0469 728.7813,416.0469 Q729.4063,416.0469 730,415.7813 Q730.5938,415.5 731.2188,414.9219 L731.2188,417.6406 Z " fill="#000000"/><text fill="#000000" font-family="sans-serif" font-size="14" lengthAdjust="spacing" textLength="49" x="748.75" y="416.8467">Review</text><line style="stroke:#181818;stroke-width:0.5;" x1="684" x2="830" y1="428" y2="428"/><rect fill="none" height="6" style="stroke:#C82930;stroke-width:1.0;" width="6" x="691" y="438.6484"/><text fill="#000000" font-family="sans-serif" font-size="14" lengthAdjust="spacing" textLength="72" x="703" y="444.9951">user: User</text><rect fill="none" height="6" style="stroke:#C82930;stroke-width:1.0;" width="6" x="691" y="454.9453"/><text fill="#000000" font-family="sans-serif" font-size="14" lengthAdjust="spacing" textLength="90" x="703" y="461.292">shopId: UUID</text><rect fill="none" height="6" style="stroke:#C82930;stroke-width:1.0;" width="6" x="691" y="471.2422"/><text fill="#000000" font-family="sans-serif" font-size="14" lengthAdjust="spacing" textLength="65" x="703" y="477.5889">rating: int</text><rect fill="none" height="6" style="stroke:#C82930;stroke-width:1.0;" width="6" x="691" y="487.5391"/><text fill="#000000" font-family="sans-serif" font-size="14" lengthAdjust="spacing" textLength="122" x="703" y="493.8857">comment: String?</text><line style="stroke:#181818;stroke-width:0.5;" x1="684" x2="830" y1="501.1875" y2="501.1875"/></g><!--class Image--><g id="elem_Image"><rect codeLine="122" fill="#F1F1F1" height="64.2969" id="Image" rx="2.5" ry="2.5" style="stroke:#181818;stroke-width:0.5;" width="92" x="870" y="39.5"/><ellipse cx="893.1" cy="55.5" fill="#ADD1B2" rx="11" ry="11" style="stroke:#181818;stroke-width:1.0;"/><path d="M896.0688,61.1406 Q895.4906,61.4375 894.85,61.5781 Q894.2094,61.7344 893.5063,61.7344 Q891.0063,61.7344 889.6781,60.0938 Q888.3656,58.4375 888.3656,55.3125 Q888.3656,52.1875 889.6781,50.5313 Q891.0063,48.875 893.5063,48.875 Q894.2094,48.875 894.85,49.0313 Q895.5063,49.1875 896.0688,49.4844 L896.0688,52.2031 Q895.4438,51.625 894.85,51.3594 Q894.2563,51.0781 893.6313,51.0781 Q892.2875,51.0781 891.6,52.1563 Q890.9125,53.2188 890.9125,55.3125 Q890.9125,57.4063 891.6,58.4844 Q892.2875,59.5469 893.6313,59.5469 Q894.2563,59.5469 894.85,59.2813 Q895.4438,59 896.0688,58.4219 L896.0688,61.1406 Z " fill="#000000"/><text fill="#000000" font-family="sans-serif" font-size="14" lengthAdjust="spacing" textLength="42" x="908.9" y="60.3467">Image</text><line style="stroke:#181818;stroke-width:0.5;" x1="871" x2="961" y1="71.5" y2="71.5"/><rect fill="none" height="6" style="stroke:#C82930;stroke-width:1.0;" width="6" x="878" y="82.1484"/><text fill="#000000" font-family="sans-serif" font-size="14" lengthAdjust="spacing" textLength="66" x="890" y="88.4951">url: String</text><line style="stroke:#181818;stroke-width:0.5;" x1="871" x2="961" y1="95.7969" y2="95.7969"/></g><!--reverse link User to ContactInfo--><g id="link_User_ContactInfo"><path codeLine="21" d="M548.67,71.5 C587.1,71.5 619.16,71.5 656.9,71.5 " fill="none" id="User-backto-ContactInfo" style="stroke:#181818;stroke-width:1.0;"/><polygon fill="#181818" points="536.67,71.5,542.67,75.5,548.67,71.5,542.67,67.5,536.67,71.5" style="stroke:#181818;stroke-width:1.0;"/><polygon fill="#000000" points="563.75,60.0664,554.7049,57.1275,554.7049,63.0053,563.75,60.0664" style="stroke:#000000;stroke-width:1.0;"/><text fill="#000000" font-family="sans-serif" font-size="13" lengthAdjust="spacing" textLength="71" x="567.75" y="64.5669">contactInfo</text><text fill="#000000" font-family="sans-serif" font-size="13" lengthAdjust="spacing" textLength="8" x="544.6125" y="67.9671">1</text><text fill="#000000" font-family="sans-serif" font-size="13" lengthAdjust="spacing" textLength="8" x="640.8992" y="67.9073">1</text></g><!--reverse link ContactInfo to MediaLink--><g id="link_ContactInfo_MediaLink"><path codeLine="30" d="M647.1902,123.6769 C622.6002,142.0669 615.74,157.83 630,183 C644.18,208.02 671.35,225.01 695.83,235.93 " fill="none" id="ContactInfo-backto-MediaLink" style="stroke:#181818;stroke-width:1.0;"/><polygon fill="#181818" points="656.8,116.49,649.5995,116.8802,647.1902,123.6769,654.3907,123.2867,656.8,116.49" style="stroke:#181818;stroke-width:1.0;"/><polygon fill="#000000" points="636.9879,179.1542,636.0884,169.6863,630.6951,172.0233,636.9879,179.1542" style="stroke:#000000;stroke-width:1.0;"/><text fill="#000000" font-family="sans-serif" font-size="13" lengthAdjust="spacing" textLength="58" x="644" y="179.0669">facebook</text><text fill="#000000" font-family="sans-serif" font-size="13" lengthAdjust="spacing" textLength="8" x="641.0819" y="116.647">1</text><text fill="#000000" font-family="sans-serif" font-size="13" lengthAdjust="spacing" textLength="24" x="663.8645" y="229.8193">0..1</text></g><!--reverse link ContactInfo to MediaLink--><g id="link_ContactInfo_MediaLink"><path codeLine="31" d="M742.9126,148.1863 C742.5326,163.5163 742.67,167.84 743,183 C743.21,192.66 743.58,203.07 743.99,212.82 " fill="none" id="ContactInfo-backto-MediaLink-1" style="stroke:#181818;stroke-width:1.0;"/><polygon fill="#181818" points="743.21,136.19,739.0625,142.089,742.9126,148.1863,747.0601,142.2873,743.21,136.19" style="stroke:#181818;stroke-width:1.0;"/><polygon fill="#000000" points="748.0833,179.5657,750.8711,170.4729,744.9941,170.5709,748.0833,179.5657" style="stroke:#000000;stroke-width:1.0;"/><text fill="#000000" font-family="sans-serif" font-size="13" lengthAdjust="spacing" textLength="65" x="757" y="179.0669">instagram</text><text fill="#000000" font-family="sans-serif" font-size="13" lengthAdjust="spacing" textLength="8" x="734.4249" y="156.5835">1</text><text fill="#000000" font-family="sans-serif" font-size="13" lengthAdjust="spacing" textLength="24" x="717.6696" y="201.9517">0..1</text></g><!--reverse link ContactInfo to MediaLink--><g id="link_ContactInfo_MediaLink"><path codeLine="32" d="M817.7485,145.9138 C824.2885,155.3238 823.1,155.54 827,166 C835.84,189.71 817.49,210.61 796.03,225.92 " fill="none" id="ContactInfo-backto-MediaLink-2" style="stroke:#181818;stroke-width:1.0;"/><polygon fill="#181818" points="810.9,136.06,811.0396,143.2698,817.7485,145.9138,817.6089,138.7041,810.9,136.06" style="stroke:#181818;stroke-width:1.0;"/><polygon fill="#000000" points="832.6901,179.3918,837.896,171.4325,832.2234,169.8927,832.6901,179.3918" style="stroke:#000000;stroke-width:1.0;"/><text fill="#000000" font-family="sans-serif" font-size="13" lengthAdjust="spacing" textLength="48" x="843" y="179.0669">website</text><text fill="#000000" font-family="sans-serif" font-size="13" lengthAdjust="spacing" textLength="8" x="809.9416" y="156.4385">1</text><text fill="#000000" font-family="sans-serif" font-size="13" lengthAdjust="spacing" textLength="24" x="803.9776" y="218.5268">0..1</text></g><!--link User to Shop--><g id="link_User_Shop"><path codeLine="48" d="M441,128.02 C441,187.44 441,270.84 441,342.68 " fill="none" id="User-to-Shop" style="stroke:#181818;stroke-width:1.0;"/><polygon fill="none" points="441,354.68,445,348.68,441,342.68,437,348.68,441,354.68" style="stroke:#181818;stroke-width:1.0;"/><polygon fill="#000000" points="446,248.5664,443.0611,257.6115,448.9389,257.6115,446,248.5664" style="stroke:#000000;stroke-width:1.0;"/><text fill="#000000" font-family="sans-serif" font-size="13" lengthAdjust="spacing" textLength="57" x="455" y="258.0669">ownedBy</text><text fill="#000000" font-family="sans-serif" font-size="13" lengthAdjust="spacing" textLength="8" x="432.4875" y="148.286">1</text><text fill="#000000" font-family="sans-serif" font-size="13" lengthAdjust="spacing" textLength="23" x="417.1555" y="344.0294">0..*</text></g><!--reverse link Shop to ShopCategory--><g id="link_Shop_ShopCategory"><path codeLine="57" d="M285.6648,546.5351 C230.7748,579.4051 181.29,609.04 137.31,635.38 " fill="none" id="Shop-backto-ShopCategory" style="stroke:#181818;stroke-width:1.0;"/><polygon fill="#181818" points="295.96,540.37,288.7574,540.0208,285.6648,546.5351,292.8674,546.8843,295.96,540.37" style="stroke:#181818;stroke-width:1.0;"/><polygon fill="#000000" points="224.7104,591.1353,233.9803,589.0095,230.9604,583.9668,224.7104,591.1353" style="stroke:#000000;stroke-width:1.0;"/><text fill="#000000" font-family="sans-serif" font-size="13" lengthAdjust="spacing" textLength="67" x="238" y="593.0669">categories</text><text fill="#000000" font-family="sans-serif" font-size="13" lengthAdjust="spacing" textLength="8" x="279.8094" y="541.8447">1</text><text fill="#000000" font-family="sans-serif" font-size="13" lengthAdjust="spacing" textLength="23" x="145.231" y="627.5639">0..*</text></g><!--reverse link Shop to Menu--><g id="link_Shop_Menu"><path codeLine="76" d="M357.5086,559.5399 C331.0886,593.1099 310.71,618.98 291.51,643.37 " fill="none" id="Shop-backto-Menu" style="stroke:#181818;stroke-width:1.0;"/><polygon fill="#181818" points="364.93,550.11,358.076,552.3511,357.5086,559.5399,364.3626,557.2987,364.93,550.11" style="stroke:#181818;stroke-width:1.0;"/><polygon fill="#000000" points="340.9071,592.495,348.8114,587.2061,344.1931,583.5701,340.9071,592.495" style="stroke:#000000;stroke-width:1.0;"/><text fill="#000000" font-family="sans-serif" font-size="13" lengthAdjust="spacing" textLength="37" x="353" y="593.0669">menu</text><text fill="#000000" font-family="sans-serif" font-size="13" lengthAdjust="spacing" textLength="8" x="351.3001" y="569.5836">1</text><text fill="#000000" font-family="sans-serif" font-size="13" lengthAdjust="spacing" textLength="8" x="287.7402" y="632.2463">1</text></g><!--reverse link Menu to MenuItem--><g id="link_Menu_MenuItem"><path codeLine="77" d="M267,719.56 C267,750.73 267,787.43 267,825.3 " fill="none" id="Menu-backto-MenuItem" style="stroke:#181818;stroke-width:1.0;"/><polygon fill="#181818" points="267,707.56,263,713.56,267,719.56,271,713.56,267,707.56" style="stroke:#181818;stroke-width:1.0;"/><polygon fill="#000000" points="272,767.5664,274.9389,758.5213,269.0611,758.5213,272,767.5664" style="stroke:#000000;stroke-width:1.0;"/><text fill="#000000" font-family="sans-serif" font-size="13" lengthAdjust="spacing" textLength="36" x="281" y="767.0669">items</text><text fill="#000000" font-family="sans-serif" font-size="13" lengthAdjust="spacing" textLength="8" x="258.175" y="727.7692">1</text><text fill="#000000" font-family="sans-serif" font-size="13" lengthAdjust="spacing" textLength="23" x="242.5984" y="814.5392">0..*</text></g><!--reverse link MenuItem to ProductPrice--><g id="link_MenuItem_ProductPrice"><path codeLine="78" d="M267,950.64 C267,983.67 267,1012.31 267,1039.78 " fill="none" id="MenuItem-backto-ProductPrice" style="stroke:#181818;stroke-width:1.0;"/><polygon fill="#181818" points="267,938.64,263,944.64,267,950.64,271,944.64,267,938.64" style="stroke:#181818;stroke-width:1.0;"/><polygon fill="#000000" points="272,1006.5664,274.9389,997.5213,269.0611,997.5213,272,1006.5664" style="stroke:#000000;stroke-width:1.0;"/><text fill="#000000" font-family="sans-serif" font-size="13" lengthAdjust="spacing" textLength="80" x="281" y="1006.0669">productPrice</text><text fill="#000000" font-family="sans-serif" font-size="13" lengthAdjust="spacing" textLength="8" x="258.4875" y="958.9213">1</text><text fill="#000000" font-family="sans-serif" font-size="13" lengthAdjust="spacing" textLength="8" x="258.2125" y="1029.0109">1</text></g><!--reverse link Shop to OpeningHours--><g id="link_Shop_OpeningHours"><path codeLine="96" d="M492.0498,560.9488 C507.9998,594.5188 519.62,618.98 531.21,643.37 " fill="none" id="Shop-backto-OpeningHours" style="stroke:#181818;stroke-width:1.0;"/><polygon fill="#181818" points="486.9,550.11,485.862,557.246,492.0498,560.9488,493.0878,553.8128,486.9,550.11" style="stroke:#181818;stroke-width:1.0;"/><polygon fill="#000000" points="517.1457,593.0826,515.9186,583.6515,510.6095,586.174,517.1457,593.0826" style="stroke:#000000;stroke-width:1.0;"/><text fill="#000000" font-family="sans-serif" font-size="13" lengthAdjust="spacing" textLength="89" x="524" y="593.0669">openingHours</text><text fill="#000000" font-family="sans-serif" font-size="13" lengthAdjust="spacing" textLength="8" x="481.8461" y="569.5836">1</text><text fill="#000000" font-family="sans-serif" font-size="13" lengthAdjust="spacing" textLength="8" x="519.3346" y="632.2463">1</text></g><!--reverse link OpeningHours to DayOfWeek--><g id="link_OpeningHours_DayOfWeek"><path codeLine="97" d="M546,719.56 C546,744.36 546,768.27 546,800.98 " fill="none" id="OpeningHours-backto-DayOfWeek" style="stroke:#181818;stroke-width:1.0;"/><polygon fill="#181818" points="546,707.56,542,713.56,546,719.56,550,713.56,546,707.56" style="stroke:#181818;stroke-width:1.0;"/><polygon fill="#000000" points="551,767.5664,553.9389,758.5213,548.0611,758.5213,551,767.5664" style="stroke:#000000;stroke-width:1.0;"/><text fill="#000000" font-family="sans-serif" font-size="13" lengthAdjust="spacing" textLength="76" x="560" y="767.0669">dayToHours</text><text fill="#000000" font-family="sans-serif" font-size="13" lengthAdjust="spacing" textLength="8" x="537.175" y="727.7692">1</text><text fill="#000000" font-family="sans-serif" font-size="13" lengthAdjust="spacing" textLength="23" x="521.9398" y="789.889">0..*</text></g><!--reverse link Shop to Location--><g id="link_Shop_Location"><path codeLine="107" d="M596.6169,543.5294 C648.9369,573.7994 695.74,600.87 740.8,626.94 " fill="none" id="Shop-backto-Location" style="stroke:#181818;stroke-width:1.0;"/><polygon fill="#181818" points="586.23,537.52,589.4203,543.987,596.6169,543.5294,593.4266,537.0624,586.23,537.52" style="stroke:#181818;stroke-width:1.0;"/><polygon fill="#000000" points="698.328,591.0702,691.9703,583.9969,689.0269,589.0847,698.328,591.0702" style="stroke:#000000;stroke-width:1.0;"/><text fill="#000000" font-family="sans-serif" font-size="13" lengthAdjust="spacing" textLength="50" x="703" y="593.0669">location</text><text fill="#000000" font-family="sans-serif" font-size="13" lengthAdjust="spacing" textLength="8" x="593.9247" y="538.5959">1</text><text fill="#000000" font-family="sans-serif" font-size="13" lengthAdjust="spacing" textLength="8" x="720.1394" y="615.7909">1</text></g><!--reverse link Shop to Review--><!--SRC=[dLLHRzem47xdLrZieL8rgktLGbG5MXK92WAYQfhsu3ecM2HsP3j3QDf_tyN4TX95NPkyuBkpVTzz_kxG9ovoeaY6tWWz9KeM8fx9L2hqvSb-Wm5DYTOeqaoXFmC4tmZn6AETKLmabKEGZBLSkP87dh8DfwPG45na967tLP1AOGWr2t6G6Cs2CVWx6DoWqVy_TEE0rKvxVFbH2e_7vMGPuMdRUMPlcXlOks8n9qikJYvo89IzINdg276X3Kc0j4OCe5kIXj-7w7PaV-hOSBreDFbqdJwJhz9maxPPBvGliGHK1t351S2-tTt1Cjo7VQq0wuCdF0KVFr9HtQFqtL7c3Ur5qMBUeJptFZ7JLF7SS2dQ8NaMJ66hvigZuV8PCIoHYZEDqP9hCzu5vsNY4fS2TXkicbqaOw8efI2Aof5AIgxPbzNAfS-P03JFib1mqxfcDUG3rKjBuUtmMZosmEFf1OrxiUTgyInsD2mjsxxiHlWfqTZ4zVUimFYxGD6Ujrw25aLuLSConsqPM80zAL64lQNhFVpll7gkE8Nj6oNZWffDQVbMtXb9eScdKgQCY92olZaCbkj5eS6Q95d5GrNOIW8uiLQBGryBlbPTRREk-aqD0BYSfy7yFDjrhVboOdBPoqgCAvAFv-IoFhmoTlfQbMYV0C1bo8Ugmwlro_pXXrtkeyUTMxy-pb-2jN-EjjvusYxSSlUmZxRUYEnDNMGsGED6zm05ZMYBv00NrwhimPjhOCyPYMF5j6w9BuLDfeX16rEUp1c5OP7U-saWaevWLy4-6_Opf0VcBVlDsTaZBdJ7o5iqnwY2N28fvxhnuo034PlGIasyFuyyZfduvGYlScAaxA8FrNQc1jIDVx9_]--></g></svg>