<?xml version="1.0" encoding="us-ascii" standalone="no"?><svg xmlns="http://www.w3.org/2000/svg" xmlns:xlink="http://www.w3.org/1999/xlink" contentStyleType="text/css" height="1143px" preserveAspectRatio="none" style="width:1318px;height:1143px;background:#FFFFFF;" version="1.1" viewBox="0 0 1318 1143" width="1318px" zoomAndPan="magnify"><defs/><g><!--class User--><g id="elem_User"><rect codeLine="4" fill="#F1F1F1" height="96.8906" id="User" rx="2.5" ry="2.5" style="stroke:#181818;stroke-width:0.5;" width="174" x="557" y="7"/><ellipse cx="623.75" cy="23" fill="#ADD1B2" rx="11" ry="11" style="stroke:#181818;stroke-width:1.0;"/><path d="M626.7188,28.6406 Q626.1406,28.9375 625.5,29.0781 Q624.8594,29.2344 624.1563,29.2344 Q621.6563,29.2344 620.3281,27.5938 Q619.0156,25.9375 619.0156,22.8125 Q619.0156,19.6875 620.3281,18.0313 Q621.6563,16.375 624.1563,16.375 Q624.8594,16.375 625.5,16.5313 Q626.1563,16.6875 626.7188,16.9844 L626.7188,19.7031 Q626.0938,19.125 625.5,18.8594 Q624.9063,18.5781 624.2813,18.5781 Q622.9375,18.5781 622.25,19.6563 Q621.5625,20.7188 621.5625,22.8125 Q621.5625,24.9063 622.25,25.9844 Q622.9375,27.0469 624.2813,27.0469 Q624.9063,27.0469 625.5,26.7813 Q626.0938,26.5 626.7188,25.9219 L626.7188,28.6406 Z " fill="#000000"/><text fill="#000000" font-family="sans-serif" font-size="14" lengthAdjust="spacing" textLength="32" x="644.25" y="27.8467">User</text><line style="stroke:#181818;stroke-width:0.5;" x1="558" x2="730" y1="39" y2="39"/><rect fill="none" height="6" style="stroke:#C82930;stroke-width:1.0;" width="6" x="565" y="49.6484"/><text fill="#000000" font-family="sans-serif" font-size="14" lengthAdjust="spacing" textLength="61" x="577" y="55.9951">id: String</text><rect fill="none" height="6" style="stroke:#C82930;stroke-width:1.0;" width="6" x="565" y="65.9453"/><text fill="#000000" font-family="sans-serif" font-size="14" lengthAdjust="spacing" textLength="88" x="577" y="72.292">name: String</text><rect fill="none" height="6" style="stroke:#C82930;stroke-width:1.0;" width="6" x="565" y="82.2422"/><text fill="#000000" font-family="sans-serif" font-size="14" lengthAdjust="spacing" textLength="148" x="577" y="88.5889">profilePicture: Image?</text><line style="stroke:#181818;stroke-width:0.5;" x1="558" x2="730" y1="95.8906" y2="95.8906"/></g><!--class UserContactInfo--><g id="elem_UserContactInfo"><rect codeLine="12" fill="#F1F1F1" height="80.5938" id="UserContactInfo" rx="2.5" ry="2.5" style="stroke:#181818;stroke-width:0.5;" width="143" x="501.5" y="181"/><ellipse cx="516.5" cy="197" fill="#ADD1B2" rx="11" ry="11" style="stroke:#181818;stroke-width:1.0;"/><path d="M519.4688,202.6406 Q518.8906,202.9375 518.25,203.0781 Q517.6094,203.2344 516.9063,203.2344 Q514.4063,203.2344 513.0781,201.5938 Q511.7656,199.9375 511.7656,196.8125 Q511.7656,193.6875 513.0781,192.0313 Q514.4063,190.375 516.9063,190.375 Q517.6094,190.375 518.25,190.5313 Q518.9063,190.6875 519.4688,190.9844 L519.4688,193.7031 Q518.8438,193.125 518.25,192.8594 Q517.6563,192.5781 517.0313,192.5781 Q515.6875,192.5781 515,193.6563 Q514.3125,194.7188 514.3125,196.8125 Q514.3125,198.9063 515,199.9844 Q515.6875,201.0469 517.0313,201.0469 Q517.6563,201.0469 518.25,200.7813 Q518.8438,200.5 519.4688,199.9219 L519.4688,202.6406 Z " fill="#000000"/><text fill="#000000" font-family="sans-serif" font-size="14" lengthAdjust="spacing" textLength="111" x="530.5" y="201.8467">UserContactInfo</text><line style="stroke:#181818;stroke-width:0.5;" x1="502.5" x2="643.5" y1="213" y2="213"/><rect fill="none" height="6" style="stroke:#C82930;stroke-width:1.0;" width="6" x="509.5" y="223.6484"/><text fill="#000000" font-family="sans-serif" font-size="14" lengthAdjust="spacing" textLength="101" x="521.5" y="229.9951">phone: String?</text><rect fill="none" height="6" style="stroke:#C82930;stroke-width:1.0;" width="6" x="509.5" y="239.9453"/><text fill="#000000" font-family="sans-serif" font-size="14" lengthAdjust="spacing" textLength="92" x="521.5" y="246.292">email: String?</text><line style="stroke:#181818;stroke-width:0.5;" x1="502.5" x2="643.5" y1="253.5938" y2="253.5938"/></g><!--class Shop--><g id="elem_Shop"><rect codeLine="21" fill="#F1F1F1" height="227.2656" id="Shop" rx="2.5" ry="2.5" style="stroke:#181818;stroke-width:0.5;" width="290" x="570" y="323"/><ellipse cx="692.75" cy="339" fill="#ADD1B2" rx="11" ry="11" style="stroke:#181818;stroke-width:1.0;"/><path d="M695.7188,344.6406 Q695.1406,344.9375 694.5,345.0781 Q693.8594,345.2344 693.1563,345.2344 Q690.6563,345.2344 689.3281,343.5938 Q688.0156,341.9375 688.0156,338.8125 Q688.0156,335.6875 689.3281,334.0313 Q690.6563,332.375 693.1563,332.375 Q693.8594,332.375 694.5,332.5313 Q695.1563,332.6875 695.7188,332.9844 L695.7188,335.7031 Q695.0938,335.125 694.5,334.8594 Q693.9063,334.5781 693.2813,334.5781 Q691.9375,334.5781 691.25,335.6563 Q690.5625,336.7188 690.5625,338.8125 Q690.5625,340.9063 691.25,341.9844 Q691.9375,343.0469 693.2813,343.0469 Q693.9063,343.0469 694.5,342.7813 Q695.0938,342.5 695.7188,341.9219 L695.7188,344.6406 Z " fill="#000000"/><text fill="#000000" font-family="sans-serif" font-size="14" lengthAdjust="spacing" textLength="36" x="713.25" y="343.8467">Shop</text><line style="stroke:#181818;stroke-width:0.5;" x1="571" x2="859" y1="355" y2="355"/><rect fill="none" height="6" style="stroke:#C82930;stroke-width:1.0;" width="6" x="578" y="365.6484"/><text fill="#000000" font-family="sans-serif" font-size="14" lengthAdjust="spacing" textLength="55" x="590" y="371.9951">id: UUID</text><rect fill="none" height="6" style="stroke:#C82930;stroke-width:1.0;" width="6" x="578" y="381.9453"/><text fill="#000000" font-family="sans-serif" font-size="14" lengthAdjust="spacing" textLength="95" x="590" y="388.292">name: String?</text><rect fill="none" height="6" style="stroke:#C82930;stroke-width:1.0;" width="6" x="578" y="398.2422"/><text fill="#000000" font-family="sans-serif" font-size="14" lengthAdjust="spacing" textLength="133" x="590" y="404.5889">description: String?</text><rect fill="none" height="6" style="stroke:#C82930;stroke-width:1.0;" width="6" x="578" y="414.5391"/><text fill="#000000" font-family="sans-serif" font-size="14" lengthAdjust="spacing" textLength="84" x="590" y="420.8857">owner: User</text><rect fill="none" height="6" style="stroke:#C82930;stroke-width:1.0;" width="6" x="578" y="430.8359"/><text fill="#000000" font-family="sans-serif" font-size="14" lengthAdjust="spacing" textLength="264" x="590" y="437.1826">shopCategories: List&lt;ShopCategory&gt;</text><rect fill="none" height="6" style="stroke:#C82930;stroke-width:1.0;" width="6" x="578" y="447.1328"/><text fill="#000000" font-family="sans-serif" font-size="14" lengthAdjust="spacing" textLength="148" x="590" y="453.4795">images: List&lt;Image&gt;</text><rect fill="none" height="6" style="stroke:#C82930;stroke-width:1.0;" width="6" x="578" y="463.4297"/><text fill="#000000" font-family="sans-serif" font-size="14" lengthAdjust="spacing" textLength="88" x="590" y="469.7764">menu: Menu</text><rect fill="none" height="6" style="stroke:#C82930;stroke-width:1.0;" width="6" x="578" y="479.7266"/><text fill="#000000" font-family="sans-serif" font-size="14" lengthAdjust="spacing" textLength="121" x="590" y="486.0732">location: Location</text><rect fill="none" height="6" style="stroke:#C82930;stroke-width:1.0;" width="6" x="578" y="496.0234"/><text fill="#000000" font-family="sans-serif" font-size="14" lengthAdjust="spacing" textLength="207" x="590" y="502.3701">openingHours: OpeningHours</text><rect fill="none" height="6" style="stroke:#C82930;stroke-width:1.0;" width="6" x="578" y="512.3203"/><text fill="#000000" font-family="sans-serif" font-size="14" lengthAdjust="spacing" textLength="165" x="590" y="518.667">contactInfo: ContactInfo</text><rect fill="none" height="6" style="stroke:#C82930;stroke-width:1.0;" width="6" x="578" y="528.6172"/><text fill="#000000" font-family="sans-serif" font-size="14" lengthAdjust="spacing" textLength="157" x="590" y="534.9639">reviews: List&lt;Review&gt;</text><line style="stroke:#181818;stroke-width:0.5;" x1="571" x2="859" y1="542.2656" y2="542.2656"/></g><!--class ShopCategory--><g id="elem_ShopCategory"><rect codeLine="39" fill="#F1F1F1" height="80.5938" id="ShopCategory" rx="2.5" ry="2.5" style="stroke:#181818;stroke-width:0.5;" width="130" x="7" y="651"/><ellipse cx="22" cy="667" fill="#ADD1B2" rx="11" ry="11" style="stroke:#181818;stroke-width:1.0;"/><path d="M24.9688,672.6406 Q24.3906,672.9375 23.75,673.0781 Q23.1094,673.2344 22.4063,673.2344 Q19.9063,673.2344 18.5781,671.5938 Q17.2656,669.9375 17.2656,666.8125 Q17.2656,663.6875 18.5781,662.0313 Q19.9063,660.375 22.4063,660.375 Q23.1094,660.375 23.75,660.5313 Q24.4063,660.6875 24.9688,660.9844 L24.9688,663.7031 Q24.3438,663.125 23.75,662.8594 Q23.1563,662.5781 22.5313,662.5781 Q21.1875,662.5781 20.5,663.6563 Q19.8125,664.7188 19.8125,666.8125 Q19.8125,668.9063 20.5,669.9844 Q21.1875,671.0469 22.5313,671.0469 Q23.1563,671.0469 23.75,670.7813 Q24.3438,670.5 24.9688,669.9219 L24.9688,672.6406 Z " fill="#000000"/><text fill="#000000" font-family="sans-serif" font-size="14" lengthAdjust="spacing" textLength="98" x="36" y="671.8467">ShopCategory</text><line style="stroke:#181818;stroke-width:0.5;" x1="8" x2="136" y1="683" y2="683"/><rect fill="none" height="6" style="stroke:#C82930;stroke-width:1.0;" width="6" x="15" y="693.6484"/><text fill="#000000" font-family="sans-serif" font-size="14" lengthAdjust="spacing" textLength="88" x="27" y="699.9951">name: String</text><rect fill="none" height="6" style="stroke:#C82930;stroke-width:1.0;" width="6" x="15" y="709.9453"/><text fill="#000000" font-family="sans-serif" font-size="14" lengthAdjust="spacing" textLength="79" x="27" y="716.292">color: Color</text><line style="stroke:#181818;stroke-width:0.5;" x1="8" x2="136" y1="723.5938" y2="723.5938"/></g><!--class Menu--><g id="elem_Menu"><rect codeLine="48" fill="#F1F1F1" height="64.2969" id="Menu" rx="2.5" ry="2.5" style="stroke:#181818;stroke-width:0.5;" width="189" x="172.5" y="659.5"/><ellipse cx="243.25" cy="675.5" fill="#ADD1B2" rx="11" ry="11" style="stroke:#181818;stroke-width:1.0;"/><path d="M246.2188,681.1406 Q245.6406,681.4375 245,681.5781 Q244.3594,681.7344 243.6563,681.7344 Q241.1563,681.7344 239.8281,680.0938 Q238.5156,678.4375 238.5156,675.3125 Q238.5156,672.1875 239.8281,670.5313 Q241.1563,668.875 243.6563,668.875 Q244.3594,668.875 245,669.0313 Q245.6563,669.1875 246.2188,669.4844 L246.2188,672.2031 Q245.5938,671.625 245,671.3594 Q244.4063,671.0781 243.7813,671.0781 Q242.4375,671.0781 241.75,672.1563 Q241.0625,673.2188 241.0625,675.3125 Q241.0625,677.4063 241.75,678.4844 Q242.4375,679.5469 243.7813,679.5469 Q244.4063,679.5469 245,679.2813 Q245.5938,679 246.2188,678.4219 L246.2188,681.1406 Z " fill="#000000"/><text fill="#000000" font-family="sans-serif" font-size="14" lengthAdjust="spacing" textLength="39" x="263.75" y="680.3467">Menu</text><line style="stroke:#181818;stroke-width:0.5;" x1="173.5" x2="360.5" y1="691.5" y2="691.5"/><rect fill="none" height="6" style="stroke:#C82930;stroke-width:1.0;" width="6" x="180.5" y="702.1484"/><text fill="#000000" font-family="sans-serif" font-size="14" lengthAdjust="spacing" textLength="163" x="192.5" y="708.4951">items: List&lt;MenuItem&gt;</text><line style="stroke:#181818;stroke-width:0.5;" x1="173.5" x2="360.5" y1="715.7969" y2="715.7969"/></g><!--class MenuItem--><g id="elem_MenuItem"><rect codeLine="52" fill="#F1F1F1" height="113.1875" id="MenuItem" rx="2.5" ry="2.5" style="stroke:#181818;stroke-width:0.5;" width="159" x="187.5" y="857.5"/><ellipse cx="228.6" cy="873.5" fill="#ADD1B2" rx="11" ry="11" style="stroke:#181818;stroke-width:1.0;"/><path d="M231.5688,879.1406 Q230.9906,879.4375 230.35,879.5781 Q229.7094,879.7344 229.0063,879.7344 Q226.5063,879.7344 225.1781,878.0938 Q223.8656,876.4375 223.8656,873.3125 Q223.8656,870.1875 225.1781,868.5313 Q226.5063,866.875 229.0063,866.875 Q229.7094,866.875 230.35,867.0313 Q231.0063,867.1875 231.5688,867.4844 L231.5688,870.2031 Q230.9438,869.625 230.35,869.3594 Q229.7563,869.0781 229.1313,869.0781 Q227.7875,869.0781 227.1,870.1563 Q226.4125,871.2188 226.4125,873.3125 Q226.4125,875.4063 227.1,876.4844 Q227.7875,877.5469 229.1313,877.5469 Q229.7563,877.5469 230.35,877.2813 Q230.9438,877 231.5688,876.4219 L231.5688,879.1406 Z " fill="#000000"/><text fill="#000000" font-family="sans-serif" font-size="14" lengthAdjust="spacing" textLength="69" x="248.4" y="878.3467">MenuItem</text><line style="stroke:#181818;stroke-width:0.5;" x1="188.5" x2="345.5" y1="889.5" y2="889.5"/><rect fill="none" height="6" style="stroke:#C82930;stroke-width:1.0;" width="6" x="195.5" y="900.1484"/><text fill="#000000" font-family="sans-serif" font-size="14" lengthAdjust="spacing" textLength="88" x="207.5" y="906.4951">name: String</text><rect fill="none" height="6" style="stroke:#C82930;stroke-width:1.0;" width="6" x="195.5" y="916.4453"/><text fill="#000000" font-family="sans-serif" font-size="14" lengthAdjust="spacing" textLength="133" x="207.5" y="922.792">description: String?</text><rect fill="none" height="6" style="stroke:#C82930;stroke-width:1.0;" width="6" x="195.5" y="932.7422"/><text fill="#000000" font-family="sans-serif" font-size="14" lengthAdjust="spacing" textLength="131" x="207.5" y="939.0889">price: ProductPrice</text><rect fill="none" height="6" style="stroke:#C82930;stroke-width:1.0;" width="6" x="195.5" y="949.0391"/><text fill="#000000" font-family="sans-serif" font-size="14" lengthAdjust="spacing" textLength="117" x="207.5" y="955.3857">inStock: Boolean</text><line style="stroke:#181818;stroke-width:0.5;" x1="188.5" x2="345.5" y1="962.6875" y2="962.6875"/></g><!--class ProductPrice--><g id="elem_ProductPrice"><rect codeLine="59" fill="#F1F1F1" height="64.2969" id="ProductPrice" rx="2.5" ry="2.5" style="stroke:#181818;stroke-width:0.5;" width="120" x="207" y="1072"/><ellipse cx="222" cy="1088" fill="#ADD1B2" rx="11" ry="11" style="stroke:#181818;stroke-width:1.0;"/><path d="M224.9688,1093.6406 Q224.3906,1093.9375 223.75,1094.0781 Q223.1094,1094.2344 222.4063,1094.2344 Q219.9063,1094.2344 218.5781,1092.5938 Q217.2656,1090.9375 217.2656,1087.8125 Q217.2656,1084.6875 218.5781,1083.0313 Q219.9063,1081.375 222.4063,1081.375 Q223.1094,1081.375 223.75,1081.5313 Q224.4063,1081.6875 224.9688,1081.9844 L224.9688,1084.7031 Q224.3438,1084.125 223.75,1083.8594 Q223.1563,1083.5781 222.5313,1083.5781 Q221.1875,1083.5781 220.5,1084.6563 Q219.8125,1085.7188 219.8125,1087.8125 Q219.8125,1089.9063 220.5,1090.9844 Q221.1875,1092.0469 222.5313,1092.0469 Q223.1563,1092.0469 223.75,1091.7813 Q224.3438,1091.5 224.9688,1090.9219 L224.9688,1093.6406 Z " fill="#000000"/><text fill="#000000" font-family="sans-serif" font-size="14" lengthAdjust="spacing" textLength="88" x="236" y="1092.8467">ProductPrice</text><line style="stroke:#181818;stroke-width:0.5;" x1="208" x2="326" y1="1104" y2="1104"/><rect fill="none" height="6" style="stroke:#C82930;stroke-width:1.0;" width="6" x="215" y="1114.6484"/><text fill="#000000" font-family="sans-serif" font-size="14" lengthAdjust="spacing" textLength="83" x="227" y="1120.9951">price: String</text><line style="stroke:#181818;stroke-width:0.5;" x1="208" x2="326" y1="1128.2969" y2="1128.2969"/></g><!--class OpeningHours--><g id="elem_OpeningHours"><rect codeLine="69" fill="#F1F1F1" height="64.2969" id="OpeningHours" rx="2.5" ry="2.5" style="stroke:#181818;stroke-width:0.5;" width="299" x="396.5" y="659.5"/><ellipse cx="491.75" cy="675.5" fill="#ADD1B2" rx="11" ry="11" style="stroke:#181818;stroke-width:1.0;"/><path d="M494.7188,681.1406 Q494.1406,681.4375 493.5,681.5781 Q492.8594,681.7344 492.1563,681.7344 Q489.6563,681.7344 488.3281,680.0938 Q487.0156,678.4375 487.0156,675.3125 Q487.0156,672.1875 488.3281,670.5313 Q489.6563,668.875 492.1563,668.875 Q492.8594,668.875 493.5,669.0313 Q494.1563,669.1875 494.7188,669.4844 L494.7188,672.2031 Q494.0938,671.625 493.5,671.3594 Q492.9063,671.0781 492.2813,671.0781 Q490.9375,671.0781 490.25,672.1563 Q489.5625,673.2188 489.5625,675.3125 Q489.5625,677.4063 490.25,678.4844 Q490.9375,679.5469 492.2813,679.5469 Q492.9063,679.5469 493.5,679.2813 Q494.0938,679 494.7188,678.4219 L494.7188,681.1406 Z " fill="#000000"/><text fill="#000000" font-family="sans-serif" font-size="14" lengthAdjust="spacing" textLength="100" x="512.25" y="680.3467">OpeningHours</text><line style="stroke:#181818;stroke-width:0.5;" x1="397.5" x2="694.5" y1="691.5" y2="691.5"/><rect fill="none" height="6" style="stroke:#C82930;stroke-width:1.0;" width="6" x="404.5" y="702.1484"/><text fill="#000000" font-family="sans-serif" font-size="14" lengthAdjust="spacing" textLength="273" x="416.5" y="708.4951">dayToHours: Map&lt;DayOfWeek, String&gt;</text><line style="stroke:#181818;stroke-width:0.5;" x1="397.5" x2="694.5" y1="715.7969" y2="715.7969"/></g><!--class DayOfWeek--><g id="elem_DayOfWeek"><rect codeLine="73" fill="#F1F1F1" height="162.0781" id="DayOfWeek" rx="2.5" ry="2.5" style="stroke:#181818;stroke-width:0.5;" width="112" x="490" y="833"/><ellipse cx="505" cy="849" fill="#EB937F" rx="11" ry="11" style="stroke:#181818;stroke-width:1.0;"/><path d="M509.1094,855 L501.3906,855 L501.3906,842.6094 L509.1094,842.6094 L509.1094,844.7656 L503.8438,844.7656 L503.8438,847.4375 L508.6094,847.4375 L508.6094,849.5938 L503.8438,849.5938 L503.8438,852.8438 L509.1094,852.8438 L509.1094,855 Z " fill="#000000"/><text fill="#000000" font-family="sans-serif" font-size="14" lengthAdjust="spacing" textLength="80" x="519" y="853.8467">DayOfWeek</text><line style="stroke:#181818;stroke-width:0.5;" x1="491" x2="601" y1="865" y2="865"/><text fill="#000000" font-family="sans-serif" font-size="14" lengthAdjust="spacing" textLength="62" x="496" y="881.9951">MONDAY</text><text fill="#000000" font-family="sans-serif" font-size="14" lengthAdjust="spacing" textLength="66" x="496" y="898.292">TUESDAY</text><text fill="#000000" font-family="sans-serif" font-size="14" lengthAdjust="spacing" textLength="90" x="496" y="914.5889">WEDNESDAY</text><text fill="#000000" font-family="sans-serif" font-size="14" lengthAdjust="spacing" textLength="77" x="496" y="930.8857">THURSDAY</text><text fill="#000000" font-family="sans-serif" font-size="14" lengthAdjust="spacing" textLength="50" x="496" y="947.1826">FRIDAY</text><text fill="#000000" font-family="sans-serif" font-size="14" lengthAdjust="spacing" textLength="76" x="496" y="963.4795">SATURDAY</text><text fill="#000000" font-family="sans-serif" font-size="14" lengthAdjust="spacing" textLength="58" x="496" y="979.7764">SUNDAY</text><line style="stroke:#181818;stroke-width:0.5;" x1="491" x2="601" y1="987.0781" y2="987.0781"/></g><!--class ContactInfo--><g id="elem_ContactInfo"><rect codeLine="88" fill="#F1F1F1" height="129.4844" id="ContactInfo" rx="2.5" ry="2.5" style="stroke:#181818;stroke-width:0.5;" width="178" x="731" y="627"/><ellipse cx="776.25" cy="643" fill="#ADD1B2" rx="11" ry="11" style="stroke:#181818;stroke-width:1.0;"/><path d="M779.2188,648.6406 Q778.6406,648.9375 778,649.0781 Q777.3594,649.2344 776.6563,649.2344 Q774.1563,649.2344 772.8281,647.5938 Q771.5156,645.9375 771.5156,642.8125 Q771.5156,639.6875 772.8281,638.0313 Q774.1563,636.375 776.6563,636.375 Q777.3594,636.375 778,636.5313 Q778.6563,636.6875 779.2188,636.9844 L779.2188,639.7031 Q778.5938,639.125 778,638.8594 Q777.4063,638.5781 776.7813,638.5781 Q775.4375,638.5781 774.75,639.6563 Q774.0625,640.7188 774.0625,642.8125 Q774.0625,644.9063 774.75,645.9844 Q775.4375,647.0469 776.7813,647.0469 Q777.4063,647.0469 778,646.7813 Q778.5938,646.5 779.2188,645.9219 L779.2188,648.6406 Z " fill="#000000"/><text fill="#000000" font-family="sans-serif" font-size="14" lengthAdjust="spacing" textLength="79" x="796.75" y="647.8467">ContactInfo</text><line style="stroke:#181818;stroke-width:0.5;" x1="732" x2="908" y1="659" y2="659"/><rect fill="none" height="6" style="stroke:#C82930;stroke-width:1.0;" width="6" x="739" y="669.6484"/><text fill="#000000" font-family="sans-serif" font-size="14" lengthAdjust="spacing" textLength="101" x="751" y="675.9951">phone: String?</text><rect fill="none" height="6" style="stroke:#C82930;stroke-width:1.0;" width="6" x="739" y="685.9453"/><text fill="#000000" font-family="sans-serif" font-size="14" lengthAdjust="spacing" textLength="92" x="751" y="692.292">email: String?</text><rect fill="none" height="6" style="stroke:#C82930;stroke-width:1.0;" width="6" x="739" y="702.2422"/><text fill="#000000" font-family="sans-serif" font-size="14" lengthAdjust="spacing" textLength="138" x="751" y="708.5889">website: MediaLink?</text><rect fill="none" height="6" style="stroke:#C82930;stroke-width:1.0;" width="6" x="739" y="718.5391"/><text fill="#000000" font-family="sans-serif" font-size="14" lengthAdjust="spacing" textLength="148" x="751" y="724.8857">facebook: MediaLink?</text><rect fill="none" height="6" style="stroke:#C82930;stroke-width:1.0;" width="6" x="739" y="734.8359"/><text fill="#000000" font-family="sans-serif" font-size="14" lengthAdjust="spacing" textLength="152" x="751" y="741.1826">instagram: MediaLink?</text><line style="stroke:#181818;stroke-width:0.5;" x1="732" x2="908" y1="748.4844" y2="748.4844"/></g><!--class MediaLink--><g id="elem_MediaLink"><rect codeLine="100" fill="#F1F1F1" height="80.5938" id="MediaLink" rx="2.5" ry="2.5" style="stroke:#181818;stroke-width:0.5;" width="100" x="770" y="873.5"/><ellipse cx="785" cy="889.5" fill="#ADD1B2" rx="11" ry="11" style="stroke:#181818;stroke-width:1.0;"/><path d="M787.9688,895.1406 Q787.3906,895.4375 786.75,895.5781 Q786.1094,895.7344 785.4063,895.7344 Q782.9063,895.7344 781.5781,894.0938 Q780.2656,892.4375 780.2656,889.3125 Q780.2656,886.1875 781.5781,884.5313 Q782.9063,882.875 785.4063,882.875 Q786.1094,882.875 786.75,883.0313 Q787.4063,883.1875 787.9688,883.4844 L787.9688,886.2031 Q787.3438,885.625 786.75,885.3594 Q786.1563,885.0781 785.5313,885.0781 Q784.1875,885.0781 783.5,886.1563 Q782.8125,887.2188 782.8125,889.3125 Q782.8125,891.4063 783.5,892.4844 Q784.1875,893.5469 785.5313,893.5469 Q786.1563,893.5469 786.75,893.2813 Q787.3438,893 787.9688,892.4219 L787.9688,895.1406 Z " fill="#000000"/><text fill="#000000" font-family="sans-serif" font-size="14" lengthAdjust="spacing" textLength="68" x="799" y="894.3467">MediaLink</text><line style="stroke:#181818;stroke-width:0.5;" x1="771" x2="869" y1="905.5" y2="905.5"/><rect fill="none" height="6" style="stroke:#C82930;stroke-width:1.0;" width="6" x="778" y="916.1484"/><text fill="#000000" font-family="sans-serif" font-size="14" lengthAdjust="spacing" textLength="74" x="790" y="922.4951">title: String</text><rect fill="none" height="6" style="stroke:#C82930;stroke-width:1.0;" width="6" x="778" y="932.4453"/><text fill="#000000" font-family="sans-serif" font-size="14" lengthAdjust="spacing" textLength="66" x="790" y="938.792">url: String</text><line style="stroke:#181818;stroke-width:0.5;" x1="771" x2="869" y1="946.0938" y2="946.0938"/></g><!--class Location--><g id="elem_Location"><rect codeLine="111" fill="#F1F1F1" height="96.8906" id="Location" rx="2.5" ry="2.5" style="stroke:#181818;stroke-width:0.5;" width="184" x="944" y="643"/><ellipse cx="1002.75" cy="659" fill="#ADD1B2" rx="11" ry="11" style="stroke:#181818;stroke-width:1.0;"/><path d="M1005.7188,664.6406 Q1005.1406,664.9375 1004.5,665.0781 Q1003.8594,665.2344 1003.1563,665.2344 Q1000.6563,665.2344 999.3281,663.5938 Q998.0156,661.9375 998.0156,658.8125 Q998.0156,655.6875 999.3281,654.0313 Q1000.6563,652.375 1003.1563,652.375 Q1003.8594,652.375 1004.5,652.5313 Q1005.1563,652.6875 1005.7188,652.9844 L1005.7188,655.7031 Q1005.0938,655.125 1004.5,654.8594 Q1003.9063,654.5781 1003.2813,654.5781 Q1001.9375,654.5781 1001.25,655.6563 Q1000.5625,656.7188 1000.5625,658.8125 Q1000.5625,660.9063 1001.25,661.9844 Q1001.9375,663.0469 1003.2813,663.0469 Q1003.9063,663.0469 1004.5,662.7813 Q1005.0938,662.5 1005.7188,661.9219 L1005.7188,664.6406 Z " fill="#000000"/><text fill="#000000" font-family="sans-serif" font-size="14" lengthAdjust="spacing" textLength="58" x="1023.25" y="663.8467">Location</text><line style="stroke:#181818;stroke-width:0.5;" x1="945" x2="1127" y1="675" y2="675"/><rect fill="none" height="6" style="stroke:#C82930;stroke-width:1.0;" width="6" x="952" y="685.6484"/><text fill="#000000" font-family="sans-serif" font-size="14" lengthAdjust="spacing" textLength="105" x="964" y="691.9951">address: String</text><rect fill="none" height="6" style="stroke:#C82930;stroke-width:1.0;" width="6" x="952" y="701.9453"/><text fill="#000000" font-family="sans-serif" font-size="14" lengthAdjust="spacing" textLength="144" x="964" y="708.292">latitude: BigDecimal?</text><rect fill="none" height="6" style="stroke:#C82930;stroke-width:1.0;" width="6" x="952" y="718.2422"/><text fill="#000000" font-family="sans-serif" font-size="14" lengthAdjust="spacing" textLength="158" x="964" y="724.5889">longitude: BigDecimal?</text><line style="stroke:#181818;stroke-width:0.5;" x1="945" x2="1127" y1="731.8906" y2="731.8906"/></g><!--class Review--><g id="elem_Review"><rect codeLine="121" fill="#F1F1F1" height="96.8906" id="Review" rx="2.5" ry="2.5" style="stroke:#181818;stroke-width:0.5;" width="148" x="1163" y="643"/><ellipse cx="1208.25" cy="659" fill="#ADD1B2" rx="11" ry="11" style="stroke:#181818;stroke-width:1.0;"/><path d="M1211.2188,664.6406 Q1210.6406,664.9375 1210,665.0781 Q1209.3594,665.2344 1208.6563,665.2344 Q1206.1563,665.2344 1204.8281,663.5938 Q1203.5156,661.9375 1203.5156,658.8125 Q1203.5156,655.6875 1204.8281,654.0313 Q1206.1563,652.375 1208.6563,652.375 Q1209.3594,652.375 1210,652.5313 Q1210.6563,652.6875 1211.2188,652.9844 L1211.2188,655.7031 Q1210.5938,655.125 1210,654.8594 Q1209.4063,654.5781 1208.7813,654.5781 Q1207.4375,654.5781 1206.75,655.6563 Q1206.0625,656.7188 1206.0625,658.8125 Q1206.0625,660.9063 1206.75,661.9844 Q1207.4375,663.0469 1208.7813,663.0469 Q1209.4063,663.0469 1210,662.7813 Q1210.5938,662.5 1211.2188,661.9219 L1211.2188,664.6406 Z " fill="#000000"/><text fill="#000000" font-family="sans-serif" font-size="14" lengthAdjust="spacing" textLength="49" x="1228.75" y="663.8467">Review</text><line style="stroke:#181818;stroke-width:0.5;" x1="1164" x2="1310" y1="675" y2="675"/><rect fill="none" height="6" style="stroke:#C82930;stroke-width:1.0;" width="6" x="1171" y="685.6484"/><text fill="#000000" font-family="sans-serif" font-size="14" lengthAdjust="spacing" textLength="72" x="1183" y="691.9951">user: User</text><rect fill="none" height="6" style="stroke:#C82930;stroke-width:1.0;" width="6" x="1171" y="701.9453"/><text fill="#000000" font-family="sans-serif" font-size="14" lengthAdjust="spacing" textLength="65" x="1183" y="708.292">rating: int</text><rect fill="none" height="6" style="stroke:#C82930;stroke-width:1.0;" width="6" x="1171" y="718.2422"/><text fill="#000000" font-family="sans-serif" font-size="14" lengthAdjust="spacing" textLength="122" x="1183" y="724.5889">comment: String?</text><line style="stroke:#181818;stroke-width:0.5;" x1="1164" x2="1310" y1="731.8906" y2="731.8906"/></g><!--class Image--><g id="elem_Image"><rect codeLine="131" fill="#F1F1F1" height="64.2969" id="Image" rx="2.5" ry="2.5" style="stroke:#181818;stroke-width:0.5;" width="92" x="766" y="23.5"/><ellipse cx="789.1" cy="39.5" fill="#ADD1B2" rx="11" ry="11" style="stroke:#181818;stroke-width:1.0;"/><path d="M792.0688,45.1406 Q791.4906,45.4375 790.85,45.5781 Q790.2094,45.7344 789.5063,45.7344 Q787.0063,45.7344 785.6781,44.0938 Q784.3656,42.4375 784.3656,39.3125 Q784.3656,36.1875 785.6781,34.5313 Q787.0063,32.875 789.5063,32.875 Q790.2094,32.875 790.85,33.0313 Q791.5063,33.1875 792.0688,33.4844 L792.0688,36.2031 Q791.4438,35.625 790.85,35.3594 Q790.2563,35.0781 789.6313,35.0781 Q788.2875,35.0781 787.6,36.1563 Q786.9125,37.2188 786.9125,39.3125 Q786.9125,41.4063 787.6,42.4844 Q788.2875,43.5469 789.6313,43.5469 Q790.2563,43.5469 790.85,43.2813 Q791.4438,43 792.0688,42.4219 L792.0688,45.1406 Z " fill="#000000"/><text fill="#000000" font-family="sans-serif" font-size="14" lengthAdjust="spacing" textLength="42" x="804.9" y="44.3467">Image</text><line style="stroke:#181818;stroke-width:0.5;" x1="767" x2="857" y1="55.5" y2="55.5"/><rect fill="none" height="6" style="stroke:#C82930;stroke-width:1.0;" width="6" x="774" y="66.1484"/><text fill="#000000" font-family="sans-serif" font-size="14" lengthAdjust="spacing" textLength="66" x="786" y="72.4951">url: String</text><line style="stroke:#181818;stroke-width:0.5;" x1="767" x2="857" y1="79.7969" y2="79.7969"/></g><!--reverse link User to UserContactInfo--><g id="link_User_UserContactInfo"><path codeLine="17" d="M611.7432,114.9719 C606.7332,124.6719 607.25,124.23 603,134 C596.47,149.01 590.34,165.95 585.34,180.83 " fill="none" id="User-backto-UserContactInfo" style="stroke:#181818;stroke-width:1.0;"/><polygon fill="#181818" points="617.25,104.31,610.9427,107.8053,611.7432,114.9719,618.0506,111.4765,617.25,104.31" style="stroke:#181818;stroke-width:1.0;"/><polygon fill="#000000" points="606.1394,147.2073,612.2331,139.9054,606.7774,137.7182,606.1394,147.2073" style="stroke:#000000;stroke-width:1.0;"/><text fill="#000000" font-family="sans-serif" font-size="13" lengthAdjust="spacing" textLength="71" x="617" y="147.0669">contactInfo</text><text fill="#000000" font-family="sans-serif" font-size="13" lengthAdjust="spacing" textLength="8" x="605.118" y="123.9598">1</text><text fill="#000000" font-family="sans-serif" font-size="13" lengthAdjust="spacing" textLength="8" x="578.7213" y="169.9634">1</text></g><!--link User to Shop--><g id="link_User_Shop"><path codeLine="35" d="M679.23,104.29 C684.71,113.73 689.66,123.87 693,134 C712.88,194.31 718.7138,252.9712 719.5138,310.7112 " fill="none" id="User-to-Shop" style="stroke:#181818;stroke-width:1.0;"/><polygon fill="none" points="719.68,322.71,723.5965,316.6552,719.5138,310.7112,715.5973,316.766,719.68,322.71" style="stroke:#181818;stroke-width:1.0;"/><polygon fill="#000000" points="721.0423,216.659,719.8903,226.0995,725.6593,224.9737,721.0423,216.659" style="stroke:#000000;stroke-width:1.0;"/><text fill="#000000" font-family="sans-serif" font-size="13" lengthAdjust="spacing" textLength="57" x="731" y="226.0669">ownedBy</text><text fill="#000000" font-family="sans-serif" font-size="13" lengthAdjust="spacing" textLength="8" x="675.4265" y="123.9371">1</text><text fill="#000000" font-family="sans-serif" font-size="13" lengthAdjust="spacing" textLength="23" x="696.2431" y="312.0025">0..*</text></g><!--reverse link Shop to ShopCategory--><g id="link_Shop_ShopCategory"><path codeLine="44" d="M558.3038,475.6742 C442.0038,507.0342 288.37,555.91 155,627 C142.51,633.66 129.93,642.15 118.47,650.75 " fill="none" id="Shop-backto-ShopCategory" style="stroke:#181818;stroke-width:1.0;"/><polygon fill="#181818" points="569.89,472.55,563.0555,470.25,558.3038,475.6742,565.1383,477.9742,569.89,472.55" style="stroke:#181818;stroke-width:1.0;"/><polygon fill="#000000" points="242.3545,590.4155,251.8452,589.801,249.6714,584.3399,242.3545,590.4155" style="stroke:#000000;stroke-width:1.0;"/><text fill="#000000" font-family="sans-serif" font-size="13" lengthAdjust="spacing" textLength="67" x="256" y="593.0669">categories</text><text fill="#000000" font-family="sans-serif" font-size="13" lengthAdjust="spacing" textLength="8" x="554.2015" y="471.0856">1</text><text fill="#000000" font-family="sans-serif" font-size="13" lengthAdjust="spacing" textLength="23" x="101.2619" y="639.8701">0..*</text></g><!--reverse link Shop to Menu--><g id="link_Shop_Menu"><path codeLine="63" d="M559.3764,525.1725 C500.1764,558.5425 441.52,591.64 379,627 C360.32,637.56 339.9,649.13 321.67,659.47 " fill="none" id="Shop-backto-Menu" style="stroke:#181818;stroke-width:1.0;"/><polygon fill="#181818" points="569.83,519.28,562.639,518.7417,559.3764,525.1725,566.5674,525.7108,569.83,519.28" style="stroke:#181818;stroke-width:1.0;"/><polygon fill="#000000" points="462.6467,591.0259,471.9675,589.1354,469.0762,584.0179,462.6467,591.0259" style="stroke:#000000;stroke-width:1.0;"/><text fill="#000000" font-family="sans-serif" font-size="13" lengthAdjust="spacing" textLength="37" x="476" y="593.0669">menu</text><text fill="#000000" font-family="sans-serif" font-size="13" lengthAdjust="spacing" textLength="8" x="554.1384" y="520.2251">1</text><text fill="#000000" font-family="sans-serif" font-size="13" lengthAdjust="spacing" textLength="8" x="324.1207" y="648.3669">1</text></g><!--reverse link Menu to MenuItem--><g id="link_Menu_MenuItem"><path codeLine="64" d="M267,735.62 C267,770.29 267,815.01 267,857.35 " fill="none" id="Menu-backto-MenuItem" style="stroke:#181818;stroke-width:1.0;"/><polygon fill="#181818" points="267,723.62,263,729.62,267,735.62,271,729.62,267,723.62" style="stroke:#181818;stroke-width:1.0;"/><polygon fill="#000000" points="272,799.5664,274.9389,790.5213,269.0611,790.5213,272,799.5664" style="stroke:#000000;stroke-width:1.0;"/><text fill="#000000" font-family="sans-serif" font-size="13" lengthAdjust="spacing" textLength="36" x="281" y="799.0669">items</text><text fill="#000000" font-family="sans-serif" font-size="13" lengthAdjust="spacing" textLength="8" x="258.175" y="743.8416">1</text><text fill="#000000" font-family="sans-serif" font-size="13" lengthAdjust="spacing" textLength="23" x="242.5984" y="846.5953">0..*</text></g><!--reverse link MenuItem to ProductPrice--><g id="link_MenuItem_ProductPrice"><path codeLine="65" d="M267,982.64 C267,1015.67 267,1044.31 267,1071.78 " fill="none" id="MenuItem-backto-ProductPrice" style="stroke:#181818;stroke-width:1.0;"/><polygon fill="#181818" points="267,970.64,263,976.64,267,982.64,271,976.64,267,970.64" style="stroke:#181818;stroke-width:1.0;"/><polygon fill="#000000" points="272,1038.5664,274.9389,1029.5213,269.0611,1029.5213,272,1038.5664" style="stroke:#000000;stroke-width:1.0;"/><text fill="#000000" font-family="sans-serif" font-size="13" lengthAdjust="spacing" textLength="80" x="281" y="1038.0669">productPrice</text><text fill="#000000" font-family="sans-serif" font-size="13" lengthAdjust="spacing" textLength="8" x="258.4875" y="990.9213">1</text><text fill="#000000" font-family="sans-serif" font-size="13" lengthAdjust="spacing" textLength="8" x="258.2125" y="1061.0109">1</text></g><!--reverse link Shop to OpeningHours--><g id="link_Shop_OpeningHours"><path codeLine="83" d="M632.9749,560.2888 C606.3049,600.2188 585.07,632.01 566.74,659.45 " fill="none" id="Shop-backto-OpeningHours" style="stroke:#181818;stroke-width:1.0;"/><polygon fill="#181818" points="639.64,550.31,632.9812,553.0777,632.9749,560.2888,639.6338,557.5211,639.64,550.31" style="stroke:#181818;stroke-width:1.0;"/><polygon fill="#000000" points="618.2228,592.7242,625.6907,586.8351,620.8029,583.5703,618.2228,592.7242" style="stroke:#000000;stroke-width:1.0;"/><text fill="#000000" font-family="sans-serif" font-size="13" lengthAdjust="spacing" textLength="89" x="630" y="593.0669">openingHours</text><text fill="#000000" font-family="sans-serif" font-size="13" lengthAdjust="spacing" textLength="8" x="626.556" y="570.1441">1</text><text fill="#000000" font-family="sans-serif" font-size="13" lengthAdjust="spacing" textLength="8" x="562.1926" y="648.3428">1</text></g><!--reverse link OpeningHours to DayOfWeek--><g id="link_OpeningHours_DayOfWeek"><path codeLine="84" d="M546,735.62 C546,763.88 546,794.79 546,832.62 " fill="none" id="OpeningHours-backto-DayOfWeek" style="stroke:#181818;stroke-width:1.0;"/><polygon fill="#181818" points="546,723.62,542,729.62,546,735.62,550,729.62,546,723.62" style="stroke:#181818;stroke-width:1.0;"/><polygon fill="#000000" points="551,799.5664,553.9389,790.5213,548.0611,790.5213,551,799.5664" style="stroke:#000000;stroke-width:1.0;"/><text fill="#000000" font-family="sans-serif" font-size="13" lengthAdjust="spacing" textLength="76" x="560" y="799.0669">dayToHours</text><text fill="#000000" font-family="sans-serif" font-size="13" lengthAdjust="spacing" textLength="8" x="537.175" y="743.8416">1</text><text fill="#000000" font-family="sans-serif" font-size="13" lengthAdjust="spacing" textLength="23" x="522.0117" y="822.0511">0..*</text></g><!--reverse link Shop to ContactInfo--><g id="link_Shop_ContactInfo"><path codeLine="96" d="M766.4192,561.3937 C777.2992,587.6137 783.91,603.55 793.56,626.78 " fill="none" id="Shop-backto-ContactInfo" style="stroke:#181818;stroke-width:1.0;"/><polygon fill="#181818" points="761.82,550.31,760.425,557.3849,766.4192,561.3937,767.8141,554.3188,761.82,550.31" style="stroke:#181818;stroke-width:1.0;"/><polygon fill="#000000" points="786.9168,593.1844,786.1636,583.7037,780.7349,585.9571,786.9168,593.1844" style="stroke:#000000;stroke-width:1.0;"/><text fill="#000000" font-family="sans-serif" font-size="13" lengthAdjust="spacing" textLength="71" x="794" y="593.0669">contactInfo</text><text fill="#000000" font-family="sans-serif" font-size="13" lengthAdjust="spacing" textLength="8" x="756.5632" y="570.1441">1</text><text fill="#000000" font-family="sans-serif" font-size="13" lengthAdjust="spacing" textLength="8" x="782.2306" y="615.9286">1</text></g><!--reverse link ContactInfo to MediaLink--><g id="link_ContactInfo_MediaLink"><path codeLine="105" d="M722.2829,757.9635 C711.4729,768.7435 710.47,772.47 704,786 C700.74,792.82 701.02,796.06 704,803 C717.54,834.49 745.01,861.2 769.82,880.41 " fill="none" id="ContactInfo-backto-MediaLink" style="stroke:#181818;stroke-width:1.0;"/><polygon fill="#181818" points="730.78,749.49,723.707,750.8944,722.2829,757.9635,729.356,756.5591,730.78,749.49" style="stroke:#181818;stroke-width:1.0;"/><polygon fill="#000000" points="710.8096,799.2275,710.2757,789.7319,704.7963,791.8592,710.8096,799.2275" style="stroke:#000000;stroke-width:1.0;"/><text fill="#000000" font-family="sans-serif" font-size="13" lengthAdjust="spacing" textLength="58" x="718" y="799.0669">facebook</text><text fill="#000000" font-family="sans-serif" font-size="13" lengthAdjust="spacing" textLength="8" x="715.0602" y="750.7235">1</text><text fill="#000000" font-family="sans-serif" font-size="13" lengthAdjust="spacing" textLength="24" x="737.8532" y="872.2468">0..1</text></g><!--reverse link ContactInfo to MediaLink--><g id="link_ContactInfo_MediaLink"><path codeLine="106" d="M817.3441,768.1153 C817.0641,778.1153 817.15,776.34 817,786 C816.53,815.22 817.35,848.21 818.25,873.25 " fill="none" id="ContactInfo-backto-MediaLink-1" style="stroke:#181818;stroke-width:1.0;"/><polygon fill="#181818" points="817.68,756.12,813.5136,762.0057,817.3441,768.1153,821.5105,762.2296,817.68,756.12" style="stroke:#181818;stroke-width:1.0;"/><polygon fill="#000000" points="822.0431,799.5662,824.904,790.4961,819.0263,790.5468,822.0431,799.5662" style="stroke:#000000;stroke-width:1.0;"/><text fill="#000000" font-family="sans-serif" font-size="13" lengthAdjust="spacing" textLength="65" x="831" y="799.0669">instagram</text><text fill="#000000" font-family="sans-serif" font-size="13" lengthAdjust="spacing" textLength="8" x="808.9492" y="776.5054">1</text><text fill="#000000" font-family="sans-serif" font-size="13" lengthAdjust="spacing" textLength="24" x="791.9727" y="862.3701">0..1</text></g><!--reverse link ContactInfo to MediaLink--><g id="link_ContactInfo_MediaLink"><path codeLine="107" d="M899.6842,766.4517 C908.4242,780.9217 906.38,786.62 901,803 C892.45,829.02 875.13,853.96 858.69,873.49 " fill="none" id="ContactInfo-backto-MediaLink-2" style="stroke:#181818;stroke-width:1.0;"/><polygon fill="#181818" points="893.48,756.18,893.1582,763.3839,899.6842,766.4517,900.006,759.2478,893.48,756.18" style="stroke:#181818;stroke-width:1.0;"/><polygon fill="#000000" points="907.2117,799.2357,913.1913,791.84,907.7022,789.7378,907.2117,799.2357" style="stroke:#000000;stroke-width:1.0;"/><text fill="#000000" font-family="sans-serif" font-size="13" lengthAdjust="spacing" textLength="48" x="918" y="799.0669">website</text><text fill="#000000" font-family="sans-serif" font-size="13" lengthAdjust="spacing" textLength="8" x="893.5136" y="776.5724">1</text><text fill="#000000" font-family="sans-serif" font-size="13" lengthAdjust="spacing" textLength="24" x="839.2773" y="862.3515">0..1</text></g><!--reverse link Shop to Location--><g id="link_Shop_Location"><path codeLine="117" d="M867.5547,557.738 C908.8547,590.288 942.27,616.63 975.57,642.87 " fill="none" id="Shop-backto-Location" style="stroke:#181818;stroke-width:1.0;"/><polygon fill="#181818" points="858.13,550.31,860.3664,557.1656,867.5547,557.738,865.3183,550.8824,858.13,550.31" style="stroke:#181818;stroke-width:1.0;"/><polygon fill="#000000" points="922.9269,591.6614,917.6422,583.7543,914.0038,588.3707,922.9269,591.6614" style="stroke:#000000;stroke-width:1.0;"/><text fill="#000000" font-family="sans-serif" font-size="13" lengthAdjust="spacing" textLength="50" x="928" y="593.0669">location</text><text fill="#000000" font-family="sans-serif" font-size="13" lengthAdjust="spacing" textLength="8" x="859.043" y="570.1441">1</text><text fill="#000000" font-family="sans-serif" font-size="13" lengthAdjust="spacing" textLength="8" x="958.5095" y="632.0606">1</text></g><!--reverse link Shop to Review--><g id="link_Shop_Review"><path codeLine="127" d="M871.2175,497.5367 C956.4575,532.1667 1054.06,575.36 1146,627 C1154.65,631.86 1163.5,637.33 1172.13,642.98 " fill="none" id="Shop-backto-Review" style="stroke:#181818;stroke-width:1.0;"/><polygon fill="#181818" points="860.1,493.02,864.1532,498.9842,871.2175,497.5367,867.1643,491.5725,860.1,493.02" style="stroke:#181818;stroke-width:1.0;"/><polygon fill="#000000" points="1099.5017,590.7423,1092.637,584.16,1090.0791,589.4521,1099.5017,590.7423" style="stroke:#000000;stroke-width:1.0;"/><text fill="#000000" font-family="sans-serif" font-size="13" lengthAdjust="spacing" textLength="47" x="1104" y="593.0669">reviews</text><text fill="#000000" font-family="sans-serif" font-size="13" lengthAdjust="spacing" textLength="8" x="867.788" y="492.6111">1</text><text fill="#000000" font-family="sans-serif" font-size="13" lengthAdjust="spacing" textLength="23" x="1137.9132" y="631.8367">0..*</text></g><!--SRC=[hLNVRzem47xdhx3OGwLghRPN2u4Aj2eI50H4rHwDOrABn8viPmXD-zztCRRpOr7NHij3uhjpxhxxVBxJ9ovoeaY63eIU4YKB4SzaAXNwycIVmO2cH6iKQQRGhm62vmxn6AETKLmaJY58nbggNCaZJzc6KrCeC2uoah39uFTWS8Fk_lsWcthacHI6KBCGHnb0v6zIXA0JfsGPuMcbX6WM-F3x4Ds2q_BRzeSHhKdZJ-FRlScymKmKBUOTl7Y8CTDKyTnmATecUHPCOOlGQJGudn734gauqnWjkJQZNQMyZ7tWabw_mNBjBHaJ1KOhU3j5AYcvHb-wbG-VCm5edcMXmDEw9haDDQ8mgd7ep8hzvEpiGMojD6wS0H0dqV3R_VtjyCeRjZd7qmiQzIBUqn0EeACIQLdF9Lxub6Xiu50H5PZW2oeYKDwZ84gggu8mBFECb8O5o9QJQc-fUW__EmMJAqvX-qR9kA1cKqe-hjWPIKyOJQLC6H5LoFhcwZ9T7RcuVv44NviLjjK4d5YfnM781L-pTjkigkwf0G2NZQ8IFyzslKn3EZ6vxAMhunN9HtDoMHzV6JjzTIdQ8m1m6Gecz_Dg_J9_-66N- -XnvzUlZ_ENIje_HziWF6qNVhbxs4VR84JMKnUP3T2uSV60WeQrHN855zUoxC5RtvPwLPxPGSCXbtqbvcJ9nSbRZeIoWvId3XCNsf04Xat3riNF_-pF8LH8qt2JjYzPeT9w-TS1r4_0NWJl3uTa0TO7_mWSVFmNntMFr7r_3vcJE5PCwrRkAMmoHGoKJ7aoPnHcIJe9mq8a7SQkGmlHS1WnFJ1VnqP0NEZMH5JWM2GbaIRqzmowacbC_QuUxpnZFwTwWBE3jSBMg9a_]--></g></svg>