<?xml version="1.0" encoding="us-ascii" standalone="no"?><svg xmlns="http://www.w3.org/2000/svg" xmlns:xlink="http://www.w3.org/1999/xlink" contentStyleType="text/css" height="1094px" preserveAspectRatio="none" style="width:1188px;height:1094px;background:#FFFFFF;" version="1.1" viewBox="0 0 1188 1094" width="1188px" zoomAndPan="magnify"><defs/><g><!--cluster App--><g id="cluster_App"><rect fill="none" height="1081" rx="2.5" ry="2.5" style="stroke:#181818;stroke-width:1.0;" width="968" x="214" y="7"/><text fill="#000000" font-family="sans-serif" font-size="14" font-weight="bold" lengthAdjust="spacing" textLength="31" x="682.5" y="21.9951">App</text></g><!--cluster Common Use Cases--><g id="cluster_Common Use Cases"><rect fill="none" height="277" rx="2.5" ry="2.5" style="stroke:#181818;stroke-width:1.0;" width="560" x="244.5" y="787"/><text fill="#000000" font-family="sans-serif" font-size="14" font-weight="bold" lengthAdjust="spacing" textLength="157" x="446" y="801.9951">Common Use Cases</text></g><!--cluster Customer Use Cases--><g id="cluster_Customer Use Cases"><rect fill="none" height="324" rx="2.5" ry="2.5" style="stroke:#181818;stroke-width:1.0;" width="920" x="238" y="50"/><text fill="#000000" font-family="sans-serif" font-size="14" font-weight="bold" lengthAdjust="spacing" textLength="165" x="615.5" y="64.9951">Customer Use Cases</text></g><!--cluster Seller Use Cases--><g id="cluster_Seller Use Cases"><rect fill="none" height="365" rx="2.5" ry="2.5" style="stroke:#181818;stroke-width:1.0;" width="577" x="238" y="398"/><text fill="#000000" font-family="sans-serif" font-size="14" font-weight="bold" lengthAdjust="spacing" textLength="133" x="460" y="412.9951">Seller Use Cases</text></g><g id="elem_LoginRegisterCustomer"><ellipse cx="340.1868" cy="838.9374" fill="#F1F1F1" rx="72.6868" ry="16.9374" style="stroke:#181818;stroke-width:0.5;"/><text fill="#000000" font-family="sans-serif" font-size="14" lengthAdjust="spacing" textLength="100" x="287.1868" y="842.6849">Login/Register</text></g><g id="elem_LogoutCustomer"><ellipse cx="340.2088" cy="915.7905" fill="#F1F1F1" rx="77.2088" ry="24.7905" style="stroke:#181818;stroke-width:0.5;"/><text fill="#000000" font-family="sans-serif" font-size="14" font-style="italic" lengthAdjust="spacing" textLength="111" x="284.7088" y="914.1223">&#171;requires login&#187;</text><text fill="#000000" font-family="sans-serif" font-size="14" lengthAdjust="spacing" textLength="48" x="316.2088" y="930.4192">Logout</text></g><g id="elem_EditProfile"><ellipse cx="340.2066" cy="1002.0239" fill="#F1F1F1" rx="79.7066" ry="25.5239" style="stroke:#181818;stroke-width:0.5;"/><text fill="#000000" font-family="sans-serif" font-size="14" font-style="italic" lengthAdjust="spacing" textLength="111" x="284.7066" y="999.2728">&#171;requires login&#187;</text><text fill="#000000" font-family="sans-serif" font-size="14" lengthAdjust="spacing" textLength="72" x="304.2066" y="1015.5697">Edit Profile</text></g><g id="elem_UpdateName"><ellipse cx="676.851" cy="1020.9472" fill="#F1F1F1" rx="82.851" ry="26.4472" style="stroke:#181818;stroke-width:0.5;"/><text fill="#000000" font-family="sans-serif" font-size="14" font-style="italic" lengthAdjust="spacing" textLength="111" x="621.351" y="1016.8863">&#171;requires login&#187;</text><text fill="#000000" font-family="sans-serif" font-size="14" lengthAdjust="spacing" textLength="94" x="629.851" y="1033.1832">Update Name</text></g><g id="elem_UpdateProfilePicture"><ellipse cx="676.9267" cy="934.0877" fill="#F1F1F1" rx="111.4267" ry="25.0877" style="stroke:#181818;stroke-width:0.5;"/><text fill="#000000" font-family="sans-serif" font-size="14" font-style="italic" lengthAdjust="spacing" textLength="111" x="614.057" y="928.889">&#171;requires login&#187;</text><text fill="#000000" font-family="sans-serif" font-size="14" lengthAdjust="spacing" textLength="148" x="595.557" y="945.1859">Update Profile Picture</text></g><g id="elem_UpdateContactInfo"><ellipse cx="677.0534" cy="847.8242" fill="#F1F1F1" rx="105.0534" ry="25.3242" style="stroke:#181818;stroke-width:0.5;"/><text fill="#000000" font-family="sans-serif" font-size="14" font-style="italic" lengthAdjust="spacing" textLength="111" x="614.3727" y="843.0038">&#171;requires login&#187;</text><text fill="#000000" font-family="sans-serif" font-size="14" lengthAdjust="spacing" textLength="137" x="601.3727" y="859.3007">Update Contact Info</text></g><g id="elem_BrowseShopsList"><ellipse cx="340.0656" cy="104.1131" fill="#F1F1F1" rx="83.5656" ry="19.1131" style="stroke:#181818;stroke-width:0.5;"/><text fill="#000000" font-family="sans-serif" font-size="14" lengthAdjust="spacing" textLength="127" x="276.1623" y="107.0974">Browse Shops List</text></g><g id="elem_BrowseShopsMap"><ellipse cx="340.1635" cy="178.1327" fill="#F1F1F1" rx="86.1635" ry="19.6327" style="stroke:#181818;stroke-width:0.5;"/><text fill="#000000" font-family="sans-serif" font-size="14" lengthAdjust="spacing" textLength="133" x="273.6635" y="180.9794">Browse Shops Map</text></g><g id="elem_ViewShopDetails"><ellipse cx="339.8658" cy="251.7732" fill="#F1F1F1" rx="81.8658" ry="18.7732" style="stroke:#181818;stroke-width:0.5;"/><text fill="#000000" font-family="sans-serif" font-size="14" lengthAdjust="spacing" textLength="123" x="277.3805" y="254.9463">View Shop Details</text></g><g id="elem_FilterShops"><ellipse cx="676.7655" cy="175.0531" fill="#F1F1F1" rx="65.7655" ry="15.5531" style="stroke:#181818;stroke-width:0.5;"/><text fill="#000000" font-family="sans-serif" font-size="14" lengthAdjust="spacing" textLength="81" x="633.2655" y="178.8007">Filter Shops</text></g><g id="elem_FilterByCategory"><ellipse cx="1035.9086" cy="252.0817" fill="#F1F1F1" rx="105.9086" ry="23.5817" style="stroke:#181818;stroke-width:0.5;"/><text fill="#000000" font-family="sans-serif" font-size="14" lengthAdjust="spacing" textLength="177" x="947.4086" y="254.9284">Filter by Product Category</text></g><g id="elem_FilterByDistance"><ellipse cx="1035.7839" cy="174.8568" fill="#F1F1F1" rx="79.7839" ry="18.3568" style="stroke:#181818;stroke-width:0.5;"/><text fill="#000000" font-family="sans-serif" font-size="14" lengthAdjust="spacing" textLength="118" x="975.0356" y="178.2613">Filter by Distance</text></g><g id="elem_FilterByRating"><ellipse cx="1036.0678" cy="104.0136" fill="#F1F1F1" rx="73.0678" ry="17.0136" style="stroke:#181818;stroke-width:0.5;"/><text fill="#000000" font-family="sans-serif" font-size="14" lengthAdjust="spacing" textLength="101" x="982.5678" y="107.7611">Filter by Rating</text></g><g id="elem_RateShop"><ellipse cx="340.2066" cy="332.0239" fill="#F1F1F1" rx="79.7066" ry="25.5239" style="stroke:#181818;stroke-width:0.5;"/><text fill="#000000" font-family="sans-serif" font-size="14" font-style="italic" lengthAdjust="spacing" textLength="111" x="284.7066" y="329.2728">&#171;requires login&#187;</text><text fill="#000000" font-family="sans-serif" font-size="14" lengthAdjust="spacing" textLength="72" x="304.2066" y="345.5697">Rate Shop</text></g><g id="elem_WriteReview"><ellipse cx="676.908" cy="323.1703" fill="#F1F1F1" rx="81.908" ry="26.1703" style="stroke:#181818;stroke-width:0.5;"/><text fill="#000000" font-family="sans-serif" font-size="14" font-style="italic" lengthAdjust="spacing" textLength="111" x="621.408" y="319.4967">&#171;requires login&#187;</text><text fill="#000000" font-family="sans-serif" font-size="14" lengthAdjust="spacing" textLength="88" x="632.908" y="335.7936">Write Review</text></g><g id="elem_ManageShops"><ellipse cx="339.9104" cy="633.9988" fill="#F1F1F1" rx="85.9104" ry="26.4988" style="stroke:#181818;stroke-width:0.5;"/><text fill="#000000" font-family="sans-serif" font-size="14" font-style="italic" lengthAdjust="spacing" textLength="111" x="283.4104" y="629.5979">&#171;requires login&#187;</text><text fill="#000000" font-family="sans-serif" font-size="14" lengthAdjust="spacing" textLength="103" x="287.4104" y="645.8948">Manage Shops</text></g><g id="elem_UpdateLocation"><ellipse cx="676.9335" cy="721.1136" fill="#F1F1F1" rx="90.9335" ry="26.1136" style="stroke:#181818;stroke-width:0.5;"/><text fill="#000000" font-family="sans-serif" font-size="14" font-style="italic" lengthAdjust="spacing" textLength="111" x="618.1835" y="716.7127">&#171;requires login&#187;</text><text fill="#000000" font-family="sans-serif" font-size="14" lengthAdjust="spacing" textLength="112" x="617.6835" y="733.0096">Update Location</text></g><g id="elem_UpdateOpeningHours"><ellipse cx="676.9713" cy="633.7943" fill="#F1F1F1" rx="114.4713" ry="25.2943" style="stroke:#181818;stroke-width:0.5;"/><text fill="#000000" font-family="sans-serif" font-size="14" font-style="italic" lengthAdjust="spacing" textLength="111" x="614.337" y="628.149">&#171;requires login&#187;</text><text fill="#000000" font-family="sans-serif" font-size="14" lengthAdjust="spacing" textLength="158" x="590.837" y="644.4459">Update Opening Hours</text></g><g id="elem_ManageShopProducts"><ellipse cx="677.0539" cy="547.9108" fill="#F1F1F1" rx="115.0539" ry="25.4108" style="stroke:#181818;stroke-width:0.5;"/><text fill="#000000" font-family="sans-serif" font-size="14" font-style="italic" lengthAdjust="spacing" textLength="111" x="614.536" y="542.1092">&#171;requires login&#187;</text><text fill="#000000" font-family="sans-serif" font-size="14" lengthAdjust="spacing" textLength="161" x="589.536" y="558.406">Manage Shop Products</text></g><g id="elem_ManageProductCategories"><ellipse cx="676.9265" cy="459.7853" fill="#F1F1F1" rx="121.9265" ry="26.7853" style="stroke:#181818;stroke-width:0.5;"/><text fill="#000000" font-family="sans-serif" font-size="14" font-style="italic" lengthAdjust="spacing" textLength="111" x="615.4383" y="452.2227">&#171;requires login&#187;</text><text fill="#000000" font-family="sans-serif" font-size="14" lengthAdjust="spacing" textLength="192" x="574.9383" y="468.5196">Manage Product Categories</text></g><!--entity User--><g id="elem_User"><ellipse cx="22" cy="809.5" fill="#F1F1F1" rx="8" ry="8" style="stroke:#181818;stroke-width:0.5;"/><path d="M22,817.5 L22,844.5 M9,825.5 L35,825.5 M22,844.5 L9,859.5 M22,844.5 L35,859.5 " fill="none" style="stroke:#181818;stroke-width:0.5;"/><text fill="#000000" font-family="sans-serif" font-size="14" lengthAdjust="spacing" textLength="32" x="6" y="873.9951">User</text></g><!--entity Customer--><g id="elem_Customer"><ellipse cx="133" cy="222.5" fill="#F1F1F1" rx="8" ry="8" style="stroke:#181818;stroke-width:0.5;"/><path d="M133,230.5 L133,257.5 M120,238.5 L146,238.5 M133,257.5 L120,272.5 M133,257.5 L146,272.5 " fill="none" style="stroke:#181818;stroke-width:0.5;"/><text fill="#000000" font-family="sans-serif" font-size="14" lengthAdjust="spacing" textLength="68" x="99" y="286.9951">Customer</text></g><!--entity Seller--><g id="elem_Seller"><ellipse cx="133" cy="665.5" fill="#F1F1F1" rx="8" ry="8" style="stroke:#181818;stroke-width:0.5;"/><path d="M133,673.5 L133,700.5 M120,681.5 L146,681.5 M133,700.5 L120,715.5 M133,700.5 L146,715.5 " fill="none" style="stroke:#181818;stroke-width:0.5;"/><text fill="#000000" font-family="sans-serif" font-size="14" lengthAdjust="spacing" textLength="38" x="114" y="729.9951">Seller</text></g><!--reverse link User to Customer--><g id="link_User_Customer"><path d="M33.3553,783.2423 C53.0453,677.1723 105.12,396.78 124.88,290.36 " fill="none" id="User-backto-Customer" style="stroke:#181818;stroke-width:1.0;"/><polygon fill="none" points="30.07,800.94,39.2545,784.3374,27.456,782.1473,30.07,800.94" style="stroke:#181818;stroke-width:1.0;"/></g><!--reverse link User to Seller--><g id="link_User_Seller"><path d="M49.0232,804.6276 C68.7932,778.5076 92.49,747.19 113.7,719.17 " fill="none" id="User-backto-Seller" style="stroke:#181818;stroke-width:1.0;"/><polygon fill="none" points="38.16,818.98,53.8073,808.2487,44.2391,801.0065,38.16,818.98" style="stroke:#181818;stroke-width:1.0;"/></g><!--link User to LoginRegisterCustomer--><g id="link_User_LoginRegisterCustomer"><path d="M38.24,839 C78.93,839 192.11,839 267.43,839 " fill="none" id="User-LoginRegisterCustomer" style="stroke:#181818;stroke-width:1.0;"/></g><!--link User to LogoutCustomer--><g id="link_User_LogoutCustomer"><path d="M38.24,842.71 C80.84,853.09 202.9,882.84 277.78,901.08 " fill="none" id="User-LogoutCustomer" style="stroke:#181818;stroke-width:1.0;"/></g><!--link User to EditProfile--><g id="link_User_EditProfile"><path d="M38.3,851.11 C68.71,874.67 139.52,927.17 206,959 C228.65,969.85 254.73,978.95 277.76,985.95 " fill="none" id="User-EditProfile" style="stroke:#181818;stroke-width:1.0;"/></g><!--reverse link EditProfile to UpdateName--><g id="link_EditProfile_UpdateName"><path d="M424.6904,1006.7493 C477.6504,1009.7493 541.62,1013.38 595.23,1016.42 " fill="none" id="EditProfile-backto-UpdateName" style="stroke:#181818;stroke-width:1.0;"/><polygon fill="#181818" points="418.7,1006.41,427.4594,1010.9126,423.692,1006.6928,427.9118,1002.9254,418.7,1006.41" style="stroke:#181818;stroke-width:1.0;"/><text fill="#000000" font-family="sans-serif" font-size="13" lengthAdjust="spacing" textLength="60" x="460.5" y="1004.0669">&#171;extend&#187;</text></g><!--reverse link EditProfile to UpdateProfilePicture--><g id="link_EditProfile_UpdateProfilePicture"><path d="M413.4702,987.2868 C466.9902,976.4268 536.55,962.31 593.83,950.68 " fill="none" id="EditProfile-backto-UpdateProfilePicture" style="stroke:#181818;stroke-width:1.0;"/><polygon fill="#181818" points="407.59,988.48,417.2057,990.6104,412.4901,987.4857,415.6148,982.7701,407.59,988.48" style="stroke:#181818;stroke-width:1.0;"/><text fill="#000000" font-family="sans-serif" font-size="13" lengthAdjust="spacing" textLength="60" x="460.5" y="961.0669">&#171;extend&#187;</text></g><!--reverse link EditProfile to UpdateContactInfo--><g id="link_EditProfile_UpdateContactInfo"><path d="M390.4685,978.0006 C403.7485,971.3106 412.91,966.43 426,959 C439.72,951.21 442.24,947.73 456,940 C498.8,915.94 509.79,910.14 555,891 C573.89,883 594.83,875.2 613.9,868.49 " fill="none" id="EditProfile-backto-UpdateContactInfo" style="stroke:#181818;stroke-width:1.0;"/><polygon fill="#181818" points="385.11,980.7,394.9473,980.2232,389.5754,978.4505,391.3481,973.0786,385.11,980.7" style="stroke:#181818;stroke-width:1.0;"/><text fill="#000000" font-family="sans-serif" font-size="13" lengthAdjust="spacing" textLength="60" x="460.5" y="900.0669">&#171;extend&#187;</text></g><!--link Customer to BrowseShopsList--><g id="link_Customer_BrowseShopsList"><path d="M150.03,213.88 C162.07,189.66 180.82,159.49 206,141 C224.06,127.74 246.67,119.23 268.1,113.77 " fill="none" id="Customer-BrowseShopsList" style="stroke:#181818;stroke-width:1.0;"/></g><!--link Customer to BrowseShopsMap--><g id="link_Customer_BrowseShopsMap"><path d="M167.04,233.23 C179.06,226.89 192.91,220.12 206,215 C229.43,205.83 256.02,197.96 279.23,191.86 " fill="none" id="Customer-BrowseShopsMap" style="stroke:#181818;stroke-width:1.0;"/></g><!--reverse link BrowseShopsList to FilterShops--><g id="link_BrowseShopsList_FilterShops"><path d="M407.5397,118.1036 C472.2997,131.8236 567.77,152.06 627.46,164.71 " fill="none" id="BrowseShopsList-backto-FilterShops" style="stroke:#181818;stroke-width:1.0;"/><polygon fill="#181818" points="401.67,116.86,409.6455,122.6385,406.5614,117.8963,411.3036,114.8122,401.67,116.86" style="stroke:#181818;stroke-width:1.0;"/><text fill="#000000" font-family="sans-serif" font-size="13" lengthAdjust="spacing" textLength="67" x="457" y="125.0669">&#171;extends&#187;</text></g><!--reverse link BrowseShopsMap to FilterShops--><g id="link_BrowseShopsMap_FilterShops"><path d="M431.9698,177.1857 C489.4398,176.6657 558.2,176.05 610.95,175.58 " fill="none" id="BrowseShopsMap-backto-FilterShops" style="stroke:#181818;stroke-width:1.0;"/><polygon fill="#181818" points="425.97,177.24,435.0058,181.1584,430.9698,177.1948,434.9334,173.1587,425.97,177.24" style="stroke:#181818;stroke-width:1.0;"/><text fill="#000000" font-family="sans-serif" font-size="13" lengthAdjust="spacing" textLength="67" x="457" y="173.0669">&#171;extends&#187;</text></g><!--reverse link FilterShops to FilterByCategory--><g id="link_FilterShops_FilterByCategory"><path d="M732.0151,186.6451 C791.8651,199.5551 888.86,220.48 959.3,235.67 " fill="none" id="FilterShops-backto-FilterByCategory" style="stroke:#181818;stroke-width:1.0;"/><polygon fill="#181818" points="726.15,185.38,734.1042,191.1878,731.0376,186.4343,735.7911,183.3676,726.15,185.38" style="stroke:#181818;stroke-width:1.0;"/><text fill="#000000" font-family="sans-serif" font-size="13" lengthAdjust="spacing" textLength="67" x="832" y="205.0669">&#171;extends&#187;</text></g><!--reverse link FilterShops to FilterByDistance--><g id="link_FilterShops_FilterByDistance"><path d="M749.06,175 C808.9,175 891.76,175 955.72,175 " fill="none" id="FilterShops-backto-FilterByDistance" style="stroke:#181818;stroke-width:1.0;"/><polygon fill="#181818" points="743.06,175,752.06,179,748.06,175,752.06,171,743.06,175" style="stroke:#181818;stroke-width:1.0;"/><text fill="#000000" font-family="sans-serif" font-size="13" lengthAdjust="spacing" textLength="67" x="832" y="171.0669">&#171;extends&#187;</text></g><!--reverse link FilterShops to FilterByRating--><g id="link_FilterShops_FilterByRating"><path d="M733.9048,163.88 C800.2948,150.68 911.26,128.61 980.05,114.93 " fill="none" id="FilterShops-backto-FilterByRating" style="stroke:#181818;stroke-width:1.0;"/><polygon fill="#181818" points="728.02,165.05,737.6272,167.2181,732.924,164.075,736.0672,159.3717,728.02,165.05" style="stroke:#181818;stroke-width:1.0;"/><text fill="#000000" font-family="sans-serif" font-size="13" lengthAdjust="spacing" textLength="67" x="832" y="128.0669">&#171;extends&#187;</text></g><!--link Customer to ViewShopDetails--><g id="link_Customer_ViewShopDetails"><path d="M167.39,252 C191.9,252 226.27,252 257.82,252 " fill="none" id="Customer-ViewShopDetails" style="stroke:#181818;stroke-width:1.0;"/></g><!--link Customer to RateShop--><g id="link_Customer_RateShop"><path d="M167.23,269.87 C179.27,276.01 193.08,282.67 206,288 C230.17,297.98 257.49,307.33 281.06,314.83 " fill="none" id="Customer-RateShop" style="stroke:#181818;stroke-width:1.0;"/></g><!--reverse link RateShop to WriteReview--><g id="link_RateShop_WriteReview"><path d="M425.5378,329.7287 C478.3378,328.3087 541.74,326.61 595.04,325.18 " fill="none" id="RateShop-backto-WriteReview" style="stroke:#181818;stroke-width:1.0;"/><polygon fill="#181818" points="419.54,329.89,428.6443,333.6466,424.5382,329.7556,428.4292,325.6495,419.54,329.89" style="stroke:#181818;stroke-width:1.0;"/><text fill="#000000" font-family="sans-serif" font-size="13" lengthAdjust="spacing" textLength="67" x="457" y="324.0669">&#171;extends&#187;</text></g><!--link Seller to ManageShops--><g id="link_Seller_ManageShops"><path d="M152.19,689.59 C180.02,681.31 234.45,665.11 277.42,652.33 " fill="none" id="Seller-ManageShops" style="stroke:#181818;stroke-width:1.0;"/></g><!--reverse link ManageShops to UpdateLocation--><g id="link_ManageShops_UpdateLocation"><path d="M412.1973,652.4882 C470.6473,667.6682 550.13,688.31 609.06,703.62 " fill="none" id="ManageShops-backto-UpdateLocation" style="stroke:#181818;stroke-width:1.0;"/><polygon fill="#181818" points="406.39,650.98,414.0955,657.1139,411.2295,652.2369,416.1065,649.3708,406.39,650.98" style="stroke:#181818;stroke-width:1.0;"/><text fill="#000000" font-family="sans-serif" font-size="13" lengthAdjust="spacing" textLength="60" x="460.5" y="661.0669">&#171;extend&#187;</text></g><!--reverse link ManageShops to UpdateOpeningHours--><g id="link_ManageShops_UpdateOpeningHours"><path d="M432.4,634 C473.69,634 517.83,634 562.3,634 " fill="none" id="ManageShops-backto-UpdateOpeningHours" style="stroke:#181818;stroke-width:1.0;"/><polygon fill="#181818" points="426.4,634,435.4,638,431.4,634,435.4,630,426.4,634" style="stroke:#181818;stroke-width:1.0;"/><text fill="#000000" font-family="sans-serif" font-size="13" lengthAdjust="spacing" textLength="60" x="460.5" y="630.0669">&#171;extend&#187;</text></g><!--reverse link ManageShops to ManageShopProducts--><g id="link_ManageShops_ManageShopProducts"><path d="M412.6016,615.6183 C468.4316,601.2883 542.71,582.22 601.02,567.25 " fill="none" id="ManageShops-backto-ManageShopProducts" style="stroke:#181818;stroke-width:1.0;"/><polygon fill="#181818" points="406.79,617.11,416.5019,618.7469,411.633,615.8669,414.513,610.9981,406.79,617.11" style="stroke:#181818;stroke-width:1.0;"/><text fill="#000000" font-family="sans-serif" font-size="13" lengthAdjust="spacing" textLength="60" x="460.5" y="585.0669">&#171;extend&#187;</text></g><!--reverse link ManageShops to ManageProductCategories--><g id="link_ManageShops_ManageProductCategories"><path d="M381.1688,606.5765 C422.6388,578.8665 489.27,536.49 555,505 C572.08,496.82 591.07,489.13 608.84,482.51 " fill="none" id="ManageShops-backto-ManageProductCategories" style="stroke:#181818;stroke-width:1.0;"/><polygon fill="#181818" points="376.18,609.91,385.8855,608.2356,380.3373,607.1321,381.4409,601.5839,376.18,609.91" style="stroke:#181818;stroke-width:1.0;"/><text fill="#000000" font-family="sans-serif" font-size="13" lengthAdjust="spacing" textLength="60" x="460.5" y="517.0669">&#171;extend&#187;</text></g><!--SRC=[bLLDRvmm4BtpAqRq7FLUhI8rf54h9MsqKTgp0rvY1MngcwQhDl-zuoymNbZeNXQ_cJSpVZEsrGlZ7P6aXITIljHIzBmgH2CalBknlwoX1mrQW6JriuQAILfg9dYMaLAZM_wegCo1A30V0InwfKNh3M4HZ0-qQRp9VMQPuSBkxyN5w3n2mSba9hnkAEGVkow7Fra64865Q5l1JHrG44MLzm3e5IqHWFnMr8o_tzEQAUqhi510XkGfI_GwUEDdS8FTJjAVFKgYe35nBYzTGbixLhuSFFA80YRbVggOXdif3goXDhq1_7enzy1-x2gYANmbhIExjLdESUUe8TKzAtKluoZUuWrRunM2Qvm1-C8F8WhcOOEkAXefu0mJIT0XskK7Z4P_QyehNy-yRxANZQouw8Jobivb69SpatabnIl-FpoB3gSCvyNgur0B6kmCvOvqAGEXAU4xew_M7Qwf9gnHbc5G0teigUk6DJYwBebrTu1Tpxi-7StSL3tskK2TQY6F4V7g6C0byZLkbF2IJaW1N2BjYMQydb0SbDIuDsDeYhUkPcNrM9lV7v8XRqz_eLQMQG6tNXpPeUquCtEDNB2Rjbbxmh6p5waVJPtozKwZh10i8pQFxcEJPf8iKKAB_eFYMZHNLwnDEg2fFNJH6iQMeYNkKbfLUaZT8tFkYDuHJceQ7GK7-6rjl8rlHKdCynbTVm7QUej-woWtidqMlLHH78zRU3LMj9bmNDDD1NXhhEJKCne7zCRHjgYORmIsBzBNcIQ23pVneD_9pJtlFz5fbJEZnqREwPPFtectx1y0]--></g></svg>