<?xml version="1.0" encoding="us-ascii" standalone="no"?><svg xmlns="http://www.w3.org/2000/svg" xmlns:xlink="http://www.w3.org/1999/xlink" contentStyleType="text/css" height="924px" preserveAspectRatio="none" style="width:1013px;height:924px;background:#FFFFFF;" version="1.1" viewBox="0 0 1013 924" width="1013px" zoomAndPan="magnify"><defs/><g><!--cluster App--><g id="cluster_App"><rect fill="none" height="911" rx="2.5" ry="2.5" style="stroke:#181818;stroke-width:1.0;" width="886" x="121" y="7"/><text fill="#000000" font-family="sans-serif" font-size="14" font-weight="bold" lengthAdjust="spacing" textLength="31" x="548.5" y="21.9951">App</text></g><!--cluster Customer Use Cases--><g id="cluster_Customer Use Cases"><rect fill="none" height="458" rx="2.5" ry="2.5" style="stroke:#181818;stroke-width:1.0;" width="838" x="145" y="50"/><text fill="#000000" font-family="sans-serif" font-size="14" font-weight="bold" lengthAdjust="spacing" textLength="165" x="481.5" y="64.9951">Customer Use Cases</text></g><!--cluster Seller Use Cases--><g id="cluster_Seller Use Cases"><rect fill="none" height="362" rx="2.5" ry="2.5" style="stroke:#181818;stroke-width:1.0;" width="563" x="145" y="532"/><text fill="#000000" font-family="sans-serif" font-size="14" font-weight="bold" lengthAdjust="spacing" textLength="133" x="360" y="546.9951">Seller Use Cases</text></g><g id="elem_BrowseShopsList"><ellipse cx="247.0656" cy="104.1131" fill="#F1F1F1" rx="83.5656" ry="19.1131" style="stroke:#181818;stroke-width:0.5;"/><text fill="#000000" font-family="sans-serif" font-size="14" lengthAdjust="spacing" textLength="127" x="183.1623" y="107.0974">Browse Shops List</text></g><g id="elem_BrowseShopsMap"><ellipse cx="247.1635" cy="178.1327" fill="#F1F1F1" rx="86.1635" ry="19.6327" style="stroke:#181818;stroke-width:0.5;"/><text fill="#000000" font-family="sans-serif" font-size="14" lengthAdjust="spacing" textLength="133" x="180.6635" y="180.9794">Browse Shops Map</text></g><g id="elem_ViewShopDetails"><ellipse cx="246.8658" cy="251.7732" fill="#F1F1F1" rx="81.8658" ry="18.7732" style="stroke:#181818;stroke-width:0.5;"/><text fill="#000000" font-family="sans-serif" font-size="14" lengthAdjust="spacing" textLength="123" x="184.3805" y="254.9463">View Shop Details</text></g><g id="elem_FilterShops"><ellipse cx="576.7655" cy="175.0531" fill="#F1F1F1" rx="65.7655" ry="15.5531" style="stroke:#181818;stroke-width:0.5;"/><text fill="#000000" font-family="sans-serif" font-size="14" lengthAdjust="spacing" textLength="81" x="533.2655" y="178.8007">Filter Shops</text></g><g id="elem_FilterByCategory"><ellipse cx="860.9086" cy="252.0817" fill="#F1F1F1" rx="105.9086" ry="23.5817" style="stroke:#181818;stroke-width:0.5;"/><text fill="#000000" font-family="sans-serif" font-size="14" lengthAdjust="spacing" textLength="177" x="772.4086" y="254.9284">Filter by Product Category</text></g><g id="elem_FilterByDistance"><ellipse cx="860.7839" cy="174.8568" fill="#F1F1F1" rx="79.7839" ry="18.3568" style="stroke:#181818;stroke-width:0.5;"/><text fill="#000000" font-family="sans-serif" font-size="14" lengthAdjust="spacing" textLength="118" x="800.0356" y="178.2613">Filter by Distance</text></g><g id="elem_FilterByRating"><ellipse cx="861.0678" cy="104.0136" fill="#F1F1F1" rx="73.0678" ry="17.0136" style="stroke:#181818;stroke-width:0.5;"/><text fill="#000000" font-family="sans-serif" font-size="14" lengthAdjust="spacing" textLength="101" x="807.5678" y="107.7611">Filter by Rating</text></g><g id="elem_RateShop"><ellipse cx="247.2066" cy="332.0239" fill="#F1F1F1" rx="79.7066" ry="25.5239" style="stroke:#181818;stroke-width:0.5;"/><text fill="#000000" font-family="sans-serif" font-size="14" font-style="italic" lengthAdjust="spacing" textLength="111" x="191.7066" y="329.2728">&#171;requires login&#187;</text><text fill="#000000" font-family="sans-serif" font-size="14" lengthAdjust="spacing" textLength="72" x="211.2066" y="345.5697">Rate Shop</text></g><g id="elem_WriteReview"><ellipse cx="576.908" cy="332.1703" fill="#F1F1F1" rx="81.908" ry="26.1703" style="stroke:#181818;stroke-width:0.5;"/><text fill="#000000" font-family="sans-serif" font-size="14" font-style="italic" lengthAdjust="spacing" textLength="111" x="521.408" y="328.4967">&#171;requires login&#187;</text><text fill="#000000" font-family="sans-serif" font-size="14" lengthAdjust="spacing" textLength="88" x="532.908" y="344.7936">Write Review</text></g><g id="elem_LoginRegisterCustomer"><ellipse cx="247.1868" cy="409.9374" fill="#F1F1F1" rx="72.6868" ry="16.9374" style="stroke:#181818;stroke-width:0.5;"/><text fill="#000000" font-family="sans-serif" font-size="14" lengthAdjust="spacing" textLength="100" x="194.1868" y="413.6849">Login/Register</text></g><g id="elem_LogoutCustomer"><ellipse cx="246.8836" cy="477.1478" fill="#F1F1F1" rx="45.8836" ry="14.6478" style="stroke:#181818;stroke-width:0.5;"/><text fill="#000000" font-family="sans-serif" font-size="14" lengthAdjust="spacing" textLength="48" x="219.8836" y="480.8954">Logout</text></g><g id="elem_ManageShops"><ellipse cx="246.9104" cy="697.9988" fill="#F1F1F1" rx="85.9104" ry="26.4988" style="stroke:#181818;stroke-width:0.5;"/><text fill="#000000" font-family="sans-serif" font-size="14" font-style="italic" lengthAdjust="spacing" textLength="111" x="190.4104" y="693.5979">&#171;requires login&#187;</text><text fill="#000000" font-family="sans-serif" font-size="14" lengthAdjust="spacing" textLength="103" x="194.4104" y="709.8948">Manage Shops</text></g><g id="elem_UpdateLocation"><ellipse cx="576.9335" cy="852.1136" fill="#F1F1F1" rx="90.9335" ry="26.1136" style="stroke:#181818;stroke-width:0.5;"/><text fill="#000000" font-family="sans-serif" font-size="14" font-style="italic" lengthAdjust="spacing" textLength="111" x="518.1835" y="847.7127">&#171;requires login&#187;</text><text fill="#000000" font-family="sans-serif" font-size="14" lengthAdjust="spacing" textLength="112" x="517.6835" y="864.0096">Update Location</text></g><g id="elem_UpdateContactInfo"><ellipse cx="577.0534" cy="764.8242" fill="#F1F1F1" rx="105.0534" ry="25.3242" style="stroke:#181818;stroke-width:0.5;"/><text fill="#000000" font-family="sans-serif" font-size="14" font-style="italic" lengthAdjust="spacing" textLength="111" x="514.3727" y="760.0038">&#171;requires login&#187;</text><text fill="#000000" font-family="sans-serif" font-size="14" lengthAdjust="spacing" textLength="137" x="501.3727" y="776.3007">Update Contact Info</text></g><g id="elem_UpdateOpeningHours"><ellipse cx="576.9713" cy="678.7943" fill="#F1F1F1" rx="114.4713" ry="25.2943" style="stroke:#181818;stroke-width:0.5;"/><text fill="#000000" font-family="sans-serif" font-size="14" font-style="italic" lengthAdjust="spacing" textLength="111" x="514.337" y="673.149">&#171;requires login&#187;</text><text fill="#000000" font-family="sans-serif" font-size="14" lengthAdjust="spacing" textLength="158" x="490.837" y="689.4459">Update Opening Hours</text></g><g id="elem_ManageShopProducts"><ellipse cx="577.0539" cy="592.9108" fill="#F1F1F1" rx="115.0539" ry="25.4108" style="stroke:#181818;stroke-width:0.5;"/><text fill="#000000" font-family="sans-serif" font-size="14" font-style="italic" lengthAdjust="spacing" textLength="111" x="514.536" y="587.1092">&#171;requires login&#187;</text><text fill="#000000" font-family="sans-serif" font-size="14" lengthAdjust="spacing" textLength="161" x="489.536" y="603.406">Manage Shop Products</text></g><g id="elem_LoginRegisterSeller"><ellipse cx="247.1868" cy="776.9374" fill="#F1F1F1" rx="72.6868" ry="16.9374" style="stroke:#181818;stroke-width:0.5;"/><text fill="#000000" font-family="sans-serif" font-size="14" lengthAdjust="spacing" textLength="100" x="194.1868" y="780.6849">Login/Register</text></g><g id="elem_LogoutSeller"><ellipse cx="246.8836" cy="844.1478" fill="#F1F1F1" rx="45.8836" ry="14.6478" style="stroke:#181818;stroke-width:0.5;"/><text fill="#000000" font-family="sans-serif" font-size="14" lengthAdjust="spacing" textLength="48" x="219.8836" y="847.8954">Logout</text></g><!--entity Customer--><g id="elem_Customer"><ellipse cx="40" cy="262.5" fill="#F1F1F1" rx="8" ry="8" style="stroke:#181818;stroke-width:0.5;"/><path d="M40,270.5 L40,297.5 M27,278.5 L53,278.5 M40,297.5 L27,312.5 M40,297.5 L53,312.5 " fill="none" style="stroke:#181818;stroke-width:0.5;"/><text fill="#000000" font-family="sans-serif" font-size="14" lengthAdjust="spacing" textLength="68" x="6" y="326.9951">Customer</text></g><!--entity Seller--><g id="elem_Seller"><ellipse cx="40" cy="747.5" fill="#F1F1F1" rx="8" ry="8" style="stroke:#181818;stroke-width:0.5;"/><path d="M40,755.5 L40,782.5 M27,763.5 L53,763.5 M40,782.5 L27,797.5 M40,782.5 L53,797.5 " fill="none" style="stroke:#181818;stroke-width:0.5;"/><text fill="#000000" font-family="sans-serif" font-size="14" lengthAdjust="spacing" textLength="38" x="21" y="811.9951">Seller</text></g><!--link Customer to BrowseShopsList--><g id="link_Customer_BrowseShopsList"><path d="M49.59,253.89 C59.28,219.52 78.42,170.05 113,141 C129.79,126.9 151.57,118.15 172.63,112.73 " fill="none" id="Customer-BrowseShopsList" style="stroke:#181818;stroke-width:1.0;"/></g><!--link Customer to BrowseShopsMap--><g id="link_Customer_BrowseShopsMap"><path d="M69.45,253.64 C81.5,239.71 96.57,224.96 113,215 C132.47,203.19 155.8,195.05 177.45,189.49 " fill="none" id="Customer-BrowseShopsMap" style="stroke:#181818;stroke-width:1.0;"/></g><!--reverse link BrowseShopsList to FilterShops--><g id="link_BrowseShopsList_FilterShops"><path d="M314.0242,118.2893 C377.2742,131.9793 469.67,151.98 527.94,164.6 " fill="none" id="BrowseShopsList-backto-FilterShops" style="stroke:#181818;stroke-width:1.0;"/><polygon fill="#181818" points="308.16,117.02,316.1101,122.8334,313.0468,118.0777,317.8025,115.0144,308.16,117.02" style="stroke:#181818;stroke-width:1.0;"/><text fill="#000000" font-family="sans-serif" font-size="13" lengthAdjust="spacing" textLength="67" x="364" y="125.0669">&#171;extends&#187;</text></g><!--reverse link BrowseShopsMap to FilterShops--><g id="link_BrowseShopsMap_FilterShops"><path d="M339.3197,177.1649 C394.8397,176.6549 460.13,176.06 511.05,175.59 " fill="none" id="BrowseShopsMap-backto-FilterShops" style="stroke:#181818;stroke-width:1.0;"/><polygon fill="#181818" points="333.32,177.22,342.3564,181.1372,338.3198,177.1741,342.2829,173.1375,333.32,177.22" style="stroke:#181818;stroke-width:1.0;"/><text fill="#000000" font-family="sans-serif" font-size="13" lengthAdjust="spacing" textLength="67" x="364" y="173.0669">&#171;extends&#187;</text></g><!--reverse link FilterShops to FilterByCategory--><g id="link_FilterShops_FilterByCategory"><path d="M638.194,191.4325 C684.034,203.9525 739.99,219.23 793.38,233.81 " fill="none" id="FilterShops-backto-FilterByCategory" style="stroke:#181818;stroke-width:1.0;"/><polygon fill="none" points="620.83,186.69,636.6132,197.2205,639.7748,185.6445,620.83,186.69" style="stroke:#181818;stroke-width:1.0;"/></g><!--reverse link FilterShops to FilterByDistance--><g id="link_FilterShops_FilterByDistance"><path d="M661.05,175 C702.12,175 737.45,175 780.95,175 " fill="none" id="FilterShops-backto-FilterByDistance" style="stroke:#181818;stroke-width:1.0;"/><polygon fill="none" points="643.05,175,661.05,181,661.05,169,643.05,175" style="stroke:#181818;stroke-width:1.0;"/></g><!--reverse link FilterShops to FilterByRating--><g id="link_FilterShops_FilterByRating"><path d="M640.1355,159.3563 C691.3855,146.4563 757.71,129.75 810.79,116.39 " fill="none" id="FilterShops-backto-FilterByRating" style="stroke:#181818;stroke-width:1.0;"/><polygon fill="none" points="622.68,163.75,641.6001,165.1748,638.671,153.5378,622.68,163.75" style="stroke:#181818;stroke-width:1.0;"/></g><!--link Customer to ViewShopDetails--><g id="link_Customer_ViewShopDetails"><path d="M74.39,285.48 C103.89,279.73 147.68,271.18 183.65,264.17 " fill="none" id="Customer-ViewShopDetails" style="stroke:#181818;stroke-width:1.0;"/></g><!--link Customer to RateShop--><g id="link_Customer_RateShop"><path d="M74.39,298.52 C102.53,304.01 143.67,312.03 178.62,318.85 " fill="none" id="Customer-RateShop" style="stroke:#181818;stroke-width:1.0;"/></g><!--reverse link RateShop to WriteReview--><g id="link_RateShop_WriteReview"><path d="M332.56,332 C383.45,332 443.56,332 494.94,332 " fill="none" id="RateShop-backto-WriteReview" style="stroke:#181818;stroke-width:1.0;"/><polygon fill="#181818" points="326.56,332,335.56,336,331.56,332,335.56,328,326.56,332" style="stroke:#181818;stroke-width:1.0;"/><text fill="#000000" font-family="sans-serif" font-size="13" lengthAdjust="spacing" textLength="67" x="364" y="328.0669">&#171;extends&#187;</text></g><!--link Customer to LoginRegisterCustomer--><g id="link_Customer_LoginRegisterCustomer"><path d="M66.17,330.1 C78.53,346.1 94.7,363.61 113,375 C134.18,388.19 160.23,396.44 183.65,401.59 " fill="none" id="Customer-LoginRegisterCustomer" style="stroke:#181818;stroke-width:1.0;"/></g><!--link Customer to LogoutCustomer--><g id="link_Customer_LogoutCustomer"><path d="M49.24,330.25 C58.72,365.02 77.75,415.15 113,444 C137.67,464.19 172.96,472.28 200.98,475.41 " fill="none" id="Customer-LogoutCustomer" style="stroke:#181818;stroke-width:1.0;"/></g><!--link Seller to ManageShops--><g id="link_Seller_ManageShops"><path d="M59.04,767.4 C73.43,759.95 94.2,749.64 113,742 C136.1,732.61 162.02,723.69 184.8,716.36 " fill="none" id="Seller-ManageShops" style="stroke:#181818;stroke-width:1.0;"/></g><!--reverse link ManageShops to UpdateLocation--><g id="link_ManageShops_UpdateLocation"><path d="M307.8591,728.9673 C367.9491,760.0373 453.46,804.17 462,808 C480.58,816.33 501.26,824.6 519.85,831.69 " fill="none" id="ManageShops-backto-UpdateLocation" style="stroke:#181818;stroke-width:1.0;"/><polygon fill="none" points="291.87,720.7,305.1034,734.297,310.6149,723.6376,291.87,720.7" style="stroke:#181818;stroke-width:1.0;"/></g><!--reverse link ManageShops to UpdateContactInfo--><g id="link_ManageShops_UpdateContactInfo"><path d="M336.806,716.1417 C388.906,726.7817 442,737.63 496.04,748.67 " fill="none" id="ManageShops-backto-UpdateContactInfo" style="stroke:#181818;stroke-width:1.0;"/><polygon fill="none" points="319.17,712.54,335.6054,722.0203,338.0065,710.263,319.17,712.54" style="stroke:#181818;stroke-width:1.0;"/></g><!--reverse link ManageShops to UpdateOpeningHours--><g id="link_ManageShops_UpdateOpeningHours"><path d="M349.5897,692.1162 C390.3897,689.7462 422.05,687.92 465.9,685.38 " fill="none" id="ManageShops-backto-UpdateOpeningHours" style="stroke:#181818;stroke-width:1.0;"/><polygon fill="none" points="331.62,693.16,349.9377,698.1061,349.2418,686.1263,331.62,693.16" style="stroke:#181818;stroke-width:1.0;"/></g><!--reverse link ManageShops to ManageShopProducts--><g id="link_ManageShops_ManageShopProducts"><path d="M324.543,673.502 C381.863,655.152 451.3,632.92 510.57,613.94 " fill="none" id="ManageShops-backto-ManageShopProducts" style="stroke:#181818;stroke-width:1.0;"/><polygon fill="none" points="307.4,678.99,326.3723,679.2163,322.7136,667.7877,307.4,678.99" style="stroke:#181818;stroke-width:1.0;"/></g><!--link Seller to LoginRegisterSeller--><g id="link_Seller_LoginRegisterSeller"><path d="M59.19,777 C84.87,777 133.18,777 174.24,777 " fill="none" id="Seller-LoginRegisterSeller" style="stroke:#181818;stroke-width:1.0;"/></g><!--link Seller to LogoutSeller--><g id="link_Seller_LogoutSeller"><path d="M59.22,786.84 C73.53,794.26 94.12,804.27 113,811 C144.04,822.06 180.42,830.81 207.28,836.51 " fill="none" id="Seller-LogoutSeller" style="stroke:#181818;stroke-width:1.0;"/></g><!--SRC=[bLN1RjmW4BtxAqRkEUgzMaLgDefQQQDM6wKz4viuA0wuW9kkslnxXm4S86QttSkQD- -DXpS3Dez2Jaop9xXZtUEWrIpxhHgLXdTNz6j6Vc_1Aj1YUB3G2yqxAvHi6jPPfBNRsLZrn7KBp41SnE0D7ySGyezDu_HC3YE7zkCqjV2xQG0ICAQ0MyDXommtWGCm6zuX0Es5Li_uV_EW9WCxOIozmQC4Eko8v9fDfGAXNF1Dy6UYmoMtJ8o650vrOC2Akgx4QB5oIaXq3z1wdNftWAzQzNDdSQ-M3qeV4k758O8ryILkbCcEPw88raHxPeKSCec7YXeHz8uHrQt8Zyr6ynyp3eA1KGr2df_dikzQe6xFVw9Nf2J0hzV4f5xQVdQssiXAtBMDueK6DiXBt8SF-6R-otBPcr1ldkM4W1HfUFDduHTTghAojbHPQIVIJPUJLyPZUoZmsYkCfFQlx6hfsyxru_sU3rXdEBG4HMGvtALApJQoyN6XlIcndgrWfLa0NeeRmjya-VsGbNJD91juSWmz4Cok3E2YlfrwD_SxrJ5tqL42ZqNev0a8ARPAMhm8uREyLqcQ03lqNpDzcRZ4gO1FQjOcIHLmWa_cIco9bqvfJuIhBWNliKs9fpwKcUmcEZVj62Tnv1WjtUqwx-rE_dF6mrVg-8J7JrbkI2rFndXLkxb-QVu2]--></g></svg>