<?xml version="1.0" encoding="us-ascii" standalone="no"?><svg xmlns="http://www.w3.org/2000/svg" xmlns:xlink="http://www.w3.org/1999/xlink" contentStyleType="text/css" height="1139px" preserveAspectRatio="none" style="width:1174px;height:1139px;background:#FFFFFF;" version="1.1" viewBox="0 0 1174 1139" width="1174px" zoomAndPan="magnify"><defs/><g><!--cluster App--><g id="cluster_App"><rect fill="none" height="1126" rx="2.5" ry="2.5" style="stroke:#181818;stroke-width:1.0;" width="954" x="214" y="7"/><text fill="#000000" font-family="sans-serif" font-size="14" font-weight="bold" lengthAdjust="spacing" textLength="31" x="675.5" y="21.9951">App</text></g><!--cluster Common Use Cases--><g id="cluster_Common Use Cases"><rect fill="none" height="150" rx="2.5" ry="2.5" style="stroke:#181818;stroke-width:1.0;" width="177" x="251.5" y="959"/><text fill="#000000" font-family="sans-serif" font-size="14" font-weight="bold" lengthAdjust="spacing" textLength="157" x="261.5" y="973.9951">Common Use Cases</text></g><!--cluster Customer Use Cases--><g id="cluster_Customer Use Cases"><rect fill="none" height="324" rx="2.5" ry="2.5" style="stroke:#181818;stroke-width:1.0;" width="906" x="238" y="50"/><text fill="#000000" font-family="sans-serif" font-size="14" font-weight="bold" lengthAdjust="spacing" textLength="165" x="608.5" y="64.9951">Customer Use Cases</text></g><!--cluster Seller Use Cases--><g id="cluster_Seller Use Cases"><rect fill="none" height="537" rx="2.5" ry="2.5" style="stroke:#181818;stroke-width:1.0;" width="563" x="238" y="398"/><text fill="#000000" font-family="sans-serif" font-size="14" font-weight="bold" lengthAdjust="spacing" textLength="133" x="453" y="412.9951">Seller Use Cases</text></g><g id="elem_LoginRegisterCustomer"><ellipse cx="340.1868" cy="1010.9374" fill="#F1F1F1" rx="72.6868" ry="16.9374" style="stroke:#181818;stroke-width:0.5;"/><text fill="#000000" font-family="sans-serif" font-size="14" lengthAdjust="spacing" textLength="100" x="287.1868" y="1014.6849">Login/Register</text></g><g id="elem_LogoutCustomer"><ellipse cx="339.8836" cy="1078.1478" fill="#F1F1F1" rx="45.8836" ry="14.6478" style="stroke:#181818;stroke-width:0.5;"/><text fill="#000000" font-family="sans-serif" font-size="14" lengthAdjust="spacing" textLength="48" x="312.8836" y="1081.8954">Logout</text></g><g id="elem_BrowseShopsList"><ellipse cx="340.0656" cy="104.1131" fill="#F1F1F1" rx="83.5656" ry="19.1131" style="stroke:#181818;stroke-width:0.5;"/><text fill="#000000" font-family="sans-serif" font-size="14" lengthAdjust="spacing" textLength="127" x="276.1623" y="107.0974">Browse Shops List</text></g><g id="elem_BrowseShopsMap"><ellipse cx="340.1635" cy="178.1327" fill="#F1F1F1" rx="86.1635" ry="19.6327" style="stroke:#181818;stroke-width:0.5;"/><text fill="#000000" font-family="sans-serif" font-size="14" lengthAdjust="spacing" textLength="133" x="273.6635" y="180.9794">Browse Shops Map</text></g><g id="elem_ViewShopDetails"><ellipse cx="339.8658" cy="251.7732" fill="#F1F1F1" rx="81.8658" ry="18.7732" style="stroke:#181818;stroke-width:0.5;"/><text fill="#000000" font-family="sans-serif" font-size="14" lengthAdjust="spacing" textLength="123" x="277.3805" y="254.9463">View Shop Details</text></g><g id="elem_FilterShops"><ellipse cx="669.7655" cy="175.0531" fill="#F1F1F1" rx="65.7655" ry="15.5531" style="stroke:#181818;stroke-width:0.5;"/><text fill="#000000" font-family="sans-serif" font-size="14" lengthAdjust="spacing" textLength="81" x="626.2655" y="178.8007">Filter Shops</text></g><g id="elem_FilterByCategory"><ellipse cx="1021.9086" cy="252.0817" fill="#F1F1F1" rx="105.9086" ry="23.5817" style="stroke:#181818;stroke-width:0.5;"/><text fill="#000000" font-family="sans-serif" font-size="14" lengthAdjust="spacing" textLength="177" x="933.4086" y="254.9284">Filter by Product Category</text></g><g id="elem_FilterByDistance"><ellipse cx="1021.7839" cy="174.8568" fill="#F1F1F1" rx="79.7839" ry="18.3568" style="stroke:#181818;stroke-width:0.5;"/><text fill="#000000" font-family="sans-serif" font-size="14" lengthAdjust="spacing" textLength="118" x="961.0356" y="178.2613">Filter by Distance</text></g><g id="elem_FilterByRating"><ellipse cx="1022.0678" cy="104.0136" fill="#F1F1F1" rx="73.0678" ry="17.0136" style="stroke:#181818;stroke-width:0.5;"/><text fill="#000000" font-family="sans-serif" font-size="14" lengthAdjust="spacing" textLength="101" x="968.5678" y="107.7611">Filter by Rating</text></g><g id="elem_RateShop"><ellipse cx="340.2066" cy="332.0239" fill="#F1F1F1" rx="79.7066" ry="25.5239" style="stroke:#181818;stroke-width:0.5;"/><text fill="#000000" font-family="sans-serif" font-size="14" font-style="italic" lengthAdjust="spacing" textLength="111" x="284.7066" y="329.2728">&#171;requires login&#187;</text><text fill="#000000" font-family="sans-serif" font-size="14" lengthAdjust="spacing" textLength="72" x="304.2066" y="345.5697">Rate Shop</text></g><g id="elem_WriteReview"><ellipse cx="669.908" cy="323.1703" fill="#F1F1F1" rx="81.908" ry="26.1703" style="stroke:#181818;stroke-width:0.5;"/><text fill="#000000" font-family="sans-serif" font-size="14" font-style="italic" lengthAdjust="spacing" textLength="111" x="614.408" y="319.4967">&#171;requires login&#187;</text><text fill="#000000" font-family="sans-serif" font-size="14" lengthAdjust="spacing" textLength="88" x="625.908" y="335.7936">Write Review</text></g><g id="elem_ManageShops"><ellipse cx="339.9104" cy="588.9988" fill="#F1F1F1" rx="85.9104" ry="26.4988" style="stroke:#181818;stroke-width:0.5;"/><text fill="#000000" font-family="sans-serif" font-size="14" font-style="italic" lengthAdjust="spacing" textLength="111" x="283.4104" y="584.5979">&#171;requires login&#187;</text><text fill="#000000" font-family="sans-serif" font-size="14" lengthAdjust="spacing" textLength="103" x="287.4104" y="600.8948">Manage Shops</text></g><g id="elem_UpdateLocation"><ellipse cx="669.9335" cy="632.1136" fill="#F1F1F1" rx="90.9335" ry="26.1136" style="stroke:#181818;stroke-width:0.5;"/><text fill="#000000" font-family="sans-serif" font-size="14" font-style="italic" lengthAdjust="spacing" textLength="111" x="611.1835" y="627.7127">&#171;requires login&#187;</text><text fill="#000000" font-family="sans-serif" font-size="14" lengthAdjust="spacing" textLength="112" x="610.6835" y="644.0096">Update Location</text></g><g id="elem_UpdateOpeningHours"><ellipse cx="669.9713" cy="544.7943" fill="#F1F1F1" rx="114.4713" ry="25.2943" style="stroke:#181818;stroke-width:0.5;"/><text fill="#000000" font-family="sans-serif" font-size="14" font-style="italic" lengthAdjust="spacing" textLength="111" x="607.337" y="539.149">&#171;requires login&#187;</text><text fill="#000000" font-family="sans-serif" font-size="14" lengthAdjust="spacing" textLength="158" x="583.837" y="555.4459">Update Opening Hours</text></g><g id="elem_ManageShopProducts"><ellipse cx="670.0539" cy="458.9108" fill="#F1F1F1" rx="115.0539" ry="25.4108" style="stroke:#181818;stroke-width:0.5;"/><text fill="#000000" font-family="sans-serif" font-size="14" font-style="italic" lengthAdjust="spacing" textLength="111" x="607.536" y="453.1092">&#171;requires login&#187;</text><text fill="#000000" font-family="sans-serif" font-size="14" lengthAdjust="spacing" textLength="161" x="582.536" y="469.406">Manage Shop Products</text></g><g id="elem_EditProfile"><ellipse cx="340.2066" cy="805.0239" fill="#F1F1F1" rx="79.7066" ry="25.5239" style="stroke:#181818;stroke-width:0.5;"/><text fill="#000000" font-family="sans-serif" font-size="14" font-style="italic" lengthAdjust="spacing" textLength="111" x="284.7066" y="802.2728">&#171;requires login&#187;</text><text fill="#000000" font-family="sans-serif" font-size="14" lengthAdjust="spacing" textLength="72" x="304.2066" y="818.5697">Edit Profile</text></g><g id="elem_UpdateName"><ellipse cx="669.851" cy="891.9472" fill="#F1F1F1" rx="82.851" ry="26.4472" style="stroke:#181818;stroke-width:0.5;"/><text fill="#000000" font-family="sans-serif" font-size="14" font-style="italic" lengthAdjust="spacing" textLength="111" x="614.351" y="887.8863">&#171;requires login&#187;</text><text fill="#000000" font-family="sans-serif" font-size="14" lengthAdjust="spacing" textLength="94" x="622.851" y="904.1832">Update Name</text></g><g id="elem_UpdateProfilePicture"><ellipse cx="669.9267" cy="805.0877" fill="#F1F1F1" rx="111.4267" ry="25.0877" style="stroke:#181818;stroke-width:0.5;"/><text fill="#000000" font-family="sans-serif" font-size="14" font-style="italic" lengthAdjust="spacing" textLength="111" x="607.057" y="799.889">&#171;requires login&#187;</text><text fill="#000000" font-family="sans-serif" font-size="14" lengthAdjust="spacing" textLength="148" x="588.557" y="816.1859">Update Profile Picture</text></g><g id="elem_UpdateContactInfo"><ellipse cx="670.0534" cy="718.8242" fill="#F1F1F1" rx="105.0534" ry="25.3242" style="stroke:#181818;stroke-width:0.5;"/><text fill="#000000" font-family="sans-serif" font-size="14" font-style="italic" lengthAdjust="spacing" textLength="111" x="607.3727" y="714.0038">&#171;requires login&#187;</text><text fill="#000000" font-family="sans-serif" font-size="14" lengthAdjust="spacing" textLength="137" x="594.3727" y="730.3007">Update Contact Info</text></g><!--entity User--><g id="elem_User"><ellipse cx="22" cy="874.5" fill="#F1F1F1" rx="8" ry="8" style="stroke:#181818;stroke-width:0.5;"/><path d="M22,882.5 L22,909.5 M9,890.5 L35,890.5 M22,909.5 L9,924.5 M22,909.5 L35,924.5 " fill="none" style="stroke:#181818;stroke-width:0.5;"/><text fill="#000000" font-family="sans-serif" font-size="14" lengthAdjust="spacing" textLength="32" x="6" y="938.9951">User</text></g><!--entity Customer--><g id="elem_Customer"><ellipse cx="133" cy="222.5" fill="#F1F1F1" rx="8" ry="8" style="stroke:#181818;stroke-width:0.5;"/><path d="M133,230.5 L133,257.5 M120,238.5 L146,238.5 M133,257.5 L120,272.5 M133,257.5 L146,272.5 " fill="none" style="stroke:#181818;stroke-width:0.5;"/><text fill="#000000" font-family="sans-serif" font-size="14" lengthAdjust="spacing" textLength="68" x="99" y="286.9951">Customer</text></g><!--entity Seller--><g id="elem_Seller"><ellipse cx="133" cy="775.5" fill="#F1F1F1" rx="8" ry="8" style="stroke:#181818;stroke-width:0.5;"/><path d="M133,783.5 L133,810.5 M120,791.5 L146,791.5 M133,810.5 L120,825.5 M133,810.5 L146,825.5 " fill="none" style="stroke:#181818;stroke-width:0.5;"/><text fill="#000000" font-family="sans-serif" font-size="14" lengthAdjust="spacing" textLength="38" x="114" y="839.9951">Seller</text></g><!--reverse link User to Customer--><g id="link_User_Customer"><path d="M32.3786,847.8965 C51.7086,732.2965 106.28,405.84 125.6,290.3 " fill="none" id="User-backto-Customer" style="stroke:#181818;stroke-width:1.0;"/><polygon fill="none" points="29.41,865.65,38.2965,848.886,26.4608,846.9069,29.41,865.65" style="stroke:#181818;stroke-width:1.0;"/></g><!--reverse link User to Seller--><g id="link_User_Seller"><path d="M51.4865,878.1303 C71.2565,860.1803 92.49,840.88 113.7,821.62 " fill="none" id="User-backto-Seller" style="stroke:#181818;stroke-width:1.0;"/><polygon fill="none" points="38.16,890.23,55.5198,882.5725,47.4533,873.6881,38.16,890.23" style="stroke:#181818;stroke-width:1.0;"/></g><!--link User to LoginRegisterCustomer--><g id="link_User_LoginRegisterCustomer"><path d="M38.24,909.16 C84.9,924.96 226.94,973.06 297.84,997.06 " fill="none" id="User-LoginRegisterCustomer" style="stroke:#181818;stroke-width:1.0;"/></g><!--link User to LogoutCustomer--><g id="link_User_LogoutCustomer"><path d="M38.08,919.46 C67.56,948.74 136.05,1012.38 206,1046 C234.79,1059.84 270.04,1067.97 297.02,1072.57 " fill="none" id="User-LogoutCustomer" style="stroke:#181818;stroke-width:1.0;"/></g><!--link Customer to BrowseShopsList--><g id="link_Customer_BrowseShopsList"><path d="M150.03,213.88 C162.07,189.66 180.82,159.49 206,141 C224.06,127.74 246.67,119.23 268.1,113.77 " fill="none" id="Customer-BrowseShopsList" style="stroke:#181818;stroke-width:1.0;"/></g><!--link Customer to BrowseShopsMap--><g id="link_Customer_BrowseShopsMap"><path d="M167.04,233.23 C179.06,226.89 192.91,220.12 206,215 C229.43,205.83 256.02,197.96 279.23,191.86 " fill="none" id="Customer-BrowseShopsMap" style="stroke:#181818;stroke-width:1.0;"/></g><!--reverse link BrowseShopsList to FilterShops--><g id="link_BrowseShopsList_FilterShops"><path d="M407.0242,118.2893 C470.2742,131.9793 562.67,151.98 620.94,164.6 " fill="none" id="BrowseShopsList-backto-FilterShops" style="stroke:#181818;stroke-width:1.0;"/><polygon fill="#181818" points="401.16,117.02,409.1101,122.8334,406.0468,118.0777,410.8025,115.0144,401.16,117.02" style="stroke:#181818;stroke-width:1.0;"/><text fill="#000000" font-family="sans-serif" font-size="13" lengthAdjust="spacing" textLength="67" x="457" y="125.0669">&#171;extends&#187;</text></g><!--reverse link BrowseShopsMap to FilterShops--><g id="link_BrowseShopsMap_FilterShops"><path d="M432.3197,177.1649 C487.8397,176.6549 553.13,176.06 604.05,175.59 " fill="none" id="BrowseShopsMap-backto-FilterShops" style="stroke:#181818;stroke-width:1.0;"/><polygon fill="#181818" points="426.32,177.22,435.3564,181.1372,431.3198,177.1741,435.2829,173.1375,426.32,177.22" style="stroke:#181818;stroke-width:1.0;"/><text fill="#000000" font-family="sans-serif" font-size="13" lengthAdjust="spacing" textLength="67" x="457" y="173.0669">&#171;extends&#187;</text></g><!--reverse link FilterShops to FilterByCategory--><g id="link_FilterShops_FilterByCategory"><path d="M724.7899,186.839 C783.3899,199.729 877.37,220.4 946.13,235.53 " fill="none" id="FilterShops-backto-FilterByCategory" style="stroke:#181818;stroke-width:1.0;"/><polygon fill="#181818" points="718.93,185.55,726.8605,191.3901,723.8133,186.6241,728.5792,183.5769,718.93,185.55" style="stroke:#181818;stroke-width:1.0;"/><text fill="#000000" font-family="sans-serif" font-size="13" lengthAdjust="spacing" textLength="67" x="818" y="205.0669">&#171;extends&#187;</text></g><!--reverse link FilterShops to FilterByDistance--><g id="link_FilterShops_FilterByDistance"><path d="M742.01,175 C800.23,175 879.76,175 941.93,175 " fill="none" id="FilterShops-backto-FilterByDistance" style="stroke:#181818;stroke-width:1.0;"/><polygon fill="#181818" points="736.01,175,745.01,179,741.01,175,745.01,171,736.01,175" style="stroke:#181818;stroke-width:1.0;"/><text fill="#000000" font-family="sans-serif" font-size="13" lengthAdjust="spacing" textLength="67" x="818" y="171.0669">&#171;extends&#187;</text></g><!--reverse link FilterShops to FilterByRating--><g id="link_FilterShops_FilterByRating"><path d="M726.2802,163.7871 C791.2002,150.6171 898.97,128.76 966.38,115.08 " fill="none" id="FilterShops-backto-FilterByRating" style="stroke:#181818;stroke-width:1.0;"/><polygon fill="#181818" points="720.4,164.98,730.0156,167.1108,725.3002,163.9859,728.4251,159.2705,720.4,164.98" style="stroke:#181818;stroke-width:1.0;"/><text fill="#000000" font-family="sans-serif" font-size="13" lengthAdjust="spacing" textLength="67" x="818" y="130.0669">&#171;extends&#187;</text></g><!--link Customer to ViewShopDetails--><g id="link_Customer_ViewShopDetails"><path d="M167.39,252 C191.9,252 226.27,252 257.82,252 " fill="none" id="Customer-ViewShopDetails" style="stroke:#181818;stroke-width:1.0;"/></g><!--link Customer to RateShop--><g id="link_Customer_RateShop"><path d="M167.23,269.87 C179.27,276.01 193.08,282.67 206,288 C230.17,297.98 257.49,307.33 281.06,314.83 " fill="none" id="Customer-RateShop" style="stroke:#181818;stroke-width:1.0;"/></g><!--reverse link RateShop to WriteReview--><g id="link_RateShop_WriteReview"><path d="M425.5578,329.6765 C476.5478,328.2865 536.81,326.63 588.23,325.22 " fill="none" id="RateShop-backto-WriteReview" style="stroke:#181818;stroke-width:1.0;"/><polygon fill="#181818" points="419.56,329.84,428.6657,333.5933,424.5581,329.7037,428.4477,325.5962,419.56,329.84" style="stroke:#181818;stroke-width:1.0;"/><text fill="#000000" font-family="sans-serif" font-size="13" lengthAdjust="spacing" textLength="67" x="457" y="323.0669">&#171;extends&#187;</text></g><!--link Seller to ManageShops--><g id="link_Seller_ManageShops"><path d="M152.19,785.83 C189.23,746.8 273.4,658.12 314.92,614.37 " fill="none" id="Seller-ManageShops" style="stroke:#181818;stroke-width:1.0;"/></g><!--reverse link ManageShops to UpdateLocation--><g id="link_ManageShops_UpdateLocation"><path d="M415.3597,605.8552 C430.6097,608.9552 440.87,610.75 456,613 C496.86,619.06 542.43,623.45 580.9,626.46 " fill="none" id="ManageShops-backto-UpdateLocation" style="stroke:#181818;stroke-width:1.0;"/><polygon fill="#181818" points="409.48,604.66,417.5028,610.3727,414.3798,605.656,419.0964,602.533,409.48,604.66" style="stroke:#181818;stroke-width:1.0;"/><text fill="#000000" font-family="sans-serif" font-size="13" lengthAdjust="spacing" textLength="60" x="460.5" y="609.0669">&#171;extend&#187;</text></g><!--reverse link ManageShops to UpdateOpeningHours--><g id="link_ManageShops_UpdateOpeningHours"><path d="M425.0966,577.7216 C470.7566,571.5916 522.85,564.61 571.49,558.08 " fill="none" id="ManageShops-backto-UpdateOpeningHours" style="stroke:#181818;stroke-width:1.0;"/><polygon fill="#181818" points="419.15,578.52,428.6022,581.2869,424.1055,577.8547,427.5377,573.358,419.15,578.52" style="stroke:#181818;stroke-width:1.0;"/><text fill="#000000" font-family="sans-serif" font-size="13" lengthAdjust="spacing" textLength="60" x="460.5" y="561.0669">&#171;extend&#187;</text></g><!--reverse link ManageShops to ManageShopProducts--><g id="link_ManageShops_ManageShopProducts"><path d="M395.8832,565.1325 C416.1432,556.4325 434.37,548.75 456,540 C499.69,522.32 510.95,518.76 555,502 C573.09,495.12 592.81,487.66 610.69,480.92 " fill="none" id="ManageShops-backto-ManageShopProducts" style="stroke:#181818;stroke-width:1.0;"/><polygon fill="#181818" points="390.37,567.5,400.2181,567.6243,394.9643,565.5271,397.0615,560.2734,390.37,567.5" style="stroke:#181818;stroke-width:1.0;"/><text fill="#000000" font-family="sans-serif" font-size="13" lengthAdjust="spacing" textLength="60" x="460.5" y="510.0669">&#171;extend&#187;</text></g><!--link Seller to EditProfile--><g id="link_Seller_EditProfile"><path d="M152.19,805 C176.4,805 220.72,805 260.12,805 " fill="none" id="Seller-EditProfile" style="stroke:#181818;stroke-width:1.0;"/></g><!--reverse link EditProfile to UpdateName--><g id="link_EditProfile_UpdateName"><path d="M407.7294,822.6984 C465.7094,838.0784 546.81,859.59 605.6,875.18 " fill="none" id="EditProfile-backto-UpdateName" style="stroke:#181818;stroke-width:1.0;"/><polygon fill="#181818" points="401.93,821.16,409.6036,827.3339,406.7629,822.442,411.6547,819.6013,401.93,821.16" style="stroke:#181818;stroke-width:1.0;"/><text fill="#000000" font-family="sans-serif" font-size="13" lengthAdjust="spacing" textLength="60" x="460.5" y="832.0669">&#171;extend&#187;</text></g><!--reverse link EditProfile to UpdateProfilePicture--><g id="link_EditProfile_UpdateProfilePicture"><path d="M425.56,805 C467.07,805 512.7,805 558.21,805 " fill="none" id="EditProfile-backto-UpdateProfilePicture" style="stroke:#181818;stroke-width:1.0;"/><polygon fill="#181818" points="419.56,805,428.56,809,424.56,805,428.56,801,419.56,805" style="stroke:#181818;stroke-width:1.0;"/><text fill="#000000" font-family="sans-serif" font-size="13" lengthAdjust="spacing" textLength="60" x="460.5" y="801.0669">&#171;extend&#187;</text></g><!--reverse link EditProfile to UpdateContactInfo--><g id="link_EditProfile_UpdateContactInfo"><path d="M408.1138,787.3982 C463.6438,772.8382 539.66,752.91 598.01,737.61 " fill="none" id="EditProfile-backto-UpdateContactInfo" style="stroke:#181818;stroke-width:1.0;"/><polygon fill="#181818" points="402.31,788.92,412.0302,790.5066,407.1465,787.6519,410.0012,782.7681,402.31,788.92" style="stroke:#181818;stroke-width:1.0;"/><text fill="#000000" font-family="sans-serif" font-size="13" lengthAdjust="spacing" textLength="60" x="460.5" y="753.0669">&#171;extend&#187;</text></g><!--SRC=[bLLTRzCm57tFhxWApnFlg9h4EYQGDfWw3PwznCsifNQm7KO5_UzSNzkDuoLDwKlZSy-vtqxCYv0Tqsm7JwnwQRJgPRrMhTBmxeP-HSkt5gm2BPfd2xNGlB92oQ9WbKLQ-MYuBe4PS0yHNFV6gbqmn4CqFl2s3IR_M1HE2wk_5nS3UO0YoKLcicavb1-xheG_HG6GW6krsodfye0rCzm41a1lU8K0bBUg4VBzXZV2s901GH4v1izLghUHZOz76l4eKKnptbF2IDK0Xxo2O3fLmvLMh_Z_yAmwp0U3KM8U9T1X9oHthCiL28q5tmL_9JfSSyj4QqZXK0S6BClhHhHOjmz2T0_GUPhwj8TxhUg-ibYhvOtI-qHujO_WdFWQ2sMouYDH1ET46sQ5R4OI3sKv8kWxHbHtedwiLfh_xF4I66ZTl2ylnx8VMg1kmtzXhqX9W3zFYKbz73lkoDGWP-nkR6JFDB12Nj9z-82H-M_BPMr2lcCl2m9IfEQ1FWnf8iYS98xeFoH-H5DvfRt95pItnocIOHWfMj8fvLdbbzI_ZavTqJicMSEJg-21KDRC4XpLZrtjTkzMLSozQFsxbR08BMvXSF6juzArxRFgjKdy19pWHLz9CV6wvaL5UBcsJxMmpijMjFxQEY2Sp-xCLxRZIJNkU6v7OgXxKTbUfrw29HZEzRTMqk9N3Rx8hKgS1TYXirM5DSBbIxR3cqRhWeHi-iE2Xgoc-QCfBsecfZdIP3adS_EcqI2FET1itiIUvcOJE5ELjZgJ78f3yGy0]--></g></svg>