<?xml version="1.0" encoding="us-ascii" standalone="no"?><svg xmlns="http://www.w3.org/2000/svg" xmlns:xlink="http://www.w3.org/1999/xlink" contentStyleType="text/css" height="1239px" preserveAspectRatio="none" style="width:1439px;height:1239px;background:#FFFFFF;" version="1.1" viewBox="0 0 1439 1239" width="1439px" zoomAndPan="magnify"><defs/><g><!--cluster App--><g id="cluster_App"><rect fill="none" height="1226" rx="2.5" ry="2.5" style="stroke:#181818;stroke-width:1.0;" width="1192" x="241" y="7"/><text fill="#000000" font-family="sans-serif" font-size="18" font-weight="bold" lengthAdjust="spacing" textLength="40" x="817" y="25.708">App</text></g><!--cluster Common Use Cases--><g id="cluster_Common Use Cases"><rect fill="none" height="319" rx="2.5" ry="2.5" style="stroke:#181818;stroke-width:1.0;" width="697.5" x="269.5" y="890"/><text fill="#000000" font-family="sans-serif" font-size="18" font-weight="bold" lengthAdjust="spacing" textLength="196" x="520.25" y="908.708">Common Use Cases</text></g><!--cluster Customer Use Cases--><g id="cluster_Customer Use Cases"><rect fill="none" height="368" rx="2.5" ry="2.5" style="stroke:#181818;stroke-width:1.0;" width="1144" x="265" y="54"/><text fill="#000000" font-family="sans-serif" font-size="18" font-weight="bold" lengthAdjust="spacing" textLength="207" x="733.5" y="72.708">Customer Use Cases</text></g><!--cluster Seller Use Cases--><g id="cluster_Seller Use Cases"><rect fill="none" height="420" rx="2.5" ry="2.5" style="stroke:#181818;stroke-width:1.0;" width="713" x="265" y="446"/><text fill="#000000" font-family="sans-serif" font-size="18" font-weight="bold" lengthAdjust="spacing" textLength="168" x="537.5" y="464.708">Seller Use Cases</text></g><g id="elem_LoginRegisterCustomer"><ellipse cx="388.9374" cy="949.8875" fill="#F1F1F1" rx="92.4374" ry="20.8875" style="stroke:#181818;stroke-width:0.5;"/><text fill="#000000" font-family="sans-serif" font-size="18" lengthAdjust="spacing" textLength="128" x="321.9374" y="955.4915">Login/Register</text></g><g id="elem_LogoutCustomer"><ellipse cx="389.0719" cy="1037.0546" fill="#F1F1F1" rx="100.0719" ry="31.0546" style="stroke:#181818;stroke-width:0.5;"/><text fill="#000000" font-family="sans-serif" font-size="18" font-style="italic" lengthAdjust="spacing" textLength="145" x="316.5719" y="1035.8522">&#171;requires login&#187;</text><text fill="#000000" font-family="sans-serif" font-size="18" lengthAdjust="spacing" textLength="61" x="358.5719" y="1056.8054">Logout</text></g><g id="elem_EditProfile"><ellipse cx="389.1748" cy="1135.0959" fill="#F1F1F1" rx="103.6748" ry="32.0959" style="stroke:#181818;stroke-width:0.5;"/><text fill="#000000" font-family="sans-serif" font-size="18" font-style="italic" lengthAdjust="spacing" textLength="145" x="316.6748" y="1132.3615">&#171;requires login&#187;</text><text fill="#000000" font-family="sans-serif" font-size="18" lengthAdjust="spacing" textLength="97" x="340.6748" y="1153.3146">Edit Profile</text></g><g id="elem_UpdateName"><ellipse cx="806.6452" cy="1160.0989" fill="#F1F1F1" rx="107.1452" ry="33.0989" style="stroke:#181818;stroke-width:0.5;"/><text fill="#000000" font-family="sans-serif" font-size="18" font-style="italic" lengthAdjust="spacing" textLength="145" x="734.1452" y="1155.9439">&#171;requires login&#187;</text><text fill="#000000" font-family="sans-serif" font-size="18" lengthAdjust="spacing" textLength="122" x="745.6452" y="1176.8971">Update Name</text></g><g id="elem_UpdateProfilePicture"><ellipse cx="806.2845" cy="1060.1024" fill="#F1F1F1" rx="144.2845" ry="31.6024" style="stroke:#181818;stroke-width:0.5;"/><text fill="#000000" font-family="sans-serif" font-size="18" font-style="italic" lengthAdjust="spacing" textLength="145" x="724.1162" y="1054.2878">&#171;requires login&#187;</text><text fill="#000000" font-family="sans-serif" font-size="18" lengthAdjust="spacing" textLength="195" x="699.1162" y="1075.2409">Update Profile Picture</text></g><g id="elem_UpdateContactInfo"><ellipse cx="806.4019" cy="960.9819" fill="#F1F1F1" rx="134.4019" ry="31.9819" style="stroke:#181818;stroke-width:0.5;"/><text fill="#000000" font-family="sans-serif" font-size="18" font-style="italic" lengthAdjust="spacing" textLength="145" x="724.584" y="955.7568">&#171;requires login&#187;</text><text fill="#000000" font-family="sans-serif" font-size="18" lengthAdjust="spacing" textLength="178" x="708.084" y="976.7099">Update Contact Info</text></g><g id="elem_BrowseShopsList"><ellipse cx="388.9757" cy="116.8951" fill="#F1F1F1" rx="104.9757" ry="23.3951" style="stroke:#181818;stroke-width:0.5;"/><text fill="#000000" font-family="sans-serif" font-size="18" lengthAdjust="spacing" textLength="160" x="305.9757" y="122.4991">Browse Shops List</text></g><g id="elem_BrowseShopsMap"><ellipse cx="388.8441" cy="199.9688" fill="#F1F1F1" rx="107.8441" ry="23.9688" style="stroke:#181818;stroke-width:0.5;"/><text fill="#000000" font-family="sans-serif" font-size="18" lengthAdjust="spacing" textLength="167" x="302.3441" y="205.5728">Browse Shops Map</text></g><g id="elem_ViewShopDetails"><ellipse cx="388.9757" cy="282.8951" fill="#F1F1F1" rx="104.9757" ry="23.3951" style="stroke:#181818;stroke-width:0.5;"/><text fill="#000000" font-family="sans-serif" font-size="18" lengthAdjust="spacing" textLength="160" x="305.9757" y="288.4991">View Shop Details</text></g><g id="elem_FilterShops"><ellipse cx="806.3396" cy="197.1679" fill="#F1F1F1" rx="83.8396" ry="19.1679" style="stroke:#181818;stroke-width:0.5;"/><text fill="#000000" font-family="sans-serif" font-size="18" lengthAdjust="spacing" textLength="104" x="751.3396" y="202.7719">Filter Shops</text></g><g id="elem_FilterByCategory"><ellipse cx="1255.7362" cy="284.9472" fill="#F1F1F1" rx="137.7362" ry="29.9472" style="stroke:#181818;stroke-width:0.5;"/><text fill="#000000" font-family="sans-serif" font-size="18" lengthAdjust="spacing" textLength="236" x="1135.4712" y="290.251">Filter by Product Category</text></g><g id="elem_FilterByDistance"><ellipse cx="1255.4514" cy="196.9903" fill="#F1F1F1" rx="102.9514" ry="22.9903" style="stroke:#181818;stroke-width:0.5;"/><text fill="#000000" font-family="sans-serif" font-size="18" lengthAdjust="spacing" textLength="155" x="1174.9514" y="202.5943">Filter by Distance</text></g><g id="elem_FilterByRating"><ellipse cx="1255.3563" cy="117.0713" fill="#F1F1F1" rx="95.8563" ry="21.5713" style="stroke:#181818;stroke-width:0.5;"/><text fill="#000000" font-family="sans-serif" font-size="18" lengthAdjust="spacing" textLength="137" x="1183.8563" y="122.6753">Filter by Rating</text></g><g id="elem_RateShop"><ellipse cx="388.9635" cy="373.8903" fill="#F1F1F1" rx="102.9635" ry="31.8903" style="stroke:#181818;stroke-width:0.5;"/><text fill="#000000" font-family="sans-serif" font-size="18" font-style="italic" lengthAdjust="spacing" textLength="145" x="316.4635" y="371.4533">&#171;requires login&#187;</text><text fill="#000000" font-family="sans-serif" font-size="18" lengthAdjust="spacing" textLength="91" x="343.4635" y="392.4064">Rate Shop</text></g><g id="elem_WriteReview"><ellipse cx="806.3016" cy="371.1441" fill="#F1F1F1" rx="107.3016" ry="33.1441" style="stroke:#181818;stroke-width:0.5;"/><text fill="#000000" font-family="sans-serif" font-size="18" font-style="italic" lengthAdjust="spacing" textLength="145" x="733.8016" y="366.9262">&#171;requires login&#187;</text><text fill="#000000" font-family="sans-serif" font-size="18" lengthAdjust="spacing" textLength="123" x="744.8016" y="387.8793">Write Review</text></g><g id="elem_ManageShops"><ellipse cx="388.9409" cy="716.8288" fill="#F1F1F1" rx="107.9409" ry="33.3288" style="stroke:#181818;stroke-width:0.5;"/><text fill="#000000" font-family="sans-serif" font-size="18" font-style="italic" lengthAdjust="spacing" textLength="145" x="316.4409" y="712.3547">&#171;requires login&#187;</text><text fill="#000000" font-family="sans-serif" font-size="18" lengthAdjust="spacing" textLength="127" x="325.4409" y="733.3078">Manage Shops</text></g><g id="elem_UpdateLocation"><ellipse cx="806.6149" cy="817.1174" fill="#F1F1F1" rx="115.1149" ry="33.1174" style="stroke:#181818;stroke-width:0.5;"/><text fill="#000000" font-family="sans-serif" font-size="18" font-style="italic" lengthAdjust="spacing" textLength="145" x="731.3649" y="812.2448">&#171;requires login&#187;</text><text fill="#000000" font-family="sans-serif" font-size="18" lengthAdjust="spacing" textLength="144" x="731.8649" y="833.198">Update Location</text></g><g id="elem_UpdateOpeningHours"><ellipse cx="806.5785" cy="717.2157" fill="#F1F1F1" rx="146.5785" ry="31.7157" style="stroke:#181818;stroke-width:0.5;"/><text fill="#000000" font-family="sans-serif" font-size="18" font-style="italic" lengthAdjust="spacing" textLength="145" x="724.5763" y="711.0973">&#171;requires login&#187;</text><text fill="#000000" font-family="sans-serif" font-size="18" lengthAdjust="spacing" textLength="202" x="696.0763" y="732.0504">Update Opening Hours</text></g><g id="elem_ManageShopProducts"><ellipse cx="806.3957" cy="619.1791" fill="#F1F1F1" rx="146.3957" ry="31.6791" style="stroke:#181818;stroke-width:0.5;"/><text fill="#000000" font-family="sans-serif" font-size="18" font-style="italic" lengthAdjust="spacing" textLength="145" x="724.345" y="613.1121">&#171;requires login&#187;</text><text fill="#000000" font-family="sans-serif" font-size="18" lengthAdjust="spacing" textLength="201" x="696.345" y="634.0652">Manage Shop Products</text></g><g id="elem_ManageProductCategories"><ellipse cx="806.4217" cy="518.9843" fill="#F1F1F1" rx="155.4217" ry="33.4843" style="stroke:#181818;stroke-width:0.5;"/><text fill="#000000" font-family="sans-serif" font-size="18" font-style="italic" lengthAdjust="spacing" textLength="145" x="726.1551" y="510.5225">&#171;requires login&#187;</text><text fill="#000000" font-family="sans-serif" font-size="18" lengthAdjust="spacing" textLength="244" x="676.6551" y="531.4756">Manage Product Categories</text></g><!--entity User--><g id="elem_User"><ellipse cx="26.5" cy="918" fill="#F1F1F1" rx="8" ry="8" style="stroke:#181818;stroke-width:0.5;"/><path d="M26.5,926 L26.5,953 M13.5,934 L39.5,934 M26.5,953 L13.5,968 M26.5,953 L39.5,968 " fill="none" style="stroke:#181818;stroke-width:0.5;"/><text fill="#000000" font-family="sans-serif" font-size="18" lengthAdjust="spacing" textLength="41" x="6" y="986.208">User</text></g><!--entity Customer--><g id="elem_Customer"><ellipse cx="151" cy="251" fill="#F1F1F1" rx="8" ry="8" style="stroke:#181818;stroke-width:0.5;"/><path d="M151,259 L151,286 M138,267 L164,267 M151,286 L138,301 M151,286 L164,301 " fill="none" style="stroke:#181818;stroke-width:0.5;"/><text fill="#000000" font-family="sans-serif" font-size="18" lengthAdjust="spacing" textLength="86" x="108" y="319.208">Customer</text></g><!--entity Seller--><g id="elem_Seller"><ellipse cx="151" cy="757" fill="#F1F1F1" rx="8" ry="8" style="stroke:#181818;stroke-width:0.5;"/><path d="M151,765 L151,792 M138,773 L164,773 M151,792 L138,807 M151,792 L164,807 " fill="none" style="stroke:#181818;stroke-width:0.5;"/><text fill="#000000" font-family="sans-serif" font-size="18" lengthAdjust="spacing" textLength="51" x="125.5" y="825.208">Seller</text></g><!--reverse link User to Customer--><g id="link_User_Customer"><path d="M38.2306,891.576 C60.1206,772.356 120.67,442.69 142.54,323.61 " fill="none" id="User-backto-Customer" style="stroke:#181818;stroke-width:1.0;"/><polygon fill="none" points="34.98,909.28,44.132,892.6595,32.3293,890.4924,34.98,909.28" style="stroke:#181818;stroke-width:1.0;"/></g><!--reverse link User to Seller--><g id="link_User_Seller"><path d="M58.0807,909.8061 C79.3207,881.8961 102.28,851.72 125.29,821.47 " fill="none" id="User-backto-Seller" style="stroke:#181818;stroke-width:1.0;"/><polygon fill="none" points="47.18,924.13,62.8554,913.4397,53.3061,906.1725,47.18,924.13" style="stroke:#181818;stroke-width:1.0;"/></g><!--link User to LoginRegisterCustomer--><g id="link_User_LoginRegisterCustomer"><path d="M47.14,950 C93.49,950 212.15,950 296.4,950 " fill="none" id="User-LoginRegisterCustomer" style="stroke:#181818;stroke-width:1.0;"/></g><!--link User to LogoutCustomer--><g id="link_User_LogoutCustomer"><path d="M47.14,954.74 C95.99,966.53 225.15,997.7 309.7,1018.1 " fill="none" id="User-LogoutCustomer" style="stroke:#181818;stroke-width:1.0;"/></g><!--link User to EditProfile--><g id="link_User_EditProfile"><path d="M47.09,965.69 C82.39,993.33 159.84,1051.07 233,1086 C256.81,1097.37 283.91,1106.97 308.71,1114.58 " fill="none" id="User-EditProfile" style="stroke:#181818;stroke-width:1.0;"/></g><!--reverse link EditProfile to UpdateName--><g id="link_EditProfile_UpdateName"><path d="M496.8392,1141.4297 C560.6092,1145.2597 636.86,1149.85 701.27,1153.73 " fill="none" id="EditProfile-backto-UpdateName" style="stroke:#181818;stroke-width:1.0;"/><polygon fill="#181818" points="490.85,1141.07,499.594,1145.6024,495.841,1141.3698,500.0736,1137.6168,490.85,1141.07" style="stroke:#181818;stroke-width:1.0;"/><text fill="#000000" font-family="sans-serif" font-size="18" lengthAdjust="spacing" textLength="84" x="532" y="1138.708">&#171;extend&#187;</text></g><!--reverse link EditProfile to UpdateProfilePicture--><g id="link_EditProfile_UpdateProfilePicture"><path d="M484.7845,1117.8935 C547.8445,1106.5035 627.01,1092.22 694.52,1080.03 " fill="none" id="EditProfile-backto-UpdateProfilePicture" style="stroke:#181818;stroke-width:1.0;"/><polygon fill="#181818" points="478.88,1118.96,488.4477,1121.2966,483.8004,1118.0713,487.0257,1113.424,478.88,1118.96" style="stroke:#181818;stroke-width:1.0;"/><text fill="#000000" font-family="sans-serif" font-size="18" lengthAdjust="spacing" textLength="84" x="532" y="1090.708">&#171;extend&#187;</text></g><!--reverse link EditProfile to UpdateContactInfo--><g id="link_EditProfile_UpdateContactInfo"><path d="M456.679,1106.7584 C471.909,1099.7384 482.55,1094.28 497,1086 C511.12,1077.91 512.8,1072.96 527,1065 C579.44,1035.62 594.78,1032.28 651,1011 C674.07,1002.27 699.42,993.66 722.8,986.12 " fill="none" id="EditProfile-backto-UpdateContactInfo" style="stroke:#181818;stroke-width:1.0;"/><polygon fill="#181818" points="451.23,1109.27,461.0779,1109.1352,455.7708,1107.177,457.7291,1101.8699,451.23,1109.27" style="stroke:#181818;stroke-width:1.0;"/><text fill="#000000" font-family="sans-serif" font-size="18" lengthAdjust="spacing" textLength="84" x="532" y="1018.708">&#171;extend&#187;</text></g><!--link Customer to BrowseShopsList--><g id="link_Customer_BrowseShopsList"><path d="M168.77,242.35 C182.21,214.64 203.69,179.25 233,158 C252.04,144.2 275.4,135.04 298.15,128.96 " fill="none" id="Customer-BrowseShopsList" style="stroke:#181818;stroke-width:1.0;"/></g><!--link Customer to BrowseShopsMap--><g id="link_Customer_BrowseShopsMap"><path d="M194.14,259.63 C206.43,253.37 220.05,246.97 233,242 C258.51,232.21 287.2,223.76 312.9,217.06 " fill="none" id="Customer-BrowseShopsMap" style="stroke:#181818;stroke-width:1.0;"/></g><!--reverse link BrowseShopsList to FilterShops--><g id="link_BrowseShopsList_FilterShops"><path d="M475.0219,133.374 C554.2519,148.624 668.74,170.67 741.96,184.77 " fill="none" id="BrowseShopsList-backto-FilterShops" style="stroke:#181818;stroke-width:1.0;"/><polygon fill="#181818" points="469.13,132.24,477.2117,137.869,474.0399,133.185,478.7238,130.0132,469.13,132.24" style="stroke:#181818;stroke-width:1.0;"/><text fill="#000000" font-family="sans-serif" font-size="18" lengthAdjust="spacing" textLength="92" x="528" y="141.708">&#171;extends&#187;</text></g><!--reverse link BrowseShopsMap to FilterShops--><g id="link_BrowseShopsMap_FilterShops"><path d="M502.9998,199.1864 C573.2098,198.6764 657.68,198.07 722.46,197.6 " fill="none" id="BrowseShopsMap-backto-FilterShops" style="stroke:#181818;stroke-width:1.0;"/><polygon fill="#181818" points="497,199.23,506.0288,203.1645,501.9999,199.1937,505.9707,195.1647,497,199.23" style="stroke:#181818;stroke-width:1.0;"/><text fill="#000000" font-family="sans-serif" font-size="18" lengthAdjust="spacing" textLength="92" x="528" y="194.708">&#171;extends&#187;</text></g><!--reverse link FilterShops to FilterByCategory--><g id="link_FilterShops_FilterByCategory"><path d="M876.4869,210.5792 C949.7669,225.0092 1065.78,247.85 1152.55,264.93 " fill="none" id="FilterShops-backto-FilterByCategory" style="stroke:#181818;stroke-width:1.0;"/><polygon fill="#181818" points="870.6,209.42,878.6576,215.0835,875.5058,210.386,880.2032,207.2342,870.6,209.42" style="stroke:#181818;stroke-width:1.0;"/><text fill="#000000" font-family="sans-serif" font-size="18" lengthAdjust="spacing" textLength="92" x="995" y="231.708">&#171;extends&#187;</text></g><!--reverse link FilterShops to FilterByDistance--><g id="link_FilterShops_FilterByDistance"><path d="M896.53,197 C970.51,197 1073.01,197 1152.3,197 " fill="none" id="FilterShops-backto-FilterByDistance" style="stroke:#181818;stroke-width:1.0;"/><polygon fill="#181818" points="890.53,197,899.53,201,895.53,197,899.53,193,890.53,197" style="stroke:#181818;stroke-width:1.0;"/><text fill="#000000" font-family="sans-serif" font-size="18" lengthAdjust="spacing" textLength="92" x="995" y="192.708">&#171;extends&#187;</text></g><!--reverse link FilterShops to FilterByRating--><g id="link_FilterShops_FilterByRating"><path d="M878.8862,184.2234 C960.6062,169.6034 1094.13,145.7 1179.9,130.35 " fill="none" id="FilterShops-backto-FilterByRating" style="stroke:#181818;stroke-width:1.0;"/><polygon fill="#181818" points="872.98,185.28,882.5438,187.6325,877.9019,184.3995,881.1349,179.7575,872.98,185.28" style="stroke:#181818;stroke-width:1.0;"/><text fill="#000000" font-family="sans-serif" font-size="18" lengthAdjust="spacing" textLength="92" x="995" y="143.708">&#171;extends&#187;</text></g><!--link Customer to ViewShopDetails--><g id="link_Customer_ViewShopDetails"><path d="M194.19,283 C219.25,283 252.22,283 283.84,283 " fill="none" id="Customer-ViewShopDetails" style="stroke:#181818;stroke-width:1.0;"/></g><!--link Customer to RateShop--><g id="link_Customer_RateShop"><path d="M194.29,305.98 C206.59,312.23 220.17,318.72 233,324 C258.49,334.49 287.05,344.24 312.64,352.3 " fill="none" id="Customer-RateShop" style="stroke:#181818;stroke-width:1.0;"/></g><!--reverse link RateShop to WriteReview--><g id="link_RateShop_WriteReview"><path d="M498.1698,373.217 C561.0098,372.767 635.39,372.23 699.01,371.77 " fill="none" id="RateShop-backto-WriteReview" style="stroke:#181818;stroke-width:1.0;"/><polygon fill="#181818" points="492.17,373.26,501.1984,377.1954,497.1699,373.2242,501.1411,369.1957,492.17,373.26" style="stroke:#181818;stroke-width:1.0;"/><text fill="#000000" font-family="sans-serif" font-size="18" lengthAdjust="spacing" textLength="92" x="528" y="368.708">&#171;extends&#187;</text></g><!--link Seller to ManageShops--><g id="link_Seller_ManageShops"><path d="M176.81,781.43 C208.53,771.75 264.9,754.56 311.43,740.36 " fill="none" id="Seller-ManageShops" style="stroke:#181818;stroke-width:1.0;"/></g><!--reverse link ManageShops to UpdateLocation--><g id="link_ManageShops_UpdateLocation"><path d="M480.6635,738.8238 C551.5135,755.8738 646.31,778.69 717.92,795.92 " fill="none" id="ManageShops-backto-UpdateLocation" style="stroke:#181818;stroke-width:1.0;"/><polygon fill="#181818" points="474.83,737.42,482.6443,743.4147,479.6912,738.5898,484.5161,735.6368,474.83,737.42" style="stroke:#181818;stroke-width:1.0;"/><text fill="#000000" font-family="sans-serif" font-size="18" lengthAdjust="spacing" textLength="84" x="532" y="748.708">&#171;extend&#187;</text></g><!--reverse link ManageShops to UpdateOpeningHours--><g id="link_ManageShops_UpdateOpeningHours"><path d="M503,717 C552.53,717 606.15,717 659.71,717 " fill="none" id="ManageShops-backto-UpdateOpeningHours" style="stroke:#181818;stroke-width:1.0;"/><polygon fill="#181818" points="497,717,506,721,502,717,506,713,497,717" style="stroke:#181818;stroke-width:1.0;"/><text fill="#000000" font-family="sans-serif" font-size="18" lengthAdjust="spacing" textLength="84" x="532" y="712.708">&#171;extend&#187;</text></g><!--reverse link ManageShops to ManageShopProducts--><g id="link_ManageShops_ManageShopProducts"><path d="M481.1798,695.4927 C548.5098,679.6127 636.66,658.82 707.15,642.2 " fill="none" id="ManageShops-backto-ManageShopProducts" style="stroke:#181818;stroke-width:1.0;"/><polygon fill="#181818" points="475.34,696.87,485.0179,698.6972,480.2065,695.7222,483.1814,690.9108,475.34,696.87" style="stroke:#181818;stroke-width:1.0;"/><text fill="#000000" font-family="sans-serif" font-size="18" lengthAdjust="spacing" textLength="84" x="532" y="661.708">&#171;extend&#187;</text></g><!--reverse link ManageShops to ManageProductCategories--><g id="link_ManageShops_ManageProductCategories"><path d="M441.5814,683.4737 C492.5914,651.2237 572.58,603.53 651,570 C671.26,561.34 693.52,553.22 714.67,546.12 " fill="none" id="ManageShops-backto-ManageProductCategories" style="stroke:#181818;stroke-width:1.0;"/><polygon fill="#181818" points="436.51,686.68,446.2547,685.2515,440.7362,684.0081,441.9796,678.4896,436.51,686.68" style="stroke:#181818;stroke-width:1.0;"/><text fill="#000000" font-family="sans-serif" font-size="18" lengthAdjust="spacing" textLength="84" x="532" y="582.708">&#171;extend&#187;</text></g><!--SRC=[bLLDRzim3BtxLn3PkHXs6uQWmEess81sAn9qEwisumgr9K-IrsLR__lqQSkAdNYvn7ha8wb7IfBFbBL4a0PAt9EkLXlEr8x-HdZtFijaRtqanNCbUCVAdDTSm9kD_MKrxXKe3e9MJmfAAh1GbBCi8uNIRgi7YM85H8Bv263UISKRRmYBODnXNNkJ-ymomuNrtukBmNc0WfF9J5XL8wm-jkqA_cGPG0Jcl6auCtL0JYHAxm7GIImq0AjRNb7sTeiLbSfNOA60zCbJ5kzKyDQVmGtMQu4_EYs9XDh4kRnq2MtjklBvu957530fzwQa2ku5tzCQRNe3-FLixfxzq9P48NmXZIExjLbESQUe8TKzBLGduYZUuWrBu-LwylGCm6Usvr4m3nlqhAAH0iumaaGxHBlyeAFXBuMizFLC-oPxMSYAYqueh-bSXd4vCPbNWh_e_zqJR_MKwNcn-ZZKWWOxGRaZRShGq9ZmZUABTOThL8JMqZ8CQa2F9NLjQAr7roMnxWwmwsdNnuEPcxBJVSwrJXKNXuXuTGZW7FbQRvIm0aUa0CwHjaHHLeqe3afgt9enDCLRLxEoUfoRt- -2QjuMVsgjBDC2RZqxidtRzSnCDNB6RjfcxGd7pbwaVZHrqjSxZdA6O1cnUN0VcZIHP8uIMlGV5DUYgRfYRT81JUsXYzOmj5HRuYwbLQM7r3qofuxe7M6amkWeEC1lQ-5jVCiBOfxFwFeBqD9Rz6kBpCZsYNT2Hd4yRk6piQBDXEEQRYh0IsCbfvvY7D0R1zkiOhuHkdsHliuq4ho_YNlzZcxkQV-HJcSv4teiv1nl-UYTUCt-0G00]--></g></svg>