<?xml version="1.0" encoding="us-ascii" standalone="no"?><svg xmlns="http://www.w3.org/2000/svg" xmlns:xlink="http://www.w3.org/1999/xlink" contentStyleType="text/css" height="1009px" preserveAspectRatio="none" style="width:1067px;height:1009px;background:#FFFFFF;" version="1.1" viewBox="0 0 1067 1009" width="1067px" zoomAndPan="magnify"><defs/><g><!--cluster App--><g id="cluster_App"><rect fill="none" height="996" rx="2.5" ry="2.5" style="stroke:#181818;stroke-width:1.0;" width="940" x="121" y="7"/><text fill="#000000" font-family="sans-serif" font-size="14" font-weight="bold" lengthAdjust="spacing" textLength="31" x="575.5" y="21.9951">App</text></g><!--cluster Customer Use Cases--><g id="cluster_Customer Use Cases"><rect fill="none" height="543" rx="2.5" ry="2.5" style="stroke:#181818;stroke-width:1.0;" width="892" x="145" y="50"/><text fill="#000000" font-family="sans-serif" font-size="14" font-weight="bold" lengthAdjust="spacing" textLength="165" x="508.5" y="64.9951">Customer Use Cases</text></g><!--cluster Seller Use Cases--><g id="cluster_Seller Use Cases"><rect fill="none" height="362" rx="2.5" ry="2.5" style="stroke:#181818;stroke-width:1.0;" width="590" x="172" y="617"/><text fill="#000000" font-family="sans-serif" font-size="14" font-weight="bold" lengthAdjust="spacing" textLength="133" x="400.5" y="631.9951">Seller Use Cases</text></g><g id="elem_ViewShopDetails"><ellipse cx="273.8658" cy="103.7732" fill="#F1F1F1" rx="81.8658" ry="18.7732" style="stroke:#181818;stroke-width:0.5;"/><text fill="#000000" font-family="sans-serif" font-size="14" lengthAdjust="spacing" textLength="123" x="211.3805" y="106.9463">View Shop Details</text></g><g id="elem_BrowseShopsList"><ellipse cx="274.0656" cy="177.1131" fill="#F1F1F1" rx="83.5656" ry="19.1131" style="stroke:#181818;stroke-width:0.5;"/><text fill="#000000" font-family="sans-serif" font-size="14" lengthAdjust="spacing" textLength="127" x="210.1623" y="180.0974">Browse Shops List</text></g><g id="elem_BrowseShopsMap"><ellipse cx="274.1635" cy="251.1327" fill="#F1F1F1" rx="86.1635" ry="19.6327" style="stroke:#181818;stroke-width:0.5;"/><text fill="#000000" font-family="sans-serif" font-size="14" lengthAdjust="spacing" textLength="133" x="207.6635" y="253.9794">Browse Shops Map</text></g><g id="elem_FilterShops"><ellipse cx="630.7655" cy="219.0531" fill="#F1F1F1" rx="65.7655" ry="15.5531" style="stroke:#181818;stroke-width:0.5;"/><text fill="#000000" font-family="sans-serif" font-size="14" lengthAdjust="spacing" textLength="81" x="587.2655" y="222.8007">Filter Shops</text></g><g id="elem_FilterByProductCategory"><ellipse cx="914.9086" cy="296.0817" fill="#F1F1F1" rx="105.9086" ry="23.5817" style="stroke:#181818;stroke-width:0.5;"/><text fill="#000000" font-family="sans-serif" font-size="14" lengthAdjust="spacing" textLength="177" x="826.4086" y="298.9284">Filter by Product Category</text></g><g id="elem_FilterByDistance"><ellipse cx="914.7839" cy="218.8568" fill="#F1F1F1" rx="79.7839" ry="18.3568" style="stroke:#181818;stroke-width:0.5;"/><text fill="#000000" font-family="sans-serif" font-size="14" lengthAdjust="spacing" textLength="118" x="854.0356" y="222.2613">Filter by Distance</text></g><g id="elem_FilterByRating"><ellipse cx="915.0678" cy="148.0136" fill="#F1F1F1" rx="73.0678" ry="17.0136" style="stroke:#181818;stroke-width:0.5;"/><text fill="#000000" font-family="sans-serif" font-size="14" lengthAdjust="spacing" textLength="101" x="861.5678" y="151.7611">Filter by Rating</text></g><g id="elem_AddShopToFavorites"><ellipse cx="274.169" cy="331.0338" fill="#F1F1F1" rx="113.169" ry="25.0338" style="stroke:#181818;stroke-width:0.5;"/><text fill="#000000" font-family="sans-serif" font-size="14" font-style="italic" lengthAdjust="spacing" textLength="111" x="211.2484" y="325.744">&#171;requires login&#187;</text><text fill="#000000" font-family="sans-serif" font-size="14" lengthAdjust="spacing" textLength="151" x="191.2484" y="342.0409">Add Shop to Favorites</text></g><g id="elem_RateShop"><ellipse cx="274.2066" cy="417.0239" fill="#F1F1F1" rx="79.7066" ry="25.5239" style="stroke:#181818;stroke-width:0.5;"/><text fill="#000000" font-family="sans-serif" font-size="14" font-style="italic" lengthAdjust="spacing" textLength="111" x="218.7066" y="414.2728">&#171;requires login&#187;</text><text fill="#000000" font-family="sans-serif" font-size="14" lengthAdjust="spacing" textLength="72" x="238.2066" y="430.5697">Rate Shop</text></g><g id="elem_WriteReview"><ellipse cx="630.908" cy="417.1703" fill="#F1F1F1" rx="81.908" ry="26.1703" style="stroke:#181818;stroke-width:0.5;"/><text fill="#000000" font-family="sans-serif" font-size="14" font-style="italic" lengthAdjust="spacing" textLength="111" x="575.408" y="413.4967">&#171;requires login&#187;</text><text fill="#000000" font-family="sans-serif" font-size="14" lengthAdjust="spacing" textLength="88" x="586.908" y="429.7936">Write Review</text></g><g id="elem_LoginRegisterCustomer"><ellipse cx="274.1868" cy="494.9374" fill="#F1F1F1" rx="72.6868" ry="16.9374" style="stroke:#181818;stroke-width:0.5;"/><text fill="#000000" font-family="sans-serif" font-size="14" lengthAdjust="spacing" textLength="100" x="221.1868" y="498.6849">Login/Register</text></g><g id="elem_LogoutCustomer"><ellipse cx="273.8836" cy="562.1478" fill="#F1F1F1" rx="45.8836" ry="14.6478" style="stroke:#181818;stroke-width:0.5;"/><text fill="#000000" font-family="sans-serif" font-size="14" lengthAdjust="spacing" textLength="48" x="246.8836" y="565.8954">Logout</text></g><g id="elem_ManageShops"><ellipse cx="273.9104" cy="782.9988" fill="#F1F1F1" rx="85.9104" ry="26.4988" style="stroke:#181818;stroke-width:0.5;"/><text fill="#000000" font-family="sans-serif" font-size="14" font-style="italic" lengthAdjust="spacing" textLength="111" x="217.4104" y="778.5979">&#171;requires login&#187;</text><text fill="#000000" font-family="sans-serif" font-size="14" lengthAdjust="spacing" textLength="103" x="221.4104" y="794.8948">Manage Shops</text></g><g id="elem_UpdateLocation"><ellipse cx="630.9335" cy="937.1136" fill="#F1F1F1" rx="90.9335" ry="26.1136" style="stroke:#181818;stroke-width:0.5;"/><text fill="#000000" font-family="sans-serif" font-size="14" font-style="italic" lengthAdjust="spacing" textLength="111" x="572.1835" y="932.7127">&#171;requires login&#187;</text><text fill="#000000" font-family="sans-serif" font-size="14" lengthAdjust="spacing" textLength="112" x="571.6835" y="949.0096">Update Location</text></g><g id="elem_UpdateContactInfo"><ellipse cx="631.0534" cy="849.8242" fill="#F1F1F1" rx="105.0534" ry="25.3242" style="stroke:#181818;stroke-width:0.5;"/><text fill="#000000" font-family="sans-serif" font-size="14" font-style="italic" lengthAdjust="spacing" textLength="111" x="568.3727" y="845.0038">&#171;requires login&#187;</text><text fill="#000000" font-family="sans-serif" font-size="14" lengthAdjust="spacing" textLength="137" x="555.3727" y="861.3007">Update Contact Info</text></g><g id="elem_UpdateOpeningHours"><ellipse cx="630.9713" cy="763.7943" fill="#F1F1F1" rx="114.4713" ry="25.2943" style="stroke:#181818;stroke-width:0.5;"/><text fill="#000000" font-family="sans-serif" font-size="14" font-style="italic" lengthAdjust="spacing" textLength="111" x="568.337" y="758.149">&#171;requires login&#187;</text><text fill="#000000" font-family="sans-serif" font-size="14" lengthAdjust="spacing" textLength="158" x="544.837" y="774.4459">Update Opening Hours</text></g><g id="elem_ManageShopProducts"><ellipse cx="631.0539" cy="677.9108" fill="#F1F1F1" rx="115.0539" ry="25.4108" style="stroke:#181818;stroke-width:0.5;"/><text fill="#000000" font-family="sans-serif" font-size="14" font-style="italic" lengthAdjust="spacing" textLength="111" x="568.536" y="672.1092">&#171;requires login&#187;</text><text fill="#000000" font-family="sans-serif" font-size="14" lengthAdjust="spacing" textLength="161" x="543.536" y="688.406">Manage Shop Products</text></g><g id="elem_LoginRegisterSeller"><ellipse cx="274.1868" cy="861.9374" fill="#F1F1F1" rx="72.6868" ry="16.9374" style="stroke:#181818;stroke-width:0.5;"/><text fill="#000000" font-family="sans-serif" font-size="14" lengthAdjust="spacing" textLength="100" x="221.1868" y="865.6849">Login/Register</text></g><g id="elem_LogoutSeller"><ellipse cx="273.8836" cy="929.1478" fill="#F1F1F1" rx="45.8836" ry="14.6478" style="stroke:#181818;stroke-width:0.5;"/><text fill="#000000" font-family="sans-serif" font-size="14" lengthAdjust="spacing" textLength="48" x="246.8836" y="932.8954">Logout</text></g><!--entity Customer--><g id="elem_Customer"><ellipse cx="40" cy="301.5" fill="#F1F1F1" rx="8" ry="8" style="stroke:#181818;stroke-width:0.5;"/><path d="M40,309.5 L40,336.5 M27,317.5 L53,317.5 M40,336.5 L27,351.5 M40,336.5 L53,351.5 " fill="none" style="stroke:#181818;stroke-width:0.5;"/><text fill="#000000" font-family="sans-serif" font-size="14" lengthAdjust="spacing" textLength="68" x="6" y="365.9951">Customer</text></g><!--entity Seller--><g id="elem_Seller"><ellipse cx="40" cy="832.5" fill="#F1F1F1" rx="8" ry="8" style="stroke:#181818;stroke-width:0.5;"/><path d="M40,840.5 L40,867.5 M27,848.5 L53,848.5 M40,867.5 L27,882.5 M40,867.5 L53,882.5 " fill="none" style="stroke:#181818;stroke-width:0.5;"/><text fill="#000000" font-family="sans-serif" font-size="14" lengthAdjust="spacing" textLength="38" x="21" y="896.9951">Seller</text></g><!--link Customer to ViewShopDetails--><g id="link_Customer_ViewShopDetails"><path d="M44.75,292.66 C51.11,249.12 68.08,179.07 113,140 C134.91,120.94 164.77,111.36 192.75,106.72 " fill="none" id="Customer-ViewShopDetails" style="stroke:#181818;stroke-width:1.0;"/></g><!--link Customer to BrowseShopsList--><g id="link_Customer_BrowseShopsList"><path d="M55.13,292.99 C66.76,266.89 85.79,233.56 113,214 C136.5,197.11 166.52,187.8 194.19,182.71 " fill="none" id="Customer-BrowseShopsList" style="stroke:#181818;stroke-width:1.0;"/></g><!--link Customer to BrowseShopsMap--><g id="link_Customer_BrowseShopsMap"><path d="M74.3,308.17 C86.11,300.88 99.76,293.33 113,288 C141.7,276.45 174.81,268.04 203.44,262.19 " fill="none" id="Customer-BrowseShopsMap" style="stroke:#181818;stroke-width:1.0;"/></g><!--link BrowseShopsList to FilterShops--><g id="link_BrowseShopsList_FilterShops"><path d="M348.56,185.7 C414.76,193.54 510.76,204.89 571.77,212.11 " fill="none" id="BrowseShopsList-FilterShops" style="stroke:#181818;stroke-width:1.0;"/><text fill="#000000" font-family="sans-serif" font-size="13" lengthAdjust="spacing" textLength="67" x="418" y="191.0669">&#171;extends&#187;</text></g><!--link BrowseShopsMap to FilterShops--><g id="link_BrowseShopsMap_FilterShops"><path d="M359.86,249.62 C398.43,248.42 444.59,246.18 486,242 C516.98,238.88 551.44,233.44 578.87,228.64 " fill="none" id="BrowseShopsMap-FilterShops" style="stroke:#181818;stroke-width:1.0;"/><text fill="#000000" font-family="sans-serif" font-size="13" lengthAdjust="spacing" textLength="67" x="418" y="238.0669">&#171;extends&#187;</text></g><!--reverse link FilterShops to FilterByProductCategory--><g id="link_FilterShops_FilterByProductCategory"><path d="M692.194,235.4325 C738.034,247.9525 793.99,263.23 847.38,277.81 " fill="none" id="FilterShops-backto-FilterByProductCategory" style="stroke:#181818;stroke-width:1.0;"/><polygon fill="none" points="674.83,230.69,690.6132,241.2205,693.7748,229.6445,674.83,230.69" style="stroke:#181818;stroke-width:1.0;"/></g><!--reverse link FilterShops to FilterByDistance--><g id="link_FilterShops_FilterByDistance"><path d="M715.05,219 C756.12,219 791.45,219 834.95,219 " fill="none" id="FilterShops-backto-FilterByDistance" style="stroke:#181818;stroke-width:1.0;"/><polygon fill="none" points="697.05,219,715.05,225,715.05,213,697.05,219" style="stroke:#181818;stroke-width:1.0;"/></g><!--reverse link FilterShops to FilterByRating--><g id="link_FilterShops_FilterByRating"><path d="M694.1355,203.3563 C745.3855,190.4563 811.71,173.75 864.79,160.39 " fill="none" id="FilterShops-backto-FilterByRating" style="stroke:#181818;stroke-width:1.0;"/><polygon fill="none" points="676.68,207.75,695.6001,209.1748,692.671,197.5378,676.68,207.75" style="stroke:#181818;stroke-width:1.0;"/></g><!--link Customer to AddShopToFavorites--><g id="link_Customer_AddShopToFavorites"><path d="M74.24,331 C97.23,331 129.27,331 160.92,331 " fill="none" id="Customer-AddShopToFavorites" style="stroke:#181818;stroke-width:1.0;"/></g><!--link Customer to RateShop--><g id="link_Customer_RateShop"><path d="M74.12,352.75 C86.03,359.9 99.79,367.44 113,373 C143.01,385.62 177.7,395.68 207.09,402.97 " fill="none" id="Customer-RateShop" style="stroke:#181818;stroke-width:1.0;"/></g><!--reverse link RateShop to WriteReview--><g id="link_RateShop_WriteReview"><path d="M359.79,417 C417.8,417 490.44,417 548.97,417 " fill="none" id="RateShop-backto-WriteReview" style="stroke:#181818;stroke-width:1.0;"/><polygon fill="#181818" points="353.79,417,362.79,421,358.79,417,362.79,413,353.79,417" style="stroke:#181818;stroke-width:1.0;"/><text fill="#000000" font-family="sans-serif" font-size="13" lengthAdjust="spacing" textLength="67" x="418" y="413.0669">&#171;extends&#187;</text></g><!--link Customer to LoginRegisterCustomer--><g id="link_Customer_LoginRegisterCustomer"><path d="M52.58,369.02 C63.48,398.33 82.73,437.53 113,460 C138.57,478.98 172.39,488.05 202.35,492.25 " fill="none" id="Customer-LoginRegisterCustomer" style="stroke:#181818;stroke-width:1.0;"/></g><!--link Customer to LogoutCustomer--><g id="link_Customer_LogoutCustomer"><path d="M43.99,369.26 C49.64,414.37 65.95,488.34 113,529 C144.65,556.36 192.95,563.14 228.2,563.98 " fill="none" id="Customer-LogoutCustomer" style="stroke:#181818;stroke-width:1.0;"/></g><!--link Seller to ManageShops--><g id="link_Seller_ManageShops"><path d="M59.23,851.97 C73.55,844.39 94.14,834.11 113,827 C142.52,815.87 176.06,806.22 204.78,798.81 " fill="none" id="Seller-ManageShops" style="stroke:#181818;stroke-width:1.0;"/></g><!--reverse link ManageShops to UpdateLocation--><g id="link_ManageShops_UpdateLocation"><path d="M346.6317,809.8195 C364.9617,816.9295 368.62,818.71 387,827 C445.71,853.47 457.21,866.7 516,893 C534.59,901.32 555.27,909.58 573.86,916.67 " fill="none" id="ManageShops-backto-UpdateLocation" style="stroke:#181818;stroke-width:1.0;"/><polygon fill="none" points="329.85,803.31,344.4619,815.4134,348.8016,804.2255,329.85,803.31" style="stroke:#181818;stroke-width:1.0;"/></g><!--reverse link ManageShops to UpdateContactInfo--><g id="link_ManageShops_UpdateContactInfo"><path d="M365.3876,800.0587 C423.3976,811.0087 487,823.01 547.46,834.42 " fill="none" id="ManageShops-backto-UpdateContactInfo" style="stroke:#181818;stroke-width:1.0;"/><polygon fill="none" points="347.7,796.72,364.2747,805.9546,366.5006,794.1628,347.7,796.72" style="stroke:#181818;stroke-width:1.0;"/></g><!--reverse link ManageShops to UpdateOpeningHours--><g id="link_ManageShops_UpdateOpeningHours"><path d="M377.1042,777.5372 C425.0842,774.9672 467.81,772.68 519.58,769.91 " fill="none" id="ManageShops-backto-UpdateOpeningHours" style="stroke:#181818;stroke-width:1.0;"/><polygon fill="none" points="359.13,778.5,377.4252,783.5286,376.7833,771.5458,359.13,778.5" style="stroke:#181818;stroke-width:1.0;"/></g><!--reverse link ManageShops to ManageShopProducts--><g id="link_ManageShops_ManageShopProducts"><path d="M354.1005,759.6037 C416.7705,741.0637 496.26,717.56 561.3,698.32 " fill="none" id="ManageShops-backto-ManageShopProducts" style="stroke:#181818;stroke-width:1.0;"/><polygon fill="none" points="336.84,764.71,355.8026,765.3572,352.3984,753.8502,336.84,764.71" style="stroke:#181818;stroke-width:1.0;"/></g><!--link Seller to LoginRegisterSeller--><g id="link_Seller_LoginRegisterSeller"><path d="M59.2,862 C89.49,862 151.78,862 201.36,862 " fill="none" id="Seller-LoginRegisterSeller" style="stroke:#181818;stroke-width:1.0;"/></g><!--link Seller to LogoutSeller--><g id="link_Seller_LogoutSeller"><path d="M59.15,872.05 C73.41,879.59 93.99,889.65 113,896 C152.28,909.12 198.79,918 231.52,923.22 " fill="none" id="Seller-LogoutSeller" style="stroke:#181818;stroke-width:1.0;"/></g><!--SRC=[bLLDRzGm4BtdLunohxYZLQLsgmgahK1R2cUJJ5DBmGwsqxA2_dV6NwcTn5dOoyPltdksPoQJ7XyD60cATqy6MgwmCLoAgcADaGhg_QYD_86g1gOXBcBm7li-XFnZLLaz4rsFK5yDGms_gmeW0QC5F6Y4FTEeBGVeDsfiQ0trLuulSFya1xX1mtYltGOMjM30gbnphUGB_Lk2XWFNncaywa2BRKZks31N43JRv9RtXaxkeexj0RTUftu_mMSbsx4nT5U3dLIdH7Xz2i4OAtdSqE6PQ33JHh0aEZB3HPT9F3GxwbNR-cnJ5zooPwcuGNyzYjZ05pd1iDif_3bIbsZePSV5vMLkHZlub3e3ktBMvsJVh3iSyPcAx9GEyEiriLDFhNHniUYEUNoj4mhngUupZQKb1OVtT33yPL2qEbmdDzdcEq4QtlsP-EjzKIHdZL1afRLFRxuiye8Io-W2RpMbI5gcbVjDzJtOkhqxOaT73GF3GH6P1ijS9KSJsVGuqHP7BBlDMAaBmEjiElafjZ6RxfXW7IOZm0CXtuL6dTGFGslVZuDic1sopi1Z4JhxfWIBlHI6XZ1y58yoiGcmHV_LwTE0WXe3FiXHwSGgu0u-wvMa9GwyUNeYNCnIo3sLAScf3sL9jasT9ssBasHaYvRUTfstlCb_zdZuGcvtUFoCvWaf-MICDxNjwzVgBm00]--></g></svg>