<?xml version="1.0" encoding="us-ascii" standalone="no"?><svg xmlns="http://www.w3.org/2000/svg" xmlns:xlink="http://www.w3.org/1999/xlink" contentStyleType="text/css" height="934px" preserveAspectRatio="none" style="width:1018px;height:934px;background:#FFFFFF;" version="1.1" viewBox="0 0 1018 934" width="1018px" zoomAndPan="magnify"><defs/><g><!--cluster App--><g id="cluster_App"><rect fill="none" height="921" rx="2.5" ry="2.5" style="stroke:#181818;stroke-width:1.0;" width="902" x="110.47" y="7"/><text fill="#000000" font-family="sans-serif" font-size="14" font-weight="bold" lengthAdjust="spacing" textLength="31" x="545.97" y="21.9951">App</text></g><!--cluster Common Use Cases--><g id="cluster_Common Use Cases"><rect fill="none" height="237" rx="2.5" ry="2.5" style="stroke:#181818;stroke-width:1.0;" width="516" x="140.97" y="667"/><text fill="#000000" font-family="sans-serif" font-size="14" font-weight="bold" lengthAdjust="spacing" textLength="157" x="320.47" y="681.9951">Common Use Cases</text></g><!--cluster Customer Use Cases--><g id="cluster_Customer Use Cases"><rect fill="none" height="264" rx="2.5" ry="2.5" style="stroke:#181818;stroke-width:1.0;" width="854" x="134.47" y="50"/><text fill="#000000" font-family="sans-serif" font-size="14" font-weight="bold" lengthAdjust="spacing" textLength="165" x="478.97" y="64.9951">Customer Use Cases</text></g><!--cluster Seller Use Cases--><g id="cluster_Seller Use Cases"><rect fill="none" height="305" rx="2.5" ry="2.5" style="stroke:#181818;stroke-width:1.0;" width="533" x="134.47" y="338"/><text fill="#000000" font-family="sans-serif" font-size="14" font-weight="bold" lengthAdjust="spacing" textLength="133" x="334.47" y="352.9951">Seller Use Cases</text></g><g id="elem_LoginRegisterCustomer"><ellipse cx="236.6568" cy="785.9374" fill="#F1F1F1" rx="72.6868" ry="16.9374" style="stroke:#181818;stroke-width:0.5;"/><text fill="#000000" font-family="sans-serif" font-size="14" lengthAdjust="spacing" textLength="100" x="183.6568" y="789.6849">Login/Register</text></g><g id="elem_LogoutCustomer"><ellipse cx="236.6788" cy="842.7905" fill="#F1F1F1" rx="77.2088" ry="24.7905" style="stroke:#181818;stroke-width:0.5;"/><text fill="#000000" font-family="sans-serif" font-size="14" font-style="italic" lengthAdjust="spacing" textLength="111" x="181.1788" y="841.1223">&#171;requires login&#187;</text><text fill="#000000" font-family="sans-serif" font-size="14" lengthAdjust="spacing" textLength="48" x="212.6788" y="857.4192">Logout</text></g><g id="elem_EditProfile"><ellipse cx="236.6766" cy="728.0239" fill="#F1F1F1" rx="79.7066" ry="25.5239" style="stroke:#181818;stroke-width:0.5;"/><text fill="#000000" font-family="sans-serif" font-size="14" font-style="italic" lengthAdjust="spacing" textLength="111" x="181.1766" y="725.2728">&#171;requires login&#187;</text><text fill="#000000" font-family="sans-serif" font-size="14" lengthAdjust="spacing" textLength="72" x="200.6766" y="741.5697">Edit Profile</text></g><g id="elem_UpdateName"><ellipse cx="529.321" cy="860.9472" fill="#F1F1F1" rx="82.851" ry="26.4472" style="stroke:#181818;stroke-width:0.5;"/><text fill="#000000" font-family="sans-serif" font-size="14" font-style="italic" lengthAdjust="spacing" textLength="111" x="473.821" y="856.8863">&#171;requires login&#187;</text><text fill="#000000" font-family="sans-serif" font-size="14" lengthAdjust="spacing" textLength="94" x="482.321" y="873.1832">Update Name</text></g><g id="elem_UpdateProfilePicture"><ellipse cx="529.3967" cy="794.0877" fill="#F1F1F1" rx="111.4267" ry="25.0877" style="stroke:#181818;stroke-width:0.5;"/><text fill="#000000" font-family="sans-serif" font-size="14" font-style="italic" lengthAdjust="spacing" textLength="111" x="466.527" y="788.889">&#171;requires login&#187;</text><text fill="#000000" font-family="sans-serif" font-size="14" lengthAdjust="spacing" textLength="148" x="448.027" y="805.1859">Update Profile Picture</text></g><g id="elem_UpdateContactInfo"><ellipse cx="529.5234" cy="727.8242" fill="#F1F1F1" rx="105.0534" ry="25.3242" style="stroke:#181818;stroke-width:0.5;"/><text fill="#000000" font-family="sans-serif" font-size="14" font-style="italic" lengthAdjust="spacing" textLength="111" x="466.8427" y="723.0038">&#171;requires login&#187;</text><text fill="#000000" font-family="sans-serif" font-size="14" lengthAdjust="spacing" textLength="137" x="453.8427" y="739.3007">Update Contact Info</text></g><g id="elem_BrowseShopsList"><ellipse cx="236.5356" cy="104.1131" fill="#F1F1F1" rx="83.5656" ry="19.1131" style="stroke:#181818;stroke-width:0.5;"/><text fill="#000000" font-family="sans-serif" font-size="14" lengthAdjust="spacing" textLength="127" x="172.6323" y="107.0974">Browse Shops List</text></g><g id="elem_BrowseShopsMap"><ellipse cx="236.6335" cy="158.1327" fill="#F1F1F1" rx="86.1635" ry="19.6327" style="stroke:#181818;stroke-width:0.5;"/><text fill="#000000" font-family="sans-serif" font-size="14" lengthAdjust="spacing" textLength="133" x="170.1335" y="160.9794">Browse Shops Map</text></g><g id="elem_ViewShopDetails"><ellipse cx="236.3358" cy="211.7732" fill="#F1F1F1" rx="81.8658" ry="18.7732" style="stroke:#181818;stroke-width:0.5;"/><text fill="#000000" font-family="sans-serif" font-size="14" lengthAdjust="spacing" textLength="123" x="173.8505" y="214.9463">View Shop Details</text></g><g id="elem_FilterShops"><ellipse cx="529.2355" cy="155.0531" fill="#F1F1F1" rx="65.7655" ry="15.5531" style="stroke:#181818;stroke-width:0.5;"/><text fill="#000000" font-family="sans-serif" font-size="14" lengthAdjust="spacing" textLength="81" x="485.7355" y="158.8007">Filter Shops</text></g><g id="elem_FilterByCategory"><ellipse cx="866.3786" cy="212.0817" fill="#F1F1F1" rx="105.9086" ry="23.5817" style="stroke:#181818;stroke-width:0.5;"/><text fill="#000000" font-family="sans-serif" font-size="14" lengthAdjust="spacing" textLength="177" x="777.8786" y="214.9284">Filter by Product Category</text></g><g id="elem_FilterByDistance"><ellipse cx="866.2539" cy="154.8568" fill="#F1F1F1" rx="79.7839" ry="18.3568" style="stroke:#181818;stroke-width:0.5;"/><text fill="#000000" font-family="sans-serif" font-size="14" lengthAdjust="spacing" textLength="118" x="805.5056" y="158.2613">Filter by Distance</text></g><g id="elem_FilterByRating"><ellipse cx="866.5378" cy="104.0136" fill="#F1F1F1" rx="73.0678" ry="17.0136" style="stroke:#181818;stroke-width:0.5;"/><text fill="#000000" font-family="sans-serif" font-size="14" lengthAdjust="spacing" textLength="101" x="813.0378" y="107.7611">Filter by Rating</text></g><g id="elem_RateShop"><ellipse cx="236.6766" cy="272.0239" fill="#F1F1F1" rx="79.7066" ry="25.5239" style="stroke:#181818;stroke-width:0.5;"/><text fill="#000000" font-family="sans-serif" font-size="14" font-style="italic" lengthAdjust="spacing" textLength="111" x="181.1766" y="269.2728">&#171;requires login&#187;</text><text fill="#000000" font-family="sans-serif" font-size="14" lengthAdjust="spacing" textLength="72" x="200.6766" y="285.5697">Rate Shop</text></g><g id="elem_WriteReview"><ellipse cx="529.378" cy="272.1703" fill="#F1F1F1" rx="81.908" ry="26.1703" style="stroke:#181818;stroke-width:0.5;"/><text fill="#000000" font-family="sans-serif" font-size="14" font-style="italic" lengthAdjust="spacing" textLength="111" x="473.878" y="268.4967">&#171;requires login&#187;</text><text fill="#000000" font-family="sans-serif" font-size="14" lengthAdjust="spacing" textLength="88" x="485.378" y="284.7936">Write Review</text></g><g id="elem_ManageShops"><ellipse cx="236.3804" cy="533.9988" fill="#F1F1F1" rx="85.9104" ry="26.4988" style="stroke:#181818;stroke-width:0.5;"/><text fill="#000000" font-family="sans-serif" font-size="14" font-style="italic" lengthAdjust="spacing" textLength="111" x="179.8804" y="529.5979">&#171;requires login&#187;</text><text fill="#000000" font-family="sans-serif" font-size="14" lengthAdjust="spacing" textLength="103" x="183.8804" y="545.8948">Manage Shops</text></g><g id="elem_UpdateLocation"><ellipse cx="529.4035" cy="601.1136" fill="#F1F1F1" rx="90.9335" ry="26.1136" style="stroke:#181818;stroke-width:0.5;"/><text fill="#000000" font-family="sans-serif" font-size="14" font-style="italic" lengthAdjust="spacing" textLength="111" x="470.6535" y="596.7127">&#171;requires login&#187;</text><text fill="#000000" font-family="sans-serif" font-size="14" lengthAdjust="spacing" textLength="112" x="470.1535" y="613.0096">Update Location</text></g><g id="elem_UpdateOpeningHours"><ellipse cx="529.4413" cy="533.7943" fill="#F1F1F1" rx="114.4713" ry="25.2943" style="stroke:#181818;stroke-width:0.5;"/><text fill="#000000" font-family="sans-serif" font-size="14" font-style="italic" lengthAdjust="spacing" textLength="111" x="466.807" y="528.149">&#171;requires login&#187;</text><text fill="#000000" font-family="sans-serif" font-size="14" lengthAdjust="spacing" textLength="158" x="443.307" y="544.4459">Update Opening Hours</text></g><g id="elem_ManageShopProducts"><ellipse cx="529.5239" cy="467.9108" fill="#F1F1F1" rx="115.0539" ry="25.4108" style="stroke:#181818;stroke-width:0.5;"/><text fill="#000000" font-family="sans-serif" font-size="14" font-style="italic" lengthAdjust="spacing" textLength="111" x="467.006" y="462.1092">&#171;requires login&#187;</text><text fill="#000000" font-family="sans-serif" font-size="14" lengthAdjust="spacing" textLength="161" x="442.006" y="478.406">Manage Shop Products</text></g><g id="elem_ManageProductCategories"><ellipse cx="529.3965" cy="399.7853" fill="#F1F1F1" rx="121.9265" ry="26.7853" style="stroke:#181818;stroke-width:0.5;"/><text fill="#000000" font-family="sans-serif" font-size="14" font-style="italic" lengthAdjust="spacing" textLength="111" x="467.9083" y="392.2227">&#171;requires login&#187;</text><text fill="#000000" font-family="sans-serif" font-size="14" lengthAdjust="spacing" textLength="192" x="427.4083" y="408.5196">Manage Product Categories</text></g><!--entity User--><g id="elem_User"><ellipse cx="51.47" cy="698.5" fill="#F1F1F1" rx="8" ry="8" style="stroke:#181818;stroke-width:0.5;"/><path d="M51.47,706.5 L51.47,733.5 M38.47,714.5 L64.47,714.5 M51.47,733.5 L38.47,748.5 M51.47,733.5 L64.47,748.5 " fill="none" style="stroke:#181818;stroke-width:0.5;"/><text fill="#000000" font-family="sans-serif" font-size="14" lengthAdjust="spacing" textLength="32" x="35.47" y="762.9951">User</text></g><!--entity Customer--><g id="elem_Customer"><ellipse cx="51.47" cy="182.5" fill="#F1F1F1" rx="8" ry="8" style="stroke:#181818;stroke-width:0.5;"/><path d="M51.47,190.5 L51.47,217.5 M38.47,198.5 L64.47,198.5 M51.47,217.5 L38.47,232.5 M51.47,217.5 L64.47,232.5 " fill="none" style="stroke:#181818;stroke-width:0.5;"/><text fill="#000000" font-family="sans-serif" font-size="14" lengthAdjust="spacing" textLength="68" x="17.47" y="246.9951">Customer</text></g><!--entity Seller--><g id="elem_Seller"><ellipse cx="51.47" cy="581.5" fill="#F1F1F1" rx="8" ry="8" style="stroke:#181818;stroke-width:0.5;"/><path d="M51.47,589.5 L51.47,616.5 M38.47,597.5 L64.47,597.5 M51.47,616.5 L38.47,631.5 M51.47,616.5 L64.47,631.5 " fill="none" style="stroke:#181818;stroke-width:0.5;"/><text fill="#000000" font-family="sans-serif" font-size="14" lengthAdjust="spacing" textLength="38" x="32.47" y="645.9951">Seller</text></g><!--link Customer to User--><g id="link_Customer_User"><path d="M46.13,250.05 C37.21,315.68 19.67,454.51 13.47,572.5 C11.7,606.23 6,615.56 13.47,648.5 C17.73,667.3 18.2736,671.1068 26.5936,686.1168 " fill="none" id="Customer-to-User" style="stroke:#181818;stroke-width:1.0;"/><polygon fill="none" points="35.32,701.86,31.8413,683.208,21.3458,689.0256,35.32,701.86" style="stroke:#181818;stroke-width:1.0;"/></g><!--link Seller to User--><g id="link_Seller_User"><path d="M51.47,649.08 C51.47,662.59 51.47,658.1 51.47,671.61 " fill="none" id="Seller-to-User" style="stroke:#181818;stroke-width:1.0;"/><polygon fill="none" points="51.47,689.61,57.47,671.61,45.47,671.61,51.47,689.61" style="stroke:#181818;stroke-width:1.0;"/></g><!--link User to LoginRegisterCustomer--><g id="link_User_LoginRegisterCustomer"><path d="M67.77,740.43 C77.24,747.5 89.94,755.93 102.47,761 C123.7,769.59 148.05,775.27 170.07,779 " fill="none" id="User-LoginRegisterCustomer" style="stroke:#181818;stroke-width:1.0;"/></g><!--link User to LogoutCustomer--><g id="link_User_LogoutCustomer"><path d="M67.49,766.24 C75.6,782.28 87.14,799.76 102.47,811 C119.81,823.7 141.51,831.42 162.32,836.1 " fill="none" id="User-LogoutCustomer" style="stroke:#181818;stroke-width:1.0;"/></g><!--link User to EditProfile--><g id="link_User_EditProfile"><path d="M67.76,728 C87.51,728 123.36,728 156.86,728 " fill="none" id="User-EditProfile" style="stroke:#181818;stroke-width:1.0;"/></g><!--reverse link EditProfile to UpdateName--><g id="link_EditProfile_UpdateName"><path d="M303.9111,746.914 C312.7311,751.264 315.71,754.1 322.47,761 C329.75,768.44 323.76,775.04 330.47,783 C355.87,813.14 371.11,811.78 407.47,827 C424.68,834.21 443.89,840.39 461.84,845.43 " fill="none" id="EditProfile-backto-UpdateName" style="stroke:#181818;stroke-width:1.0;"/><polygon fill="#181818" points="298.53,744.26,304.8324,751.8284,303.0143,746.4716,308.371,744.6535,298.53,744.26" style="stroke:#181818;stroke-width:1.0;"/><text fill="#000000" font-family="sans-serif" font-size="13" lengthAdjust="spacing" textLength="60" x="334.97" y="779.0669">&#171;extend&#187;</text></g><!--reverse link EditProfile to UpdateProfilePicture--><g id="link_EditProfile_UpdateProfilePicture"><path d="M307.9014,743.9769 C351.6914,753.9069 403.96,765.76 450.35,776.28 " fill="none" id="EditProfile-backto-UpdateProfilePicture" style="stroke:#181818;stroke-width:1.0;"/><polygon fill="#181818" points="302.05,742.65,309.9426,748.5413,306.9262,743.7557,311.7118,740.7394,302.05,742.65" style="stroke:#181818;stroke-width:1.0;"/><text fill="#000000" font-family="sans-serif" font-size="13" lengthAdjust="spacing" textLength="60" x="334.97" y="746.0669">&#171;extend&#187;</text></g><!--reverse link EditProfile to UpdateContactInfo--><g id="link_EditProfile_UpdateContactInfo"><path d="M322.22,728 C355.46,728 388.64,728 424.23,728 " fill="none" id="EditProfile-backto-UpdateContactInfo" style="stroke:#181818;stroke-width:1.0;"/><polygon fill="#181818" points="316.22,728,325.22,732,321.22,728,325.22,724,316.22,728" style="stroke:#181818;stroke-width:1.0;"/><text fill="#000000" font-family="sans-serif" font-size="13" lengthAdjust="spacing" textLength="60" x="334.97" y="724.0669">&#171;extend&#187;</text></g><!--link Customer to BrowseShopsList--><g id="link_Customer_BrowseShopsList"><path d="M67.72,174 C75.82,158.42 87.29,141.59 102.47,131 C118.12,120.08 137.18,113.37 155.93,109.3 " fill="none" id="Customer-BrowseShopsList" style="stroke:#181818;stroke-width:1.0;"/></g><!--link Customer to BrowseShopsMap--><g id="link_Customer_BrowseShopsMap"><path d="M85.73,192.3 C91.2,189.57 96.9,187.02 102.47,185 C121.85,177.98 143.52,172.6 163.65,168.56 " fill="none" id="Customer-BrowseShopsMap" style="stroke:#181818;stroke-width:1.0;"/></g><!--reverse link BrowseShopsList to FilterShops--><g id="link_BrowseShopsList_FilterShops"><path d="M309.0498,116.5462 C361.3498,125.7162 427.67,137.33 476.12,145.83 " fill="none" id="BrowseShopsList-backto-FilterShops" style="stroke:#181818;stroke-width:1.0;"/><polygon fill="#181818" points="303.14,115.51,311.314,121.0042,308.0649,116.3735,312.6956,113.1244,303.14,115.51" style="stroke:#181818;stroke-width:1.0;"/><text fill="#000000" font-family="sans-serif" font-size="13" lengthAdjust="spacing" textLength="67" x="331.47" y="117.0669">&#171;extends&#187;</text></g><!--reverse link BrowseShopsMap to FilterShops--><g id="link_BrowseShopsMap_FilterShops"><path d="M328.4197,157.0586 C373.3797,156.5986 421.73,156.1 463.32,155.67 " fill="none" id="BrowseShopsMap-backto-FilterShops" style="stroke:#181818;stroke-width:1.0;"/><polygon fill="#181818" points="322.42,157.12,331.4605,161.0277,327.4197,157.0688,331.3786,153.0281,322.42,157.12" style="stroke:#181818;stroke-width:1.0;"/><text fill="#000000" font-family="sans-serif" font-size="13" lengthAdjust="spacing" textLength="67" x="331.47" y="153.0669">&#171;extends&#187;</text></g><!--reverse link FilterShops to FilterByCategory--><g id="link_FilterShops_FilterByCategory"><path d="M589.465,165.0362 C642.785,174.1062 719.82,187.22 781.96,197.79 " fill="none" id="FilterShops-backto-FilterByCategory" style="stroke:#181818;stroke-width:1.0;"/><polygon fill="#181818" points="583.55,164.03,591.7518,169.4826,588.4792,164.8685,593.0933,161.5959,583.55,164.03" style="stroke:#181818;stroke-width:1.0;"/><text fill="#000000" font-family="sans-serif" font-size="13" lengthAdjust="spacing" textLength="67" x="684.47" y="178.0669">&#171;extends&#187;</text></g><!--reverse link FilterShops to FilterByDistance--><g id="link_FilterShops_FilterByDistance"><path d="M601.86,155 C656.41,155 728.33,155 786.39,155 " fill="none" id="FilterShops-backto-FilterByDistance" style="stroke:#181818;stroke-width:1.0;"/><polygon fill="#181818" points="595.86,155,604.86,159,600.86,155,604.86,151,595.86,155" style="stroke:#181818;stroke-width:1.0;"/><text fill="#000000" font-family="sans-serif" font-size="13" lengthAdjust="spacing" textLength="67" x="684.47" y="151.0669">&#171;extends&#187;</text></g><!--reverse link FilterShops to FilterByRating--><g id="link_FilterShops_FilterByRating"><path d="M591.3416,145.7364 C651.6716,136.5464 742.32,122.75 804.82,113.23 " fill="none" id="FilterShops-backto-FilterByRating" style="stroke:#181818;stroke-width:1.0;"/><polygon fill="#181818" points="585.41,146.64,594.9097,149.2391,590.353,145.887,593.705,141.3303,585.41,146.64" style="stroke:#181818;stroke-width:1.0;"/><text fill="#000000" font-family="sans-serif" font-size="13" lengthAdjust="spacing" textLength="67" x="684.47" y="118.0669">&#171;extends&#187;</text></g><!--link Customer to ViewShopDetails--><g id="link_Customer_ViewShopDetails"><path d="M85.61,212 C104.87,212 130.05,212 154.26,212 " fill="none" id="Customer-ViewShopDetails" style="stroke:#181818;stroke-width:1.0;"/></g><!--link Customer to RateShop--><g id="link_Customer_RateShop"><path d="M85.6,230.57 C91.14,233.28 96.89,235.87 102.47,238 C123.73,246.12 147.64,252.92 169.26,258.24 " fill="none" id="Customer-RateShop" style="stroke:#181818;stroke-width:1.0;"/></g><!--reverse link RateShop to WriteReview--><g id="link_RateShop_WriteReview"><path d="M322.22,272 C362.87,272 406.39,272 447.37,272 " fill="none" id="RateShop-backto-WriteReview" style="stroke:#181818;stroke-width:1.0;"/><polygon fill="#181818" points="316.22,272,325.22,276,321.22,272,325.22,268,316.22,272" style="stroke:#181818;stroke-width:1.0;"/><text fill="#000000" font-family="sans-serif" font-size="13" lengthAdjust="spacing" textLength="67" x="331.47" y="268.0669">&#171;extends&#187;</text></g><!--link Seller to ManageShops--><g id="link_Seller_ManageShops"><path d="M70.68,603.34 C97.08,592.23 146.97,571.24 184.96,555.25 " fill="none" id="Seller-ManageShops" style="stroke:#181818;stroke-width:1.0;"/></g><!--reverse link ManageShops to UpdateLocation--><g id="link_ManageShops_UpdateLocation"><path d="M311.9068,551.1371 C357.6968,561.6871 411.9,574.16 458.06,584.79 " fill="none" id="ManageShops-backto-UpdateLocation" style="stroke:#181818;stroke-width:1.0;"/><polygon fill="#181818" points="306.06,549.79,313.9322,555.7085,310.9324,550.9126,315.7283,547.9128,306.06,549.79" style="stroke:#181818;stroke-width:1.0;"/><text fill="#000000" font-family="sans-serif" font-size="13" lengthAdjust="spacing" textLength="60" x="334.97" y="552.0669">&#171;extend&#187;</text></g><!--reverse link ManageShops to UpdateOpeningHours--><g id="link_ManageShops_UpdateOpeningHours"><path d="M328.81,534 C357.57,534 384.14,534 414.74,534 " fill="none" id="ManageShops-backto-UpdateOpeningHours" style="stroke:#181818;stroke-width:1.0;"/><polygon fill="#181818" points="322.81,534,331.81,538,327.81,534,331.81,530,322.81,534" style="stroke:#181818;stroke-width:1.0;"/><text fill="#000000" font-family="sans-serif" font-size="13" lengthAdjust="spacing" textLength="60" x="334.97" y="530.0669">&#171;extend&#187;</text></g><!--reverse link ManageShops to ManageShopProducts--><g id="link_ManageShops_ManageShopProducts"><path d="M312.2815,517.0334 C354.8915,507.3734 403.88,496.26 448.41,486.16 " fill="none" id="ManageShops-backto-ManageShopProducts" style="stroke:#181818;stroke-width:1.0;"/><polygon fill="#181818" points="306.43,518.36,316.0917,520.2711,311.3063,517.2545,314.3229,512.4691,306.43,518.36" style="stroke:#181818;stroke-width:1.0;"/><text fill="#000000" font-family="sans-serif" font-size="13" lengthAdjust="spacing" textLength="60" x="334.97" y="496.0669">&#171;extend&#187;</text></g><!--reverse link ManageShops to ManageProductCategories--><g id="link_ManageShops_ManageProductCategories"><path d="M277.9396,506.5831 C311.4296,484.6531 358.64,455.9 407.47,435 C420.33,429.49 434.33,424.55 448.09,420.24 " fill="none" id="ManageShops-backto-ManageProductCategories" style="stroke:#181818;stroke-width:1.0;"/><polygon fill="#181818" points="272.92,509.87,282.6406,508.286,277.103,507.1309,278.2581,501.5932,272.92,509.87" style="stroke:#181818;stroke-width:1.0;"/><text fill="#000000" font-family="sans-serif" font-size="13" lengthAdjust="spacing" textLength="60" x="334.97" y="436.0669">&#171;extend&#187;</text></g><!--SRC=[bLLDRzim3BtxLn3PEHXssAKe0gpkYXLejo95jxDgCwuGM_8aULsmzRzFdxQis8cNIyn7Fefwf2IvfwmbWZJ0U8aIM_ZmCPCzA0ZRUp12dqcnhmJlM9dpcWjuTsD_MOqx1Og3eDMBWf8AB1JbBCj8eNJOwacYM06HO3u2c7TIySOxWX6SZrZNtkK-ioo4mFhlnYLodi7EpBg4LJN2wbFRhk1FbW54OCwRXZCJ33cHA7q4G2Unq02ixdX5sVijLbGglxw50jBNcR9ufqAq_knhlRmK-BFJWaYeJPxDnYreweNr-aJoA29Ac9JxkQGA7WJVqHhjyWRmzkpQFVkfBOb2-4eQHtQsCQUuKzImr0CjL2VYBDxZ7KlpvPmfFG5motOyIkPXWvvLD5B0EKQIw81ebnSw6_vMo4fVptHiifU5hBZeXFAMpcKObnEJUINug_v_VE6jdZ8zBrOVXrhGO2SezwHD6HeQ4xvJVBNXS8sAq5fQXa4DwB6ahXjQwz5rYzXm1rXxElJvOEQcx7IVSwrJnSKX8buT0ZX7ljOR9Qp04Ic0SwGjKPHL8ug3aXgtPWnDyJRKM5QFS_FxGr3Ds-8lhPLbMi3PioCxt6ZhoKRE-4tRh3_XsDcBr8-cJlfwnrdE42mZTW_XGvCc5fcZX1Rz1yMrQAgkM9jqG5D_wA9r32tLdhXBQLNf8VMlpOaZUayOgJ0w2Wxmsrfu6z_nWfZ7Cxh-0hJq5ltM8ZEoVU6Ta54UZrluRAveC-6uffiAyD9SoQcd62Vqpi4tgrXuzjUnliur4ho_YNlzZcxkwVYHJcSv4teiv1nl-UYTUCl-0G00]--></g></svg>