<?xml version="1.0" encoding="us-ascii" standalone="no"?><svg xmlns="http://www.w3.org/2000/svg" xmlns:xlink="http://www.w3.org/1999/xlink" contentStyleType="text/css" height="1079px" preserveAspectRatio="none" style="width:1307px;height:1079px;background:#FFFFFF;" version="1.1" viewBox="0 0 1307 1079" width="1307px" zoomAndPan="magnify"><defs/><g><!--cluster App--><g id="cluster_App"><rect fill="none" height="1066" rx="2.5" ry="2.5" style="stroke:#181818;stroke-width:1.0;" width="1126" x="175" y="7"/><text fill="#000000" font-family="sans-serif" font-size="18" font-weight="bold" lengthAdjust="spacing" textLength="40" x="718" y="25.708">App</text></g><!--cluster Common Use Cases--><g id="cluster_Common Use Cases"><rect fill="none" height="279" rx="2.5" ry="2.5" style="stroke:#181818;stroke-width:1.0;" width="653.5" x="203.5" y="770"/><text fill="#000000" font-family="sans-serif" font-size="18" font-weight="bold" lengthAdjust="spacing" textLength="196" x="432.25" y="788.708">Common Use Cases</text></g><!--cluster Customer Use Cases--><g id="cluster_Customer Use Cases"><rect fill="none" height="308" rx="2.5" ry="2.5" style="stroke:#181818;stroke-width:1.0;" width="1078" x="199" y="54"/><text fill="#000000" font-family="sans-serif" font-size="18" font-weight="bold" lengthAdjust="spacing" textLength="207" x="634.5" y="72.708">Customer Use Cases</text></g><!--cluster Seller Use Cases--><g id="cluster_Seller Use Cases"><rect fill="none" height="360" rx="2.5" ry="2.5" style="stroke:#181818;stroke-width:1.0;" width="669" x="199" y="386"/><text fill="#000000" font-family="sans-serif" font-size="18" font-weight="bold" lengthAdjust="spacing" textLength="168" x="449.5" y="404.708">Seller Use Cases</text></g><g id="elem_LoginRegisterCustomer"><ellipse cx="322.9374" cy="829.8875" fill="#F1F1F1" rx="92.4374" ry="20.8875" style="stroke:#181818;stroke-width:0.5;"/><text fill="#000000" font-family="sans-serif" font-size="18" lengthAdjust="spacing" textLength="128" x="255.9374" y="835.4915">Login/Register</text></g><g id="elem_LogoutCustomer"><ellipse cx="323.0719" cy="897.0546" fill="#F1F1F1" rx="100.0719" ry="31.0546" style="stroke:#181818;stroke-width:0.5;"/><text fill="#000000" font-family="sans-serif" font-size="18" font-style="italic" lengthAdjust="spacing" textLength="145" x="250.5719" y="895.8522">&#171;requires login&#187;</text><text fill="#000000" font-family="sans-serif" font-size="18" lengthAdjust="spacing" textLength="61" x="292.5719" y="916.8054">Logout</text></g><g id="elem_EditProfile"><ellipse cx="323.1748" cy="975.0959" fill="#F1F1F1" rx="103.6748" ry="32.0959" style="stroke:#181818;stroke-width:0.5;"/><text fill="#000000" font-family="sans-serif" font-size="18" font-style="italic" lengthAdjust="spacing" textLength="145" x="250.6748" y="972.3615">&#171;requires login&#187;</text><text fill="#000000" font-family="sans-serif" font-size="18" lengthAdjust="spacing" textLength="97" x="274.6748" y="993.3146">Edit Profile</text></g><g id="elem_UpdateName"><ellipse cx="696.6452" cy="1000.0989" fill="#F1F1F1" rx="107.1452" ry="33.0989" style="stroke:#181818;stroke-width:0.5;"/><text fill="#000000" font-family="sans-serif" font-size="18" font-style="italic" lengthAdjust="spacing" textLength="145" x="624.1452" y="995.9439">&#171;requires login&#187;</text><text fill="#000000" font-family="sans-serif" font-size="18" lengthAdjust="spacing" textLength="122" x="635.6452" y="1016.8971">Update Name</text></g><g id="elem_UpdateProfilePicture"><ellipse cx="696.2845" cy="920.1024" fill="#F1F1F1" rx="144.2845" ry="31.6024" style="stroke:#181818;stroke-width:0.5;"/><text fill="#000000" font-family="sans-serif" font-size="18" font-style="italic" lengthAdjust="spacing" textLength="145" x="614.1162" y="914.2878">&#171;requires login&#187;</text><text fill="#000000" font-family="sans-serif" font-size="18" lengthAdjust="spacing" textLength="195" x="589.1162" y="935.2409">Update Profile Picture</text></g><g id="elem_UpdateContactInfo"><ellipse cx="696.4019" cy="840.9819" fill="#F1F1F1" rx="134.4019" ry="31.9819" style="stroke:#181818;stroke-width:0.5;"/><text fill="#000000" font-family="sans-serif" font-size="18" font-style="italic" lengthAdjust="spacing" textLength="145" x="614.584" y="835.7568">&#171;requires login&#187;</text><text fill="#000000" font-family="sans-serif" font-size="18" lengthAdjust="spacing" textLength="178" x="598.084" y="856.7099">Update Contact Info</text></g><g id="elem_BrowseShopsList"><ellipse cx="322.9757" cy="116.8951" fill="#F1F1F1" rx="104.9757" ry="23.3951" style="stroke:#181818;stroke-width:0.5;"/><text fill="#000000" font-family="sans-serif" font-size="18" lengthAdjust="spacing" textLength="160" x="239.9757" y="122.4991">Browse Shops List</text></g><g id="elem_BrowseShopsMap"><ellipse cx="322.8441" cy="179.9688" fill="#F1F1F1" rx="107.8441" ry="23.9688" style="stroke:#181818;stroke-width:0.5;"/><text fill="#000000" font-family="sans-serif" font-size="18" lengthAdjust="spacing" textLength="167" x="236.3441" y="185.5728">Browse Shops Map</text></g><g id="elem_ViewShopDetails"><ellipse cx="322.9757" cy="242.8951" fill="#F1F1F1" rx="104.9757" ry="23.3951" style="stroke:#181818;stroke-width:0.5;"/><text fill="#000000" font-family="sans-serif" font-size="18" lengthAdjust="spacing" textLength="160" x="239.9757" y="248.4991">View Shop Details</text></g><g id="elem_FilterShops"><ellipse cx="696.3396" cy="177.1679" fill="#F1F1F1" rx="83.8396" ry="19.1679" style="stroke:#181818;stroke-width:0.5;"/><text fill="#000000" font-family="sans-serif" font-size="18" lengthAdjust="spacing" textLength="104" x="641.3396" y="182.7719">Filter Shops</text></g><g id="elem_FilterByCategory"><ellipse cx="1123.7362" cy="244.9472" fill="#F1F1F1" rx="137.7362" ry="29.9472" style="stroke:#181818;stroke-width:0.5;"/><text fill="#000000" font-family="sans-serif" font-size="18" lengthAdjust="spacing" textLength="236" x="1003.4712" y="250.251">Filter by Product Category</text></g><g id="elem_FilterByDistance"><ellipse cx="1123.4514" cy="176.9903" fill="#F1F1F1" rx="102.9514" ry="22.9903" style="stroke:#181818;stroke-width:0.5;"/><text fill="#000000" font-family="sans-serif" font-size="18" lengthAdjust="spacing" textLength="155" x="1042.9514" y="182.5943">Filter by Distance</text></g><g id="elem_FilterByRating"><ellipse cx="1123.3563" cy="117.0713" fill="#F1F1F1" rx="95.8563" ry="21.5713" style="stroke:#181818;stroke-width:0.5;"/><text fill="#000000" font-family="sans-serif" font-size="18" lengthAdjust="spacing" textLength="137" x="1051.8563" y="122.6753">Filter by Rating</text></g><g id="elem_RateShop"><ellipse cx="322.9635" cy="313.8903" fill="#F1F1F1" rx="102.9635" ry="31.8903" style="stroke:#181818;stroke-width:0.5;"/><text fill="#000000" font-family="sans-serif" font-size="18" font-style="italic" lengthAdjust="spacing" textLength="145" x="250.4635" y="311.4533">&#171;requires login&#187;</text><text fill="#000000" font-family="sans-serif" font-size="18" lengthAdjust="spacing" textLength="91" x="277.4635" y="332.4064">Rate Shop</text></g><g id="elem_WriteReview"><ellipse cx="696.3016" cy="313.1441" fill="#F1F1F1" rx="107.3016" ry="33.1441" style="stroke:#181818;stroke-width:0.5;"/><text fill="#000000" font-family="sans-serif" font-size="18" font-style="italic" lengthAdjust="spacing" textLength="145" x="623.8016" y="308.9262">&#171;requires login&#187;</text><text fill="#000000" font-family="sans-serif" font-size="18" lengthAdjust="spacing" textLength="123" x="634.8016" y="329.8793">Write Review</text></g><g id="elem_ManageShops"><ellipse cx="322.9409" cy="616.8288" fill="#F1F1F1" rx="107.9409" ry="33.3288" style="stroke:#181818;stroke-width:0.5;"/><text fill="#000000" font-family="sans-serif" font-size="18" font-style="italic" lengthAdjust="spacing" textLength="145" x="250.4409" y="612.3547">&#171;requires login&#187;</text><text fill="#000000" font-family="sans-serif" font-size="18" lengthAdjust="spacing" textLength="127" x="259.4409" y="633.3078">Manage Shops</text></g><g id="elem_UpdateLocation"><ellipse cx="696.6149" cy="697.1174" fill="#F1F1F1" rx="115.1149" ry="33.1174" style="stroke:#181818;stroke-width:0.5;"/><text fill="#000000" font-family="sans-serif" font-size="18" font-style="italic" lengthAdjust="spacing" textLength="145" x="621.3649" y="692.2448">&#171;requires login&#187;</text><text fill="#000000" font-family="sans-serif" font-size="18" lengthAdjust="spacing" textLength="144" x="621.8649" y="713.198">Update Location</text></g><g id="elem_UpdateOpeningHours"><ellipse cx="696.5785" cy="617.2157" fill="#F1F1F1" rx="146.5785" ry="31.7157" style="stroke:#181818;stroke-width:0.5;"/><text fill="#000000" font-family="sans-serif" font-size="18" font-style="italic" lengthAdjust="spacing" textLength="145" x="614.5763" y="611.0973">&#171;requires login&#187;</text><text fill="#000000" font-family="sans-serif" font-size="18" lengthAdjust="spacing" textLength="202" x="586.0763" y="632.0504">Update Opening Hours</text></g><g id="elem_ManageShopProducts"><ellipse cx="696.3957" cy="539.1791" fill="#F1F1F1" rx="146.3957" ry="31.6791" style="stroke:#181818;stroke-width:0.5;"/><text fill="#000000" font-family="sans-serif" font-size="18" font-style="italic" lengthAdjust="spacing" textLength="145" x="614.345" y="533.1121">&#171;requires login&#187;</text><text fill="#000000" font-family="sans-serif" font-size="18" lengthAdjust="spacing" textLength="201" x="586.345" y="554.0652">Manage Shop Products</text></g><g id="elem_ManageProductCategories"><ellipse cx="696.4217" cy="458.9843" fill="#F1F1F1" rx="155.4217" ry="33.4843" style="stroke:#181818;stroke-width:0.5;"/><text fill="#000000" font-family="sans-serif" font-size="18" font-style="italic" lengthAdjust="spacing" textLength="145" x="616.1551" y="450.5225">&#171;requires login&#187;</text><text fill="#000000" font-family="sans-serif" font-size="18" lengthAdjust="spacing" textLength="244" x="566.6551" y="471.4756">Manage Product Categories</text></g><!--entity User--><g id="elem_User"><ellipse cx="26.5" cy="798" fill="#F1F1F1" rx="8" ry="8" style="stroke:#181818;stroke-width:0.5;"/><path d="M26.5,806 L26.5,833 M13.5,814 L39.5,814 M26.5,833 L13.5,848 M26.5,833 L39.5,848 " fill="none" style="stroke:#181818;stroke-width:0.5;"/><text fill="#000000" font-family="sans-serif" font-size="18" lengthAdjust="spacing" textLength="41" x="6" y="866.208">User</text></g><!--entity Customer--><g id="elem_Customer"><ellipse cx="107" cy="211" fill="#F1F1F1" rx="8" ry="8" style="stroke:#181818;stroke-width:0.5;"/><path d="M107,219 L107,246 M94,227 L120,227 M107,246 L94,261 M107,246 L120,261 " fill="none" style="stroke:#181818;stroke-width:0.5;"/><text fill="#000000" font-family="sans-serif" font-size="18" lengthAdjust="spacing" textLength="86" x="64" y="279.208">Customer</text></g><!--entity Seller--><g id="elem_Seller"><ellipse cx="107" cy="657" fill="#F1F1F1" rx="8" ry="8" style="stroke:#181818;stroke-width:0.5;"/><path d="M107,665 L107,692 M94,673 L120,673 M107,692 L94,707 M107,692 L120,707 " fill="none" style="stroke:#181818;stroke-width:0.5;"/><text fill="#000000" font-family="sans-serif" font-size="18" lengthAdjust="spacing" textLength="51" x="81.5" y="725.208">Seller</text></g><!--reverse link User to Customer--><g id="link_User_Customer"><path d="M35.3451,771.3487 C49.7351,663.7087 86.22,390.87 100.58,283.54 " fill="none" id="User-backto-Customer" style="stroke:#181818;stroke-width:1.0;"/><polygon fill="none" points="32.96,789.19,41.2922,772.1438,29.398,770.5537,32.96,789.19" style="stroke:#181818;stroke-width:1.0;"/></g><!--reverse link User to Seller--><g id="link_User_Seller"><path d="M55.863,779.0515 C66.893,759.2315 71.97,750.13 83.45,729.5 " fill="none" id="User-backto-Seller" style="stroke:#181818;stroke-width:1.0;"/><polygon fill="none" points="47.11,794.78,61.1058,781.9692,50.6202,776.1339,47.11,794.78" style="stroke:#181818;stroke-width:1.0;"/></g><!--link User to LoginRegisterCustomer--><g id="link_User_LoginRegisterCustomer"><path d="M47.28,830 C84.16,830 165.56,830 230.23,830 " fill="none" id="User-LoginRegisterCustomer" style="stroke:#181818;stroke-width:1.0;"/></g><!--link User to LogoutCustomer--><g id="link_User_LogoutCustomer"><path d="M47.28,834.5 C86.42,843.4 175.69,863.71 241.9,878.78 " fill="none" id="User-LogoutCustomer" style="stroke:#181818;stroke-width:1.0;"/></g><!--link User to EditProfile--><g id="link_User_EditProfile"><path d="M47.01,848.94 C72.5,872.63 119.5,912.77 167,935 C188.02,944.84 211.81,952.51 234.34,958.39 " fill="none" id="User-EditProfile" style="stroke:#181818;stroke-width:1.0;"/></g><!--reverse link EditProfile to UpdateName--><g id="link_EditProfile_UpdateName"><path d="M430.5165,982.1723 C482.3065,985.6523 539.39,989.49 591.65,993.01 " fill="none" id="EditProfile-backto-UpdateName" style="stroke:#181818;stroke-width:1.0;"/><polygon fill="#181818" points="424.53,981.77,433.2416,986.3644,429.5188,982.1052,433.7779,978.3824,424.53,981.77" style="stroke:#181818;stroke-width:1.0;"/><text fill="#000000" font-family="sans-serif" font-size="18" lengthAdjust="spacing" textLength="84" x="444" y="978.708">&#171;extend&#187;</text></g><!--reverse link EditProfile to UpdateProfilePicture--><g id="link_EditProfile_UpdateProfilePicture"><path d="M422.7253,960.3811 C471.0753,953.2211 524.82,945.27 576.54,937.61 " fill="none" id="EditProfile-backto-UpdateProfilePicture" style="stroke:#181818;stroke-width:1.0;"/><polygon fill="#181818" points="416.79,961.26,426.2789,963.8984,421.7361,960.5276,425.107,955.9847,416.79,961.26" style="stroke:#181818;stroke-width:1.0;"/><text fill="#000000" font-family="sans-serif" font-size="18" lengthAdjust="spacing" textLength="84" x="444" y="939.708">&#171;extend&#187;</text></g><!--reverse link EditProfile to UpdateContactInfo--><g id="link_EditProfile_UpdateContactInfo"><path d="M407.0726,951.4409 C417.6926,946.3609 422.45,942.69 431,935 C436.91,929.68 433.09,924.31 439,919 C476.57,885.25 528.37,866.1 575.58,855.23 " fill="none" id="EditProfile-backto-UpdateContactInfo" style="stroke:#181818;stroke-width:1.0;"/><polygon fill="#181818" points="401.66,954.03,411.505,953.7548,406.1705,951.8724,408.0529,946.5379,401.66,954.03" style="stroke:#181818;stroke-width:1.0;"/><text fill="#000000" font-family="sans-serif" font-size="18" lengthAdjust="spacing" textLength="84" x="444" y="865.708">&#171;extend&#187;</text></g><!--link Customer to BrowseShopsList--><g id="link_Customer_BrowseShopsList"><path d="M124.05,202.29 C133.69,182.98 147.85,161.27 167,148 C183.46,136.59 203.14,129.16 222.86,124.38 " fill="none" id="Customer-BrowseShopsList" style="stroke:#181818;stroke-width:1.0;"/></g><!--link Customer to BrowseShopsMap--><g id="link_Customer_BrowseShopsMap"><path d="M150.22,219.03 C155.76,216.41 161.44,213.99 167,212 C188.21,204.41 211.74,198.4 233.92,193.73 " fill="none" id="Customer-BrowseShopsMap" style="stroke:#181818;stroke-width:1.0;"/></g><!--reverse link BrowseShopsList to FilterShops--><g id="link_BrowseShopsList_FilterShops"><path d="M414.6833,131.6462 C480.9633,142.3462 565.97,156.08 627.52,166.02 " fill="none" id="BrowseShopsList-backto-FilterShops" style="stroke:#181818;stroke-width:1.0;"/><polygon fill="#181818" points="408.76,130.69,417.0075,136.0732,413.6961,131.4869,418.2825,128.1755,408.76,130.69" style="stroke:#181818;stroke-width:1.0;"/><text fill="#000000" font-family="sans-serif" font-size="18" lengthAdjust="spacing" textLength="92" x="440" y="132.708">&#171;extends&#187;</text></g><!--reverse link BrowseShopsMap to FilterShops--><g id="link_BrowseShopsMap_FilterShops"><path d="M436.9498,179.0911 C494.6198,178.6211 558.71,178.1 612.26,177.67 " fill="none" id="BrowseShopsMap-backto-FilterShops" style="stroke:#181818;stroke-width:1.0;"/><polygon fill="#181818" points="430.95,179.14,439.9823,183.0665,435.9498,179.0993,439.9171,175.0668,430.95,179.14" style="stroke:#181818;stroke-width:1.0;"/><text fill="#000000" font-family="sans-serif" font-size="18" lengthAdjust="spacing" textLength="92" x="440" y="174.708">&#171;extends&#187;</text></g><!--reverse link FilterShops to FilterByCategory--><g id="link_FilterShops_FilterByCategory"><path d="M771.7047,188.8775 C838.1147,199.4975 934.17,214.87 1012.11,227.34 " fill="none" id="FilterShops-backto-FilterByCategory" style="stroke:#181818;stroke-width:1.0;"/><polygon fill="#181818" points="765.78,187.93,774.0354,193.301,770.7173,188.7195,775.2987,185.4014,765.78,187.93" style="stroke:#181818;stroke-width:1.0;"/><text fill="#000000" font-family="sans-serif" font-size="18" lengthAdjust="spacing" textLength="92" x="885" y="202.708">&#171;extends&#187;</text></g><!--reverse link FilterShops to FilterByDistance--><g id="link_FilterShops_FilterByDistance"><path d="M786.71,177 C855.34,177 946.99,177 1020.36,177 " fill="none" id="FilterShops-backto-FilterByDistance" style="stroke:#181818;stroke-width:1.0;"/><polygon fill="#181818" points="780.71,177,789.71,181,785.71,177,789.71,173,780.71,177" style="stroke:#181818;stroke-width:1.0;"/><text fill="#000000" font-family="sans-serif" font-size="18" lengthAdjust="spacing" textLength="92" x="885" y="172.708">&#171;extends&#187;</text></g><!--reverse link FilterShops to FilterByRating--><g id="link_FilterShops_FilterByRating"><path d="M774.1012,166.1817 C849.5112,155.5417 962.85,139.54 1041.88,128.38 " fill="none" id="FilterShops-backto-FilterByRating" style="stroke:#181818;stroke-width:1.0;"/><polygon fill="#181818" points="768.16,167.02,777.6306,169.7234,773.111,166.3214,776.5129,161.8018,768.16,167.02" style="stroke:#181818;stroke-width:1.0;"/><text fill="#000000" font-family="sans-serif" font-size="18" lengthAdjust="spacing" textLength="92" x="885" y="134.708">&#171;extends&#187;</text></g><!--link Customer to ViewShopDetails--><g id="link_Customer_ViewShopDetails"><path d="M150.02,243 C169.62,243 193.9,243 217.98,243 " fill="none" id="Customer-ViewShopDetails" style="stroke:#181818;stroke-width:1.0;"/></g><!--link Customer to RateShop--><g id="link_Customer_RateShop"><path d="M150.32,266.71 C155.84,269.37 161.49,271.88 167,274 C189.43,282.65 214.4,290.02 237.63,295.99 " fill="none" id="Customer-RateShop" style="stroke:#181818;stroke-width:1.0;"/></g><!--reverse link RateShop to WriteReview--><g id="link_RateShop_WriteReview"><path d="M432.01,313.7134 C482.59,313.5734 537.66,313.42 588.86,313.29 " fill="none" id="RateShop-backto-WriteReview" style="stroke:#181818;stroke-width:1.0;"/><polygon fill="#181818" points="426.01,313.73,435.021,317.7051,431.01,313.7162,434.9989,309.7051,426.01,313.73" style="stroke:#181818;stroke-width:1.0;"/><text fill="#000000" font-family="sans-serif" font-size="18" lengthAdjust="spacing" textLength="92" x="440" y="309.708">&#171;extends&#187;</text></g><!--link Seller to ManageShops--><g id="link_Seller_ManageShops"><path d="M132.55,680.74 C160.76,671.25 208.39,655.22 248.83,641.62 " fill="none" id="Seller-ManageShops" style="stroke:#181818;stroke-width:1.0;"/></g><!--reverse link ManageShops to UpdateLocation--><g id="link_ManageShops_UpdateLocation"><path d="M417.7629,637.4051 C426.9129,639.3951 430.21,640.1 439,642 C493.65,653.8 554.86,666.93 603.78,677.4 " fill="none" id="ManageShops-backto-UpdateLocation" style="stroke:#181818;stroke-width:1.0;"/><polygon fill="#181818" points="411.9,636.13,419.8443,641.9513,416.7858,637.1926,421.5445,634.134,411.9,636.13" style="stroke:#181818;stroke-width:1.0;"/><text fill="#000000" font-family="sans-serif" font-size="18" lengthAdjust="spacing" textLength="84" x="444" y="637.708">&#171;extend&#187;</text></g><!--reverse link ManageShops to UpdateOpeningHours--><g id="link_ManageShops_UpdateOpeningHours"><path d="M437.45,617 C474.42,617 510.45,617 549.93,617 " fill="none" id="ManageShops-backto-UpdateOpeningHours" style="stroke:#181818;stroke-width:1.0;"/><polygon fill="#181818" points="431.45,617,440.45,621,436.45,617,440.45,613,431.45,617" style="stroke:#181818;stroke-width:1.0;"/><text fill="#000000" font-family="sans-serif" font-size="18" lengthAdjust="spacing" textLength="84" x="444" y="612.708">&#171;extend&#187;</text></g><!--reverse link ManageShops to ManageShopProducts--><g id="link_ManageShops_ManageShopProducts"><path d="M417.7459,596.5385 C426.9059,594.5685 430.21,593.86 439,592 C488.49,581.51 543.4,570.13 589.68,560.61 " fill="none" id="ManageShops-backto-ManageShopProducts" style="stroke:#181818;stroke-width:1.0;"/><polygon fill="#181818" points="411.88,597.8,421.5198,599.8183,416.7682,596.7487,419.8378,591.9971,411.88,597.8" style="stroke:#181818;stroke-width:1.0;"/><text fill="#000000" font-family="sans-serif" font-size="18" lengthAdjust="spacing" textLength="84" x="444" y="568.708">&#171;extend&#187;</text></g><!--reverse link ManageShops to ManageProductCategories--><g id="link_ManageShops_ManageProductCategories"><path d="M376.6177,583.898 C397.1077,571.358 416.4,560.06 439,548 C483.2,524.41 493.93,517.16 541,500 C557.16,494.11 574.56,488.66 591.65,483.8 " fill="none" id="ManageShops-backto-ManageProductCategories" style="stroke:#181818;stroke-width:1.0;"/><polygon fill="#181818" points="371.5,587.03,381.2645,585.7437,375.7647,584.42,377.0885,578.9202,371.5,587.03" style="stroke:#181818;stroke-width:1.0;"/><text fill="#000000" font-family="sans-serif" font-size="18" lengthAdjust="spacing" textLength="84" x="444" y="498.708">&#171;extend&#187;</text></g><!--SRC=[bLLDRzim3BtxLn3PkHXw630CGO7LRR01xLOaw7PMRSOLuaYU9A_BjlxtwTEM5JlnSedro4TIZvGaTvGrH90zbBWbRQrMdAaD_Orm-JwJdP7n4YKsSFak0WLXEmz6w1CfTfNWBIjpNdC1RrRsbzMuLQ0u25ezAoYfm49HphAC54gxBHubYWKG2UOZW7ah5TzxGrW4umRhsflSPvOPBYp_NbpqpZqKd4ncmgeQOV6nQHRm9yi08Z3d-prdfWx8YKJfFG1QYOK6O777AyhUhh6YKlaAB1IGBddAugqAtlepkC5oAV17goMHK9iuLrSkeQrTLpuTFFA80YRbtfPKmOFWMrgZJMy0lvxCtR4Vcv8eX2zaxyXkRPPZt35gIFL02zMAE8gtUCFSUBcUKJq3y9bjUHJCmmOzgsYaW3CC9D4EqIu_w6ZuIo4hVJtZlibUPhBYeXFAQpgNOLnEJEQru2_wV_FC6prbUbwiFWwreC5EKEv9ap8qD2Hye_XYtU465Q6rj0o36j1ZILqhMklHTKcikmFiUjprwM3cfcnrdtEjKyN58I9U7m8uHRxH6oMim04fW5EaDL6KLGEAWv8QrsOCJV7MrQoi7kVczxkWchV6drehoxI0Mq-ERDTsFJDZZPomcxPPUyAninUf7qsTzFKEevmXM4Pixjtx9eqacQA45lq7nRLehAvOctH0KtleeZNqBTMMk4jfLUaXTO_CgIDwJnYfC3eA3l3RcdaRt_62cESpklu2DFSM_TeWCx9zugsGKHoFM_Xih6WpuRYccmhmt5Z9gQSO1_J6tZQfc6-4Rb-ahpCD1Ezkuaw_evjxt7-WqrdEY1upESTRFdedNhD_]--></g></svg>