<?xml version="1.0" encoding="us-ascii" standalone="no"?><svg xmlns="http://www.w3.org/2000/svg" xmlns:xlink="http://www.w3.org/1999/xlink" contentStyleType="text/css" height="964px" preserveAspectRatio="none" style="width:1174px;height:964px;background:#FFFFFF;" version="1.1" viewBox="0 0 1174 964" width="1174px" zoomAndPan="magnify"><defs/><g><!--cluster App--><g id="cluster_App"><rect fill="none" height="951" rx="2.5" ry="2.5" style="stroke:#181818;stroke-width:1.0;" width="954" x="214" y="7"/><text fill="#000000" font-family="sans-serif" font-size="14" font-weight="bold" lengthAdjust="spacing" textLength="31" x="675.5" y="21.9951">App</text></g><!--cluster Common Use Cases--><g id="cluster_Common Use Cases"><rect fill="none" height="150" rx="2.5" ry="2.5" style="stroke:#181818;stroke-width:1.0;" width="177" x="251.5" y="784"/><text fill="#000000" font-family="sans-serif" font-size="14" font-weight="bold" lengthAdjust="spacing" textLength="157" x="261.5" y="798.9951">Common Use Cases</text></g><!--cluster Customer Use Cases--><g id="cluster_Customer Use Cases"><rect fill="none" height="324" rx="2.5" ry="2.5" style="stroke:#181818;stroke-width:1.0;" width="906" x="238" y="50"/><text fill="#000000" font-family="sans-serif" font-size="14" font-weight="bold" lengthAdjust="spacing" textLength="165" x="608.5" y="64.9951">Customer Use Cases</text></g><!--cluster Seller Use Cases--><g id="cluster_Seller Use Cases"><rect fill="none" height="362" rx="2.5" ry="2.5" style="stroke:#181818;stroke-width:1.0;" width="563" x="238" y="398"/><text fill="#000000" font-family="sans-serif" font-size="14" font-weight="bold" lengthAdjust="spacing" textLength="133" x="453" y="412.9951">Seller Use Cases</text></g><g id="elem_LoginRegisterCustomer"><ellipse cx="340.1868" cy="835.9374" fill="#F1F1F1" rx="72.6868" ry="16.9374" style="stroke:#181818;stroke-width:0.5;"/><text fill="#000000" font-family="sans-serif" font-size="14" lengthAdjust="spacing" textLength="100" x="287.1868" y="839.6849">Login/Register</text></g><g id="elem_LogoutCustomer"><ellipse cx="339.8836" cy="903.1478" fill="#F1F1F1" rx="45.8836" ry="14.6478" style="stroke:#181818;stroke-width:0.5;"/><text fill="#000000" font-family="sans-serif" font-size="14" lengthAdjust="spacing" textLength="48" x="312.8836" y="906.8954">Logout</text></g><g id="elem_BrowseShopsList"><ellipse cx="340.0656" cy="104.1131" fill="#F1F1F1" rx="83.5656" ry="19.1131" style="stroke:#181818;stroke-width:0.5;"/><text fill="#000000" font-family="sans-serif" font-size="14" lengthAdjust="spacing" textLength="127" x="276.1623" y="107.0974">Browse Shops List</text></g><g id="elem_BrowseShopsMap"><ellipse cx="340.1635" cy="178.1327" fill="#F1F1F1" rx="86.1635" ry="19.6327" style="stroke:#181818;stroke-width:0.5;"/><text fill="#000000" font-family="sans-serif" font-size="14" lengthAdjust="spacing" textLength="133" x="273.6635" y="180.9794">Browse Shops Map</text></g><g id="elem_ViewShopDetails"><ellipse cx="339.8658" cy="251.7732" fill="#F1F1F1" rx="81.8658" ry="18.7732" style="stroke:#181818;stroke-width:0.5;"/><text fill="#000000" font-family="sans-serif" font-size="14" lengthAdjust="spacing" textLength="123" x="277.3805" y="254.9463">View Shop Details</text></g><g id="elem_FilterShops"><ellipse cx="669.7655" cy="175.0531" fill="#F1F1F1" rx="65.7655" ry="15.5531" style="stroke:#181818;stroke-width:0.5;"/><text fill="#000000" font-family="sans-serif" font-size="14" lengthAdjust="spacing" textLength="81" x="626.2655" y="178.8007">Filter Shops</text></g><g id="elem_FilterByCategory"><ellipse cx="1021.9086" cy="252.0817" fill="#F1F1F1" rx="105.9086" ry="23.5817" style="stroke:#181818;stroke-width:0.5;"/><text fill="#000000" font-family="sans-serif" font-size="14" lengthAdjust="spacing" textLength="177" x="933.4086" y="254.9284">Filter by Product Category</text></g><g id="elem_FilterByDistance"><ellipse cx="1021.7839" cy="174.8568" fill="#F1F1F1" rx="79.7839" ry="18.3568" style="stroke:#181818;stroke-width:0.5;"/><text fill="#000000" font-family="sans-serif" font-size="14" lengthAdjust="spacing" textLength="118" x="961.0356" y="178.2613">Filter by Distance</text></g><g id="elem_FilterByRating"><ellipse cx="1022.0678" cy="104.0136" fill="#F1F1F1" rx="73.0678" ry="17.0136" style="stroke:#181818;stroke-width:0.5;"/><text fill="#000000" font-family="sans-serif" font-size="14" lengthAdjust="spacing" textLength="101" x="968.5678" y="107.7611">Filter by Rating</text></g><g id="elem_RateShop"><ellipse cx="340.2066" cy="332.0239" fill="#F1F1F1" rx="79.7066" ry="25.5239" style="stroke:#181818;stroke-width:0.5;"/><text fill="#000000" font-family="sans-serif" font-size="14" font-style="italic" lengthAdjust="spacing" textLength="111" x="284.7066" y="329.2728">&#171;requires login&#187;</text><text fill="#000000" font-family="sans-serif" font-size="14" lengthAdjust="spacing" textLength="72" x="304.2066" y="345.5697">Rate Shop</text></g><g id="elem_WriteReview"><ellipse cx="669.908" cy="323.1703" fill="#F1F1F1" rx="81.908" ry="26.1703" style="stroke:#181818;stroke-width:0.5;"/><text fill="#000000" font-family="sans-serif" font-size="14" font-style="italic" lengthAdjust="spacing" textLength="111" x="614.408" y="319.4967">&#171;requires login&#187;</text><text fill="#000000" font-family="sans-serif" font-size="14" lengthAdjust="spacing" textLength="88" x="625.908" y="335.7936">Write Review</text></g><g id="elem_ManageShops"><ellipse cx="339.9104" cy="630.9988" fill="#F1F1F1" rx="85.9104" ry="26.4988" style="stroke:#181818;stroke-width:0.5;"/><text fill="#000000" font-family="sans-serif" font-size="14" font-style="italic" lengthAdjust="spacing" textLength="111" x="283.4104" y="626.5979">&#171;requires login&#187;</text><text fill="#000000" font-family="sans-serif" font-size="14" lengthAdjust="spacing" textLength="103" x="287.4104" y="642.8948">Manage Shops</text></g><g id="elem_UpdateLocation"><ellipse cx="669.9335" cy="718.1136" fill="#F1F1F1" rx="90.9335" ry="26.1136" style="stroke:#181818;stroke-width:0.5;"/><text fill="#000000" font-family="sans-serif" font-size="14" font-style="italic" lengthAdjust="spacing" textLength="111" x="611.1835" y="713.7127">&#171;requires login&#187;</text><text fill="#000000" font-family="sans-serif" font-size="14" lengthAdjust="spacing" textLength="112" x="610.6835" y="730.0096">Update Location</text></g><g id="elem_UpdateContactInfo"><ellipse cx="670.0534" cy="630.8242" fill="#F1F1F1" rx="105.0534" ry="25.3242" style="stroke:#181818;stroke-width:0.5;"/><text fill="#000000" font-family="sans-serif" font-size="14" font-style="italic" lengthAdjust="spacing" textLength="111" x="607.3727" y="626.0038">&#171;requires login&#187;</text><text fill="#000000" font-family="sans-serif" font-size="14" lengthAdjust="spacing" textLength="137" x="594.3727" y="642.3007">Update Contact Info</text></g><g id="elem_UpdateOpeningHours"><ellipse cx="669.9713" cy="544.7943" fill="#F1F1F1" rx="114.4713" ry="25.2943" style="stroke:#181818;stroke-width:0.5;"/><text fill="#000000" font-family="sans-serif" font-size="14" font-style="italic" lengthAdjust="spacing" textLength="111" x="607.337" y="539.149">&#171;requires login&#187;</text><text fill="#000000" font-family="sans-serif" font-size="14" lengthAdjust="spacing" textLength="158" x="583.837" y="555.4459">Update Opening Hours</text></g><g id="elem_ManageShopProducts"><ellipse cx="670.0539" cy="458.9108" fill="#F1F1F1" rx="115.0539" ry="25.4108" style="stroke:#181818;stroke-width:0.5;"/><text fill="#000000" font-family="sans-serif" font-size="14" font-style="italic" lengthAdjust="spacing" textLength="111" x="607.536" y="453.1092">&#171;requires login&#187;</text><text fill="#000000" font-family="sans-serif" font-size="14" lengthAdjust="spacing" textLength="161" x="582.536" y="469.406">Manage Shop Products</text></g><!--entity User--><g id="elem_User"><ellipse cx="22" cy="748.5" fill="#F1F1F1" rx="8" ry="8" style="stroke:#181818;stroke-width:0.5;"/><path d="M22,756.5 L22,783.5 M9,764.5 L35,764.5 M22,783.5 L9,798.5 M22,783.5 L35,798.5 " fill="none" style="stroke:#181818;stroke-width:0.5;"/><text fill="#000000" font-family="sans-serif" font-size="14" lengthAdjust="spacing" textLength="32" x="6" y="812.9951">User</text></g><!--entity Customer--><g id="elem_Customer"><ellipse cx="133" cy="222.5" fill="#F1F1F1" rx="8" ry="8" style="stroke:#181818;stroke-width:0.5;"/><path d="M133,230.5 L133,257.5 M120,238.5 L146,238.5 M133,257.5 L120,272.5 M133,257.5 L146,272.5 " fill="none" style="stroke:#181818;stroke-width:0.5;"/><text fill="#000000" font-family="sans-serif" font-size="14" lengthAdjust="spacing" textLength="68" x="99" y="286.9951">Customer</text></g><!--entity Seller--><g id="elem_Seller"><ellipse cx="133" cy="663.5" fill="#F1F1F1" rx="8" ry="8" style="stroke:#181818;stroke-width:0.5;"/><path d="M133,671.5 L133,698.5 M120,679.5 L146,679.5 M133,698.5 L120,713.5 M133,698.5 L146,713.5 " fill="none" style="stroke:#181818;stroke-width:0.5;"/><text fill="#000000" font-family="sans-serif" font-size="14" lengthAdjust="spacing" textLength="38" x="114" y="727.9951">Seller</text></g><!--reverse link User to Customer--><g id="link_User_Customer"><path d="M34.5814,722.1242 C54.7114,624.9542 104,387.12 124.1,290.11 " fill="none" id="User-backto-Customer" style="stroke:#181818;stroke-width:1.0;"/><polygon fill="none" points="30.93,739.75,40.4567,723.3414,28.7061,720.9071,30.93,739.75" style="stroke:#181818;stroke-width:1.0;"/></g><!--reverse link User to Seller--><g id="link_User_Seller"><path d="M52.3533,755.1097 C72.1233,739.6897 92.49,723.81 113.7,707.27 " fill="none" id="User-backto-Seller" style="stroke:#181818;stroke-width:1.0;"/><polygon fill="none" points="38.16,766.18,56.0434,759.8408,48.6631,750.3786,38.16,766.18" style="stroke:#181818;stroke-width:1.0;"/></g><!--link User to LoginRegisterCustomer--><g id="link_User_LoginRegisterCustomer"><path d="M38.24,780.8 C81.7,788.77 207.88,811.93 282.27,825.59 " fill="none" id="User-LoginRegisterCustomer" style="stroke:#181818;stroke-width:1.0;"/></g><!--link User to LogoutCustomer--><g id="link_User_LogoutCustomer"><path d="M38.11,787.23 C68.75,805.59 140.79,846.97 206,871 C236.64,882.29 272.73,890.69 299.59,896.04 " fill="none" id="User-LogoutCustomer" style="stroke:#181818;stroke-width:1.0;"/></g><!--link Customer to BrowseShopsList--><g id="link_Customer_BrowseShopsList"><path d="M150.03,213.88 C162.07,189.66 180.82,159.49 206,141 C224.06,127.74 246.67,119.23 268.1,113.77 " fill="none" id="Customer-BrowseShopsList" style="stroke:#181818;stroke-width:1.0;"/></g><!--link Customer to BrowseShopsMap--><g id="link_Customer_BrowseShopsMap"><path d="M167.04,233.23 C179.06,226.89 192.91,220.12 206,215 C229.43,205.83 256.02,197.96 279.23,191.86 " fill="none" id="Customer-BrowseShopsMap" style="stroke:#181818;stroke-width:1.0;"/></g><!--reverse link BrowseShopsList to FilterShops--><g id="link_BrowseShopsList_FilterShops"><path d="M407.0242,118.2893 C470.2742,131.9793 562.67,151.98 620.94,164.6 " fill="none" id="BrowseShopsList-backto-FilterShops" style="stroke:#181818;stroke-width:1.0;"/><polygon fill="#181818" points="401.16,117.02,409.1101,122.8334,406.0468,118.0777,410.8025,115.0144,401.16,117.02" style="stroke:#181818;stroke-width:1.0;"/><text fill="#000000" font-family="sans-serif" font-size="13" lengthAdjust="spacing" textLength="67" x="457" y="125.0669">&#171;extends&#187;</text></g><!--reverse link BrowseShopsMap to FilterShops--><g id="link_BrowseShopsMap_FilterShops"><path d="M432.3197,177.1649 C487.8397,176.6549 553.13,176.06 604.05,175.59 " fill="none" id="BrowseShopsMap-backto-FilterShops" style="stroke:#181818;stroke-width:1.0;"/><polygon fill="#181818" points="426.32,177.22,435.3564,181.1372,431.3198,177.1741,435.2829,173.1375,426.32,177.22" style="stroke:#181818;stroke-width:1.0;"/><text fill="#000000" font-family="sans-serif" font-size="13" lengthAdjust="spacing" textLength="67" x="457" y="173.0669">&#171;extends&#187;</text></g><!--reverse link FilterShops to FilterByCategory--><g id="link_FilterShops_FilterByCategory"><path d="M724.7899,186.839 C783.3899,199.729 877.37,220.4 946.13,235.53 " fill="none" id="FilterShops-backto-FilterByCategory" style="stroke:#181818;stroke-width:1.0;"/><polygon fill="#181818" points="718.93,185.55,726.8605,191.3901,723.8133,186.6241,728.5792,183.5769,718.93,185.55" style="stroke:#181818;stroke-width:1.0;"/><text fill="#000000" font-family="sans-serif" font-size="13" lengthAdjust="spacing" textLength="67" x="818" y="205.0669">&#171;extends&#187;</text></g><!--reverse link FilterShops to FilterByDistance--><g id="link_FilterShops_FilterByDistance"><path d="M742.01,175 C800.23,175 879.76,175 941.93,175 " fill="none" id="FilterShops-backto-FilterByDistance" style="stroke:#181818;stroke-width:1.0;"/><polygon fill="#181818" points="736.01,175,745.01,179,741.01,175,745.01,171,736.01,175" style="stroke:#181818;stroke-width:1.0;"/><text fill="#000000" font-family="sans-serif" font-size="13" lengthAdjust="spacing" textLength="67" x="818" y="171.0669">&#171;extends&#187;</text></g><!--reverse link FilterShops to FilterByRating--><g id="link_FilterShops_FilterByRating"><path d="M726.2802,163.7871 C791.2002,150.6171 898.97,128.76 966.38,115.08 " fill="none" id="FilterShops-backto-FilterByRating" style="stroke:#181818;stroke-width:1.0;"/><polygon fill="#181818" points="720.4,164.98,730.0156,167.1108,725.3002,163.9859,728.4251,159.2705,720.4,164.98" style="stroke:#181818;stroke-width:1.0;"/><text fill="#000000" font-family="sans-serif" font-size="13" lengthAdjust="spacing" textLength="67" x="818" y="130.0669">&#171;extends&#187;</text></g><!--link Customer to ViewShopDetails--><g id="link_Customer_ViewShopDetails"><path d="M167.39,252 C191.9,252 226.27,252 257.82,252 " fill="none" id="Customer-ViewShopDetails" style="stroke:#181818;stroke-width:1.0;"/></g><!--link Customer to RateShop--><g id="link_Customer_RateShop"><path d="M167.23,269.87 C179.27,276.01 193.08,282.67 206,288 C230.17,297.98 257.49,307.33 281.06,314.83 " fill="none" id="Customer-RateShop" style="stroke:#181818;stroke-width:1.0;"/></g><!--reverse link RateShop to WriteReview--><g id="link_RateShop_WriteReview"><path d="M425.5578,329.6765 C476.5478,328.2865 536.81,326.63 588.23,325.22 " fill="none" id="RateShop-backto-WriteReview" style="stroke:#181818;stroke-width:1.0;"/><polygon fill="#181818" points="419.56,329.84,428.6657,333.5933,424.5581,329.7037,428.4477,325.5962,419.56,329.84" style="stroke:#181818;stroke-width:1.0;"/><text fill="#000000" font-family="sans-serif" font-size="13" lengthAdjust="spacing" textLength="67" x="457" y="323.0669">&#171;extends&#187;</text></g><!--link Seller to ManageShops--><g id="link_Seller_ManageShops"><path d="M152.19,687.5 C180.12,679.05 234.84,662.5 277.87,649.49 " fill="none" id="Seller-ManageShops" style="stroke:#181818;stroke-width:1.0;"/></g><!--reverse link ManageShops to UpdateLocation--><g id="link_ManageShops_UpdateLocation"><path d="M423.1988,652.8032 C480.1488,667.9032 545.24,685.17 602.65,700.4 " fill="none" id="ManageShops-backto-UpdateLocation" style="stroke:#181818;stroke-width:1.0;"/><polygon fill="none" points="405.8,648.19,421.6611,658.6028,424.7365,647.0036,405.8,648.19" style="stroke:#181818;stroke-width:1.0;"/></g><!--reverse link ManageShops to UpdateContactInfo--><g id="link_ManageShops_UpdateContactInfo"><path d="M444.32,631 C486.65,631 520.14,631 564.79,631 " fill="none" id="ManageShops-backto-UpdateContactInfo" style="stroke:#181818;stroke-width:1.0;"/><polygon fill="none" points="426.32,631,444.32,637,444.32,625,426.32,631" style="stroke:#181818;stroke-width:1.0;"/></g><!--reverse link ManageShops to UpdateOpeningHours--><g id="link_ManageShops_UpdateOpeningHours"><path d="M423.6014,609.3445 C478.0614,595.0645 538.29,579.27 595.06,564.39 " fill="none" id="ManageShops-backto-UpdateOpeningHours" style="stroke:#181818;stroke-width:1.0;"/><polygon fill="none" points="406.19,613.91,425.1232,615.1483,422.0796,603.5407,406.19,613.91" style="stroke:#181818;stroke-width:1.0;"/></g><!--reverse link ManageShops to ManageShopProducts--><g id="link_ManageShops_ManageShopProducts"><path d="M391.5919,596.8179 C433.1719,569.1879 489.62,533.71 555,502 C571.27,494.11 589.39,486.69 606.31,480.31 " fill="none" id="ManageShops-backto-ManageShopProducts" style="stroke:#181818;stroke-width:1.0;"/><polygon fill="none" points="376.6,606.78,394.9126,601.8152,388.2712,591.8206,376.6,606.78" style="stroke:#181818;stroke-width:1.0;"/></g><!--SRC=[bLN1Jjmm4BtdAqRXZ7glLaWb2BKIgDKYshD9JB38si5sIbSj_zxnsDxO9jbjkH2_UMyyyyRsccSXHwRP3XvO-znhDSckKOFIS7PDVzN07orO1LhqJnOweNbhXP9LnLgBjFhUS5q3C-0-8jXCngfT2CH53DxnOGWX_rbLJWkRF-VdCtc68idjp6G_SAW_ZMCDlwiA804RjTifwUg0XXbk0WDWChn50EeRrGlvOSjxOMoeWA2873OlLMgoaOsV1nhng50iSprJmaZL06zb1o5qh8TBhLxn_zsJ6h4Ut8mAyoY13ZiYkMLZgK0e5tmN_9NeSCKj4uCXXKCT6B2YhcinODz-4w9xWDRBr8SzVDEgcrgBlLhUAxrFX9Vx2Aw9hx1H9bkUYIAu9jeoAsIVIJnKr8YWTuoeRaL-R3QQlqnu2GmCRjuN5xdiXnQes_AVw1Kf2V3h9J6f3sF7Cx8qo9Mu6nl52mria9Uu3nznP_xBSjcPK6-UvOI056bufiz3MjXaJH97z1yIFwAbkb9loWDQnkCKAJ2F52FfbCggoalgdwFyYcPdu9P9rlFa9dWWTBLo1Wxg-x5pH-z6jSozi_vf9In29mzXID4eQV79XI_oKILf0kpGVytqTUJI-VzPJTeagG9EyCbSYItntfVsH7ZLfU0zJYpnr8SoaztFHcxQCKxYo35QskqoxtqdT7xUghy0]--></g></svg>